<svg xmlns="http://www.w3.org/2000/svg" version="1" width="411" height="362" viewBox="-0.75 -0.35 411.3 362.35"><path fill="#6c9bd2" d="M82 22q8-6 12-5t-3 7q-6 5-11 16t-7 24q-6 33 7 56 12 21-10 21-11 1-25-3-13-47 6-81 11-21 31-35"/><path fill="#5d86b6" d="M56 140l-8-2h-3q-8-29-3-55 2 33 14 57"/><path fill="#f9f1ab" d="M349 194l-7-25 6-13 29 8 14 15q-40-11-42 15"/><path fill="#d3cd91" d="M346 161l2-5 29 8 14 15-11-2-8-1q3-3-7-9-11-6-19-6"/><path fill="#6c9bd2" d="M376 135l11 2q7 1 8 6 0 7 3 14l3 10 2 1 3 3 2 6q-1 2-6 3l-6 2q-1 1-9-7l-10-10q-2-3-15-6l-13-3-4 5q-3 6-3 11 0 3 5 11 6 7 6 10l-5 5q-4 2-7 1-4-1-10-10l-6-12q-2-3-2-15l1-14q0-2-6-5l-9-6-4-1 3-47 16 20q12 13 18 16l18 7 16 3"/><path fill="#5d86b6" d="M331 189l-6-12q-2-3-2-15l1-14q0-2-6-5l-9-6-4-1 3-47 10 13q-4 3-5 13-1 11 4 15l5 3 5 5q5 8 3 23-1 14 6 25l5 7 4 2v5h-3l-1-1q-4-1-10-10M364 160l-15-4-1-2 3-2q2-1 12 1 11 1 14 3l12 11q9 10 11 10 4 1-4 5-1 1-9-7l-10-10q-2-2-13-5M374 140q11 2 13 6 3 7 9 14l5 5q-5-1-9-6l-7-10-15-6-9-3h13"/><path fill="#eeeeef" d="M347 194l5-1 8 10 1 2q0 2-2 2l-7-2-4-2-5-4q1-3 4-5"/><path fill="#c8c9ca" d="M357 206l-5-1-4-1-5-5 1-2q5 5 13 9"/><path fill="#eeeeef" d="M401 176q5-3 7 1l1 11-1 6q-2 0-12-14 0-2 5-4"/><path fill="#c8c9ca" d="M401 176l3 9 4 8h-1l-1 1-6-10-4-4 2-2 3-2M176 234l-2 10-6-3-7-4 3-3h12"/><path fill="#6c9bd2" d="M220 174l8 4 13 6q20 9 28 20 7 10 5 18-1 5-5 11 5 2 28 3 20 2 23 5 5 5 3 10-1 5-5 5-3 1-16-2l-17-3h-9q-5 0-5 2 18 6 30 15 9 6 11 10 1 2-1 5l-5 5q-9 5-15 0l-18-13-14-7q-4-1-7 1-4 2-4 6l12 16q8 12 7 15-1 4-6 7-6 4-10 1t-13-19l-11-19q-9-10-24-20l-15-8-11-2q-5-2-5-6t3-6q1-2 6-2h8q1-2 8-5l10-5q-5-2-15-2l-9 1 37-47"/><path fill="#5d86b6" d="M220 174l9 4 14 6q18 8 26 20l3 5q-19-17-39-10-13 4-33 21h-12l-5 1 37-47M177 246q-6-1-5-6 0-4 3-6 1-2 6-2h8q1-2 8-5-7 6-5 12 1 4 9 10l16 9 14 10 15 25q9 14 12 13l1 4 1 4q-5 2-9-1-3-2-13-18l-11-19q-9-10-23-19l-13-8-14-3M251 264q-1-6 5-7 4 0 11 3l18 11q15 10 17 9l-2 9q-3 3-8-1l-18-13-15-7h-4l-4 1-1-2 1-3M276 235q-6 8-17 11-10 3-21 1l17-5q7-2 15-9l3 1 3 1M277 252l-8 1-5-2q-1-2 4-4 7-3 21-3 18 0 31 5v5q0 2-2 2-3 1-16-2l-17-3-8 1"/><path fill="#eeeeef" d="M254 314q0-4 4-7 5-3 8 0t4 11v10q-16-12-16-14M299 287q0-4 3-7 4-3 7 0 4 3 7 12 3 8 1 9-2 0-9-6l-9-8M327 258l-9-4v-5q1-4 4-5 4 0 10 8 7 7 6 8t-11-2"/><path fill="#c8c9ca" d="M255 314v-3l2-3 5 8 4 9-8-6q-3-3-3-5M299 287v-3l2-3q7 6 11 16l-13-10M327 253q5 3 8 7l-17-6v-3-3l9 5"/><path fill="#f9f1ab" d="M277 248q13-3 35 5l-5 10q-2 6-1 9l-16-10-15-7-7-3 2-2q3-2 7-2"/><path fill="#d3cd91" d="M274 254l-4-2h-1l1-1 6-3q13-3 36 5l-2 4-23-5q-13-2-13 2"/><path fill="#f9f1ab" d="M272 269q12 5 21 15-9 1-16 5-10 4-11 11l-18-25q-1-4 1-7 2-5 7-5 6 1 16 6"/><path fill="#d3cd91" d="M256 263q6 1 16 6 12 5 21 15l-11 3q-8-11-14-16-9-7-18-6 2-2 6-2"/><path fill="#6c9bd2" d="M238 166q-7-4-15 6l-7 9-6 10-7 10-8 12q-14 14-42 17-16 1-32-4-15-4-26-13t-15-19q-4-11 2-21 10-19 37-36 21-14 36-17l55-17 28 63"/><path fill="#5d86b6" d="M238 166q-5-3-10 1l-11-6q-9-4-21-4-17 0-40 7-27 7-40 18-5 4-5 9t5 12l8 12 7 14q-13-2-24-8t-18-14q-8-8-10-17t3-17q10-19 37-36 21-14 36-17l55-17 28 63"/><path fill="#eeeeef" d="M125 244l-3 5-7-8q1-2 7-3 6-2 6 0 1 1-3 6"/><path fill="#c8c9ca" d="M125 244l-3 5-7-8q1-2 7-3 6-2 7 0l-4 6"/><path fill="#6c9bd2" d="M88 183q12-1 27 7 13 7 19 17 6 9-1 14-12 7-20 14l-5 5 2 4q6-6 10 0 3 3 3 6l-3 7-3 5q-2 1-3 6l-5 11-5 12v20l2 17-1 10q-2 4-5 6-4 2-9 0-6-1-8-6-1-4 1-16 3-14 2-16 0-7-3-12-2-2-10 7l-12 17q-4 10-7 13-3 5-6 5l-8-1q-5-1-4-7 0-7 2-11 2-6 6-10 6-4 11-10l8-13-13 3-9 4-15 18-5 5-7 4q-3 0-6-3l-3-6q-1-4 3-9l9-9 14-9 12-6q6-4 9-9l1-1q-10-6-10-19 0-11 5-19l8-11q5-6 11-18 6-14 21-16"/><path fill="#5d86b6" d="M87 184q11-2 25 5-10 8-20 19-11 12-18 23-17 30 1 40 4 1 11-2l5-3h2q1 1-3 4-3 4-9 5l-7 1H64q-14 1-21 5l-20 15q-13 11-17 19l-1-7q0-6 3-9l10-9q6-5 13-8l12-6q6-4 9-9l1-1q-10-6-10-19 0-11 5-19l8-11q5-6 11-18 6-14 20-15"/><path fill="#5d86b6" d="M66 280q2-1 2 2l-3 9q-2 5-10 15l-10 12-3 9-2 8q-4-2-4-7l2-12q2-5 6-9 6-4 11-10l8-13 1-2 2-2M83 294h-1l3-5q2-3 4-2 2 0 3 14 1 15-2 27-2 6-1 10v6q-4-2-6-6-1-4 1-16 3-14 2-16 0-7-3-12M103 245l5-5 2 4q5-5 9-2l-4 2-4 3q-2 3-5 4l-6 1 3-7"/><path fill="#6c9bd2" d="M176 90l15 3 3 7 6 14q7 21-5 22-11 1-20-3l-10-6q-5-5-13-9-10-5-17-5l-14 9q-12 9-15 16 0 8 4 17l7 12q3 2 3 9l-1 13v14q1 7-2 11-3 3-8 2-5-2-9-6-2-3-1-12v-13q-3-8-6-11-5-6-15-4-8 6-13 20l-3 10-3 7q-3 5-7 6-5 1-9-2-4-2-3-11l4-13 6-16 5-9h-6q-7 0-12 2t-11 11q-4 6-5 11-1 4-4 5-4 2-8-1-6-2-6-7-1-5 4-10l14-18 5-9q3-5 8-6l14-4q11-3 24-9l25-24 20-21 7-8 9-1q4 0 12 5l15 7 16 5"/><path fill="#5d86b6" d="M176 90l15 3 3 7 6 14q7 21-5 22h-9q6-6-4-17-13-13-46-31-7-3-22 10-10 9-20 22-11 13-29 18l-13 3-9 1q-7 1-20 17-13 17-16 28-4-3-4-6-1-4 4-8l14-18 5-9q3-5 8-6l14-4q11-3 24-9l25-24 20-21q4-5 8-7l10-1q4 0 11 4l14 7 16 5"/><path fill="#5d86b6" d="M50 162q3-1 9-10l2-3q1-1 1 3 1 3-8 25-9 21-6 23l-3 5-2 6q-4-2-3-11l4-13 6-16 5-9h-5M84 170l7-2q4-1 7 2 8 6 8 22v12q0 6 2 9h-4l-4-3q-2-3-1-12v-13l-4-10q-4-5-11-5"/><path fill="#f9f1ab" d="M34 165q4-2 13-3h9l-7 13q-7 14-8 22-3-8-8-12-6-5-12-2l5-8q5-8 8-10"/><path fill="#d3cd91" d="M39 192l-3-5q-1-2 5-11l11-14h4l-7 13q-7 14-8 22l-2-5"/><path fill="#f9f1ab" d="M66 188q7-16 11-18h9l6 3q3 2 8 14l-1 17q-11-7-23-6-8 1-16 6l6-16"/><path fill="#d3cd91" d="M92 182q-1-4-7-12l7 3q3 2 8 14l-1 17-6-3q2-11-1-19"/><path fill="#eeeeef" d="M6 182q3-3 7 1 3 3 2 8l-5 7-6 8q-3-6-3-12 0-8 5-12M43 204q3-6 8-4 4 3 4 9l-5 8-7 9q-2-6-2-13 0-6 2-9M104 209q0-4 6-4 5 1 6 4 1 4-2 10l-7 12-2-10q-2-6-1-12"/><path fill="#c8c9ca" d="M47 200q-5 15-4 26h-1q-2-6-1-12 0-7 2-10 2-4 4-4M103 209q0-2 2-3l3-1q-3 6-3 13l-1-4-1-5"/><path fill="#6c9bd2" d="M318 41l-5 25-6 31v12l2 11q1 6-2 14t-10 17l-54 22-13-11-13-9q-6-2-8-7-2-4-2-12-2-14-13-34l-18-28-14-21v-3l5 2 46 16V39l1-31q-1-5 1-5l4 4 18 27 17 25 8-23 9-24q2-5 3-4l2 5 7 27 6 26q3-5 14-16l11-13 3-1 1 5"/><path fill="#5d86b6" d="M301 64l-8 13-4-12 23-25-11 24M274 9l-4 29-4 27-5-2q-5-2-7-5l9-24 8-22q1-4 3-3M213 39l1-31 1-4 3 2q-2 0 4 35 6 38 4 41-1 2-5-2-5-3-8-8l-10-6-5-5 15 5V39M177 73l-15-22q-2-4 2-2-1 1 23 25l32 30q3 3 4 12l1 5 3 1 9 12 9 10 6 10 6 12-14 7-13-11-13-9q-6-2-8-7-2-4-2-12-2-14-13-33-4-9-17-28"/><path fill="#f9f1ab" d="M241 168q-2-4-1-7t6-5l10-3q5-2 8-6l4-6 6-4q3-1 6 2l4 6 6 3q9 2 9 7l1 10q0 9 2 14l2 14q0 7-2 13l-6 14q-5 6-9 3l-14-8-12-7q-6-4-6-7l-3-8-6-13-5-12"/><path fill="#d3cd91" d="M265 145l3-4q3-4 7-4l1 16-1 14q-1 3-6-5l-7-12 3-5M241 168q-2-4-1-7t4-4l7-2 7 26q4 16 7 19l19 15q9 9 3 8l-14-8-12-7q-6-4-6-7l-3-8-6-13-5-12"/><path fill="#fff" d="M237 145l-3-1-2-5-3-9-2-8q9 2 20 8 11 7 12 11-2 3-11 4h-11"/><path fill="#dbdcdc" d="M228 128l-1-5q6 0 17 6 13 6 15 11l-2 1q-3-4-12-8-10-5-17-5"/><path fill="#fff" d="M296 137l-4 2-6-1q0-4 5-11l10-10-1 9q-1 8-4 11"/><path fill="#dbdcdc" d="M301 123l-8 5-6 8q2-6 7-12l7-7v6"/><path fill="#943d12" d="M241 141l-2-7 1-8 3 2 4 2v11q-1 3-3 3-1 1-3-3"/><path fill="#752d01" d="M239 131l1-5 4 2 3 1 1 5-5-3h-4"/><path fill="#943d12" d="M288 133l3-5 3-4v9q-1 5-4 5l-1-1-1-4"/><path fill="#752d01" d="M294 129l-3 2-3 5v-3q2-5 6-9v5"/><path fill="#e63556" d="M280 120q0 3-2 5l-4 2q-3 0-5-2t-2-5l2-4q2-2 5-2l4 2 2 4"/><path fill="#c72b4a" d="M267 120l2-4q-1 4 2 7l5 3-2 1q-3 0-5-2t-2-5"/><path fill="#fff" d="M274 118v1l-2 1-1-1-1-1 1-2h3v2"/><path fill="#f9f1ab" d="M41 291l11-4 12-3q-6 10-18 22l-7 8q-3 4-3 8-2-5-6-9l-6-3 4-5 13-14"/><path fill="#d3cd91" d="M54 286l9-1-5 8-9 10q-12 12-13 19l-4-6 16-18q9-10 6-12"/><path fill="#f9f1ab" d="M67 306q10-10 16-13 5 9 3 21l-2 10-1 9q-7-5-17-6l-11 1q1-9 12-22"/><path fill="#d3cd91" d="M86 314l-2 10-1 9-8-4 6-16q3-10-1-18l3-2q5 9 3 21"/><path fill="#eeeeef" d="M11 303q3-3 6 1 4 3 3 8l-9 7q-8 6-9 5-2 0 2-9 4-10 7-12M46 327l4 3 1 4-6 11-6 8-2-8q-1-10 1-15 3-6 8-3M100 340q2 5-3 13l-4 6q-2 2-3 1l-3-10q-2-9-1-10 1-4 6-5 6-1 8 5"/><path fill="#c8c9ca" d="M11 303q2-2 4-1l-8 10q-4 5-5 10 0-6 3-11 3-6 6-8M37 338l1-8q2-4 5-4l-3 11-3 11v-10M86 340l4-4-1 11v10l-2-10-1-7"/><path fill="#0d131a" d="M375 134l2 1h4l9 1q5 2 5 7 1 9 6 21l1 2-3-1-4-11-2-11q0-3-4-5l-8-1-7-1-15-3q-11-3-16-6-7-4-19-15-11-12-16-20l1-3q5 8 16 20t17 15l17 6 16 4M95 16q4 1-4 10-15 17-18 45-3 27 8 47l-3 3q-12-23-8-52 3-29 20-46 5-5 2-5l-10 6Q64 35 53 56q-20 36-7 81l-4 1q-12-47 8-83 7-13 17-23l12-10q13-7 16-6M357 181q-5 3-6 8l-1-2q1-5 6-8 5-4 14-4t23 4v2q-25-8-36 0M331 192l-6-12-2-4-1-8 1-12v-8q0-2-7-5l-10-6 1-2 13 7q5 4 5 7v5q-1 20 1 23l1 3 7 11q4 6 8 8h1l1 2h-3q-5-1-10-9"/><path fill="#0d131a" d="M351 153l-5 8q-3 6-3 10l3 6 5 8 2 6v2h-3l1-3-3-5-4-7-3-6q0-5 3-11l5-8 3-3-1 3"/><path fill="#0d131a" d="M363 160l-15-3q-2 0-1-1l3-1 14 3q12 4 14 6l8 9 7 6 4 2 1 1q1 2-1 1-5-1-13-9l-7-9-14-5M377 144l8 3 3 5 1 2 7 7 8 6 4 5q2 2 1 5l-1 1-2-3v-3l-3-3-8-6q-6-4-7-7l-1-2-3-4-7-4-13-4-9-4-2-1h2l8 3 14 4M351 195q-1-1-4 1l-3 3q2 3 6 5l7 2 4-1-2-2-4-5-4-3m-4-2l5-1 4 4 5 6 2 4q-1 2-6 2l-8-2-7-5v-2q1-3 5-6"/><path fill="#0d131a" d="M402 177l-4 3 2 3 5 7 2 2 1-3v-7l-1-5q-1-2-5 0m3 15l-5-6-4-5q-2-1 0-3l4-2 5-2 4 2q2 8 1 15t-5 1M176 233l-2 2h-5l-5 1q-3 0 0 2l8 3 2 3-11-5-3-2q0-2 3-3l7-1h6M221 174l13 5 15 7 1 3-17-7-14-6 2-2M262 296l-10-13-7-9-1-4 2 1 12 16q10 13 10 17l1 3-1 2-2-3q1-2-4-10"/><path fill="#0d131a" d="M211 221q8 3 9 5h-2l-10-3-11 5q-6 3-9 7-3 2-2 0l1-2h-7l-5 1-1 3-1 4 2 2 2 2 5 1 5 1-1-2 4 2 15 9q14 9 22 19l4 5 4 8q12 21 16 25l3 1 2 2-6-1-8-9-8-16-5-9-4-6q-8-8-20-16l-16-10-13-2-4-3-1-4 1-4 2-3q3-3 8-3l7 1 10-7 5-2-14-1h-7l5-2 7-1 16 3M301 290h1l1 1h-6q-5-1-11-5l3-1q4 3 12 5M267 253l-4-2h4q14 4 29 13 12 7 15 11l2 4-1 3-2-2q3-4-16-15-17-10-27-12M311 255l6 1 4-1 1 1q-1 2-4 2l-8-1 1-2M321 240l3 5-3-1q-1-3-7-5l-15-1-17-1-15-3 2-2 5 2 6 1 23 1q14 1 18 4"/><path fill="#0d131a" d="M276 216q1 11-8 19-10 11-32 13h-3l3-1q16-4 24-9 13-8 13-23h1l2 1M259 320l-6-6 2-5q2-4 6-5 4 0 6 2 5 5 5 18l-1 4q-1 1-4-1l-8-7m10-4l-4-8q-1-2-3-1-3 0-5 2l-2 5 6 5 7 6 2 1v-2l-1-8M297 288l2-5q2-4 5-5 3-2 6 1l5 8q3 5 3 10v5l-5-2-10-7-6-5m4-5q-2 3-1 4l5 5 8 6 3 1v-1l-2-10-5-7-5-2-3 4M325 256l9 3h2l-1-2q-3-5-7-8l-6-4q-3 1-3 4v5l6 2m12 0q2 3 1 4 0 2-5 1l-9-3-6-3-1-4 1-5 2-2 2-1q3 0 7 4l8 9M280 249q-7 0-11 4l-2-1q2-4 11-5 14-2 33 4l3 2-1 1-5 9q-3 7-2 10l-2-2q0-4 3-10l4-8q-18-6-31-4M247 274q-1-6 3-9 2-3 6-2 6 0 16 5 12 6 22 15l1 2h-2l-17 5q-9 5-10 12l-1-2q1-7 11-12l15-5q-9-9-20-14-9-4-16-5-3 0-5 3l-1 4v5l-2-2M156 120l-21 9q-14 8-27 18l-1-4q13-10 26-17 12-6 20-7l3 1M233 164v1l1 1q-5 0-10 7l-9 13-9 15q-6 9-12 14-15 14-41 16-15 2-31-3l3-2q14 4 28 2 27-2 42-18l11-15 8-14 10-12q4-5 9-5M126 236l4 1-1 3-7 9-1-3 6-7h1l-2-1q-4 0-7 2l-3 2h-4q5-5 14-6M50 334l6-7 2 1-5 7-4 3 1-4M82 294h1v-1q3 5 4 11l-1 14-2 16q0 5 2 7v3l-3-3q-2-2-2-6l1-8 2-9q2-11 1-17l-3-7M16 315l4-1 4-4 2 2-6 4q-5 3-9 3l5-4M33 282l-13 8-10 9-3 4-1 4-2 5v-6q0-3 3-7l9-9q7-6 14-9l12-6q5-3 9-9l2 1q-3 6-9 10l-11 5"/><path fill="#0d131a" d="M120 244q-2-2-5-2-2 0-5 3l-1-2q3-3 7-3t6 3q4 5 1 11-2 6-7 10-2 7-8 18-3 6-3 12v15l2 20q1 5-1 9-1 4-5 7v-2l-1-1 4-5v-10l-1-22v-16l5-11 5-12 3-8v3l3-4 3-7-2-6M54 297l8-11-11 2-9 4-9 9-7 9 6 3 4 6q2-8 8-13l10-9m9-14l3-3q1 1-1 5-1 4-8 11l-10 11q-7 5-9 13t-1 11v3q-3-4-2-11l-5-8-4-3-3-2 1-2 8-9 9-8q6-4 22-8M82 293l4-2q1 1-1 2-11 7-20 17-9 11-9 16l2 1 6-1q10-1 20 7l-1 1q-5-4-13-5-7-2-14 0h-1l-1-2q0-8 11-20 9-9 17-14M18 307l-3-4q-2-1-4 1-2 1-5 7l-3 9v3l3-1 8-6 5-5q1-2-1-4m2-1q2 4 1 7 0 2-6 6l-9 5q-4 3-5 2v-5q0-5 3-10l6-9q4-2 6 0 3 1 4 4"/><path fill="#0d131a" d="M44 344l4-6 2-4-2-4-3-3q-4-1-6 3t-2 11l1 8 1 2 2-2 3-5m1-18q3 0 5 3l2 6-2 3-3 5-5 8q-1 4-3 3l-2-4q-2-5-2-11t2-10l2-2q3-2 6-1M94 336l-5 2q-2 1-2 3-1 2 3 15 0 3 1 2l2-2q7-9 7-13l-2-5-4-2m0-2l4 1 3 4v8q-1 4-7 11-2 4-4 3l-3-5q-3-14-2-16l3-4 6-2M82 269q3 0 9-4h3l-3 2-8 4q-8 3-19 1-15-2-20-13-4-7-3-16 1-8 5-14l10-14 8-13 4-2-10 18-8 11q-5 7-6 15-1 7 2 13 5 11 19 13 10 1 17-1M108 245v-5l2-2v5l2 4 1 2-2-1-3-3"/><path fill="#0d131a" d="M133 220h3l-2 2-14 10q-14 10-19 19l-2 2v-3q3-8 16-18 11-10 18-12M169 87l19 4 3 4q-9-1-22-5l-18-8q-14-7-20-7t-13 8l-20 21-22 21 5-1-9 4-12 6q-7 3-15 4l-5 1-5 1q-5 2-7 5l-4 7-3 6-5 7-8 8q-5 6-4 10l-1 2-1 3-1-7q0-5 4-8 12-12 15-18l2-6 4-6q2-3 7-5l7-1 11-3 19-7 22-22q16-15 23-24 8-10 17-9 5 0 18 7 9 5 19 8"/><path fill="#0d131a" d="M16 189q3-1 4-4 1-5 6-12 5-8 11-10 5-2 11-2h6l3-3 2-2-1 2-2 6-6 10-5 13q-5 12-4 18v6q-3-3-3-7 0-8 3-15l6-14 7-12q-10-1-17 2-5 2-10 10l-5 11-2 4-3 2-3 1 1-3 1-1M77 171l-9 15-4 12-2 5-1 4-4 4-4 3 2-4 3-4 2-4 2-5 5-15q4-9 12-17l2-1v1l-3 4q9-1 13 2 3 2 8 10v-4l1 2q2 3 0 18-1 8 2 12l1 1v4l-3-3q-2-3-2-7v-7l1-6v-5q-1-4-5-8-6-9-17-7M132 113l5-2q1 1-4 4l-14 11-11 12q0 16 11 28 2 1 2 4v4l-1 6-1 8 1 10 1 9-1 5-3 3-3 2 1-3h1q3-4 2-13l-1-13 1-13q1-6-1-8-5-5-8-11-4-9-4-19l1-9 2 6q3-5 11-12l13-9"/><path fill="#0d131a" d="M193 135h4l-4 2q-8 2-15-1-6-2-13-7-23-19-34-13-1-1 1-1l1-2q4-2 10 0 10 3 23 13 8 6 15 8l12 1M65 146l7-2h2l-2 1-5 2-5 4-1 2v-2q-1-4 4-5M22 182q8-2 14 4 4 4 5 9l-1 2-4-7q-3-4-7-5-4-3-8-1l1-2M99 203v2q-10-7-21-6-9 1-18 6v-2q7-6 17-6 12-1 22 6M13 185l-2-3H7q-3 3-4 8v11l1 3 2-2 5-8 3-5-1-4m-1-4l4 4 1 6-9 12q-3 5-5 4l-2-6q-2-6 0-12 1-6 3-8 4-3 8 0M54 202q2 3 2 7l-3 6-6 8-5 4-2-7v-9l1-8 2-2q3-3 6-2 3 0 5 3m0 6l-1-4q-2-3-4-3-3-1-5 3l-1 7-1 9 1 4 2-3q8-9 9-13M115 209l-2-2-5-1-2 1-1 2v6l1 10 2 4 2-3 4-8 2-7-1-2m-1-4q3 2 3 4 1 3-1 8l-5 11-4 4q-2-1-2-5l-2-11-1-8 3-3 4-1 5 1M305 108l-1-7 3 5q4 13 2 22-1 8-10 24l-2-1q9-15 10-25 1-8-2-18"/><path fill="#0d131a" d="M316 42v-3l-3 2-23 25 2 7 1 4q0 2-3-4l-4-13-5-24-6-22-1-4q-1-1-2 3l-16 46 3 2q3 2 2 3l-4-2-5-3q-3-2-19-27L217 6q-1-2-2-1v33l-1 30-1 4-1-5-45-16-4-1 3 4 12 19 14 21q16 25 16 40 0 7 2 11t7 7l12 8 13 10 2 5-15-11-15-10q-6-4-7-9-2-4-2-14-1-14-21-46l-14-20-7-10q-4-6-3-8t8 1l44 16V36 7q0-6 2-7 2 0 6 6l16 24 18 27 15-44q2-7 4-8 3 0 5 8l12 50 9-10 12-14q6-5 7-4 2 1 0 9l-5 28-5 26-1 7 1 6-2-2-1-2 1-10 10-55"/><path fill="#0d131a" d="M241 161v5l3 5 8 18 3 10q1 4 8 8l11 7 8 4 5 4 4 1 5-6 5-11q2-6 2-13l-3-14-2-15v-9q0-4-9-6l-4-3-3-3-5-4q-4-2-8 4l-6 7-6 4-5 1-7 3-4 3m0 10l-2-4-1-3v-3q1-3 5-5l8-3 5-1 6-4 3-4 2-3q4-5 8-5l3 1 3 2 2 2 3 4 4 2 7 2q3 2 3 4v5q0 12 3 21l3 13-2 14-8 16q-5 7-10 2l-19-11q-13-7-14-11l-5-17-7-14"/><path fill="#0d131a" d="M269 156v-2l1 1 3 6-1 2-1-1-2-6M283 156v-3l1-1v2l1 5v1l-1-2-1-2M228 122q1 9 5 18l1 3-2-2-4-9-3-10h3M242 146l-5-1 6-1q8 0 12-2l4-3v1l1 1-6 3-12 2"/><path fill="#0d131a" d="M230 124l-6-2h6q18 4 29 17l2 3q-1 1-3-2l-13-10q-7-4-15-6M300 118l2-1q-1 11-3 16l-3 4-4 2h-4l-2-1v-1l6 1q2 0 3-2l2-3q2-3 2-8l1-7"/><path fill="#0d131a" d="M239 138q-2-6 0-12h1v1q-1 6 1 11 1 6 3 6t3-5l-1-10h1l1 1v10q-1 5-4 5t-5-7"/><path fill="#0d131a" d="M242 132l1-2 1 2 1 3v4l-1 1-1-1-1-4v-3M287 134l1-1q0-1 0 0l1 4 2 1 2-4 1-9v-1h1l-1 9q-1 5-3 6l-2-1-2-4"/><path fill="#0d131a" d="M289 131l1-2q1-2 2-1v3l-1 3-1 1v-1l-1-3M270 116l-2 4q0 3 2 4 1 2 4 2l4-2 1-4-1-4-4-1-4 1m-4 5l2-6q2-2 5-2t5 2l2 6q0 3-2 5t-5 2q-3 0-5-2t-2-5"/><path fill="#fff" d="M243 130l1 1 1 1-1 2-1 1-2-1v-2-1l2-1M290 128l1 3-1 1-1 1-1-1 1-2 1-2"/><path fill="#0d131a" d="M297 119l6-4-5 5-7 9q-3 3-4 9-1 2-2 1v-2q1-4 5-9 3-6 7-9"/></svg>