<svg xmlns="http://www.w3.org/2000/svg" version="1" width="323" height="335" viewBox="-0.45 -0.2 323.25 334.65"><path fill="#3396cd" d="M246 279l6 3 9 6q4 3 1 9t-10 7l-16 4-15 4q-6 1-21-4l-19-7q-4-2-5-7l2-7 13-6 55-2"/><path fill="#2880ae" d="M246 279l3 1 6 4q-10-2-21-2-12 1-21 4-10 3-12 8-3 7 6 16l-15-5-11-4q-4-2-5-7l2-7 13-6 55-2"/><path fill="#3396cd" d="M252 239q11 13 9 19-5 11-10 17-8 10-20 11-13 2-23-1l-8-2-11-1 52-54 4 4 7 7"/><path fill="#2880ae" d="M245 232l7 7q11 13 9 19l-3 5q-14-1-30 5t-22 17l-7-2-10-1 52-54 4 4"/><path fill="#eeeeef" d="M269 295l7 10-13-1q-6 0-10-2 1-5 4-8 3-4 5-3l7 4M220 311q1-4 6-8 6-5 8-4 3 0 9 7 7 6 8 9-6 1-16-1-11-1-15-3"/><path fill="#3396cd" d="M75 194l1-18 1-16q0-5 4-8 5-3 7 0l7 7q6 4 12 4 5 1 4 5l-2 4-34 22"/><path fill="#2880ae" d="M111 168l-2 4-6 4-11-12q-5-6-6-10v-2h2l7 7q6 4 12 4 5 1 4 5"/><path fill="#3396cd" d="M125 110l12 6 13 7 3 4-27 30-7 4q-7 3-6-4 2-8 2-22l-1-17q0-5 4-7 4-3 7-1"/><path fill="#2880ae" d="M147 134q-7-4-14-11l-8-9v-3-1l12 6 13 7 3 4-6 7"/><path fill="#fff" d="M152 127l-11 167q-19 0-34-7-14-6-20-22-4-13-2-33 2-15 8-31 4-14 8-19l26-27q21-21 25-28"/><path fill="#3396cd" d="M206 108q54-15 54-3 2 32 0 58-5 47-25 79-15 24-37 36t-57 16q-16 1-28-11-11-11-16-31-5-17-4-35t8-27l52-64 17-6 36-12"/><path fill="#2880ae" d="M204 142q5-7 15-16l18-14 16-8q7-2 7 1 2 32 0 58-5 47-25 79-14 23-35 35t-53 16q4-1 9-7l11-11q25-5 46-25 20-19 28-43 8-25 0-43-9-19-37-22"/><path fill="#fff1ac" d="M146 266l12-1q27 7 47 0l13-6 8-5-10 11q-10 9-22 15-13 7-27 11l-27 4q-12 0-10-3l3-3 4-3q5-4 8-13l1-7"/><path fill="#dcd096" d="M140 295q-12 0-10-3l3-3 4-3q4-3 6-9 26 1 44-9 14 0 25-6l14-8-10 11q-10 9-22 15-13 7-27 11l-27 4"/><path fill="#3396cd" d="M2 188q1-2 3-2h2l16 14 13 7 38 12-6 62q-38-16-55-46-6-10-9-21l-2-13q-2-9 0-13"/><path fill="#2880ae" d="M46 264l23 8-1 9q-25-11-41-28 8 6 19 11"/><path fill="#3396cd" d="M45 194l2-12q1-3 5-2 4 2 5 5l4 11 5 12-5 10q-10-1-18-5-7-3-7-5 6-5 9-14"/><path fill="#2880ae" d="M57 185l4 11 5 12-4 8q-4-7-6-17l-2-12q0-3 2-3 1-1 1 1"/><path fill="#3396cd" d="M278 180v11l2 16q2 2-1 4l-7 1-8-1q-4-2-4-4-3-5-2-15 0-9 2-11 1-2 9-1h9"/><path fill="#2880ae" d="M278 180v9q-6-6-10 5-3 8-3 17-4-1-5-4-3-5-2-15 0-9 2-11 1-2 9-1h9"/><path fill="#3396cd" d="M282 160l1 11-2 7-9 2h-9l-4-12 1-24q18 1 22 16"/><path fill="#2880ae" d="M277 152q2 4-4 13-4 8-10 15l-4-12 1-24q12 1 17 8"/><path fill="#3396cd" d="M285 226l-3 15q-7 18-22 16-14-1-18-11-2-3-2-9l-1-11 22-22q4-3 13 0 10 2 11 10v12"/><path fill="#2880ae" d="M273 203q-11 5-11 23 0 17 7 30-4 2-9 1-14-1-18-11-2-3-2-9l-1-11 22-22 5-1h7"/><path fill="#eeeeef" d="M269 244l-1 7q-2 3-4 3-3 0-5-4t-1-6q2-2 6-2 4-1 5 2"/><path fill="#c8c9ca" d="M258 244l2-2h4q-4 3 1 12h-1q-3 0-5-4t-1-6M245 250l6 2 4 3q1 2-5 3l-6 2v-5l1-5"/><path fill="#eeeeef" d="M262 256q1-2 5-3l6-1q2 0-2 5l-5 4-2-2q-3-2-2-3"/><path fill="#c8c9ca" d="M265 254v3l2 4h-1l-2-2q-3-2-2-3l3-2"/><path fill="#3396cd" d="M171 5q4-4 6-4l4 2 1 4-2 6q10 4 18 13t10 17l-48 30-9-2q-8-23 2-45 6-11 18-21"/><path fill="#2880ae" d="M203 32q4 6 5 11l-48 30-2-1q1-22 9-38 10-21 26-13l10 11"/><path fill="#3396cd" d="M238 38l1 16 3 4 6 12q9 18 6 29-1 4-5 9l-11 9q-5 5-15 6l-18 1-18 1q-10 2-17 8l-4 3q-7-1-12-8t-6-18q-1-11 1-21 3-12 10-20 9-10 26-17l12-4 7-3 13-10 12-10q3-3 6-2l3 4v11"/><path fill="#2880ae" d="M234 38q2-11 1-15l3 4v11l1 16 2 2-2 4-2 4-4-7-1-5 2-14"/><path fill="#3396cd" d="M162 72q3 0 2 4 0 4-4 10-3 6-6 8-4 3-5 0-5-12-9-17v-4q1-2 3-1h19"/><path fill="#2880ae" d="M162 75q4-1 0 10l-3 7q-1 3-2 2l-7-11q-5-8-4-9h7l9 1"/><path fill="#fff" d="M222 78l3 5q5 6 6 15-7 5-17 7l-18 1q2-10 11-19 7-7 15-9"/><path fill="#dbdcdc" d="M226 84q-6-1-16 6t-13 16h-1q2-10 11-19 7-7 15-9l1 1 3 5"/><path fill="#0d131a" d="M206 88q6 1 8 7t-2 10l-8 1h-8l4-11 6-7"/><path fill="#fff1ac" d="M240 116q0 5-3 10-5 11-20 15-14 5-32-1l-11-5-4-2q5-7 27-9h10l11-1q14-1 20-8l2 1"/><path fill="#dcd096" d="M240 116q0 5-3 10-5 11-20 15-10 3-21 1h10q6-2 9-6 5-4 2-6-2-3-8-3l-23-2 11-1h10l11-1q14-1 20-8l2 1"/><path fill="#3396cd" d="M307 48l-2 17q-4 24-18 33-13 8-20 9-6 1-15-2-3-1-8-7-4-5-6-12l-4-15q-1-7 2-11l5-10 5-10q8-12 17-15 10-3 30-4h21q5 0 6 2 1 3-2 7t-7 6l-4 4v8"/><path fill="#d8ba9d" d="M276 33q11 0 15 8 5 8 1 24-4 18-15 27-10 9-22 7 0-13-6-22l-4-5-2-1q0-4 4-10l8-12q12-16 21-16"/><path fill="#b19981" d="M286 35q5 3 6 8-14 8-22 24t-6 32h-9q0-13-6-22l-4-5-2-1q0-4 4-10l8-12q12-16 21-16 6 0 10 2"/><path fill="#746544" d="M269 47q4 2 7 7 4 9 3 20-2 17-18 25h-7V89q-2-12-11-19l9-17 4-6q7-2 13 0"/><path fill="#5a4e33" d="M256 47q7-2 13 0 4 2 7 7l1 2q-11 15-14 30l-2 13h-7V89q-2-12-11-19l9-17 4-6"/><path fill="#fff1ac" d="M226 191q4-5 11-10l13-9q6-5 8-10l3 11q3 13 1 24-1 15-12 23l-8 5-6 1q-5-1-9-5-5-6-5-17 0-7 4-13"/><path fill="#dcd096" d="M258 162l3 11q3 13 1 24-1 15-12 23l-8 5-6 1q-3 0-7-3 8-1 13-7 4-6 6-15v-15q-1-7-4-10 7-4 11-9l3-5"/><path fill="#fff1ac" d="M198 196l3 8q1 6-2 11-2 5-7 9-11 8-28 0l-4-7q-5-9-2-21t8-21l6-7q6 12 19 22l7 6"/><path fill="#dcd096" d="M160 218q-4-7-3-17 7 10 18 13 14 5 26-6-1 11-10 17-11 6-27-1l-4-6"/><path fill="#c8c9ca" d="M181 245l-8 4 5-11 2 3q2 3 1 4M173 249l2 11-4 1h-8l10-12M159 263l-2 5q-7-1-10-3l12-2"/><path fill="#3396cd" d="M141 296q3 5 1 9-3 8-8 12-8 7-19 6l-25-2-17-1q-10 0-9-9 2-9 13-21l60-5q0 5 4 11"/><path fill="#2880ae" d="M137 285q0 5 4 11 3 5 1 9-1 4-5 9l-9 7q-1-11-19-19-15-7-34-10l2-2 60-5"/><path fill="#eeeeef" d="M81 315l-7 6-11 5-1-9q0-7 3-11 2-3 6-3l6 2 4 4v6M122 310l5 3 1 4-3 8-7 7q-5-4-8-10t-1-8q6-8 13-4"/><path fill="#c8c9ca" d="M81 315l-7 6-10 5q9-7 15-19 2 1 2 4v4M128 317l-2 7-7 7 3-10v-12q3 1 5 4l1 4"/><path fill="#3396cd" d="M105 172l39 88q2 14-4 22-9 10-32 14-22 4-37-12-8-9-14-24l-2-12q0-4 4-11-6-20 17-42 11-11 29-23"/><path fill="#2880ae" d="M101 175l4-3q11 3 26 46 8 21 13 42 2 13-3 21-7 9-26 14 1-3-1-9l-7-11q-11-13-22-16 6 1 11-9 5-8 8-22t2-28q0-15-5-25"/><path fill="#3396cd" d="M112 181l51-1q-3 4-5 14-2 12 1 20 1 4-6 8-6 3-17 5-10 1-17-1-9-2-10-8-1-10 1-25l2-12"/><path fill="#2880ae" d="M112 186v-5l51-1q-3 4-5 14-2 12 1 20 1 3-3 6-3 3-9 4 7-17-1-27-9-10-34-11"/><path fill="#3396cd" d="M146 205q11 4 16 11l4 8q1 4 6 8l4 4 2 3q0 3-6 14-6 9-17 11l-9 1h-7q-4 1-14-12l-14-17q-5-5-4-16t5-13q19-6 34-2"/><path fill="#2880ae" d="M145 205l11 5 6 6 4 8q1 4 6 8l4 4 2 3q0 3-6 14-4 6-10 9-5 3-12 3 16-9 13-26-2-13-18-34"/><path fill="#3396cd" d="M165 149q6 5 7 13 0 7-2 11-4 8-19 10l-27 1q-12 0-16-3t-3-13q0-9 14-20 12-9 21-12 6-1 13 3l12 10"/><path fill="#2880ae" d="M165 149q6 5 7 13 0 7-2 11-4 8-19 10l-27 1 14-5q8-2 13-6 13-8 12-26l2 2"/><path fill="#fff" d="M202 95q2 0 3 2l1 3-1 4-3 1-3-1-2-4q0-2 2-3 1-2 3-2"/><path fill="#0d131a" d="M174 296l1-6 2-4h2l-1 4v5q1 3 4 5l19 7q14 5 19 4h2l3 2-4 1q-6 1-21-4l-19-8-4-3-3-3M259 304l-6 1-8 2-1-1-1-1 9-2 2-1 5 2M247 279l6 2 9 6 2 4h-2l-2-2-9-6-5-3 1-1"/><path fill="#0d131a" d="M251 272q7-9 9-14h2q-2 7-8 16-10 12-23 14h-16l-10-2-8-2-10-1 2-1 16 1 10 2h16q11-1 20-13M244 251v2l-8-1-6-1 1-2 5 1 8 1M262 292q-2-1-5 4l-3 5 10 2 11 1-5-6q-6-6-8-6m-6 2q3-5 7-4 3 0 8 5l7 9v1l-1 1h-13l-11-2-1-2q0-4 4-8M234 300q-2-1-7 4t-5 7l14 2 13 1-5-7q-7-7-10-7m-15 11l7-10q5-4 8-3 3 0 9 5t9 12l1 1-2 1-17-2q-10-1-14-3l-1-1M80 155q-2 2-2 5v16l-2 18-3 2 2-18v-16q0-5 3-8 2-3 5-4t6 1l8 6 10 6-2 2q-5-1-11-6l-7-7h-3l-4 3M122 108l4 1 11 6 13 6 3 5-15-8-13-7-3-1-3 1-3 3-1 4 1 15v19l-4 1q2-7 2-19l-1-16 1-5 4-4 4-1"/><path fill="#0d131a" d="M153 128l-6 9-4-1q7-6 9-10l1 2M76 289l2 2q-7 7-10 13-3 1-5 6-1-3 4-9 3-6 9-12M75 321l3-2 31 2 3 3-37-3M139 296l-2-4-1-6 1-1 2 5 2 4 3 5v6q-2 6-6 11-5 5-12 7l2-4q9-3 13-14v-5l-2-4"/><path fill="#0d131a" d="M64 306l6-4q3-1 7 1 3 2 5 6t0 7l-9 7-9 5h-2l-1-1-1-11q1-6 4-10m15 2l-3-3-4-1q-4 0-6 3-3 4-3 11v4l1 3 8-4 8-6v-2l-1-5M123 325l4-8-1-4-5-3q-6-2-11 5l-1 1 4 9 5 6 5-6m-1-17q3 1 5 4 3 3 3 5 0 3-4 9l-6 8h-4l-6-8-3-9 1-3q4-5 8-6h6M141 295l-2-2q28 0 54-15 27-14 41-37l9-17h3l-5 11-6 11q-16 22-41 36-25 13-53 13M262 107v24l-1 36-3-4q2-19 2-40l-1-17 3 1"/><path fill="#0d131a" d="M158 266v-2q29 8 52-2 16-7 23-19l1 1q-2 5-8 9-7 6-15 10-24 10-53 3M138 284l1-1q9 4 22 5l20-2-4 2-18 2q-12-1-21-6M2 185l2-1h2l17 14q8 6 15 9l-2 1-14-8-16-13H5q-2 1-2 5v11q4 25 21 45t44 32l3 5q-31-14-49-34-17-20-21-48l-1-13 2-5"/><path fill="#0d131a" d="M20 223q3-6 8-9l9-5 2 1-9 4q-6 4-8 10-3 4-3 10 0 8 3 14l-1-1q-4-7-4-14 0-5 3-10"/><path fill="#0d131a" d="M54 180q3 1 4 4l9 21-2 3-9-23-3-3-3-1-2 2v1l-3 12q-3 8-8 12 1 2 7 5 8 3 17 4l-1 2q-5 0-14-3l-10-6-1-3q5-4 8-12l3-11v-2q1-3 4-3l4 1M276 190l1-10 2-1v11l3 16-3-1q-3-6-3-15"/><path fill="#0d131a" d="M260 145v-2q9 0 16 5 5 4 7 9 2 6 2 13-1 6-3 8t-8 3h-11v-2l12-1 5-1 1-7q1-7-1-12-5-12-20-13M245 250l-1 2q-3-3-4-7l-1-8 1-2 1-2 1 9 3 8M260 256h2v3h-2l-6-2 1-2 5 1M287 214q1 8-2 19-2 13-9 20l-6 4 3-4 1-2q6-6 9-19 2-11 1-18-1-5-6-8-4-2-10-2l-7 1 1-3 7-1 11 3q6 3 7 10"/><path fill="#0d131a" d="M268 245q0-2-2-2h-4l-3 2v2l1 3 2 2q1 2 2 1l3-3 1-5m-11-1l4-2 5-1 4 3-1 6-2 4-2 2q-2 0-3-2-5-4-5-8v-2M245 251v8h1l4-2 4-1-4-3q-4-3-5-2m11 4v1q-1 2-6 3l-5 2h-1l-1-1 1-11h1l6 2 5 4"/><path fill="#0d131a" d="M273 251l2 1-3 5-5 5-4-2-3-3q0-2 3-3l2 1-3 1 2 3 2 1 3-3 4-4h-2l-5 2 1-3 6-1M209 42l-2 2q-2-9-10-17-9-9-18-13l-1-1 1-3 2-4-1-2-3-2q-2 0-6 4-15 14-20 31t2 35l-3-1q-7-17-2-34t22-32q4-5 7-5t5 2l1 3-2 8q12 4 19 12 7 7 9 17M104 172v-1l1 3q-17 10-29 23-17 17-17 31l1 6 5 8q3 5 11 11 9 6 15 6 8 0 18-4 9-4 10-8l2 1q-2 4-11 9-10 5-18 5t-18-7q-10-7-15-16-3 6-3 10l2 11q7 17 17 26 14 12 33 9 21-4 30-12 6-7 5-18h3q0 12-7 20-9 9-31 13-18 3-31-6-15-10-21-31-3-7-3-12l1-7 4-6q-3-5-3-8 0-16 19-34 12-11 30-22"/><path fill="#0d131a" d="M162 71h3l-2 2h-20l-2 1v2l5 9 4 9q2 3 1 4-1 2-3-3l-5-9-4-8q-2-4-1-6l4-2 20 1M205 87q7-7 16-10h3l-1 2 4 5q4 6 4 13h1l-1 2q-5 4-16 6-9 2-18 1l-1 1v-2q1-10 9-18m16-8q-7 3-14 9-7 8-9 17l16-1q9-2 16-6-1-8-5-13l-4-6M188 94q1-5 3-6l2-1-1 1-2 6-2 7v3l-1-2 1-8M163 123l2-2h1v2l-2 3-2 2v-2l1-3"/><path fill="#0d131a" d="M239 117q-5 5-15 6-7 2-18 2h-9l-16 3q-6 2-9 5 3 3 15 6 13 3 25 2 10-2 17-6 8-7 10-18m3-6v1l-1 2q-1 14-10 22-6 6-17 7-26 3-44-8-3 3-6 3l-6-4q-6-5-9-12-5-14-2-30l1 2 1 2v7q0 10 3 18 2 6 7 10 4 4 6 3l4-2 11-7 17-3h9q12 0 20-2t12-5l4-4M226 24l5-3h4q3 1 4 4l1 4v23l-2 2-1-15V27l-3-3h-3l-5 4-10 10-11 8-8 3q-26 8-37 21l-2 2h-3l1-2q8-8 21-15 9-5 19-8l8-3 11-9 11-11"/><path fill="#0d131a" d="M313 20q8 0 9 3v3l-2 4q-3 4-9 7l-2 2-1 1q0 13-2 25-3 24-16 33t-23 11q-7 1-13-2-3-1-2-2h3l9 1q9-1 22-9 12-8 17-33 3-13 3-25l1-2 3-2 3-2 4-3q3-4 2-6l-5-1h-20q-22 0-30 3-8 2-15 13l-10 17-3 5-1 1-1-1 3-6 10-18q8-11 16-14 8-2 29-3h21"/><path fill="#0d131a" d="M276 34q-9 0-20 15l-8 12-4 9q6 3 9 9 3 7 3 19 11 2 21-7t14-26q4-18-2-26-4-5-13-5m9-1q4 1 7 4 3 5 3 12 1 8-2 17-4 18-15 27-10 9-24 6l-2-1h2q0-11-4-19l-6-7-2 1v-2l3-9q3-7 8-13 11-16 23-17l9 1"/><path fill="#0d131a" d="M257 47q8-3 13-1t7 7l3 11q1 10-2 18l-5 10-10 7-3-1q6-2 10-7 5-4 7-10 2-7 1-16l-3-11q-2-5-8-7-5-1-11 1l1-1M243 178l-14 11q-7 7-7 15 0 10 6 16 4 5 8 5l5-1 8-4q11-9 13-23v-8q0-12-4-25-2 4-7 7l-8 7m-17 11l15-13 10-8 8-8v2l3 11q4 13 2 24-2 15-13 24l-8 5-7 1q-5-1-10-5-7-6-7-17 0-8 7-16M171 169l1-1 11 13 9 8 7 6q3 4 4 9 1 6-2 12t-8 9q-4 4-10 4-9 1-17-4l-1-2q8 4 15 4 7-1 12-4l7-9q2-5 1-10 0-4-3-8l-7-5-9-9q-6-5-10-13M178 239v-1l3 2q3 3 2 5l-4 3-5 2v-2l4-2 2-2v-2l-2-3"/><path fill="#0d131a" d="M173 250l1-2 1 5 2 7v1l-2 1h-12l1-1 6-1 4-1v-1l-1-8M146 266l2-1 5 1 3 1 2-4h2v1l-1 3-1 2h-2q-4 0-10-3M113 182l-2 9-1 19-3 7q-2-10 1-24l3-11h2M162 179h3q-3 4-5 14-3 12 0 20l-4-2q-1-8 1-19 2-9 5-13"/><path fill="#0d131a" d="M107 214q2-7 5-8 19-6 34-2 12 4 17 11l3 7 2 4 4 5 1 1q6 4 6 8 0 3-6 13-5 9-15 12-5 2-15 2h-5q-7 0-21-22l-4-5-4-3q-3-3-3-11-1-6 1-12m54 3q-5-7-16-10-14-5-32 1l-2 2-2 4v12q0 6 3 9l7 9 10 13q7 7 10 7h4q9 0 14-2 9-2 14-10l5-12-4-7h-1l-5-6-2-4-3-6M169 172q2-4 1-10-1-8-6-12l-4-4-10-7q-5-3-9-1-9 2-21 11-14 11-14 19-1 8 2 11l6 3h14l24-1q14-2 17-9m4-11q1 8-2 13-4 7-18 9l-25 2h-4l-11-1q-5-1-7-3l-3-5q-2-4-1-8 2-10 16-21 13-9 22-12 5-1 11 2 4 1 11 7l4 4q6 5 7 13"/></svg>