<svg xmlns="http://www.w3.org/2000/svg" version="1" width="235" height="291" viewBox="-0.6 0.0 234.95 290.5"><path fill="#0d131a" d="M95 228h2l5 1v2l-3 5v2l-1-1v-1l-3-7v-1"/><path fill="#dbdcdc" d="M98 229h4l-1 1-3 5-2-6h2"/><path fill="#0d131a" d="M146 233h7v1l-3 7-1 2-1-2-2-5-1-2 1-1"/><path fill="#dbdcdc" d="M152 234l-2 6-4-6h6"/><path fill="#0d131a" d="M207 110q9-1 17 4 5 2 8 8 2 5 0 10-2 3-6 4t-9-1q-4-2-9 0-6 2-9 6l-4 16-6 22q-3 13-6 19-7 13-19 19-10 4-17 3-5 0-5-2-1-3 3-6l9-6q7-2 14-18 5-14 6-26 1-11 5-23 4-15 10-21 8-7 18-8"/><path fill="#ffe100" d="M207 133q-6 3-9 8l-4 16-6 21q-4 13-8 19-6 13-18 19-9 5-16 4-3 0-3-2t3-5l8-6q8-3 15-20 5-13 6-24t5-23q4-14 11-20 7-7 16-8 9 0 16 4 5 2 7 6v8q-2 3-5 4t-7-1q-5-2-11 0"/><path fill="#dcc200" d="M203 128l12-1 11 1q4-1 4-5v7q-2 3-5 4t-7-1q-5-2-11 0-6 3-9 8l-4 16-6 21q-4 13-8 19-6 13-18 19-9 5-16 4-3 0-3-2t3-5l8-6 6-1 7-2q10-6 15-23 2-5 4-22 2-16 6-22 4-7 11-9"/><path fill="#0d131a" d="M191 169l-6 20-1 1-1-4q0-3-2-4-3-3-10-3v-1l3-15v-1q10-1 17 7"/><path fill="#515457" d="M191 169l-6 18q0-4-3-6-4-4-10-3l3-15q8-1 16 6"/><path fill="#383839" d="M186 165l5 4-6 18q0-4-3-6l4-16"/><path fill="#0d131a" d="M167 191l1-1q5 1 8 4t3 8l-1 1q-3 5-8 9h-1q1-5-2-9l-6-3 3-4 3-5"/><path fill="#515457" d="M175 195q3 2 3 7-3 5-7 8l-3-8-6-3 2-2 4-5q5 0 7 3"/><path fill="#383839" d="M168 202q1 1 4-1l4-5q2 2 2 6-3 5-7 8l-3-8"/><path fill="#0d131a" d="M208 111l10 2h1q4 5 4 10l-2 6-3 5h-1l-6-1-6 2-1 1v-1q1-7-2-12-2-4-7-7v-1q6-3 13-4"/><path fill="#515457" d="M218 113q3 5 3 10v3q-1 4-4 7l-5-1-7 2v-3q0-6-2-10l-7-6q6-3 12-3l10 1"/><path fill="#383839" d="M205 128q7-2 15-1l-3 6-5-1-7 2v-6"/><path fill="#0d131a" d="M28 94l2-4q4-5 3-14v-1l2 2 2 8q4-7 9-11l7-3 2-1v1l-4 5 3-2 4-1h2l-1 1-1 3 6 3q6 3 9 7l-3 17-11 1-10 21q5 6 4 11 0 4-3 6t-3 6q-1 6-3 8l-4 1q-2 3-6 3l-6-1-4 1-3-1h-4q-3 0-4-3h-3l-6-7-4-9q-1-4 4-11 2-5 6-9l14-21 4-6"/><path fill="#ffe100" d="M37 87q3-6 8-10 3-3 7-4l-4 5v1l1-1 4-2 4-2-1 3v1h-1 2l5 2q7 3 9 7l-2 16-11 1v1l-4 7-6 13h-1-1v1l1 1 3 5 1 5v2l-2 3-2 3-1 3q-1 6-3 7l-3 1h-1q-2 3-6 3-3 1-5-1h-1v1h-7v-1 1h-3l-3-3h-4l-5-7-3-8v-1q0-4 4-10l5-7 15-23 5-9q3-4 4-10l1 6v1l1-1"/><path fill="#dcc200" d="M57 98l6-3q6-2 8-5l-2 13-11 1v1l-4 7-6 13h-1-1v1l1 1 3 5 1 5v2l-2 3-2 3-1 3q-1 6-3 7l-3 1h-1q-2 3-6 3-3 1-5-1h-1v1h-7v-1 1h-3l-3-3h-4l-5-7h5q3 2 6 0 1 2 3 2t3-2q5 2 8 0 2-1 2-3l2-4 3-3v4q0 2 2 1 3-2 4-9 2-8 0-12-1-3 14-25"/><path fill="#0d131a" d="M36 109l-5 1 6 2 4 3q1 1-2 1l-8-1 5 3v1h-1l-8-1-14 1v-1l6-9 8-2 9 1 1 1h-1"/><path fill="#515457" d="M29 111h4q5 1 7 4l-7-1h-4l1 1 2 1 2 2-8-1-12 1 6-8 7-2 7 1-5 1q-2 0-1 1h1"/><path fill="#0d131a" d="M60 91v-2l1 2 2 4 1-6v-1l1 1 4 4 1 2 1 2-1 7-7 1h-1q-2-3-2-7v-7"/><path fill="#515457" d="M60 91l4 6q0 1 0 0v-2l1-6q0 2 3 5l2 3-1 6-6 1-2-5-1-5v-3"/><path fill="#383839" d="M64 97v-2h5l1 2-1 6-6 1q-2-3-2-8h2l1 1q0 1 0 0"/><path fill="#0d131a" d="M46 99v-1h1l6 2 6 5h1-1l-6 11v1l-1-1q-6-7-12-9h-1l1-1h5l-7-4-1-1h1l6-1 5 1q-1-2-3-2"/><path fill="#515457" d="M50 102l1-1-1-1-2-1q5 1 10 6l-5 10-6-5q-2-3-5-3l2-1h2q2 0 0 0l-6-4 7-1 3 1"/><path fill="#383839" d="M54 102l4 3-5 10-5-5 3-4 3-4"/><path fill="#0d131a" d="M31 90q1-2 6-3 5-2 9-1 2 0 0 1l-3 1h7q2 1 0 1l-8 2 2 3h1-1l-12 3-8 5v-1l7-11"/><path fill="#515457" d="M36 88l8-1-3 1 2 1h4l-4 1-2 1v1l2 1-9 2-8 4 5-7 5-4"/><path fill="#0d131a" d="M8 146v-1h1l1 3 2 3 3 7-3-2v-2l-1-2-3-6M13 146v-1l1 1 1 1 1 3 3 5 3 4h-2l-3-4-2-4-2-5M20 146v-2l1 1 1 2 1 3q4 8 6 9l-2 1-3-4-2-6-2-4M34 145l1-5 1 1-1 4v7l2 3 4 1q2 0 0 1h-2q-3-1-5-5v-7"/><path fill="#0d131a" d="M36 136l1-1v1q1 2-1 5l-3 5h-2l1-1 2-4 2-5M173 163l2 9 1 9q0 11-5 19-3 5-7 8l5 10 4 10q5 6 19 15l9 8q5 4 6 7 1 5-3 8l-8 6q-6 5-13 7-8 2-11-1l-5-5-3-6-5-8-8-11-2-3-1-4 1-6 2-3-2-5-4-7q-16 6-31 3-11-1-21-6-2 2-1 6l2 4 3 2q3 2 3 5 2 5-10 14l-10 8-9 5q-4 2-8 1-6 0-14-4-10-5-12-12v-3q0-5 8-9l16-7 7-2q-5-11 5-20l2-3-8-13-2-13 2-15 7-16q3-6 3-10 0-6-4-12l-3-5v-1h1l31-2q30-2 36 0l1 1q26 22 34 47"/><path fill="#ffe100" d="M173 180q0 11-5 19l-6 7v-2l-2-1v2l5 10 6 14 9 8 9 7 10 7q4 3 5 7l1 1q0 2-3 5l-7 6q-6 5-12 6-7 2-10 0l-4-5-4-5-5-8-8-12q-3-4-2-9l2-4 1 1h1l-4-8-5-10h-1q-1 0 0 0v2q-16 6-33 2-12-2-21-7h-2l1 1 2 2-1 2v3q-1 3 1 5l1 2h1l4 2 2 4q0 3-3 7l-10 7-5 5-9 6-8 2q-6-1-14-5-9-5-11-12v-1q0-4 10-9l16-7 4-1 1-1-2-8q0-4 2-7l4-5 1-1h1l2 2q4 3 1-1-6-6-9-16l-2-14q0-9 3-18l5-12 2-10-2-11-4-6 32-2q28-2 34 0v1q23 19 32 47 3 8 3 16"/><path fill="#dcc200" d="M170 164q3 8 3 16 0 10-5 19-2 4-6 7v-2l-2-1v2l5 10 6 14 9 8 9 7 10 7q4 3 5 7l1 1q0 2-3 5l-7 6q-6 5-12 6-7 2-10 0-2-2-1-5l3-6q1-2 11-6l12-4q2-2-9-10l-16-11-7-1q-5 1-5-1l-5-8q-5-6-9-4l-2-4h-1q-1 0 0 0v2q-13 4-26 3 13-1 21-8 14-10 12-33-1-26-25-39-11-5-24-7-12-1-24 1 0-5-3-11l-3-6 32-2q28-2 34 0v1q23 19 32 47M85 222q0-6 4-8l2 2-1 2v3q-1 3 1 5l1 2h1l4 2 2 4q0 3-3 7l-10 7-5 5-9 6-8 2-1-3q-1-3 1-7l14-7q13-5 13-7 2-3 0-5l-3-1q-4-3-3-9"/><path fill="#0d131a" d="M88 215v1h-6l1 1h2l1 1h-1q-6 2-11 0-6-2-6-6l1-2 2-3 2-2h1l5 4 6 3h1l-1 1h-4l3 1 4 1"/><path fill="#515457" d="M83 217h-6l-6-2-2-4 4-5q2 4 10 6l-3 1h-1 1l1 1 4 1-2 1h-3 1v1h2M79 225v-1l1 1h-1"/><path fill="#0d131a" d="M161 206l1 1 4 9-5 3-7 2h-1l1-1 2-1 1-2-7 1h-1l1-1 5-4h-4q-1 0 0 0l5-3 5-4"/><path fill="#383839" d="M159 216l-7 1 3-2 2-2v-1l-2 1h-2l9-5 3 7-9 5 2-3 1-1q1-1 0 0"/><path fill="#515457" d="M79 155l-1 2v-1l1-1"/><path fill="#0d131a" d="M79 150l4-3 1-1v2l-5 7 3-3h2l-1 1-7 15q-6 12-7 20l-1-3q-2-7 0-18 1-9 4-15v-2l5-4 4-3 2-1-1 1-1 3-2 4"/><path fill="#515457" d="M79 147l-1 3-1 2h1l3-3 1-1-3 5-1 3-1 1h1l4-4q-11 16-14 30v-7l1-13 3-11 4-3 5-5-2 3"/><path fill="#0d131a" d="M165 149l1 1v1l5 13 3 11v1l-12 10q-6 5-9 10l-1 2v-2l1-7 1-2q-4 3-10 12l-6 10-2 2v-2q0-6 3-14l6-14-5 4-1 1v-3q3-9 12-20l14-14"/><path fill="#515457" d="M162 183q-5 5-8 11l1-5 1-5 1-1-1 1-8 8-8 11-3 4 5-16 6-12v-1l-1 1-3 1-3 2q4-8 12-18 6-7 13-12l5 12q2 5 2 11l-11 8"/><path fill="#383839" d="M171 164q2 5 2 11l-11 8q-5 5-8 11l1-5 1-5 1-1-1 1-5 4q0-11-2-19 7-9 17-17l5 12"/><path fill="#0d131a" d="M81 187v-2q2-17 8-31l9-20 5-10 2-9q27-2 33 0l5 4v1q-6 6-12 16l-12 28q3-3 9-5l7-3h2l-1 1-4 5 6-4 8-2h1v1l-4 2-3 4 6-2h1l-1 1q-7 8-17 24-11 19-13 31-1 4-2 0-4-9-4-19 0-11 6-22-4 1-14 8-11 8-14 12l-2 1-1-2 1-6 2-10-3 3-3 4-1 1"/><path fill="#515457" d="M142 119q-8 8-14 20l-10 23-1 4-1 2 1-1 8-5 10-4-6 6v1l6-4 10-4-5 4-3 4q-1 1 0 0l3-1 5-1q-10 9-19 24-9 16-12 28-2-6-2-13t3-17l4-11 1-2-3 1-13 7q-12 8-17 15v-2l1-7 1-7 1-3-2 2-6 6q3-16 8-30l9-19 4-10 2-10q27-1 33 1l4 3"/><path fill="#383839" d="M138 116l4 3q-9 9-16 23-9-5-16-5H97l2-2 4-10 2-10q27-1 33 1"/><path fill="#0d131a" d="M157 230l-1-1h1l6-3h-4l-1-1h1l4-2 5-4v1h1l3 8v1l-4 3-5 1q-4 0-1-1l2-2h-7"/><path fill="#383839" d="M158 229l6-3 1-1h-4q4-1 7-4l3 7-4 3h-4l3-1q2-1 0-1h-8"/><path fill="#0d131a" d="M83 222h1l-1 1-4 2h4l4 1q2 0 0 1h-4l5 1q2 0 1 1H77q-6-1-8-4l-2-6v-2l7 4 9 1"/><path fill="#515457" d="M83 226l-2 1h-1 1l4 1q-12 1-16-4l-1-4q4 3 14 3l-3 1-1 1h-1 1l6 1h-1"/><path fill="#0d131a" d="M184 67v-1h2q3 5 4 12v10l2-3 2-5q0-2 1-1v4q1 4-1 13l1 8 4 12 4 14 3 16v12q0 7-2 10l-5 5-5 2h-1l-1-1-4 1-3-1q-4 3-8-1h-3l-3-1h-5l-4-2-2-4v-5l-1-5-2-4 1-5 3-4q4-3 5-6 2-5 1-12l-1-14-13 5-13 7h-4l-4-5q-3-5-3-9v-1q1-6 6-8l16-7q10-6 12-9 4-6 11-9l1-3 1-5v-2h2l2 6 2 6 2-5v-5"/><path fill="#ffe100" d="M179 72l2 7q0 2 1 0l3-4v-5q2 3 3 11 2 6 1 8v2l1-1q2-1 4-6v8l-1 4v2l1 8 3 10 4 15 3 15v17l-2 4q-5 6-8 7l-1-1h-1l-4 1-2-1-1-1v1h-4l-3-1v-1l-1 1h-2l-3-1h-5l-4-3-1-3-1-4-1-5-1-7q1-3 4-5l6-8 1-12-2-12-1-3v-2l-2-2 1 4-13 6-14 7h-2q-3-1-5-5-2-5-1-9 0-5 5-7l16-7q11-6 13-9 1-3 6-6l4-3q2-4 2-9l2 5"/><path fill="#dcc200" d="M137 122q-3-1-5-5-2-5-1-9 0-5 5-7l15-6q9-5 13-9-6 9-7 16-2 7 3 10l-21 10h-2M190 99l2-8 1-4 1-3v8l-1 4v2l1 8 3 10 4 15 3 15v17l-2 4q-5 6-8 7l-1-1h-1l-4 1-2-1-1-1v1h-4l-3-1v-1l-1 1h-2l-3-1h-2q-2 1-6-2 3-1 3-6v-6l2-3 1-1q1-1 1 3 2 4 7 5h4l5-1h8l6-1q3-4-3-24l-7-25-1-11"/><path fill="#0d131a" d="M178 90v-1q9 2 16 8v1l2 13v2q-3-4-9-7l-7-3h-1v-1l3-2-5-2-5-1h-1l1-1 5-2 4-1-3-3"/><path fill="#515457" d="M183 94l-3-4q7 2 13 8l2 12-7-5-8-3 3-1 1-1-11-4 6-1 3-1h1"/><path fill="#383839" d="M190 96l3 2 2 12-5-4V96"/><path fill="#0d131a" d="M186 108v1l-4 3-4 4 3-1h1v1l-6 6-7 8v-6l-1-10v-1q5-5 10-5v1l-1 1 9-2"/><path fill="#515457" d="M175 111h1l3-1 6-1-6 4-2 3v1l2-1h2q-8 6-11 11l-1-13q4-5 8-5l-1 2h-1"/><path fill="#0d131a" d="M205 146v1q0 2-1 1l-10-7q-5-4-8-4-1-1 1-1l4-1-11-5h-1l1-1h12l-3-4h-1l1-1 5 1 7 3 1 1 3 17"/><path fill="#515457" d="M192 129h1l-3-3 11 3 3 17q-7-6-16-10l4-1h1l-11-5 7-1h3"/><path fill="#383839" d="M201 143l-3-8-2-8 5 2 3 17-3-3"/><path fill="#0d131a" d="M163 111l-9 4-4-7-1-7q0-3 2-1l1 2 1-4 1-2 1 1 2 4 1-2 1-1 1 1 1 6 2 6"/><path fill="#515457" d="M153 104l1-6 3 5h1v-2l1-1 1 6 2 5-8 3q-4-6-4-13l1 2 2 2v-1"/><path fill="#383839" d="M156 101l-2 13q-4-6-4-13l1 2 2 2v-1l1-6 2 3"/><path fill="#0d131a" d="M169 160q-5-2-4-10h1v1q0 5 4 7l-1 2"/><path fill="#0d131a" d="M186 161v1l-6 9-4 2q-2 1-6-1l-1-1-1-4v-8l1-7 1-1 1 1q-2 13-1 15 0 3 3 4 4 1 6-1l4-6 2-3h1M195 165l-5 4-4 5h-1v-1l2-2 3-2 4-5h1v1M192 173l4-4 4-4h1v1l-4 4-5 4h-1l1-1M42 242h1l1 1q2 1 2 6v5l-1 1-4 1-6 2-5 4-2 1v-5l2-6q1-3 6-7l6-3"/><path fill="#fff" d="M29 261q0-6 2-9l6-6 5-3q2 1 3 5v4l-1 1-3 1-7 4-5 3"/><path fill="#dbdcdc" d="M45 250v2l-1 1-3 1-8 4q5-8 12-11v3"/><path fill="#0d131a" d="M63 250l2 3v4l-1 4-2 1-4 2q-2 0-8 5l-3 2-2-1q-2-6 1-11l7-7 6-4q3 0 4 2"/><path fill="#fff" d="M64 254v3l-1 3-3 1-4 2-4 3-3 2-2 2-1-3 1-6 5-7 6-4q3-1 5 2l1 2"/><path fill="#dbdcdc" d="M64 257l-1 3-3 1-4 2-4 3-3 2-2 2-1-2 7-9 10-7 1 5"/><path fill="#0d131a" d="M200 258l1-1h2l5 5 5 7 1 6-1 4v1h-2l-5-5q-2-3-5-4l-3-2-2-1 1-5 3-5"/><path fill="#fff" d="M202 258q2 0 5 4l5 7v10l-4-5-7-5-2-1-1-1q-1-1 1-5l3-4"/><path fill="#0d131a" d="M185 265l6 5q4 4 6 9 2 4-1 10-1 2-2 1l-3-2-7-7-3-3-3-1v-4l1-4 2-3q2-2 4-1"/><path fill="#fff" d="M179 274l2-6q2-2 5-1l5 5q4 5 4 8v6l-1 3-2-2-2-3-4-3-3-3-3-2-1-2"/><path fill="#dbdcdc" d="M195 280v7q-3-10-13-20h4l5 5q4 5 4 8"/><path fill="#0d131a" d="M123 2l3-2-1 3q-8 25-9 63l7 4 5 4 7-6 7-4q-2-5 0-8 2-4 6-4t6 3q2 1 2 4v4q-2 4-6 4h-4l-11 18 3 4 3 7q0 2 2 3l4 2 4 2 5 3q4 3 3 7-1 5-11 9l-20 8-12 6-9 4-12 3q-6 0-13-5l-12-6-21-11q-4-3-4-7 0-3 2-5l4-2 5-4 5-3 4-2 2-4 2-7-6-8-6-8q-5 1-8-2-2-1-2-3l-1-3q1-5 5-6h6q4 3 4 7l-1 4 14 9 5-5 8-3q-3-8-4-17-1-12 1-22 2-5 2-2l4 13q5 12 9 17 0-14 8-32t16-24"/><path fill="#ffe100" d="M123 5q-5 11-8 37l-1 24h-2l1 1q6 1 10 5l4 3-1 1v1l1-1 16-12-1-4 1-3q2-3 5-3l4 2 2 4v3q-2 3-5 3h-4l-12 19v2l1-1 5 11 2 3 4 2 9 6q3 4 0 8l-8 5-19 8-20 9q-14 5-24-1l-13-7-19-10-3-5q-1-3 1-5l10-6 7-5 3-5 1-8v-1h-1l-7-10-5-6-4 1-3-1-2-3v-3q1-3 4-4h4q3 2 3 5l-1 4 15 10v2l1-1 6-5q3-3 7-4l1 1v-2q-4-12-4-24 0-7 2-12 1 6 6 16l7 13h1v-2q2-20 11-37 6-14 12-18"/><path fill="#dcc200" d="M60 73l11 11-1 1h-1l-9-12M144 65q7 0 8-3v-6l2 4v3q-2 3-5 3h-4l-12 19v2l1-1 5 11 2 3 4 2 9 6q3 4 0 8l-8 5-19 8-15 6 17-10q11-6 14-10l2-4-3-5q-7-8-8-18l-2 1q-2 0-1-1l5-11 8-12M123 5q-5 11-8 37l-1 24h-2l1 1 6 2h-10l-9 4q-3 1-7-10l-5-22 6 12 5 9h1l1 1v-2l4-20 9-25q5-8 9-11"/><path fill="#0d131a" d="M84 88l6 11q7-8 16-14l12-7h1v1l-3 3 4-1h5l-1 1q-10 7-21 19l-12 15-1 1-1-1q-6-5-9-19l-4-17v-1l1 1 1 2 1-5h1l4 11"/><path fill="#515457" d="M118 83l5-1q-11 7-19 16-7 7-14 18-5-5-9-17l-4-18v1l2 2v-4l5 11 5 9h2q6-7 14-13l12-7-3 3v1h1l3-1"/><path fill="#0d131a" d="M67 119v-1l4 2 5 3v1l-5 4-3 5-2 1-1-1v-8q0-4 2-6"/><path fill="#fff" d="M66 130v-6l1-5 4 1 4 4-7 6-2 3v-3"/><path fill="#dbdcdc" d="M75 124l-7 6 2-5q0-3-3-4v-2l4 1 4 4"/><path fill="#0d131a" d="M127 119l1 1-1 11-2 5v-1h-1l-3-6-6-7 1-1 4-1 7-1"/><path fill="#fff" d="M122 128l-5-6 4-2h5l1 5-1 7-1 2-3-6"/><path fill="#dbdcdc" d="M126 120l1 5-1 5-1-6q-2-3-5-3l6-1"/><path fill="#0d131a" d="M64 118l7 1 7 6 8 6q4 2 8 0l7-4 10-4 11-4q5-1 8 1 1 0 0 0h-3l-5 1-11 3-10 4-6 4q-5 2-8 1-4-1-8-6-3-4-8-6l-7-2v-1q-1 0 0 0"/><path fill="#0d131a" d="M84 126v-1h1l1 1 1 2h-1v-1l-2-1M92 128l1-2 1-1 1 1h-1l-1 2h-1M115 102v10l3-1-5 3-10 3h-7v-1l6-7 12-8 2-1h1l-2 2"/><path fill="#fff" d="M114 102v10l-9 3q-6 2-8 1l8-8 9-6"/><path fill="#dbdcdc" d="M114 102v4q-10 4-16 10h-1l8-8 9-6"/><path fill="#0d131a" d="M100 112l1-1h1v2l-1 2v-1l-1-2M73 103l-1-2h1l3 4 9 11q1 1 0 0h-5q-5-1-8-4l-1-1h1v-5l1-3"/><path fill="#fff" d="M74 104l5 5 5 7-5-1-6-3v-3l1-5"/><path fill="#dbdcdc" d="M73 106l1-2 5 5 5 7q-6-7-11-10"/><path fill="#0d131a" d="M82 112v3l-1-2v-2l1 1"/></svg>