<svg xmlns="http://www.w3.org/2000/svg" version="1" width="348" height="342" viewBox="-0.25 -2.3 347.6 342.4"><path fill="#b4b4b5" d="M173 114q8 13 5 22l-6 12-6 11q-6-5-9-10l-4-12-1-10-3-16q-6-21-22-22 8-1 17 2 8 2 13 5l1 1q9 7 15 17"/><path fill="#888" d="M167 193q3-3 3-8l8 13q3 9 1 19-1 11-12 19l-17 11 1-8-2-8q-3-11 0-19 2-5 6-8l6-6 6-5"/><path fill="#a499c9" d="M114 56q-4 9-7 12-4 5-10 5l-5-4q-10-7-14-8-4 0-2 6L38 13q-4-6 0-10 3-3 10 0l29 17 31 19q6 4 6 17"/><path fill="#b4b4b5" d="M76 67q-2-6 2-6 4 1 14 8l45 31q6 7 7 19l1 11 1 10-12-5-13-3-39-56-6-9"/><path fill="#8e84ae" d="M136 40q7-6 17-6l9 6q-5 8-7 29-2 22 2 27-5-3-13-5-9-3-17-2l-6 1-12-9q5-3 9-11l8-16q4-10 10-14"/><path fill="#a499c9" d="M142 31l4 1 7 2q-10 0-17 6-6 4-10 14l-8 16q-4 8-9 11l-12-8q6 0 10-5l7-12 11-18q7-8 17-7"/><path fill="#b4b4b5" d="M63 147q3-4 13-10l16-10q5-4 8-9l4-10 4 6q-2 10-18 22l-12 8-7 5q-5 6-7 14-2 9 1 14v8q0 9 2 16l-6 13q-3 8-1 15 2 5 9 9t8 8l1 6v9q0 11 5 14-6 2-10-2-4-6-2-23 0-3-7-9l-8-6-4-8-1-9 4-8 6-10q2-4-1-15l-5-15q-1-4 2-10 2-7 6-13"/><path fill="#888" d="M65 177q-3-5-1-14 2-8 7-14l7-5 12-8q16-12 18-22l13 18h-4q-18 0-33 13-16 13-19 32"/><path fill="#b4b4b5" d="M164 170l2 8 4 7q0 5-3 8l-6 5-6 6q-4 3-6 8-3 8 0 19l2 8-1 8-2 1q-5 5-6 11l-19 4q-12 3-14 6l-6 12-2 7h-3l-1-2 3-15q3-9 7-10l18-5q14-5 15-8 3-9 2-15l-2-13q0-5 5-13l3-3 9-11q5-6 5-12 1-10-2-16l-10-15q-3-3-4-10l-1-10-1-11q-1-12-7-19l-16-10 6-1q16 1 22 22l3 16 1 10 4 12q3 5 9 10-2 5-2 11"/><path fill="#a499c9" d="M249 184l5-2 1-12-1-11 11-6 2 19q2 14 1 20 3 4 4 9l-2 9-22-9 1-17"/><path fill="#8e84ae" d="M255 235l-5 12-3 10-5-3-6-1v-1l-1-4v-4l2-5 3-6 15 2"/><path fill="#a499c9" d="M249 258q1 2-5 12-7 10-10 10-4 0-10-6l8-11q4-7 4-10l6 1 5 3 2 1M252 124q6 2 12 12 5 9 5 14l-4 3-11 6-2-10-3-2-5-4-4-12q10-7 12-7"/><path fill="#a499c9" d="M336 48q3-1 6 1l3 4q2 7-4 11-17 12-45 28-28 15-39 19-3 2-8 0l-7-5q-7 3-12 9l5 2 2 2 3 12 4 12 5 4 3 2 2 10 1 11-1 12-5 2-1 17 22 9 29 12q2 2 2 5v6q-2 9-9 8l-37-6-15-2-3 6-2 5v4l1 4v1q0 3-4 10l-8 11q-4 4-6 4l-4-1-7 5-8 7 11 23 9 15q1 2-1 5l-4 4q-8 4-12 0l-20-20q-9-10-14-13l-11 4-9 7q-4 5-19 9l-20 2h-1q-2-1-2-3l-1-4q0-3 4-11l7-12 13-7 14-6q2-1 4-8l3-14q0-3 6-6l13-7q18-11 21-26 4-18-5-34l-8-11-4-8 2-8 6-8q8-10 8-18 1-12-8-24l-8-9-7-10q-2-3-2-11l2-17q1-10 4-17t6-9l2 1q10 3 18 8 10 6 10 11l1 17q1 7 8 14l17-6 3-11q3-6 7-7l50-10 44-6M22 295q-3-6 0-9l16-16 9 7q5 4 6 7v1l-13 8-11 6q-4 1-7-4"/><path fill="#8e84ae" d="M53 110l1 15-1 14-4-4-3-3q-1-3 1-9 1-8 6-13"/><path fill="#a499c9" d="M50 143v1l-14 11-10 12-11-8-11-10q-4-4-2-10t8-5l19 4 21 5"/><path fill="#a499c9" d="M84 79l8 11q-13 2-20 5-10 5-11 17v19q0 11-3 16l-6 6-9 8q-12 13-13 30-1 6 1 11l4 8 5 8q2 5 1 10l-1 7-2 6q-3 8 0 14 2 7 11 14l12 10 4 17q3 12 10 16l-6 1-6-2q-5-4-7-12l-3-14v-1q-1-3-6-7l-9-7q-7-5-9-12-3-8-1-16l6-14q1-4-2-8l-5-7-6-8q-3-5-2-10 0-9 2-16l5-12 10-12 14-11v-1l3-4 1-14-1-15v-2q1-12 10-20 8-5 21-9"/><path fill="#888" d="M118 282l-12 6-1 2-2-1-2-1 2-7 6-12q2-3 14-6l19-4-2 10q-2 5-7 8l-15 5"/><path fill="#a499c9" d="M164 37h12q-3 2-6 9t-4 17l-2 17q0 8 2 11l7 10 8 9q9 12 8 24 0 8-8 18l-6 8-2 8 4 8 8 11q9 16 5 34-3 15-21 26l-13 7q-6 3-6 6l-3 14q-2 7-4 8l-14 6-13 7-7 12q-4 8-4 11l1 4q0 2 2 3-5 1-8-1l-5-3q-2-3 1-11 2-8 9-20l1-2 12-6 15-5q5-3 7-8l2-10q1-6 6-11l2-1 17-11q11-8 12-19 2-10-1-19l-8-13-4-7-2-8q0-6 2-11l6-11 6-12q3-9-5-22-6-10-15-17l-1-1q-4-5-2-27 2-21 7-29l2-3"/><path fill="#8e84ae" d="M58 147q3-5 3-16v-19q1-12 11-17 7-3 20-5l12 18-4 10q-3 5-8 9l-16 10q-10 6-13 10-4 6-6 13-3 6-2 10l5 15q3 11 1 15l-6 10-4 8 1 9 4 8 8 6q7 6 7 9-2 17 2 23 4 4 10 2l2-1 8-3 9-3-4 8-1 10 1 2h3l2 1q-10 5-17 12l-8 10-3 1q-7-4-10-16l-4-17-12-10q-9-7-11-14-3-6 0-14l2-6 1-7q1-5-1-10l-5-8-4-8q-2-5-1-11 1-17 13-30l9-8 6-6"/><path fill="#888" d="M85 229q14 10 32 10 13 0 25-6 1 6-2 15-1 3-15 8l-18 5q-3 1-5 7l-9 3-8 3-2 1q-5-3-5-14v-9l-1-6q-1-4-8-8t-9-9q-2-7 1-15l6-13q5 17 18 28"/><path fill="#0d131a" d="M64 186l1-8q3-20 18-33t33-13h4l13 3 12 5q1 7 4 11 8 8 10 14 3 6 3 16-1 6-6 13l-11 14q-6 6-5 14l2 10q-13 7-26 7-17 0-31-10t-19-27l-2-16"/><path fill="#888" d="M169 108q6 7 8 14 3 8 1 14l-6 12-6 11q-6-5-9-10l-4-12-1-5-1-8q11-5 18-16"/><path fill="#8e84ae" d="M91 46q9-7 18-6 5 5 5 16-4 9-7 12-4 5-10 5l-5-4-11-7q1-9 10-16"/><path fill="#0d131a" d="M80 184l9 12q-1 5-7 6t-10-5q-4-6-3-15 1-10 5-14 1 6 6 16"/><path fill="#888" d="M94 94h1q9 3 15 3 10 0 15-5l12 8q6 7 7 19l1 11 1 10-12-5-13-3-27-38"/><path fill="#fff" d="M140 217v4q-2 4-7 7t-12 4q-16 1-30-11 13 3 29 1 13-2 20-5M148 180q3 7 1 16-3 8-8 11-7 4-16 1-8-2-12-10 6-1 18-7t17-11M74 168q1 6 6 16l9 12q-1 5-7 6t-10-5q-4-6-3-15 1-10 5-14"/><path fill="#8e84ae" d="M265 153l3 18q2 16 0 20-1 2-9 4l-10 2v-12l6-3 1-10q0-10-2-13l11-6M115 297l4-1 11-1q20-4 39-15l7 6q5 2 8 1 10-5 14-15 5 0 8-2 2 3 6 5l2 2-7 5-8 7 6 14q-7 14-7 29l-17-18-13-11-11 4-9 7q-4 5-19 9l-20 2h-1q-2-1-2-3l-1-4 3-10q3-7 7-11M226 84l6-2 1-6q2 6 7 11 4 5 9 7 12 7 28 8l-20 9q-3 2-8 0l-7-5q-7 2-12 8l-1-15-3-15M22 295l12-9q5-6 7-13l7 5q4 3 5 6v1l-13 8-11 6-4-1-3-3M33 158l-7 9-8-7-11-8q17 1 35-3l-9 9"/><path fill="#8a969d" d="M90 145l7-4 8-2 4 1q1 2-1 4-2 3-7 5l-7 2q-4 0-5-2-1-1 1-4"/><path fill="#8e84ae" d="M296 241q-3 1-40-5l-37-6-2-4-2-10 46 12q39 8 40 6l-1 3q-2 4-4 4M244 143l-1-5 5 2q7 0 17-3l3 6q2 6 1 8l-8 5-7 3-2-10-4-3-4-3M255 204l7 1q7 1 10-2l-2 7-15-6M235 256l3 5q4 6 8 8l-5 6q-5 6-7 6l-6-3-4-3 6-8q5-8 5-11M180 287q-2 0 0-4 1-4 5-8 3-5 7-7 4-3 6-1 1 1-1 4l-4 8q-7 10-13 8M218 142l3-4q4 1 5 14 1 12-3 14-6-1-6-15l1-9"/><path fill="#0d131a" d="M63 186q0-24 17-40 16-15 37-15 15 0 28 8v2q-6-4-14-6l-14-2q-20 0-35 14-17 16-17 38 0 23 15 38t37 15q14 0 25-6v1q-12 7-25 7-23 0-38-15-16-16-16-39"/><path fill="#0d131a" d="M120 90L91 70q-12-9-14-6-2 2 5 12l18 25 22 31h-4l-21-30-17-25q-8-12-4-15t16 6l43 30 2 3 3 3-20-14"/><path fill="#0d131a" d="M70 148l3-2 5-3q28-17 29-30 0-1 0 0l1 1q0 8-10 17l-19 13-7 6q-5 6-7 13-3 8 0 13v1q0 2-1 1-4-5-2-14 2-8 8-16"/><path fill="#0d131a" d="M71 141l-7 6-7 13q-2 6-1 10l4 14q4 12 2 16l-5 8-3 5-2 5 1 9 3 7 9 7q7 6 7 9-2 11 0 17 1 5 4 7l5 1 4-2 16-6v2l-16 7-5 1q-3 1-6-1t-4-9v-17q0-3-7-9l-9-5-4-8-1-10 2-5 5-6 4-7q2-4-2-15l-5-14q-1-4 2-12 2-8 7-14l8-5 11-7 13-10q6-6 9-16l1 1 1 1q-3 10-9 16l-14 10-11 6"/><path fill="#0d131a" d="M85 274l-1 1h-2q-4-2-5-8l-1-11v-10q-2-4-7-7l-6-4q-3-2-4-5-2-7 0-16l7-13v3l-5 11q-2 8 0 14 1 3 4 5l4 3q7 4 8 8l1 10 1 11q2 6 6 8M121 90l-1-1-1-1q10-2 21 1 10 2 16 6l1 2v1q-5-4-14-7-12-2-22-1M133 98q-3-2-2-3l4 2q7 5 9 15l2 17v12q2 6 5 9 7 8 10 14 3 7 2 17 0 5-3 10l-7 8q-8 9-10 14-3 7-1 14l1 8-2 13q-1 4-16 9l-18 5q-3 1-6 9-3 7-3 15v1l3 1h1v1h-4q-3-1-2-3l3-16q3-9 7-10l17-5q15-4 16-7l2-13-1-8q-3-8 0-14 2-5 12-15l6-8q2-4 2-9 1-10-2-17-2-5-10-13-3-4-4-10v-12l-2-17q-2-9-9-14"/><path fill="#0d131a" d="M167 158l-1 1v1q-8-6-12-15l-3-14q0-16-5-26-7-15-23-16h1l2-1q14 1 21 13 5 10 7 30 0 8 3 13 3 9 10 14M167 192q3-3 3-8l2 3q-1 4-4 7l-6 5q-9 7-12 14-2 8 1 20v13l-2 1 1-6-2-8q-3-13-1-20t14-15l6-6M109 269l-5 11-2 8 3 1-1 2-3-2q-2-1 1-9l6-12q3-6 34-9v1l-20 4q-11 3-13 5"/><path fill="#0d131a" d="M196 47q-8-5-18-8-8-2-14-1l-3 5-4 15-2 25q0 12 3 14 10 7 16 17 8 13 5 22l-3 8-4 6q-7 11-7 19 0 7 7 17l7 13q3 8 2 18-1 9-9 16l-14 10q-9 5-11 8-4 4-5 13l-2 7q-2 5-7 7l-15 5q-10 3-11 5-7 12-10 21-2 8 0 11l3 3q3 2 7 1l1 2 2 1q-5 1-11-2l-5-4q-2-3 0-11 3-10 11-23 1-2 13-6l15-5q3-2 5-6l2-7q1-9 4-13l12-9 14-9q7-7 8-15 1-10-1-18l-7-12q-7-11-7-18-1-8 7-20l7-14q2-9-5-21-6-10-16-17-3-2-3-15l2-25q4-21 8-22 7-1 15 1 11 3 19 8 11 6 11 13v10l1 11q2 4 8 9l-3 1q-6-5-7-10l-1-11-1-10q0-4-9-10"/><path fill="#0d131a" d="M170 43l2-4 3-2 2 1q1 0 0 0l-3 2-3 5q-4 10-6 26t1 20l8 9 12 15q5 9 5 19 0 5-4 11l-6 8q-6 8-7 13 0 4 6 12 8 12 10 18 5 12 2 25-2 11-12 19-5 5-18 11l-8 5q-3 2-3 4l-3 16q-2 7-4 8l-3 1-5 2-12 4-8 5-6 12q-4 7-4 10l1 5 2 1q7 1 20-2 15-4 19-8 3-4 8-7 6-4 11-5l3 3q-4-1-11 3-7 3-10 7-4 5-20 9-13 4-20 3-3 0-4-3l-1-6 3-11 7-12 8-5 13-5 8-4q2-1 4-9l2-13q0-2 4-4l8-5 17-11q9-8 11-18 3-13-1-25l-10-17q-6-8-6-13t7-14l6-8q3-5 3-10 0-9-5-18-3-6-11-15l-8-9q-3-5-1-22t7-27M240 132l-4-12-2-2-4-2 1-2 5 2 2 2 4 13 3 11 4 3 4 3q3 2 3 18 1 16-1 17l-10 4-6 1h-3q-1-1 1-1l6-2 10-4q2-5 1-15 0-10-3-17l-3-2-4-4h-1l-3-11"/><path fill="#0d131a" d="M240 157h-2l1-1 7-4 5-4 1 1v1l-5 4-7 3"/><path fill="#0d131a" d="M241 132h-1v-2l7-5 6-3q5 1 12 12t6 17l-8 5-8 4-1-2 14-8q1-4-4-13-6-10-12-12l-6 4-5 3M248 185l2-1v18l-2-1v-16"/><path fill="#0d131a" d="M267 192v-20l-3-18 2-1 3 21v18q4 4 4 8 1 4-2 11l-2-1 2-9q0-5-4-9"/><path fill="#0d131a" d="M267 191l1 1q1 0 0 0-4 3-13 5h-3q-1-1 1-1 11-2 14-5M199 88l-1-2 2 1q2 3 15 0 11-4 17-8v4l-17 5q-13 4-16 0M196 91l2-2v2l2 9 8 10 1 2-3-2q-6-4-8-9l-2-10M241 105l1 1 1 1-6 3q-5 3-8 8l-2 2q-1-1 1-3 5-8 13-12"/><path fill="#0d131a" d="M336 46l6 2q3 2 4 5v6q-1 4-4 7-18 12-45 27-29 17-39 20-5 2-10-1l-9-7q-2-1-2-3h2l9 7q5 3 9 2 11-4 39-20l45-27q3-2 4-5l-1-6-3-3q-2-2-5-2l-44 7-50 10q-4 1-7 9-3 7-3 13l-1 2-1-2q0-6 3-14 4-10 9-11 15-5 94-16M205 136l-1-2 1 1 7 2h8q3 0 5 4l2 10-1 10q-1 6-4 7l-7 1q-5 2-6 5l-2 2v-3q2-3 8-6l7-2 2-3 1-11q-1-11-6-12h-8q-5-1-6-3M218 203l3-2-1 2q-3 3-4 9l1 8 1 4-3-4q-2-5-1-10 1-4 4-7M231 195q-3-2-2-3t5 1l33 14 32 14 3 5v8q-1 5-4 7-2 2-6 1l-35-5-35-5q-5 0-4-2l5-1 34 6 35 5q6 1 8-6l1-6q-1-4-3-5l-33-14-34-14M222 246l2 1 3 1 3 1 7 1 1 2q0 3-5 12l-9 14-3 2h-3q-3 0-7-3l-5-5-2-3h2q3 4 6 5 3 3 6 3l4-2q5-4 9-12l5-10-6-3-6-2-2-2"/><path fill="#0d131a" d="M251 257q1 3-6 14-7 12-11 12l-6-3-5-5h1v-1q6 5 10 5 3 1 9-8t6-12q-1-2-5-3l-8-2v-2l9 2 6 3"/><path fill="#0d131a" d="M237 240l-1 4 1 5 1 2v2l-1-1h-1v-2l-1-1-1-5 2-5 2-3 1-4h2q0 3-2 5l-2 3M254 235l2 1-5 11-3 10-2-1 4-10 4-11M160 301l-2-1 3-1q4 0 10 5l14 13 17 18q4 4 11 0l4-3q2-3 1-5l-3-5-11-19q-7-14-7-20l1-3 1 4 7 18 12 19 3 6q1 3-1 6l-5 4-8 3q-4 0-7-3l-9-9-8-9-13-13q-6-5-10-5"/><path fill="#0d131a" d="M200 291l-1-2 7-7 8-6 1 2-8 5-7 8M162 284h-2l2-1q3-3 5-3 3-1 5 1 6 5 9 5 7 0 12-9l3-6 1-5-4-4-4-5q-2-4-1-8l1-3v3l1 6 5 5 4 5v6l-4 8q-7 9-14 10l-6-2-5-5q-2-1-8 2M181 250l3 1-2 1q-4 0-8 3-5 3-6 7-1 3-1 1v-3q2-4 6-6 3-3 8-4M196 138l2-2v2l-3 8v12l-1-3-1-9 3-8M141 29q8 0 21 10l-1 2q-5-5-11-7-5-3-8-2-10 0-17 7-4 4-9 15l-7 13q-4 5-11 7l-1-1v-1q6-1 11-6l7-14q5-11 9-15 6-7 17-8"/><path fill="#0d131a" d="M152 34h1l1 1q-12-1-20 8-5 5-11 19l-5 11q-3 6-7 8l-2-1q4-2 7-7l5-12q6-15 12-21 8-7 19-6M103 52q-2 0-1-1h2q4 0 7 2l3 3-1 2-3-3q-3-3-7-3M93 60l1-1v1l1 7 2 5-1-1h-1l-2-5v-6"/><path fill="#0d131a" d="M109 37q3 3 4 8l1 10v2l-1 1-1-10q-1-6-5-8L76 20Q54 6 48 4q-7-3-10 0-2 4 1 9l17 24 19 26 2 4v3L58 43 37 14q-4-6 0-11t11-2l30 17 31 19M83 78l1 2q-21 5-27 18-3 5-3 12v25q-1 6-4 9-16 13-21 20-8 12-10 31 0 6 3 10l6 8q7 8 7 13l-4 11-3 10q-1 5 1 11 2 5 6 9l9 7 6 4q3 3 3 5l2 7 2 11q2 6 6 9 4 2 9 2t6-2l2-2 7-9q7-6 16-10l1 1v1q-9 3-15 10l-8 9-2 3q-1 2-7 2t-10-3q-5-3-7-10l-2-11-1-7-3-5-6-4-9-6q-6-5-7-10-3-6-1-13l4-10q3-7 2-10 0-5-7-12l-6-8q-3-5-3-11 2-20 11-32 5-7 22-20 3-3 4-9l-1-13v-14q0-7 3-12 6-11 28-17"/><path fill="#0d131a" d="M91 90l1 1q-13 1-19 5-9 6-11 17v14q1 12-2 18-1 3-7 8-9 8-13 14-7 10-9 24-1 6 1 11l4 8 5 8 2 10-3 10q-3 10-1 17 2 6 14 15l8 8q2 3 3 10l4 14q3 7 9 10h-2l-2 1q-5-4-8-11l-3-13q-1-7-3-10-1-3-8-7-12-10-15-16-2-7 2-18l1-5 1-5q1-5-1-10l-4-7-5-9q-2-5-2-11 2-14 10-25 4-6 14-14 6-5 7-9l1-16-1-8 1-8q1-12 12-17 7-3 19-4"/><path fill="#0d131a" d="M53 110q-4 6-6 13v9l2 2 4 4-1 2-4-4-4-4q-1-3 1-10 3-9 8-14v2M52 141l-2 2-22-5-18-3-4 1-3 3-1 5 2 5 13 9 10 8-1 1-1 1-10-8-13-10-2-6 1-6q1-3 4-4l5-1 19 3 23 5M21 296l-2-6q0-3 2-5l15-16 1 1 1 1-15 15-2 4 2 5 2 2q2 2 4 1l12-6 12-7v2l-23 13q-5 2-9-4M141 216v1q-9 5-23 7-18 2-32-3l-2-2h1q14 5 34 2 15-2 22-5"/><path fill="#0d131a" d="M127 230l8-4q4-3 5-6v2l-5 6-7 4q-10 2-20 0-10-3-18-11h1l2 1q7 6 16 8 10 2 18 0M149 178h2l-2 2q-5 5-17 11-11 7-18 8h-4q-1-1 3-2 6-1 18-7 13-7 18-12M74 167v-2q1-1 1 1 1 6 6 16 4 8 9 13l1 3q-1 1-3-1l-9-14q-5-10-5-16"/><path fill="#0d131a" d="M74 167h1v1q-4 4-5 13-1 10 2 15l5 5h6q2 0 3-2 2-1 2-3h1v1l-2 4-4 2q-3 1-6-1-4-1-6-5-4-6-3-17 2-10 6-13M148 181v-1l1-1q2 4 2 10l-3 10q-5 12-18 11-5 0-10-3t-8-8l1-1h1q2 5 7 8 4 2 10 2 10 0 15-9 5-8 2-18M115 223v-1l1 1 2 9h-2l-1-9M129 221l1-1h1l1 4 1 5h-2l-2-8"/><path fill="#0d131a" d="M83 192l1-3 1 1v3l-1 2-1 1v-4M137 190v-2l1-2 2 1v5l-1 1-1-1-1-2"/></svg>