<svg xmlns="http://www.w3.org/2000/svg" version="1" width="350" height="452" viewBox="0.0 -0.65 350.3 452.25"><path fill="#094b46" d="M84 267l2-4v-2l73 18v2l1 4 4 3 3 2q-28 33-37 30-13-3-24 1l-6 3-3 2-11-20q-12-22-12-32 7-2 10-7"/><path fill="#003a35" d="M96 284q5-8 5-19l58 14v2l1 4 4 3 3 2q-28 33-37 30-13-3-24 1l-6 3-3 2-6-10-11-21q10-4 16-11"/><path fill="#b0d3da" d="M51 288q8-7 16-11t11-3q22 8 25 26v14l-4 10-11 13 6 2q5 3 5 8 0 4-5 10l-7 8-5 12-3 12-4 10q-4 5-9 7H56q-5-2-6-7 0-3 4-10t3-9l-7 8q-5 6-9 8-2 1-8-1l-7-6q-2-3 1-8l6-5 6-7 7-7-3-2-5-4q-15-6-11-34 3-17 24-34"/><path fill="#94b3b8" d="M35 396l-6-4q0-2 3-1l4 1q8 0 17-14l1 1 1 2-6 8q-4 6-8 7h-6"/><path fill="#94b3b8" d="M57 340q2-3 1-6v-2l4-2q12-5 22-16 8-8 16-23 4 9 3 19-1 9-4 14l-11 13 6 2q5 3 5 8 0 4-5 10l-7 8-5 12-3 12-4 10q-4 5-9 7l-7 1-6-3q9 1 14-4l4-8 1-11-2-8q-1-2-11-5l-17-3 4-3-3-2-5-4q-6-2-9-7 6 3 15 0 8-3 13-9"/><path fill="#b0d3da" d="M129 320l3-6 7-9q12-12 28-15 27 14 39 36 9 15 9 31 6 12-1 21-2 4-5 6-4 2-6 1l-9 10q-8 9-8 13 4 7 15 14l10 6 4 1q4 1 5 4 2 9-5 11h-13q-1 6-8 6-6 1-19-2-4-1-6-6l-3-8q-1-4-6-6l-11-4q-6-2-7-5v-9q1-4 5-7l5-4 1-6-1-8q-3-3-3-10 0-6 3-10 2-4 7-7l3-3q-20-7-26-17l-4-9-3-9"/><path fill="#94b3b8" d="M153 393l-1-8-3-6v-7l2 6q2 3 4 3 2 1 9-8l7-12q1-1 2 1l2 7q5 11 11 13 5 2 10 1 6 0 10-4 4-3 6-10l3-11q5 11-2 21l-5 5q-3 2-5 1l-9 10q-8 9-8 13 4 7 15 14l10 6 4 1q4 1 5 4v6q-2 5-10 6l-8-1q-1 5-6 6-7 0-7-6v-5l-2-2-12-4q-2 0 1-2 2-2 1-3l-7-8-6-9q-9-11-18-7l3-3 3-2 1-6M144 329l-4 6-1 7q-4-5-6-11l-4-11 3-6 7-9q12-12 28-15 15 8 25 18-9-4-16-4-10 0-16 8v6q0 3 2 5t-6 3q-10 1-12 3"/><path fill="#b0d3da" d="M123 15v15l1 16q1 10-5 14l-11 3q3 2 3 8l-3 9q-2 5-15 5t-19-4q-3 2-9 2h-6l1 3 2 6q5 6 2 14l9 1 10 2q7 4 14 13 6 9 6 14 16-9 30-5l11 6 8 5q6 4 5 43 0 19-2 37L52 165q-11-2-21-12-8-8-9-14l-6-3q-3-2-5-7-10-7-10-23 0-10 5-27 3-8 10-17l5-6q2-3 2-8l2-12q1-4 5-5l3-7q4-5 10-5 5 0 7-2l5-6q3-4 10-3l4 1h4l5-3 7-3q6-2 11 1l3 3h4q7-4 14 0 5 3 6 8"/><path fill="#94b3b8" d="M101 35l-2-16q4-3 5 15l1 13 1 8q3 3 9 1 7-3 9-9 1 10-6 13-3 2-10 3 3 2 3 8l-3 9-2 2-4 2-3-6q-3-3-5-3l-7-1h-8q-4 0-4 3-1 4 1 5l-2-1q-3 2-9 2h-6l1 3 2 6q5 6 2 14l9 1 10 2q7 4 14 13 6 9 6 14 16-9 30-5l11 6 8 5q6 4 5 43 0 19-2 37l-60-33q4-2 5-10 0-7-3-15-4-9-9-14-7-5-15-1-7 2-18 0l-17-5q-12-4-7-8 7-6 7-21l-3-21-3-16q-2-8 0-6 7 3 3-7l-3-7q-2-4-1-5l2 3 3 6q7 8 17 2 2-2-1-11l-3-12-2-5q0-3 2-3l4 14q2 14 4 16 3 2 10 1l10-4q1-1-1-18-2-16 0-17t3 14l2 19q2 2 11 2 9-1 9-4 2-7 0-21"/><path fill="#b0d3da" d="M340 141q10 19 8 30-2 9-6 12-3 3-11 4-4 1-14 15-9 14-15 16l-127 13 51-63q4-5 12-4 10 0 18 9 3-7 12-12 8-5 13-4 3 0 8 3 4 2 5 1v-13l1-10-1-6-1-2q-7-2-10-5-3 2-8 0-6-3-12-10-3 1-8-2l-9-5q-5-4-7-10-2-7 2-11-4-10 3-15l9-7 5-5 6-6q6-4 13 0l12 10 8 10 9 11 5 9 5 12 6 10 5 6 6 7 7 12"/><path fill="#94b3b8" d="M246 84q5 2 18-9l-4 4-5 6q-4 7 9 10 1 6 4 9 5 4 11 1l-3 4v4q2 4 5 6 3 1 4-2l8 5q5 2 9-2 8 5 11 16l1 7-1 5-3-4-5-4q-8-3-11 8l1-6v-4l-1-6-1-2-4-2q-5-1-7-3-3 2-7 0-6-3-12-10-2 1-7-1l-8-5 2-2 2-5q1-2-3-6l-9-7 1-2q-2-5-1-9l2 3q2 3 4 3M226 168q4-5 12-4 10 0 18 9-8 3-11 8-4 6-5 19-6 3-19 0l-10-2-9-1 24-29"/><path fill="#94b3b8" d="M344 150q6 13 4 21-2 9-6 12-3 3-11 4-4 1-14 15-9 14-15 16l-22 14q-25 13-38 11-10-2-12-21l1-13 2-6q10 4 25 2 13-1 21-5 1-1-5-3-5-1-3-2l8-4 9-4q11-6 13-14l3 3 7 3 11 2q5 2 7 1 5-4 7-19 1-16-3-33 7 10 11 20"/><path fill="#b0d3da" d="M240 196q10 8 10 25 2-3 13-9l12-6q3-2 11-1 9 2 10 6l2 4 2 1q4 3 4 10l1 4 2 2q3 3 1 9v18q-1 5-6 11l-6 5 1 3 3 8q2 12-5 19l-10 11q-2 2-5 2h-8q-5-1-7-4l-7-7q-5-5-7-10-6-2-13-8-10-9-14-17l-3-14q-1-6-4-10-2 5-9 10-8 6-16 6-5 8-17 11l-9 1q-5 1-6 3-12 2-40-5t-34-13q0-5-2-8t-6-5l-9 4q-9 5-17 4l-7-1-4-1-9 1q-6 0-8-7-5-9-6-19-2-19 12-35l43-15q46-15 58-17 13-3 53 12l38 15 1 2h4q7 1 13 5"/><path fill="#94b3b8" d="M292 232q2 2-8 7-10 6-10 8l1 5q2 4 4 4 2 1 10-3l7-2q1 1-7 5l-7 5 2 3q2 3 4 2l12-5q8-4 8-2-1 5-6 11l-6 5 1 3 3 8q2 12-5 19l-7 7-5 5q-4 3-12 1 4-3 5-10v-5l-1-1-4 3-1-5q-2-14-6-24-2-3-7-3-6 1-8 5 0-4 3-8 2-4 9-9l-5-1q-4 0-7-4l3-1 4-4q1-2-3-8l-5-9-1-7 3-6 3 5 5 2 14-7q10-7 10-5-1 3-10 8l-9 7q-1 3 1 7l5 4q2 1 12-5t11-5"/><path fill="#94b3b8" d="M206 182l16 7 3 2 4 1q-2 7 2 16 4 8 11 13 4 2 8 0l-1 3-1 3q-4 0-6 4-2 5-1 11l3 6 4 8q0 2 6 3l8 2-6 7-6 6q-5-14-15-18-7-3-15-1l-3-7q-2 5-9 10-8 6-16 6-5 8-17 11l-9 1q-5 1-6 3-9 1-27-2-16-3-31-8-9-15-17-14-2-5-7-7l-9 4q-9 5-17 4l-7-1-4-1-4 1 3-3 4-6q1-2-3-2-5 1-4-1 2-4 2-20 0-19-3-31 53-18 80-25v22l1 21q2 25 18 37 6 3 19-2 12-6 16-12 1 5-5 12l-4 5v3q3 2 6 0 3-1 6-5 6-5 10-14 6-12-3-16l-7-7-6-9q-5-13 4-33l35 13"/><path fill="#b0d3da" d="M81 158q2-2 6-2l9 3q7 2 10 1l10-1q5 2 9 9l7 19q3 11 3 17 1 12-8 17l3 7q2 5-1 8l-10 5-11 4-14 2-12-1-5-2-1-2-12 3q-7 0-13-8l-9-1q-5-1-8-5-4-3-4-13v-18l1-16q3-8 10-11 3 0 6-3l4-4q5-5 11-4 8 2 14-1l5-3"/><path fill="#94b3b8" d="M47 191l1 1v2l1 18q1 11 4 15h8l7-2q3-2 3-10l-2-15-2-14q0-6 2-5 2 0 3 6v12q1 19 7 21 7 3 16-1 9-3 10-5l-3-21q-4-19-1-19 4-1 8 18l2 14 2 7h8l9-3q2 0 3-7v-11l2 12q1 12-8 17l3 7q2 5-1 8l-14 6q-1-5-9-7l-11 1-11 3-8 4v-1l-12 2q-7 0-13-7h-9l-8-5 11-2v-5l-1-12q-1-17 3-22"/><path fill="#b0d3da" d="M229 148q1 7-1 14l-5 10q-13 8-28 12-30 9-43-5-14-15-15-26-1-4 1-6 1-2 4-2l9-2q5-2 7-5 6-12 16-17 15-7 35 2 18 8 20 25"/><path fill="#94b3b8" d="M171 135l-4-3q-2-1-6 2 5-7 16-13 11-5 15-2 7 5 1 25l-7 19-4-11q-5-12-11-17M229 149q1 7-1 14l-5 9-20 9q4-3 7-8 8-11 10-23l-13 13q-6 6-11 8 6-12 8-25 2-16-2-26l7 3q19 8 20 26"/><path fill="#fff" d="M170 148l5-6 9 23-1 3q-2 2-3 1l-7-6-6-5q-1-4 3-10"/><path fill="#dbdcdc" d="M171 146l4-4 10 23-3 3q0-6-4-12-2-5-7-10"/><path fill="#fff" d="M209 179q-5 3-7 2l1-4 2-4 13-8-1 5q-2 5-4 6l-4 3"/><path fill="#dbdcdc" d="M218 165l-1 6q-9 2-14 6l2-4 13-8"/><path fill="#e50020" d="M179 150l4 11-4 4q-2 1-3-1l-1-5 4-9"/><path fill="#c60019" d="M179 150l4 11-2 2-1-5-3-3 2-5"/><path fill="#e50020" d="M214 168q-1 6-6 10h-3v-4l9-6"/><path fill="#c60019" d="M214 168l-1 4q-5 0-8 2l9-6"/><path fill="#958c87" d="M164 129l-2 3q-2-7 0-19 1-14 5-14 6-1 10 5 5 7 7 25 2 13 2 27l-1 12-6-19q-8-19-12-21-1-1-3 1M218 119q-1 22-23 54 2-4 3-13l2-18q1-25-11-24 1-6 10-14 8-8 13-5 2 1 4 6 2 6 2 14"/><path fill="#958c87" d="M219 128l6-3 9-4q13-3 10 7-3 12-17 27-13 15-24 20l13-20q8-15 8-18l-2-6-3-3"/><path fill="#766e6a" d="M219 128q15-7 12 7-2 6-8 13l-7 7q3-3 5-10l3-8-2-6-3-3"/><path fill="#fff1ac" d="M165 156l5 4 10 6q4 2 9 8 4 5 9 5 6 1 16-3l10-5q4 11 0 16-3 3-10 4-5 3-11 12l-8 11q-3 3-8 2l-8-5q-2-2-9-3l-11-3q-5-2-6-6l-4-8q-4-6-4-9-1-4 1-9l2-8v-8q-1-7 1-9 1-3 4-3 2-1 6 4l6 7"/><path fill="#dcd096" d="M159 205l-4-3-2-3q8 5 16 6l11 3q4 1 8 5 4 2 9 0l-2 1q-3 3-8 2l-8-5q-2-2-9-3l-11-3M193 196q-4-4-2-7 2-2 13-2 11-1 12-4v-5l-2-2 6-3 4-2q4 11 0 16-3 3-10 4-4 2-7 7l-3 1h-3q-4 1-8-3"/><path fill="#ed8599" d="M176 198l-9-1q-5-1-7-3t-2-7v-12l1-10q13 7 19 15l7 7 8 3h6l1 2v7q-5 5-5 8l-5-1-7-6q-2-2-7-2"/><path fill="#ce7486" d="M178 180l7 7 8 3h6l1 2v7l-2 3q-5-6-17-10-13-4-23-2v-3-12l1-10q13 7 19 15"/><path fill="#922f00" d="M200 192l-1-2 5-1 6 1-10 9v-7"/><path fill="#ffe100" d="M94 270l-1 2-2 1-2-1-1-2 1-2 2-1 2 1 1 2M105 276l-1 2-2 1-2-1v-2-2l2-1 2 1 1 2"/><path fill="#dcc200" d="M103 273l2 1v2l-1 2-2 1-1-1-1-1 2-1 1-3M156 284l-1 2h-2l-1-1v-2l1-2h2l1 1v2M162 280v3l-2 1-1-2 1-3 2 1M117 271l-1 18-5-3-3-2 1-6 2-7h6M146 276l3 1 1 2q0 4-2 7l-2 4-5 2 5-16"/><path fill="#ffe100" d="M114 274q3-6 9-9 7-2 13 0 7 3 9 9 3 6 0 12t-9 9q-7 3-13 0-7-2-9-8-3-7 0-13"/><path fill="#dcc200" d="M145 274q3 6 0 12t-9 9q-5 2-9 1-5 0-8-3 19-10 23-24l3 5"/><path fill="#152139" d="M82 270l3 2 6 5 10 4 8 3q1 2 6 4 2 4 5 6 4 2 9 2l8-2 4-2 2-1 3-1 2-2 7-1 5-2 3 2 1 1 2 1q-13 4-25 14t-12 18q-4-3-12-2-9 1-17 5l3-9 1-9-2-9-3-8q-3-5-10-9-7-5-13-7l4-2 2-1"/><path fill="#ffe100" d="M83 268l-1-2v-3l2-1 2 1-1 3-2 2"/><path fill="#0d131a" d="M181 160l-1 1-1 1v-1-2l1-2h1v3M209 174l-1 1v1l-1-1 1-2v-1l1-1v3M160 285q-2-1-2-4v-1l1-1h2l-1 2 1 3 4 3 2 1 1 1-2 1-2-1-4-4M84 268l-7 6-2-1q5-2 8-6v1h1M87 261l-1 2v-1h-1l1-2 1 1M129 319v2q-11-3-21 1-6 1-10 5l1-2 1-2q5-3 11-4 8-2 18 0M65 332q8-2 16-9l15-18 2-1-1 3q-7 10-14 16-8 8-17 10h-2q-1-1 1-1M54 342l4-6 1-2v3l-3 6q-3 4-7 5h-4q-1-1 2-1l7-5"/><path fill="#0d131a" d="M77 275h-5l-8 4q-13 8-23 19-11 13-13 24-2 15 1 24 4 10 16 9h4l-2 1h-6q5 6 11 7t15-5l3-1-3 3-8 4q-8 2-13-1l-4 3-4 4-3 4-2 3-5 5q-3 4-1 6 2 4 7 6t7 1l8-8 6-7-2-2 4 2q2 1 1 4l-3 6-3 5-1 3q0 5 3 6 2 2 5 2l7-1q5-2 8-7 4-5 4-9l3-13 5-12 2-3 3-3 4-5q3-3 3-6 1-5-4-7l-6-2-5 3-6 5h-2l1-2 11-9 11-11q3-4 4-11 2-9-1-16-5-15-24-22m17 8q7 6 10 14l1 10-2 11-3 8-6 6-4 5q11 2 11 9 0 3-3 8l-6 6-5 6-4 11-3 12q-1 8-4 12t-8 6l-9 1q-4 0-7-2t-4-7v-1l2-4 3-5 2-4 1-3-4 4-4 7-6 5q-3 1-9-2t-8-6l-1-3q0-3 3-7l5-5 2-2 2-4 8-7-3-2-4-4q-6-1-10-7-3-5-2-15v-6-5q2-13 14-26 10-11 22-18l9-4q6-3 8-2 10 4 16 10M144 307l-1-2 2 1q2 0 8 6l7 8 1 3-1-1-7-8-9-7M172 333l-1-2q1-1 2 1 3 1 5 6 3 6 3 13 0 4-1 2v-3q-1-7-4-12l-4-5M161 384h-2l1-1 6-6 5-6 1-1-1 1q0 3-4 8l-6 5"/><path fill="#0d131a" d="M128 321v-1q0-7 11-17 12-11 27-14h1q30 15 42 39 8 16 6 29l3 5 1 4-2 8-4 6q-2 4-5 6l-6 2-8 9-7 10q4 7 13 14l11 6 5 1q4 2 5 5 1 6-2 9-3 5-16 4-2 5-9 5-6 1-20-3-3 0-5-3l-2-6-2-5q-1-3-9-7l-7-2-7-4q-2-2-2-5l1-5 3-6 4-4 3-3 1-6v-6l-3-4-2-7 2-6 2-5 4-4 3-2 3-3q-16-4-23-13-4-4-7-14l-3-7m5-7l-3 6 3 7q2 9 8 15 9 9 26 14 5 1 6 6v5l-1-1v-4l-4-3-5-3-5 4-5 5q-2 2-2 5l-1 5 1 5 2 4 1 5v4q0 4-2 6l-3 3-3 3-2 5-1 5 1 5 5 3h1l11 4q4 2 6 6l2 5 2 6 4 3q18 4 24 0 2-1 2-5v-5q-2-3-14-3l-3-1h13q5 0 6 2l1 4v4l6 1q5-1 7-3l1-3v-4q-1-3-4-4h-7q-4 1-2-1l2-1-10-7q-10-7-11-12l-1 5-1-6q1-4 7-12l9-8-6-1q-2-1 2-1l8-1q5-2 7-5l3-6 2-7v-4l-3-5-2-4 3 1-1-9-6-17q-13-24-40-38-15 3-27 14l-7 9M123 47V33l-1-18-2-4-4-4q-6-3-12 0l-5 1-3-2-4-3q-3-1-7 1l-6 3-6 3-5-1h-7q-3 0-6 3l-3 3-3 4-6 1q-5 0-9 4l-3 6-1 3h-1q-2 0-3 3-2 4-2 12 0 5-2 9l-5 6-5 7-5 9q-5 16-4 29 1 15 9 21l3 5 6 4-1-2q0-2 1-1l2 2 1 3q2 7 10 14 9 8 20 11l-2 1q-13-3-22-12-7-7-9-14-5 0-7-3l-3-7q-11-8-11-23l2-15 4-13q1-6 4-10l5-7 5-6 2-8 3-14q1-4 4-5l4-8q2-3 9-3l5-1 4-3 1-2 2-2 6-4 6 1h4l3 1 2-2 3-2 7-3q4-2 7 0l5 2 3 3h3l8-2 5 1q3 1 5 4l2 5 1 19 1 14v8l-3 4q-2 3-6 4l-6 1 2 6q0 6-2 10l-3 3-5 2-14 1q-8-1-13-4-4 2-15 2 0 3 3 7t3 9v6h8l11 2q6 4 12 13 6 7 7 13 8-4 14-5 7-1 15 1 7 2 13 6l6 6-1 1q-9-8-17-10-15-5-31 3v4q-1 4-2 3v-7q0-6-5-14-6-8-13-12l-10-2h-8q-7 11-7 6l5-8 1-6q0-5-2-8l-4-6v-2q-7 0-13-3-7-3-9-7l-1-2 2 1q9 8 20 9 8 1 15-1-5-3-5-6v-4l1-3h4q-3 4-3 7 2 4 8 6 7 3 18 2h7q4-1 5-3 3-4 3-9t-2-8h-8l1-2q15 3 20-4 3-4 2-10"/><path fill="#0d131a" d="M46 92l1-6 2-5 2 1-3 9-1 3-1-2M62 138q-3-8-2-17h1v3l2 11q4 10 13 12 3 1 2 2h-3q-9-1-13-11M99 28v-4l-1-4 1-1 1 1 1 3 1 7 2 16q0 15-4 19-5 4-13 3-8 0-11-3l1-2q3 3 10 3t11-3q4-3 3-17 0-11-2-18"/><path fill="#0d131a" d="M76 40l-1-7-1-6q0-3 2-2v3l1 12 2 9v7q0 7-3 10-3 4-9 4-7 0-10-3-3-2-5-11l-5-19 1-3 1 2 5 19 4 11q2 2 9 2 5 0 8-4 2-4 2-9l-1-15"/><path fill="#0d131a" d="M29 48v-3l1 1q5 20 12 23 5 2 10 1l6-3 1 1q-3 3-7 4-6 2-11 0-5-3-9-13l-3-11M281 196l-3 1 3-2 10-7 8-7 2-2-1 3q-2 4-7 8-6 5-12 6"/><path fill="#0d131a" d="M329 123q5 3 12 17 9 17 9 28l-1 5q-3 9-6 12-3 2-12 2l-6 7-7 10-7 11-8 6-1-3q4-2 8-7l8-10 5-9 6-6h-3q-2-1 0-1h6l8-2q6-4 7-12 2-11-7-29l-8-13-5-6-6-7-6-10-2-5-8-16-8-11-9-10-12-9q-6-4-11-1l-5 7h-1l-4 3-6 4-5 4q-4 3-4 9t6 7l6 2q1 1-1 1l-6-1-3-2q-3 3-3 7l3 7 5 5 1 1 8 5q6 2 9 0l4-1-1 1q0 2-3 3l10 8h6l9 4q2 2 7 2l6-2h2l-2 2-4 1-4 1 1 6-1 4v17q1 6 6 12 6 7 11 7l5 1-5 1q-6 0-11-6l-7-11-6-2-7-3q-5 0-12 4-9 5-13 15l-2 3v-1-4l1-1q-7-8-17-9l-8 2q-4 1-5 3v-3l5-3 8-1q10 0 18 9 4-7 12-12t13-4l7 2 6 2-1-7 1-11v-4-4l-1-2-4-2-6-4h-7q-6-2-13-10-3 1-8-2l-8-4-1-1-6-6q-3-4-3-8v-1q0-3 3-7-3-4-3-7 0-4 6-9l5-4 9-8h1q8-12 19-5l7 4 6 5 8 9 8 11 4 7 4 10 3 6 6 10 6 7"/><path fill="#0d131a" d="M304 133l-1-2h2l5 7 3 7v3q-1 1-1-1l-3-7q-3-6-5-7M268 69l3-2v1q-2 4-9 10l-5 5q-3 2-4 5l-1 2 1 4q2 4 8 6l-1 1-5-2q-3-2-4-5-2-4-1-6l5-6 6-5q3-2 4-5l3-3"/><path fill="#0d131a" d="M270 88l7-5 3-3 2-1q1 1-1 2l-2 3-8 6-6 5-3 5q0 4 3 7 2 4 5 5l3 1h1v1h-1l-5-1q-3-1-6-5-2-3-2-8 1-6 10-12"/><path fill="#0d131a" d="M288 94q1-3 2-2l-1 2-5 7-5 5-3 4-1 4q-1 4 1 5l7 6q5 3 7 2t2-4l-3-2-1-2 2 1 3 1 3 1 3-1 3-1-2 2-3 2h-3l-3 4q-3 1-9-2l-7-6-2-3-1-4q1-4 5-8l6-5 5-6M30 193v4q-12 15-11 31 0 10 5 18v-2l2 5q1 4 6 5h8l3-1 4-1h1l-3 2q7 2 18 0 11-3 16-9l2 1-1 1 5 5 2 8 9 6 15 5-1 2q-15-4-24-12l-3-8-5-4q-6 6-17 7-10 2-19 0-4 2-9 1-8 0-10-8l-4-6-3-13q-2-19 14-37M122 163q4-2 9-2h7l3 1q1 1-1 1h-8l-9 2-1-2M217 205v-3q1-1 1 1 2 15 12 23l2 2-4-2q-5-1-8-11l-3-10M149 254l-3-1 2-1q9-1 17-13l8-14q2-4 2 0l-3 6-6 10q-9 14-17 13M115 242l1-1q2 3 8 5l10 4 2 1h-2q-6 0-13-4l-6-5"/><path fill="#0d131a" d="M154 256l-1-2 1 1 5 3 6 3 3 2-3-1q-3 0-7-3l-4-3M148 262v-1h1q4 5 8 7l7 2h3l-3 1q-5 0-11-4l-5-5M112 256l-3-2 3 1 11 3h15l-1 1q-8 2-15 1l-10-4M47 192l-1-2 2 1 1 3v28q2 8 5 10 9 5 18 1l8-5 2 2q-3 3-9 5-10 5-20-2-4-2-6-12v-22-7"/><path fill="#0d131a" d="M70 184v-2q1-1 2 2l1 20 1 13q2 7 5 9l6 3q4 1 11-1t10-5q2-2 2-7l-4-23-2-6v-11h1v1l1 7 2 11 3 12 1 10q1 5-3 8-3 3-10 5-8 2-13 1l-8-3q-3-3-4-10l-1-13-1-21"/><path fill="#0d131a" d="M72 164H55l-5 4-3 4-5 2q-8 3-10 10l-1 16v19q1 9 3 12 4 3 10 4t10-2l2 2-3 3q4 5 11 5l10-2-2-6 4-1v5q2 5 7 6l12 1 13-3q10-2 18-8 2-2 2-6l-1-7-1 1-10 2q-6 1-8-1l1-2q1 2 9 1 8-2 10-4 6-5 6-15 0-6-3-16l-7-19q-3-7-8-9l-9 1h-6l-6-2-4-1-4-1-5 1-4 2-6 4m-44 28l1-8q2-8 12-12l4-2 4-3 5-5q3-2 8-1h9l6-3 4-2q2-2 5-2l5 1 5 2 4 2h5q7-2 11-1 6 1 10 10l6 17q5 13 5 20v1q0 5-2 9l-6 7 2 3 1 5q0 5-3 6-4 4-9 6l-12 5-14 1q-8 1-12-1-5-1-7-4l-1 1-5 1-7 1q-8 0-12-8h-1l-8-1q-5-1-8-5-3-3-4-10l-1-13v-17M262 262l-5 4-6 8q-3 5-1 12v3l-1-2q-2-3-2-7t2-7q2-5 7-9l5-3 1 1M268 271l1-1h1v1q0 6-2 7h-2v-2q2-2 2-5"/><path fill="#0d131a" d="M260 261l1-1q4 6 8 8 4 3 8 3l2 1q3 2 10 0h2l-3 2-5 1-6-2q-9 0-17-12"/><path fill="#0d131a" d="M245 226h3v2q-4-1-6 5l-1 5 2 7 3 5 2 5 3 2 2 1 4 1h5q2-1 5-9l2 3-3 5-3 3h-6l-5-1-2-1-3-3-2-5-3-6q-3-4-3-7l1-7q2-4 5-5"/><path fill="#0d131a" d="M227 192h-4q-2-1-2-3h1l1 1h4q10 1 17 9 7 7 7 19l16-10 5-2 3-2 6-1 9 1 4 3 3 4 2 2 2 2 3 3 1 8 1 3 2 1q2 3 2 7l-1 4v8l1 10q-1 5-6 10l-7 6q5 10 5 17t-6 13l-7 7-5 6-3 1-8 1q-7-1-9-5l-2-3-2-2-6-5q-3-3-4-8-7-1-15-8t-11-15l-3-8-1-7-1-5-2-4q-3 5-9 9-7 5-16 6-3 6-10 9l-12 3-6 1-4 1h-2l-8 1v-2h10l4-2 5-1 11-3q8-3 10-7h-7l-9-1q-1-1 3-1h12q13-1 22-10l5-8 4-5q2-3 6-5l2-1-1 2-4 5-5 7 3 4 1 7 3 13q3 8 13 16l12 7-1-3h1l1 3 2 5 4 4 4 5 3 2 1 3q3 3 8 3h7l3-1 5-5 7-7q6-6 4-17-1-8-4-11l-3 3q-2 1 0-3l8-7q7-6 7-10v-11-7l1-6-2-3-2-2-1-4-1-7-3-2-2-2-2-4q-1-3-6-4l-8-2-5 1-7 4-10 5-8 6-2 7 1 6 4 4 3 1v2l-4-1q-4-2-5-5-2-3-2-7l3-8q-1-13-8-21-6-6-14-7"/><path fill="#0d131a" d="M275 221l6-4q1-2 2-1l-1 2-4 3-9 5-4 3-4 5-3 6 1 2 4 4 6 3v1q-4 1-7-1l-4-5-1-2v-2l1-7 3-4 4-3 5-2 5-3"/><path fill="#0d131a" d="M290 234h2l-2 2-11 6-10 5v2l1 4 1 3 3 2q2 1 10-2l10-4 2-1-2 2-9 5q-9 4-12 2-2 0-3-2l-2-4v-5-3l10-6 12-6"/><path fill="#0d131a" d="M273 260h2l1 5q2 3 4 3h6l10-3h3l-2 1q-8 6-18 4-3-1-5-5l-1-5M228 155l2-2q0 11-6 18l-2 1 4-7 2-10M189 117l2 1 2 1-11 1v-3h7M169 147q3-5 6-6v1l-5 6q-3 6-2 10l-2-1q-1-4 3-10M182 168l2-3 1 1-1 1-1 1h-1M202 179h-1l3-5 3-1-2 2-3 4M217 165l1-1v6l-4 6-2 1q3-3 4-7 2-4 1-5M176 164q-2-2-1-5 0-4 4-8-3 4-3 8v4l2 2 4-5 1 1q-2 5-5 5-2 0-2-2"/><path fill="#0d131a" d="M214 168h1l-3 7-5 4h-2q-2-1-1-5l2-1-1 4v1h1l5-4 3-6"/><path fill="#0d131a" d="M178 107q-4-8-9-8-4 0-6 11-2 9-1 19l4-3q3 0 8 9l11 29q1-18-1-35-3-15-6-22m36-5l-2-2q-2-2-6 0-4 1-9 7-6 6-7 10 5 0 7 4 4 6 4 19l-1 15-2 13q10-17 15-31 4-12 4-21l-1-7q0-4-2-7m29 20q-3-2-11 1l-12 5 4 5 2 4q0 5-20 35 10-6 22-19 12-14 15-25l1-3-1-3m-38-24l4-2 5 2 3 3 2 7v7l-1 11 1 1q5-4 12-6 9-3 14-1 3 2 1 8-4 12-16 26t-27 21l-1 1v-2l12-19q11-17 10-19l-2-4-5-3q-2 11-7 21-6 12-14 22l-1 2-1-1q3-9 5-24 2-19-3-27-3-4-7-3h-1v-2q1-4 6-10 6-7 11-9m-38-1q3-2 7 1 7 5 11 31l2 26-1 12-1 1-1-2-7-18q-7-18-10-20h-1l-2 2-5 8q-2 4-8 6-5 2-9 1l-3-1h3l10-2 4-4 5-7-1-8 1-10 2-11 4-5M198 190h2l1 4v5h-1v-5l-2-4"/><path fill="#0d131a" d="M167 196l5 1 9 1 6 5q4 4 7 3 2-5 15-16h-18q-8-1-14-9l-9-9-9-6v14l-1 4 1 3 1 6q2 3 7 3m12-29l-8-6-5-3-2-2-4-4q-4-6-7-6l-3 2q-2 3-2 8l1 2v8l-2 7-2 9 5 8 3 7 2 4 4 3 6 2 5 1 5 2 4 1 8 5q5 1 8-1l5-7 6-9q3-5 7-7l-2-1-8 7-8 9h3l-3 1h-4l-4-3-5-4-3-1-8-1-4-1q-6 0-8-3-2-2-2-6v-6l1-8-1-9q0-4-3-11v-2l1 1 3 10q5 2 11 8l9 9q3 4 7 6l8 3h27l4-3 1-7-1-7-11 6q-10 3-16 2-3 0-5-2l-4-4-9-7m-7-7l8 6q6 3 9 7l4 3 5 3q6 1 16-3l10-6h1l2 10q0 4-2 7-3 5-10 4l-7 7-6 9-3 5-3 4q-3 4-10 1l-8-5-3-2-5-1-6-1-6-2q-4-1-5-3l-2-5-1-3-2-4-5-8q-1-4 1-9l3-8v-9q-1-6 1-9 1-3 5-4l4 2 5 5 3 4 2 1 5 4M82 269l9 7 17 7 1 3-18-9-10-7 1-1M160 284l1 2-13 3 1-2 11-3"/><path fill="#0d131a" d="M89 270v2h4v-2-1l-2-1-2 1v1m-1 0l1-2 2-1 3 1 1 2-1 3-3 1-2-1-1-3M100 274v3l2 1 2-1v-1-2l-2-1-2 1m-1 2l1-3 2-1 3 1 1 3-1 2-3 1-2-1-1-2M156 284v-2l-1-1h-2l-1 2 1 1 1 1h1l1-1m-4-3l3-1 1 2 1 2-2 2h-2l-2-1v-2l1-2M162 281l-1-1-1-1v4l1-1 1-1m-2-2h2l1 2-1 2-2 1-1-3 1-2M110 271l2-1h5v1h-4l-2 1-1 6-1 6 6 3v2l-3-1q-4-2-4-4v-6l2-7M140 293l1-2 5-2 2-3 1-7-3-2v-3l2 2 3 3-2 7-2 5-7 2"/><path fill="#0d131a" d="M115 274q-3 6 0 12 2 6 8 8 6 3 12 0 7-2 9-9 3-6 1-11-3-6-8-8-7-3-13 0-6 2-9 8m-2 13q-3-7 0-13 3-7 10-9 7-3 14 0 6 2 9 8 2 7 0 13l-4 6-6 4q-7 3-14 0-6-3-9-9"/><path fill="#0d131a" d="M120 276q-2 4-1 8 2 4 5 6 5 2 9 0 4-1 6-5t1-8q-1-5-5-6-4-2-9-1-4 2-6 6m-2 8q-1-5 1-9t7-6q5-2 9 1 4 2 6 6 1 5-1 9-2 5-7 6-5 2-9 0t-6-7"/><path fill="#0d131a" d="M135 282v-3l-2-3h-4q-2 0-3 2l-1 4 3 3h4l3-3m-2-7l3 3v2l-1 4-3 2h-5l-3-4 1-4 3-3h5M84 263l-1 1v3q1 1 2-1v-3h-1m2-1l1 2-1 3-2 1h-1l-1-2v-3l2-1h2"/><path fill="#e50038" d="M134 270l3 1v3l-2 2h-4v3l-1 1h-2l-1-1v-1l2-8 1-1 4 1m-1 2h-1v2h2v-1l-1-1"/><path fill="#0d131a" d="M133 274q-2 0-1-1 0-2 1-1 2 0 1 1l-1 1"/><path fill="#0d131a" d="M131 270l-1 1-2 8q-1 0 0 0h2q0 1 0 0l1-3h1l3-1 2-1-1-3-5-1m0-1l5 1 2 4q-1 3-6 3l-1 2-1 1h-3v-2l2-7v-2h2"/></svg>