<?xml version="1.0" ?><svg enable-background="new 0 0 512 512" id="Layer_1" version="1.1" viewBox="0 0 512 512" xml:space="preserve" xmlns="http://www.w3.org/2000/svg" xmlns:xlink="http://www.w3.org/1999/xlink"><circle cx="256" cy="256" fill="#4D71AF" r="183.7"/><linearGradient gradientUnits="userSpaceOnUse" id="SVGID_1_" x1="255.9998" x2="255.9998" y1="432.6668" y2="79.3338"><stop offset="0" style="stop-color:#FFFFFF;stop-opacity:0"/><stop offset="1" style="stop-color:#FFFFFF;stop-opacity:0.8"/></linearGradient><path d="M256,432.7c-97.4,0-176.7-79.3-176.7-176.7S158.6,79.3,256,79.3S432.7,158.6,432.7,256  S353.4,432.7,256,432.7z" fill="url(#SVGID_1_)"/><circle cx="256.3" cy="324.9" fill="#FFFFFF" r="99"/><g><ellipse cx="258" cy="225.9" fill="#C096A2" rx="53.4" ry="33.9"/><linearGradient gradientUnits="userSpaceOnUse" id="SVGID_2_" x1="257.9592" x2="257.9592" y1="257.3721" y2="194.3899"><stop offset="0" style="stop-color:#FFFFFF;stop-opacity:0"/><stop offset="1" style="stop-color:#FFFFFF;stop-opacity:0.8"/></linearGradient><ellipse cx="258" cy="225.9" fill="url(#SVGID_2_)" rx="49.6" ry="31.5"/><path d="M239.4,225.9   c0,0,19.1-9.9,34,0" fill="none" stroke="#191718" stroke-linecap="round" stroke-miterlimit="10" stroke-width="4.1423"/></g><path d="M311.4,364.5  c-26.2,26.2-68.8,26.2-95,0c-21-21-21-55,0-76c16.8-16.8,44-16.8,60.8,0c13.4,13.4,13.4,35.2,0,48.7c-10.8,10.8-28.2,10.8-38.9,0  c-8.6-8.6-8.6-22.5,0-31.1c6.9-6.9,18-6.9,24.9,0c5.5,5.5,5.5,14.4,0,19.9c-4.4,4.4-11.5,4.4-15.9,0" fill="none" stroke="#191718" stroke-linecap="round" stroke-miterlimit="10" stroke-width="9"/><g><ellipse cx="314.6" cy="154.6" fill="#FFFFFF" rx="31.5" ry="39.5"/><path d="M303.1,117.9c-11.7,5.8-20,20-20,36.8c0,16.7,8.3,31,20,36.8c11.7-5.8,20-20,20-36.8   C323.2,137.9,314.9,123.6,303.1,117.9z" fill="#191718"/><circle cx="298.7" cy="138.7" fill="#FFFFFF" r="8.7"/><ellipse cx="201.3" cy="154.6" fill="#FFFFFF" rx="31.5" ry="39.5"/><path d="M212.8,117.9c11.7,5.8,20,20,20,36.8c0,16.7-8.3,31-20,36.8c-11.7-5.8-20-20-20-36.8   C192.8,137.9,201.1,123.6,212.8,117.9z" fill="#191718"/><circle cx="217.2" cy="138.7" fill="#FFFFFF" r="8.7"/></g></svg>