<?xml version="1.0" encoding="utf-8"?>
<!-- Generator: Adobe Illustrator 21.1.0, SVG Export Plug-In . SVG Version: 6.00 Build 0)  -->
<svg version="1.1" id="Layer_1" xmlns="http://www.w3.org/2000/svg" xmlns:xlink="http://www.w3.org/1999/xlink" x="0px" y="0px"
	 viewBox="0 0 102.1 133.4" style="enable-background:new 0 0 102.1 133.4;" xml:space="preserve">
<style type="text/css">
	.st0{fill:#B7E845;}
	.st1{fill:#B4F34A;}
	.st2{fill:#A7E246;}
	.st3{fill:#74A934;}
	.st4{fill:#A5D944;}
	.st5{fill:#95BEA8;}
	.st6{fill:#8FC23D;}
	.st7{fill:#CBF649;}
	.st8{fill:#9BCF43;}
	.st9{fill:#A0CDBB;}
	.st10{fill:#82B138;}
	.st11{fill:#ACDE42;}
	.st12{fill:#61992E;}
	.st13{fill:#E5F0E3;}
	.st14{fill:#ECF8E8;}
	.st15{fill:#97CA3F;}
	.st16{fill:#99CD3F;}
	.st17{fill:#B2E34A;}
	.st18{fill:#8DC13D;}
	.st19{fill:#93B49B;}
	.st20{fill:#699D30;}
	.st21{fill:#C4DABE;}
	.st22{fill:#4C6A26;}
	.st23{fill:#57842A;}
	.st24{fill:#D7EBD5;}
	.st25{fill:#A5D241;}
	.st26{fill:#92AE91;}
	.st27{fill:#DEEFD7;}
	.st28{fill:#CFDFCC;}
	.st29{fill:#76A02E;}
	.st30{fill:#A7BDAB;}
	.st31{fill:#A4BBAC;}
	.st32{fill:#708780;}
	.st33{fill:#899B5D;}
	.st34{fill:#95BD39;}
	.st35{fill:#D6D9D1;}
	.st36{fill:#61871E;}
	.st37{fill:#5D742E;}
	.st38{fill:#698A79;}
	.st39{fill:#0A0C25;}
	.st40{fill:#506C27;}
	.st41{fill:#84B538;}
	.st42{fill:#141B16;}
	.st43{fill:#9CCD3D;}
	.st44{fill:#141B18;}
	.st45{fill:#6A9E2C;}
	.st46{fill:#659336;}
	.st47{fill:#323E36;}
	.st48{fill:#253025;}
	.st49{fill:#E5E9DC;}
	.st50{fill:#E0E4D8;}
	.st51{fill:#131B10;}
	.st52{fill:#DFE7E5;}
	.st53{fill:#556E2F;}
</style>
<g>
	<path class="st0" d="M27.5,55.7c-5.7-2-10.4-5.4-14.5-9.7c-0.9-0.4-1.8-0.9-2.3-1.8c-0.4-0.7-0.9-1.3-1.4-2c-0.6-1-1.1-2.1-1.6-3.1
		c-0.4-0.8-0.7-1.7-0.2-2.6c-0.2-5.5,1.8-10.7,2.1-16.2c0.1-1.6,0.6-3.2,1.2-4.7c1.6-4.6,3-5.1,7.5-3.1c1.4,0.7,2.8,1,4.3,0.2
		c3.1,0.9,3,3.5,3.2,6c0.7,7.1,1,14.2,3.6,20.9c1.1,2.9,1.9,6.8,5.2,7.3c3.4,0.5,4.5-3.5,5.9-6c4.4-7.1,9.1-14.1,11.8-22.1
		c0.4-1.2,0.9-2.3,1.1-3.6c0.6-4.9,0.7-4.9,5.9-4c0.5,0.2,0.9,0.4,1.4,0.6c1.3,1.6,0.3,3.1-0.4,4.5c-5.6,11.8-12.6,22.9-19.6,34
		c-3.8,6-6.3,6.3-12.2,2.4c-0.3-0.2-0.6-0.4-0.9-0.6c-1-1-1.8-2.1-2.6-3.3c-0.4-0.8-0.7-1.7-1-2.5c-0.5-1.4-1-2.8-0.8-4.3
		c-1.6-7.2-4.1-14.3-4.5-21.8c0.3,6.4,2.1,12.4,3.7,18.5c0.3,1.3,1.1,2.6,0.6,4c-0.1,1.8-0.8,3.7,0.8,5.3c0.7,0.5,1.2,1.2,1.7,1.9
		c0.8,1.3,2.1,2.3,3.2,3.4c0.4,0.7,1,1.4,0.6,2.2C28.8,56.3,28.1,55.8,27.5,55.7z"/>
	<path class="st1" d="M59.4,11.4c-4.1-0.8-4.4,1.2-5.1,4.9c-1.3,6.3-4.7,12-8.1,17.5c-2.4,3.9-4.8,7.9-7.3,11.7
		c-2.9,4.3-5.3,4.2-8-0.3c-3.4-5.8-4.4-12.3-5.4-18.8c-0.6-4.2,0.6-8.8-2.1-12.6c-0.2-0.3-0.5-0.5-0.8-0.8c-1.1,0.4-2.3,1.4-2.9-0.5
		c6-0.3,11.9,0.9,17.9,1.1c2.9,0.1,5.6-0.3,8.3-1.5C50.2,10.1,54.8,8.7,59.4,11.4z"/>
	<path class="st2" d="M94.6,1.2c0.1,0.1,0.1,0.3,0,0.4c-0.5,1.6-1.6,2.7-2.7,3.9c-3.6,4.1-5.8,9-8.2,13.8c-3,5.8-7.2,10.7-11.4,15.7
		c-0.6,0.9-1.1,1.7-2,2.4c-4.1,6.7-11,9.9-17.5,13.5c-1,0.5-2.2,0.6-3.2-0.2c-0.5-0.8-0.1-1.4,0.3-2.1c1.4-1.4,2.1-3.2,1.7-5.1
		c-0.5-2.9,0.6-5.4,2.1-7.7c4.3-6.2,7.5-12.9,10.7-19.6c0.6-1.2-0.2-2.7,0.8-3.8c9.3-1.3,17.4-5.5,25.4-10c1.3-0.7,2.6-1.5,3.8-2.2
		C94.9,0.4,94.9,0.8,94.6,1.2z"/>
	<path class="st3" d="M69.3,95.4c-0.1-0.3-0.1-0.5-0.2-0.8c0.9-2.8,3.5-4.1,5.5-6.4c-2-0.3-3-1.3-3.5-3.3c-0.6-2.5,1.1-2.9,2.5-3.9
		c1.8-1.2,2.8-3.2,4.4-4.5c1.1-0.9,1.9-2.4,3.8-1.4c0,0.2,0.2,0.6,0.1,0.7C78,83,81.1,90,82.3,97c1,5.9,1,11.8,1,17.8
		c0,3.7-2.9,5.6-3.9,8.5c-2.2,2.4-4.4,1.8-6.5-0.1c-0.6-0.5-1.2-1-1.8-1.6c0.4-0.7,1.1-1,1.8-1.3c4.3-1.7,4.9-2.5,4.1-7.2
		C75.7,106.7,72.8,100.9,69.3,95.4z"/>
	<path class="st4" d="M40.7,116.5c0.5,0,1,0,1.5,0c1.6-0.1,3.7,0.2,4.2-1.5c0.5-1.7,0.2-3.6-1.2-5.2c-4.5-4.7-7-11.3-13.1-14.5
		c-0.5-0.3-1-1.1-0.9-1.5c0.7-5.3-1.6-10.6,1.6-15.9c5-8.2,11.3-14.7,19.9-19.1c0.7-0.2,0.9,0.2,1.1,0.8c-4.7,9.8-10.1,19-18.4,26.3
		c-1.9,1.7-2.4,3.6-0.6,5.8c2.3,0.3,4.4-0.4,6.2-1.9c0.8-0.6,1.5-1.7,2.9-1.1c1.5,0.4,1.5,1.2,0.6,2.3c-1,1.8-2.8,2.5-4.5,3.2
		c-3,1.1-2.8,2.4-0.9,4.5c1.8,2,3.3,4.4,5.2,6.3c2.4,3.5,6.1,6.5,4.6,11.6c-0.8,0.1-1.5,0.4-1.3,1.5c-0.7,0.8-1.6,0.9-2.6,1.1
		c-0.3,0-0.6,0-1-0.1c-0.8-0.2-1.6-0.2-2.5-0.3C40.3,118.3,38.7,118.1,40.7,116.5z"/>
	<path class="st5" d="M11.3,43.8c0.6,0.7,1.1,1.4,1.7,2.1c-3.3,1.8-1.6,5.2-2.2,7.7C7.1,69,7.1,84.6,7.5,100.2
		c0.1,3.4,1.2,6.8,0.6,10.8c-1.9-2.4-1.8-5.1-2.9-7.3c-0.3-1.3-0.4-2.7-0.9-4c-3.3-9.5-2.7-19.2-1.9-29c0.8-9.9,4.2-19.3,4.9-29.2
		c0.1-0.9,0.3-1.7,1.1-2.3c0.5,1,0.9,1.9,1.4,2.9c0,0.5,0,0,0.2,0.3C10.4,42.8,9,44.9,11.3,43.8z"/>
	<path class="st6" d="M65.3,12.3c-0.5,1.2,1.4,2.4,0,3.6c-4.4,8.3-8.9,16.4-14,24.3c-3.6,5.7-7.5,11.2-10.8,17
		c-4.8,3.4-8.8,0.2-13-1.5c3-0.3,0.1-1.6,0.4-2.4c0.2-0.4,0.3-0.9,0.6-1.3c0.1,0,0.2,0.1,0.4,0.1c6.9,3.5,7.9,3.4,12-3.2
		c6.6-10.8,13.5-21.5,18.9-33c0.6-1.2,1.3-2.4,1.1-3.9C62.3,12.1,63.8,12.2,65.3,12.3z"/>
	<path class="st7" d="M19.7,12.4c0.9,0.8,1.9,0.4,2.9,0.5c-1,1.7-1.8,2.6-3.8,0.6c-2.8-2.7-5.9-1.8-6.9,2C10.4,21.9,8.7,28.2,9,34.8
		c0,1-0.5,1.6-1.3,2.1c-0.3-0.1-0.5-0.3-0.5-0.6c0-0.6,0.1-1.2-0.3-1.7c-0.8-0.7-1-1.7-0.9-2.7c-0.5-0.8-0.1-1.8-0.6-2.5
		c-0.1-0.2-0.2-0.4-0.1-0.6c-0.6-0.7-0.1-1.6-0.6-2.3c-0.2-1.3-0.4-2.6-0.6-4c0-1.9,0.3-3.9-0.2-5.8c-0.7-4.8,1-9.3,1.5-14
		c0.2-2.4,1.4-1.3,2.4-0.4C11.5,5.9,15.1,9.7,19.7,12.4z"/>
	<path class="st8" d="M71.4,35c0.8-2.5,2.9-4.1,4.5-5.8c3.9-4.2,6.4-9.2,8.9-14.2c2.6-5,5.4-9.8,9.8-13.4
		C93.9,13.9,88,23.9,80.3,33.1c-1.6,1.9-3.4,3.6-5.1,5.4c-0.3,0.3-0.6,0.3-0.9,0.2C73.1,37.5,72.1,36.4,71.4,35z"/>
	<path class="st9" d="M74.4,38.3c0.3,0,0.5,0.1,0.8,0.1c-0.3,1.1,0.2,2.1,0.5,3.1c-0.4,1.4-0.9,2.8-1.6,4.1c0.1,0,0.2,0,0.2,0.1
		c0.1-0.8,0.4-1.4,1.4-1.3c0.1,0.3,0.1,0.6,0.2,0.8c2.3,2.2,1.4,4.9,1.1,7.5c-0.1,1.4,0,2.8-0.4,4.1c-0.8,1.8-2.5,3-3.3,4.7
		c-2.5,4.5-3.1,9.6-3.8,14.6c-0.2,1.7-0.4,3.4-0.7,5.1c0,0.8-0.1,1.6-0.1,2.3c0,1.4,0,2.7-0.2,4.1c-0.6,1.6,0,3.4-1,4.9
		c-1.2,3.3-0.8,6.8-1.2,10.3c-0.3,2.5-0.1,5.1-0.1,8.5c-2-2-1.4-3.8-1.5-5.4c-0.1-5.5-1.1-11-1-16.6c0-1.4-0.1-2.7,0.1-4.1
		c1.2-8.5,1.5-17.1,3.5-25.4c1.3-5.4,2.5-10.9,3.8-16.4C71.5,41.3,72.5,39.5,74.4,38.3z"/>
	<path class="st10" d="M48,116.6c1.5-5-2.6-7.7-4.5-11.4c0.4-0.5,0.9-0.8,1.5-1c2.5-1,2.5-2.5,1.1-4.7c-1.3-1.9-3.7-3.6-1.7-6.5
		c2,3.7,4.3,7.2,7.4,10.1c2.9,2.7,8.9,3.6,5.6,9.9c-0.3,0.5,1.2,1.5,1,2.6c-2.1,2.4-5.2,2.5-7.9,3.3C49.1,119.4,48,118.2,48,116.6z"
		/>
	<path class="st11" d="M67.9,81.1c0.6-5.5,1-11.1,2.8-16.4c0.5-1.4,0.6-3,2-3.9c3.3-0.5,5.5,0.8,7.4,4.3c0,1.4,1.3,2.5,0.9,4
		c-2.9,2.6-3.6,6.7-6.2,9.5C72.9,80.8,71,82.6,67.9,81.1z"/>
	<path class="st12" d="M43.7,88.6c-2.7,2.2-5.1,5-9.2,3.8c-1.3-1.7-0.2-3.1,0.7-4.4c1-1.4,2.3-2.6,3.6-3.8
		c4.6-4.2,9.1-8.5,13.2-13.1c0.6-0.6,1-1.9,2.3-1.1c0.8,2,0.9,4.4,3.2,5.4c0.3,1.5,0.8,3-1.3,3.6C51.5,81.4,46.6,83.6,43.7,88.6z"/>
	<path class="st13" d="M7.5,36.4c0,0.2,0.1,0.4,0.2,0.5c0.2,0.8,0.5,1.5,0.7,2.3c-0.3,7-2,13.8-3.6,20.6c-1,4.3-1.3,8.6-1.6,12.9
		c-0.6,9-1.5,18.1,1.5,26.9c0.5,1.4,0.5,2.7,0.4,4C2.7,96.8,0.5,90,0.7,82.5c0.2-5.6,0.6-11.2-0.6-16.7c-0.3-1.6,0-1.9,1.8-2.7
		c0.2-0.1,0.4-0.3,0.4-0.4c0.6-3.9,3-7.4,2.9-11.4c0-2.2-1-0.1-1.5-0.2l0,0c1.1-5,0.2-10.4,3-15.1C7.2,35.9,7.4,36,7.5,36.4z"/>
	<path class="st14" d="M74.4,38.3C70.6,45.6,70,53.8,68,61.6c-1.7,6.6-2.1,13.4-2.7,20.2c-0.1,1.1,0.3,2.3-0.7,3.2
		c-1,0.9,0.2,3.3-2.2,3c-0.2-2.6-0.1-5.2,0.8-7.7c0.8-1.3-0.2-2.5-0.2-3.8c0-0.6,0.1-1.1,0.2-1.7c0.5-2.5,0.2-5,0.3-7.6
		c0-0.8,0-1.5,0.1-2.3c0.1-1.1,0.3-2.3,0.6-3.4c0.1-0.5,0.3-1.1,0.5-1.6c0.6-1.7,0.9-3.5,1.2-5.3c0.4-1.8,0.9-3.6,1.3-5.5
		c0.2-1.9,0.8-3.8,1.2-5.7c0.7-2.1,0.2-4.4,1.5-6.4c0.5-0.7,1-1.4,1.5-2.1C73.1,35.5,73.9,36.7,74.4,38.3z"/>
	<path class="st15" d="M75.8,57c0-1.5,0-2.9,0.1-4.4c3.6-0.1,5.9,2.5,6.5,5c0.7,3.2,2.8,4.5,4.9,6.2c5.5,3.7,10.1,8.3,14.9,12.8
		c-0.3,0.4-0.5,0.8-0.8,1.2c-6.7-4.1-13.5-8.2-20.2-12.3c-0.7-1.9-2.1-3.2-3.4-4.7C76.7,59.7,75.2,58.8,75.8,57z"/>
	<path class="st16" d="M69.3,95.4c6.1,6.2,8.7,13.8,8.7,22.3c0,1.9-1.1,2.9-3,3.2c-1.3,0.2-2.7,0.5-4,0.8c-0.6-0.5-1.3-1.1-0.9-1.8
		c3.6-7.5,1.1-14.9-0.4-22.3C69.6,96.8,69.4,96.1,69.3,95.4z"/>
	<path class="st16" d="M67.9,81.1c4.9,0.2,6.8-3.4,8.9-6.9c1.1-1.9,0.9-5,4.3-5c0.7,1.9,1.9,3.8,0.8,6c-2.7,0.6-3.9,3-5.6,4.7
		c-0.6,0.6-1,1.7-1.7,1.9c-2.1,0.7-2.8,1.6-2.2,4c0.7,2.7,2.7,0.8,3.9,1.5c0.2,0.1,0.4,0.2,1.1,0.6c-3.5,1.6-5.3,4.8-8.2,6.8
		c-0.6-0.7-1.1-1.4-1.7-2.1c-0.5-1.5-0.8-3.1,0.1-4.6c0.5-1.5,1.1-3,0.2-4.5C67.7,82.6,67.8,81.8,67.9,81.1z"/>
	<path class="st17" d="M87.2,63.9c-2.7-0.8-6.5-3.7-6.1-4.4c2-3.2-1.3-3.2-2.1-4.5c-0.6-1.1-2.1-1.6-3.2-2.3c0.4-2.5,1.1-5,0-7.4
		c6,4.1,10.9,9.4,16.5,14.5c-2.8,0.9-3.9-1.9-6-1.8l0,0c1.3,2.6,4.5,3.5,6.5,7c-3.3-1.7-5.6-2.9-7.9-4.1c-0.2-0.1-0.3-0.2-0.3-0.1
		c0,0.2,0,0.2,0.1,0.2C85.5,62,86.4,62.9,87.2,63.9z"/>
	<path class="st18" d="M69.9,37.1c-0.3,2.2,0.5,4.6-0.8,6.7c-1.9,0.6-3.2,1.8-4.2,3.5c-2,2.5-5,3.4-7.6,4.9c-1.1-0.2-1.9,0.4-2.7,1
		c-1.8,1-3.8,1.4-5.9,1.7c-2.5,0.7-5,1.4-7.4,2.1c-0.3-2.6,1.5-4,3.3-5.4c0.6-0.3,1.2-0.6,1.8-0.9c0.9-0.3,1.8-1,2.8-0.3
		c3.6,0.6,6.1-1.8,8.7-3.5c4.3-2.7,9.2-4.8,11.3-10c0,0,0.2,0,0.3,0C69.8,36.9,69.8,37,69.9,37.1z"/>
	<path class="st19" d="M48.8,54.9c1.8-1.1,3.7-2.1,5.9-2.3c1.5-0.2,3,0,4.4,0c0.4,0.1,0.7,0.2,1,0.4c1.9,2.7,2.8,6.1,5.1,8.6
		c-0.2,1-0.5,2-0.7,3.1c-0.5,0.5-1,1-1.7,1.2c-2.6,0-4.6-1.5-6.7-2.8c-1.1-1.1-2.3-2.1-2.8-3.7c-0.2-0.2-0.5-0.4-0.7-0.6
		C51.9,56.9,50.1,56.1,48.8,54.9z"/>
	<path class="st20" d="M44.4,93.1c-0.6,2.4,1,4,2.2,5.7c0.9,1.3,2.7,2.3,1.7,4.1c-0.9,1.8-2.7,2.5-4.7,2.3c-3.2-2.3-4.7-6.1-7.5-8.7
		c-0.9-0.8-0.5-1.4,0.6-1.9c2.6-1.1,5.2-2.4,7.8-3.7C44.4,91.6,44.4,92.3,44.4,93.1z"/>
	<path class="st21" d="M56.3,62.3c2.2,1,4.4,2.1,6.6,3.1c0.4,0.3,0.6,0.6,0.6,1c-0.6,4-1.2,8.1-2.7,11.9c-1.9,3.3-2.5,3.4-4.6,0.7
		c1-1.2,0.6-2.6,0.6-3.9c-0.2-0.3-0.4-0.6-0.5-0.9c-0.3-1-0.3-2-0.7-3c-0.4-1.2-0.8-2.4-1.1-3.6C54.1,65.5,53.6,63.4,56.3,62.3z"/>
	<path class="st22" d="M45.1,51.9c-1.6,1.4-3.2,2.9-3.8,5c-0.3,0.1-0.6,0.1-0.9,0.2c-1.1-0.2-0.9-0.7-0.4-1.5
		c4.7-7.2,9.4-14.4,14.1-21.6c3.1-4.8,6.2-9.6,8.5-14.9c0.5-1.3,0.7-3,2.7-3.3C62.8,23,59,29.3,55,35.6c-1.7,2.7-3.1,5.3-2.3,8.6
		c0.5,2.1-0.2,3.9-2.3,4.9c-0.3-0.2-0.4-0.5-0.5-0.9c0-1.4,1.2-2.6,0.8-4.4c-1.6,1.4-0.8,3.2-1.3,4.6c-0.1,0.3-0.3,0.6-0.6,0.8
		c-1.5,0.3-2.9,0.7-3.5,2.3C45.2,51.6,45.1,51.8,45.1,51.9z"/>
	<path class="st23" d="M48,116.6c1.2,1.8,2.7,2.5,4.6,1c1.7-1.4,4.1-0.8,5.9-1.8c0.5,2.8-0.8,4.4-3.4,5.2c-3.9,1.1-7.9,1.9-12,1.4
		c-0.7-1-0.3-2.1,0.1-3.1c0.3-0.5,0.7-0.9,1.3-0.6l0,0c1.2,0.6,2.3,0.5,3.1-0.7C47.2,117.3,46.3,116.4,48,116.6z"/>
	<path class="st24" d="M40.7,116.5c-1.1,1.9,0.6,1.2,1.3,1.4c0.6,0.4,1.3,0.7,1,1.6c-2,1.7-4.4,2.7-6.8,3.5
		c-0.3,0.2-0.5,0.5-0.8,0.7c-1.8-2.3-4-2.5-6.6-1.7c-0.5,0.1-0.9-1.6-0.2-2c2.6-1.4,5-4.3,8.5-2.1c0.8,0.1,1-0.2,0.6-0.9
		C38.4,116,39.6,116.4,40.7,116.5z"/>
	<path class="st25" d="M72.9,123.2c2.2,0.4,4.3,1.3,6.5,0.1c0,1.4,0.1,2.8,0.1,4.2c-0.9,1.2-2.2,0.7-3.4,0.7
		c-1.8,1.1-3.7,2.9-4.9-0.6c-0.2-0.2-0.5-0.5-0.8-0.6C70.5,125.3,72.9,125,72.9,123.2z"/>
	<path class="st26" d="M60.8,78.4c-0.1-4.3,0.9-8.3,2.3-12.3c0.7-0.3,1,0.2,1.3,0.7c0,2.8,0.5,5.7-0.5,8.4c-0.9,0.4-0.6,0.9-0.2,1.4
		c-0.1,1.2,0.3,2.5-0.6,3.6C62.9,78.9,63.2,77,60.8,78.4z"/>
	<path class="st27" d="M76,126.9c1.1,0.7,2.3,0.8,3.5,0.6c0.1,0.2,0.2,0.4,0.4,0.6c1.1,1.4,2.5,3.3,1.1,4.8c-1,1.1-3.1,0.2-4.5-0.8
		c-0.5-0.6-1.6-0.2-1.9-1.1C74.2,129.4,74.7,128,76,126.9z"/>
	<path class="st28" d="M62.4,87.9c1.5-0.4,1.1-2.3,2.2-3c0.2,6.1-0.7,12.2,0.6,18.2c0.2,0.9,0.2,2-0.6,2.8c-1-3.9-1.3-7.8-1.5-11.7
		C63,92.1,63.1,90,62.4,87.9z"/>
	<path class="st29" d="M75.8,57c1.1,1.7,2.4,3.3,4.1,4.6c1.2,0.9,1.7,2.2,1.2,3.8c-0.3-0.1-0.6-0.2-0.9-0.3
		c-2.4-1.5-4.2-4.2-7.4-4.3C73,59,74.6,58.1,75.8,57z"/>
	<path class="st30" d="M74.9,131.4c0.6,0.1,1.3,0.1,1.7,0.8c-3.3,0.2-6.7-0.3-10.1,0.6c-0.3-3.1,3.9-2.9,4-5.6
		c0.2-0.1,0.5-0.1,0.7-0.1C72.1,128.8,72.5,130.9,74.9,131.4z"/>
	<path class="st31" d="M36.1,123.1c2-1.8,4.3-3.1,7-3.8c0.1,0,0.3,0,0.4,0c0.2,1.1-0.1,2-0.5,3C40.8,123.2,38.5,123.3,36.1,123.1z"
		/>
	<path class="st32" d="M75.7,44.4c-1.1,0.9-0.9,2.6-2.4,3.4c0-2.5,1.1-4.4,2.4-6.2C75.7,42.5,75.7,43.4,75.7,44.4z"/>
	<path class="st0" d="M4,16.7c1,1.9,0.8,3.9,0.2,5.8C4.1,20.6,4,18.6,4,16.7z"/>
	<path class="st13" d="M3.8,51.1c-0.1,1.3,0.6,2.7-0.7,3.8l0,0C3.2,53.6,2.5,52.2,3.8,51.1C3.8,51.2,3.8,51.1,3.8,51.1z"/>
	<path class="st13" d="M3.1,54.9C3,55.7,3,56.5,3,57.6C2,56.4,2.2,55.6,3.1,54.9C3.1,54.9,3.1,54.9,3.1,54.9z"/>
	<path class="st33" d="M37.6,117.1c0.4,0.1,1.4-0.3,1.1,0.7c-0.2,0.7-1,1-1.6,0.2C37.2,117.7,37.4,117.4,37.6,117.1z"/>
	<path class="st13" d="M2.3,59.8C2.2,60,2.1,60.2,2,60.4c-0.1-0.2-0.3-0.4-0.3-0.6c0-0.2,0.2-0.4,0.3-0.6
		C2.1,59.4,2.2,59.6,2.3,59.8z"/>
	<path class="st0" d="M5.4,29.4C6.3,30.1,6,31,6,31.9C5.3,31.2,5.3,30.3,5.4,29.4z"/>
	<path class="st0" d="M4.7,26.4c0.8,0.6,0.6,1.5,0.6,2.3C4.6,28.1,4.6,27.3,4.7,26.4z"/>
	<path class="st0" d="M7.5,36.4c-0.2-0.1-0.4-0.2-0.7-0.3c0-0.5,0-1,0-1.5C7.5,35,7.6,35.7,7.5,36.4z"/>
	<path class="st8" d="M94.6,1.2c0-0.4-0.1-0.7-0.1-1.1c0.2,0,0.6-0.2,0.6-0.1C95.3,0.5,95.2,0.9,94.6,1.2z"/>
	<path class="st34" d="M21.9,43c0.8-1.6,0.2-3.1-0.2-4.7C20,32,18.1,25.7,18.1,19.1c0-0.9-0.4-2,1.4-3.2c-0.6,9.5,2.3,17.8,4.5,26.3
		c-0.6,0.4-0.2,1.6-1.2,1.7C22.3,43.9,22.2,43.4,21.9,43z"/>
	<path class="st35" d="M22.7,43.7c0.5-0.4,0.4-1.4,1.3-1.5c0.3,1.4,0.6,2.8,0.9,4.2c0.6,0.7-0.3,1.9,0.9,2.3c0.8,0.9,1.6,1.7,2,2.9
		c-1.6,0.6-2.1-0.8-3-1.6c-0.4-0.4-0.7-0.7-1.1-1.1C21.8,47.5,21.9,45.6,22.7,43.7z"/>
	<path class="st36" d="M22.7,43.7c-0.2,1.9,0,3.6,1,5.2c-3.4-1.1-1.3-3.9-1.8-5.9C22.2,43.2,22.5,43.5,22.7,43.7z"/>
	<path class="st37" d="M24.8,50c1,0.5,1.7,1.6,3,1.6c0.2,0.1,0.5,0.2,0.7,0.4c0,0.5,0,1.1-0.6,1.3C26.9,52.2,24.9,52,24.8,50z"/>
	<path class="st38" d="M11.3,43.8c-0.6,0.3-1.2,0.6-2,1c0.2-1,0.5-1.9,0.7-2.8C10.6,42.4,11.3,42.9,11.3,43.8z"/>
	<path class="st39" d="M25.8,48.7c-1.8-0.1-1-1.3-0.9-2.3C25.9,46.9,25.7,47.9,25.8,48.7z"/>
	<path class="st40" d="M50.3,48.3c0,0.3,0,0.5,0,0.8c-0.4,0.4-0.7,0.9-1.1,1.3c-0.9,0.3-1.8,0.6-2.7,0.8c-0.1-0.1-0.1-0.3-0.2-0.4
		c0.1-1.6,1.7-1.2,2.5-1.9l-0.1,0.1C49.2,48.5,49.4,47.6,50.3,48.3z"/>
	<path class="st41" d="M56.3,62.3c-1.7,1.6-1.3,3.5-0.8,5.4c-0.5,0.7-0.2,2-1.5,2.1c-3.1,3.6-6,7.3-9.6,10.6
		c-3.8,3.5-8.8,6.1-9.8,12c-1.9-0.7-2.8-4.7-1.2-6.1c7.7-6.8,13.8-14.6,17.7-24.1c0.4-1.1,1.5-1.9,2.3-2.8
		C54.4,60.3,55.3,61.3,56.3,62.3z"/>
	<path class="st10" d="M47.4,117.9c1.1,1.2-0.1,1.4-0.8,1.8c-1.2,0.7-1.8-0.1-2.3-1.1C45.3,118.1,46.3,117.8,47.4,117.9z"/>
	<path class="st10" d="M43.5,119.3c-0.1,0-0.3,0-0.4,0c-0.4-0.5-0.7-0.9-1.1-1.4c0.9,0,1.8-0.2,2.4,0.7
		C44.1,118.8,43.8,119.1,43.5,119.3z"/>
	<path class="st3" d="M67.7,83.4c0.6,0.2,2-0.2,1.5,0.7c-0.8,1.2-0.3,2.9-1.6,3.8C67.6,86.4,67.6,84.9,67.7,83.4z"/>
	<path class="st42" d="M54,69.9c0.5-0.7,1-1.4,1.5-2.1c0.3,1.3,0.6,2.5,0.9,3.8c0.5,0.9,0,1.9,0.4,2.7c0,0.3,0,0.6,0,0.8
		C52.2,75.5,54.8,71.7,54,69.9z"/>
	<path class="st43" d="M60.1,53.3c-0.3,0-0.6-0.1-0.8-0.1c-0.7-0.5-2-0.2-2.1-1.5c2.1-2.2,5.5-2.7,7.5-5c2.1-0.1,2.4,1.9,3.5,2.9
		c-0.4,1.8-0.9,3.5-1.3,5.3c-1.3,0.5-2.4-0.6-3.6-0.6C62,54.2,61,53.8,60.1,53.3z"/>
	<path class="st44" d="M60.1,53.3c1-0.5,2-0.2,3,0c1.2,2.1,3,4,2.4,6.8c-0.1,0.5-0.2,1-0.3,1.5c-2.4-1.5-4.5-3.1-4.3-6.3
		C61,54.7,60.4,54,60.1,53.3z"/>
	<path class="st45" d="M68.1,49.6c-2,0-2.2-2.1-3.5-2.9c1.1-2.5,3.2-3.8,4.5-3C68.8,45.7,68.4,47.7,68.1,49.6z"/>
	<path class="st46" d="M65.5,60.1c0-2.5-3.2-3.9-2.4-6.8c1.2,0.5,2.4,1,3.6,1.6C66.3,56.7,65.9,58.4,65.5,60.1z"/>
	<path class="st47" d="M64.4,66.8c-0.4-0.2-0.9-0.5-1.3-0.7c0-0.2-0.1-0.4-0.2-0.6c0.3-0.8,0.9-0.9,1.6-0.8
		C64.5,65.4,64.5,66.1,64.4,66.8z"/>
	<path class="st48" d="M63.8,76.6c-0.8,0.2-1.5,0.3-1.3-0.9c0.2-0.6,0.6-1.4,1.4-0.5C63.9,75.7,63.8,76.1,63.8,76.6z"/>
	<path class="st49" d="M86.3,57.9c-0.9,0-1.7-0.1-1.8-1.3C85.7,56.3,86,57.2,86.3,57.9C86.4,57.9,86.3,57.9,86.3,57.9z"/>
	<path class="st50" d="M84.7,61c-0.9,0-1.4-0.4-1.9-1.3c1.2-0.2,1.7,0.4,2.1,1.1C84.9,60.8,84.7,61,84.7,61z"/>
	<path class="st51" d="M57.1,51.8c0.7,0.5,1.4,1,2.1,1.5c-1.6,0.6-3.1-0.1-4.5-0.7C55.1,51.1,56.1,51.6,57.1,51.8z"/>
	<path class="st22" d="M46.6,51.2c-0.3,0.7-0.9,0.7-1.5,0.7c0,0-0.2-0.3-0.2-0.3c0.2-0.9,0.7-1,1.4-0.8C46.4,51,46.5,51.1,46.6,51.2
		z"/>
	<path class="st12" d="M56.9,74.3c-0.6-0.8-0.5-1.8-0.4-2.7C57.1,72.4,57.1,73.3,56.9,74.3z"/>
	<path class="st52" d="M50.3,48.3c-0.5,0.2-1,0.5-1.5,0.7c0.1-2.6-0.7-5.6,2.6-7.4C52.3,44,52.1,46.2,50.3,48.3z"/>
	<path class="st52" d="M46.4,50.9c-0.5,0.3-1,0.5-1.4,0.8c0.6-3.2,1-3.5,4-2.8C48,49.6,47.2,50.2,46.4,50.9z"/>
	<path class="st53" d="M74.9,131.4c-4,0.9-3.3-2.2-3.7-4.3c1.5,0.1,1.3,1.6,2.1,2.4c1.3-0.3,0.9-2.7,2.8-2.4
		C75.2,128.3,75,129.8,74.9,131.4z"/>
</g>
</svg>
