<svg xmlns="http://www.w3.org/2000/svg" version="1" width="387" height="373" viewBox="-0.9 0.25 386.7 373.0"><path fill="#ffeb3f" d="M167 63q7-3 17-3 9 0 16 3 3-9 22-28 18-18 21-18 3 1-1 32l-6 42 1 5 2 27q0 13-4 22-4 10-13 18-10 8-21 10-3 7-8 11-5 5-8 5-4 0-9-5l-7-11q-11-3-21-11-9-7-12-16-4-10-5-22l2-21 1-11q-7-18-12-45-5-25-3-26 3-1 22 15t26 27M48 111l7 4 6 6 9 9H58q-8 1-11 3l-2 1-3-2-1 3-6 6q-4 3-7 3l-3-1q-3-2-2-9l4-13 3-8 5-3 6-1q2-1 7 2"/><path fill="#ffeb3f" d="M25 143l3 1-3 7-3 3q-2 2-5 2h-4l-3-4v-12q1-9 5-13 1-3 6-4l6-2-4 13q-1 7 2 9"/><path fill="#ffeb3f" d="M7 142l1-2h2v12l3 4h4q-1 4-4 6t-7 2q-4 0-5-2-1-3 2-11l4-9M241 197l-1-3 2-1 4 3 4-6 8 25 9 23 22 24q13 15 15 20l2 12-1 13q-2 7-7 15l-11 17 2 6 5 7 7 4 4 3q2 3 1 7-1 5-4 5h-8l-7-1-2 1h-16l-12 1q-8 0-13-2-5-3-9-16-3-13-2-19l2-5 4-6q6-9 8-23l-16-12-15-10q-7-3-25 1-17 4-26 10-1 6 3 11l7 7 2 3 1 7-7 18-5 7-5 3-10 2-10-1q-13 2-18 0h-10l-6-2-1-6 2-5q1-2 6-4l5-2 3-5 2-5q-5-4-12-17-6-12-6-15l2-9q2-7 4-9l15-18 15-20q3-6 3-15v-12l1-2 1-1 1 1 3 1-2 4v5l3-2 4-2v3l1 2 2-1 2-2 1 4 1 3 3-2 3-2 2 3 3-2 1 4 2 4 3-3 3-4 2 3 3 3 2-7 2 2 2 2 4-4 1 3 3 3 2-4 2 3 3 3 2-4 2-5 2 2 4 2 1-6 2 1 1 1 1-3 2 1 2 1v-5l3 2 2 1v-5l5 1-1-6h4v-2"/><path fill="#ffeb3f" d="M22 164l-1 8q-2 3-6 5-5 2-7 1l-2-6v-8q4 0 7-2t4-6l5-2v10M41 135l1-3 3 2 2-1q3-2 11-3h12l3 1q3 2 5 11l3 13 9 15 14 17 13-9-1 2v3h4l-2 4h6l-1 5-1 4 4-2 4-2 1 3v3l4-2 2 5 2-2 1-2 3 7q-6 6-20 14t-20 8q-7-1-30-21-22-19-27-27l-4-1q-4-1-5-3l-5-5-4-5h-6v-10l3-3 3-7q3 0 7-3l6-6M252 42l4 7 3 4 4 3h6l7 1h1l2 4 1 5v4l-4 3-8 3h-2l-8-3q-7-3-8-5-2-1-3-5v-6l3-6 2-9M312 57l3-3 7 30 8 39q-14-11-26-26t-20-31l7-4 7-5h4l3-1 3 2q3 1 4-1"/><path fill="#ddcb37" d="M292 54q1 2 6 3l-7 5-7 4-4-11 6 2 3-1 3-2"/><path fill="#ffeb3f" d="M320 31l2 6v8l-7 9-3 3q-1 2-4 1l-3-2-3 1h-4q-5-1-6-3l-3 2-3 1-6-2-3-2-1 1q-3 2-7 2h-6l-4-3-3-4-4-7q-4-8-4-11 0-4 5-16l7-12 5-1h5l7 5h13l5 4 3 3 5 1 5 1q4 3 5 10 6 3 7 5"/><path fill="#fff" d="M237 97l5-2-1 3-1 2 4-1h3l-1 3-1 3 5 1v2l-2 1 3 2-1 2h5l4 1-3 4-2 3h8l-2 3 1 2v1l-1 1-1 1 3 1 2 1-3 4 1 1h5l-1 1-2 4 2 2 3 2-2 1-1 1 2 2 2 2-4 3 2 2 3 2-4 2 5 8h-8l1 3 1 3h-4l1 3 2 1-4 1-3 1 2 3 1 3-3 1-4-1v3l1 3-5-2-4 6-4-3-2 1 1 3v2h-4l1 6-5-1v5l-2-1-3-2v5l-2-1-2-1-1 3-1-1-2-1-1 6-4-2-2-2-2 5-2 4-3-3-2-3-2 4-3-3-1-3-4 4-2-2-2-2-2 7-3-3-2-3-3 4-3 3-2-4-1-4-3 2-2-3-3 2-3 2-1-3-1-4-2 2-2 1-1-2v-3l-4 2-3 2v-5l2-4-3-1-1-1-2 3-2 2-3-8-1 2-2 2-2-5-4 2v-3l-1-3-4 2-4 2 1-4 1-5h-6l2-4h-4v-3l1-2-4-1h-3l2-4 3-3-2-1-1-1 2-2-3-2 3-4-3-2 2-2 2-3-2-2-2-3q6-2 8-1v-2l-5-3 2-2 2-2-1-1-2-2 1-1 2-2-1-1-2-2 2-1 2-1-4-5 5-3v-2l-1-2 4-1v-1l-1-2h3l-1-2v-2l4-1v-2l1-3h1l3 2-2 21q1 12 5 22 3 9 12 16 10 8 21 11l7 11q5 5 9 5 3 0 8-5 5-4 8-11 11-2 21-10 9-8 13-18 4-9 4-22l-2-26M352 138h-2v2l-19-12q-15-12-29-29-13-16-22-33l-1-5-2-4-1-3 1-1 3 2 4 11q8 16 20 31t26 26q11 9 22 15"/><path fill="#ffeb3f" d="M331 128q2 11 1 14-2 6-25 18-22 11-42 18l-2-1-1-3h4l-1-3-1-3h8l-5-8 4-2-3-2-2-2 4-3-2-2-2-2 1-1 2-1-3-2-2-2 2-4q22-9 27-15l-1-3-13-24-11-19 8-3 4-3v-4q9 17 22 33 14 17 29 29"/><path fill="#a3611c" d="M223 46q11-14 15-17 1 5-3 27l-5 27-10-9q-5-5-10-7l13-21M157 70q-4 1-10 6l-8 8q-3-6-8-26-6-19-5-25 5 2 18 17 12 15 13 20"/><path fill="#cad3cc" d="M365 137q8 0 14 5 5 6 5 14t-5 14q-6 5-14 5t-14-5q-5-6-5-14l1-8 5-6 2 2q-3 2-4 5-2 3-2 7 0 7 5 12t12 5q7 0 12-5t5-12q0-7-5-12t-12-5q-5 0-10 3l-1-2q5-3 11-3"/><path fill="#cad3cc" d="M365 139q7 0 12 5t5 12q0 7-5 12t-12 5q-7 0-12-5t-5-12q0-4 2-7 1-3 4-5 3 3 4 7l-1 5 2 6 6 2q4 0 6-2 3-3 3-6 0-4-3-6-2-3-6-3-3 0-5 2l-5-7q5-3 10-3"/><path fill="#cad3cc" d="M359 162l-2-6 1-5 1 1 1 1-1 3q0 3 2 4l4 2q3 0 5-2l1-4-1-5-5-1-4 1-1-2q2-2 5-2 4 0 6 3 3 2 3 6 0 3-3 6-2 2-6 2l-6-2"/><path fill="#fff" d="M356 147l-4-5 1-1 1-1 5 6 3 5-1 2h-1l-1-1-3-5"/><path fill="#fff" d="M350 138h3v3l-1 1h-1l-1-1-1-1 1-2M210 126q7-3 13 1v3l-2 1-9 3-10 6h-1l-1-2q3-9 10-12M168 137v2l-2 1q-3-3-10-5l-8-3q-2 0-3-2l1-4q3-2 7-2 2-1 8 4t7 9"/><path fill="#ddcb37" d="M165 163l4 10q-9-2-17-8-7-5-12-11 12 6 25 9M203 169l1-4q12-2 21-6-10 11-23 14l1-4"/><path fill="#ffeb3f" d="M48 111l7 4 6 6 9 9H58q-8 1-11 3l-2 1-3-2-1 3-6 6q-4 3-7 3l-3-1q-3-2-2-9l4-13 3-8 5-3 6-1q2-1 7 2"/><path fill="#ffeb3f" d="M25 143l3 1-3 7-3 3q-2 2-5 2h-4l-3-4v-12q1-9 5-13 1-3 6-4l6-2-4 13q-1 7 2 9"/><path fill="#ffeb3f" d="M7 142l1-2h2v12l3 4h4q-1 4-4 6t-7 2q-4 0-5-2-1-3 2-11l4-9"/><path fill="#ddcb37" d="M106 286q14 7 29 10 16 3 30-1l5 8 5 5 2 3 1 6-7 18-1 1q-23-9-50-9l2-5 2-4q-5-5-12-18l-6-14M233 342v-7l2-5 4-5q6-9 8-22 15 7 31 5 18-3 28-15 1 10-1 14-2 7-7 15l-11 16 2 6 4 6q-29-6-58 2l-2-10"/><path fill="#ffeb3f" d="M22 164l-1 8q-2 3-6 5-5 2-7 1l-2-6v-8q4 0 7-2t4-6l5-2v10"/><path fill="#ddcb37" d="M143 204q-6 6-20 14t-20 8l-15-8-20-17q17 6 32 5 18 0 31-9v1l4-2 2 5 2-2 1-2 3 7M279 63l1 3v4l-4 3-8 3h-2l-8-3q-7-3-8-5 8 3 15 2 8-2 14-7M292 54q1 2 6 3l-7 5-7 4-4-11 6 2 3-1 3-2M266 147l1-1 2-1-3-2-2-2 2-4 4-2q3 11 9 19 7 7 16 12l-30 12-2-1-1-3h4l-1-3-1-3h8l-5-8 4-2-3-2-2-2 4-3-2-2-2-2"/><path fill="#804a0c" d="M238 29q1 3-1 13l-3 19q-3-5-9-5-5 0-12 6 4-8 14-20l11-13M126 33q3 1 10 8l11 14q-5 0-8 6-3 5-4 13l-6-23q-4-14-3-18"/><path fill="#fff" d="M210 202h-3v-1l3 1M244 179"/><path fill="#dbdcdc" d="M243 180l-7-1 5-1 7-2-4-3 5-1h5l-1-2-1-1 3-1 4-1-3-1-2-2 7-4 1-1 1-1-4-1-3-1 3-2 4-2-4-2-4-2 1-2 2-1 1-1 1-1-2-1-1-1 2-1 3-1-1-1v-3l-2-2v1l-1 1h-2v-1l1-1-2-1h-2l2-3 1-1-2-1-2-1 1-1 2-1-2-1-1-1q-1-1 1-2l2-2-3-1-3-2-2-1 1-3 3-1v2l-1 1h5l4 1-3 4-2 3h8l-2 3 1 2v1l-1 1-1 1 3 1 2 1-3 4 1 1h5l-1 1-2 4 2 2 3 2-2 1-1 1 2 2 2 2-4 3 2 2 3 2-4 2 5 8h-8l1 3 1 3h-4l1 3 2 1-4 1-3 1 2 3 1 3-3 1-4-1v3l1 3-5-2-4 6-4-3-2 1 1 3v2h-4l1 6-5-1v5l-2-1-3-2v5l-2-1-2-1-1 3-1-1-2-1-1 6-4-2-2-2-2 5-2 4-3-3-2-3-2 4-3-3-1-3-4 4-2-2-2-2-2 7-3-3-2-3-3 4-3 3-2-4-1-4-3 2-2-3-3 2-3 2-1-3-1-4-2 2-2 1-1-2v-3l-4 2-3 2v-5l2-4-3-1-1-1-2 3-2 2-3-8-1 2-2 2-2-5-4 2v-3l-1-3-4 2-4 2 1-4 1-5h-6l2-4h-4v-3l1-2-4-1h-3l2-4 3-3-2-1-1-1 2-2-3-2 3-4-3-2 2-2 2-3-2-2-2-3q6-2 8-1v-2l-5-3 2-2 2-2-1-1-2-2 1-1 2-1q1 1 0 0l1-1 2 2 2 1-2 2 1 1 1 1-1 1-1 1 2 1 1 1-2 1v1h1l1 2-2 1-3 1 3 3-2 3-2 3h2l3 1-2 2-1 3h3l-1 4h5l-5 5h7v3l-1 4 3-1h3l-1 7 4-2 3-2v7l3-1 2-1h1v-1l5-1 4-1-1 2-2 2h3v3l-1 3 3-1v3l1 2 2-2 1 2v3l2-2 2-1 1 4 1 3q2-5 5-6l1 4 3 4 1-2 2-3 4 6 1-4 2-4 3 5 4 4 3-8 3 3 4 3v-5l8 4v-2l1-3 3 1 2 1 1-2v-3l3 1 2 2v-4l1-3 7 4-1-8 6 2-1-4 5 2v-4l2-3 2-4-1 1"/><path fill="#ddcb37" d="M41 135l1-3 3 2-10 19q3 4 8 5 5 0 8-3l1 7 3 4q2 3-5 6-6 4-13 2l-5-5-4-5h-6v-10l3-3 3-7q3 0 7-3l6-6M254 46q4 3 12 3 7-1 8-3 3 4 11 4l8-1q2 3 8 4 5 0 6-2l4 3q2 1 5-1l-1 1-3 3q-1 2-4 1l-3-2-3 1h-4q-5-1-6-3l-3 2-3 1-6-2-3-2-1 1q-3 2-7 2h-6l-4-3-5-7M200 176l-7 9q-5 4-8 4-3 1-9-5-5-5-5-7 7 5 14 5 8 0 15-6"/><path fill="#a6ada8" d="M350 169l20-6q11-4 15-9 1 4-1 10-4 7-12 11-5 2-11 0-6-1-11-6"/><path fill="#0d131a" d="M365 136q9 0 14 6 6 6 6 14 0 9-6 15-6 5-14 5t-14-6q-6-6-6-14 0-9 6-14l1-1 1 1q-3 2-5 6l-2 8q0 8 6 13 5 6 13 6t14-5q5-6 5-14t-5-13q-6-6-14-6-6 0-11 4l-1-1q5-4 12-4"/><path fill="#0d131a" d="M365 138q7 0 13 6 5 5 5 12t-5 12q-6 5-13 5t-12-5q-5-5-5-12 0-8 5-13v1h1q-3 2-4 5l-1 7q0 7 5 11 4 5 11 5t12-5q4-4 4-11t-4-12q-5-4-12-4-5 0-9 3l-1-1q5-4 10-4"/><path fill="#0d131a" d="M359 162q-3-2-3-6l2-6 1 1-2 5q0 3 3 5 2 3 5 3 4 0 6-3 2-2 2-5 0-4-2-6l-6-2-4 1-1-1 5-1q4 0 7 3 2 2 2 6t-3 6q-2 3-6 3-3 0-6-3M202 64q-6-3-17-2-12 0-19 4h-2q0-2 2-2 8-5 18-5t18 3l2 2h-2"/><path fill="#0d131a" d="M244 17l1 5-3 36-5 34 3 16 1 14q0 18-10 32-10 16-30 20v-1l1-1q18-5 28-19 8-13 8-31 0-13-3-31l5-33 4-36-1-3-3 1q-9 7-22 21-15 15-17 22h-2l-1-1q4-8 18-23l22-20q5-3 6-2M168 63l-1 1h-1q-5-9-20-22-13-12-22-18l-4-2-1 3q1 11 6 32 4 21 10 35v1l-3 26q0 14 4 27 4 9 13 16t20 10v2q-12-3-22-10-9-8-13-18-5-12-4-26l3-27q-7-17-11-39-4-20-4-29l1-4q2-1 6 2 9 5 22 17 14 13 21 23"/><path fill="#0d131a" d="M237 31l-14 17q-10 13-12 19 5 2 9 6 6 4 9 9l5-26 3-25m1-3h1v1q1 5-2 24-3 20-6 29l-1 3-2-2q-3-5-8-9l-9-5-2-2 1-3q3-7 14-21l14-15M156 69q-2-5-13-18t-16-16q0 6 4 23l8 25 8-8q5-5 9-6m-31-36h1q6 2 18 17 12 14 13 19v1q-3 1-9 7l-7 7-1 2h-1q-4-7-9-27-6-20-5-26M172 139l2-2q1 1-1 3l-4 9q-3 7-3 11 0 8 7 18 6 10 12 10 5 1 12-9 6-10 7-18 1-4-2-11l-5-10-2-2q1-1 3 1l5 10q4 7 3 12 0 9-8 19-7 10-13 10t-14-11q-7-10-7-19l3-12q2-6 5-9M243 94v1l-1 3-1 1 6-1h1l-1 3-1 4 4 1h1v2l-2 1 2 1h1v2l-1 1h8l1 1-5 7 7-1 1 1-3 3 2 2v1l-1 1-1 1h4l1 2-1 2-2 3-1-2 2-3-2-1h-2l-1-1 2-2-1-2v-1l1-2h-7v-2l3-2 2-4h-8l-1-1 1-1v-1l-2-1v-1l1-2-4-1-1-1 2-5-6 1-1-1 1-2 1-2-4 2v-1-1l5-2h1"/><path fill="#0d131a" d="M241 193h2l3 2 4-5h1l3 1-1-5 1-1 6 1-2-5v-2l5-1-2-4v-1h3l-1-5 1-1h7l-5-7 1-1 2-1-3-4v-1l3-2-3-3-1-1 1-1 2-1-2-1-2-2-1-1v-1l2-3h-3l-1-1-1-2-3 4-2 1v-2l2-3 2-2 3 3h6l-1 1-2 5 5 4v1l-3 2 2 1 1 1 1 2-4 2 5 3q1 1-1 2l-4 1 6 7v2h-8l1 3 1 2-1 1-4-1 2 2 1 1q2 1-1 2l-2 1h-3l3 6v1h-7l1 5v1h-1l-5-2-2 3-1 2-1 1h-1l-4-4M277 96l-10-20h1l1-1 11 20 12 23 2 4 1 4-1 3-1-2-1-4-2-4-13-23"/><path fill="#0d131a" d="M292 121h1v1q-2 6-28 16l1-2 18-8q7-4 8-7M251 39l1 3 1 2-2 6-2 5-2 2 1 6 2 5 8 4 8 3 9-2 4-3v-7q-1-4-3-5l-7-1-8 2h-2l2-2 8-2 7 1q3 1 5 7v7l-5 5q-6 3-10 3l-9-3-8-5-4-6v-7l1-1 1-2q4-8 4-15M320 31l3 6q2 5 1 8l-6 8-5 5q-2 2-5 1l-3-3 1-1q0 2 2 2h4l5-6 4-7v-7l-2-6-6-4-1-3 5 3 3 4"/><path fill="#0d131a" d="M309 43l2-2v3q-2 9-5 13l-4 1h-5l-4-1-2-2 1-1 2 1 3 1h5l2-1q2-1 3-5 2-3 2-7M308 15q4 3 5 9v8l-1 2v-1q1-12-5-17h-5l-5-1-3-4-5-3h-12q-5-5-7-5l-5-1-4 2q-2 1-7 11-6 12-5 16 0 3 5 12l6 10 6 3q6 0 11-3l1 1q-5 4-12 3-5 0-8-3l-6-10q-5-9-5-13-1-4 5-16 5-12 7-13l6-2h6l7 6 6-1h6l5 4 3 4 5 1 5 1"/><path fill="#0d131a" d="M276 12l1-2v2q-5 11-4 17l-1 2-1-3 1-7 4-9M295 17l1-1 1 2v7l-1 6-1 3-1-2 1-15M293 48l1-9 1-2v11l-2 6-3 3-4 1q-4 0-7-2l-3-2-3-7-2-9 1-3 1 3 2 8 3 7 3 2 5 1 3-1 3-1 1-6M297 56l1 1-6 6-7 4-1-2 6-4 7-5M330 127l3 3v13q-2 6-28 20-26 13-46 19-1-2 2-3l3-1q20-7 42-19 23-12 25-17 1-3-1-15M327 103l5 21-3-1-9-42-6-26 1-1 1-1 6 27 5 23"/><path fill="#0d131a" d="M353 138h-2q-23-12-43-35-20-24-29-48h1l1 1q9 24 30 47 20 23 42 35"/><path fill="#0d131a" d="M350 139v2q-19-10-38-30-20-20-31-43v-3q11 22 30 43t39 31M276 54l2 4-3-1-1-2 2-1M361 161q-2-2-2-5l1-3v3l1 4 4 1 4-1 2-4-2-4-4-2-4 2v-1l2-1 2-1q3 0 5 2t2 5q0 3-2 5t-5 2l-4-2M237 173h1v1l-2 5h9l-1 2-3 4 4 3 3 2v1l-8 3 1 3 1 2v1h-4l1 3 1 3h-2l-2-1-2-1v6l-1-1-2-1-3-1 1 3-1 1h-1l-1-1-1-1-1 2v3l-1-1-3-3-1 6h-1l-2-1-3-2-3 8-1 1-5-6-2 3h-1l-2-2-1-3-2 2-1 2-1 1-1-1-1-2-1-2-2 5q-1 2-2 1l-2-3-2-2-5 7h-1l-1-1-1-4-1-3-2 1-1 1-1-1-1-3-6 5h-1v-4l-1-3-3 2-1 1-1-1-1-4-6 3q-2 1-1-2l1-4 1-3h-2l-2-1v-1l1-1h1l-2-1-1-1-1-1 5-4-6-5v-1l9-1-1-4-1-2 1-1h2l2 2v2l-1-1-2-1 1 4v1l-1 1h-3l-3 1 4 4v2l-3 3 2 2h1l-1 1-1 1 3 1 1 1-1 2-2 6 4-2 3-2v1h1v4l4-3q2-1 2 5v2l5-4h2l1 2 2-1h1l1 1 2 6 6-6 1 1 1 1 3 3 2-5q0-2 1 0l3 3 3-3 1-1v1l2 2 2 3 2-3v-1l1 1 4 4 3-8h1l5 3 1-5h1l3 2v-2q0-2 1-1l3 1v-3l1-1 4 2v-3q0-2 1-1l4 1-1-5 1-1 3 1-1-4v-1-1l6-3-5-4v-1q2-2 2-5h-6l-1-1 1-4-3 1-1-1 1-1 4-1"/><path fill="#0d131a" d="M122 144l3 3v1l-1-1-4-3v3h-1l-3 1h-3l3 5-1 1-3 3 3 3v1l-3 3 2 1h1v1l-2 2 2 1 1 1-1 1-4 5 4 1h3v1l-1 4h3v1l-1 3h5l1 1-2 8 5-3 2-1 1 1 1 4v1l2-1h1l2 4 3-3 1-1v1l2 6 4-5h1l1 1-5 6h-1l-2-6-3 2-1 1-1-1-1-4-3 2h-1l-1-6-8 4-1-1 1-4 1-5-5 1h-1v-1l2-4-3 1-1-1 1-4-7-2v-1l2-3 3-3-2-1-1-1 3-2-3-1-1-1v-1l2-1 2-2-4-2v-1l2-2 2-2-1-2-3-2 1-2 4-1h4v-4h1l2 2"/><path fill="#0d131a" d="M133 102v1h-1l-1-1h-2v5h-4l1 4-1 1h-2l1 2q1 1-1 1h-3l1 3v2l-5 2 4 5-1 1-3 1 3 3v1l-3 2 3 2v1l-4 4 2 1 2 2v1l-6-3v-1l2-2 2-2-1-1-2-1v-1l4-3-4-3 1-1 1-1h2l-4-5v-1l6-2-2-4v-1h5l-2-3 1-1h3l-2-3 1-1h4v-2l-1-3 1-1h1l4 2"/><path fill="#0d131a" d="M126 126l5 1-1 2-4-1-3-1 3-1M144 159l1 1-5 2-2 1 1-2 5-2M147 162l1 1h1l-6 5-6 7-2 2 1-3 5-7 6-5M208 181l-1-1 2 1q3 2 4 7l1 2q-1 1-2-1l-2-4-2-4M211 170h1l1-1 3 2 4 4 1 2q-1 1-2-1l-4-3-4-3M238 134l1-1h6l5 1 3 2h-2l-6-1-7-1M239 129v-1h8l3 1h-11M246 151l-1-2 2 1 6 3 1 1h-2l-6-3M351 138l-1 1v2h2l1-1-1-1-1-1m-1 0l2-1 1 1 1 2-1 2h-3l-1-2 1-2"/><path fill="#0d131a" d="M353 140l1-1 4 5 4 6v3l-1 1h-2l-1-2-3-5-4-5h2l4 5 3 5 1 1v-2l-3-6-5-5M115 178l2 1-12 9-1-2q2 0 11-8M28 164l3 2 2 3 4 5 6 2 2 1 2 1q4 7 26 26 23 21 30 21 6 0 20-8l20-14v1l1 1q-6 6-21 14-15 9-21 8-7 0-30-21-21-18-26-27l-4-1-6-3-4-4-2-3-3-3h-4v-2q2-1 5 1"/><path fill="#0d131a" d="M57 148h1l-1 2q-5 8-11 9l-8-2q-4-2-3-5 0-3 4-11l7-9q5-3 15-3 11-1 14 1l3 6 2 9v5l2 4 10 17 14 17 3 3q0 2-3-1-5-3-15-18-9-12-11-17l-3-10-1-8q-1-4-3-5-3-2-12-2-10 1-14 4l-6 8-4 11q-1 2 3 3l6 1 6-3 5-6"/><path fill="#0d131a" d="M51 155l1-1h1v7q1 5 4 8v1l-2-1-4-6v-8M42 133v-1l1-1 3 3v1h-1l-3-2"/><path fill="#0d131a" d="M41 107l6 2 8 5 2 1 3 4 7 6 6 5h-4l-10-10-5-5q-10-6-13-6l-6 2-4 3q-3 5-5 14-4 12 0 14 2 2 7-1 5-2 7-6l2-4 1-5 1-1v2l-1 5-2 4q-3 5-8 8-5 2-8 0-5-3-1-17 2-10 5-14l5-4 7-2"/><path fill="#0d131a" d="M27 144h1l-2 8-7 5-6 1q-3-1-4-6v-13q1-9 5-13 1-3 7-5l7-2-1 3-6 1-6 4q-3 4-4 12v13l3 4 5-1 6-4 2-7"/><path fill="#0d131a" d="M10 138v3H9l-2 1-4 10q-2 7-1 9 1 3 5 2l5-1q3-2 4-5l1-1h1q-1 4-4 7l-7 3-4-1-3-3q-1-3 2-12l4-9q1-3 4-3"/><path fill="#0d131a" d="M21 155l1-1 1 8-1 10q-2 4-7 6-5 3-8 1l-2-5v-10h2v9l1 4q2 1 7-1 4-2 5-5l2-8-1-8M143 204l3-2v14l-3 14q-1 4-10 14l-14 17-7 8-3 8-2 9q0 4 7 17 9 15 14 16l2 1h-3q-6-1-15-16l-6-11-2-7 2-9 4-10 6-8 15-16q9-10 10-13l3-14-1-12M249 191h3q1 8 8 27t11 25l-2-3-4-4-8-22-8-23"/><path fill="#0d131a" d="M260 232l-1-3 2 1 4 4 7 8 21 22q11 13 12 17l3 13-1 13-6 12-7 11-4 6-4 6q-2 2-2 0l1-3 7-9 7-12q4-6 5-11 2-4 1-13l-2-12-13-17-20-22-10-11M160 294l-1 1 1-3q6-7 27-12 21-6 29-2 13 6 34 24l2 3h-1l-18-14-18-11q-7-3-28 2-22 5-27 12"/><path fill="#0d131a" d="M237 329l-2 3-1 3q-1 6 2 18 4 14 9 16 4 2 12 2l11-1q2 0 3-2v-4-2l-2-2-5-2-1-1h2l5 1 3 3v7l-2 3-2 1-12 1q-10 0-14-2-6-3-9-17-3-13-2-19 0-3 4-8l6-9q3-8 4-18h1l1 2q-1 10-5 17l-6 10"/><path fill="#0d131a" d="M283 356l-2-1h3q6 2 7 5t-1 7l-4 5h-8l-10-1h1l1-1h15q2 0 3-4 2-3 1-5l-2-2-4-3"/><path fill="#0d131a" d="M286 339l1-1v-1l3 7 5 7 6 4 3 1 3 2 1 5-1 5-2 3-3 1h-8l-8-1v-1h16l3-3v-4-3l-2-2-3-2-6-4q-3-2-5-6l-3-7M273 296l1-2 1 2-1 5v5l3 3 2 8-1 2v-1q0-3-3-7l-3-4v-6l1-5M256 333v-2l1 1 6 6v1l-1-1q-4-2-6-5M251 356h7l1 1h-2l-6 1-2-1 2-1M272 356h-2l3-2h4l2 1h-2l-5 1M149 308q1-3 2-2v2l-3 5-5 5-4 1 1-1 5-5 4-5M136 345q-2-3-1-7 0-3 2-5l4-2 4-1h3l-1 1-4 2-5 2-1 4q-1 2 1 5 1 3 11 3l12-1 4-4 5-7 7-17-1-6-1-3q-5-3-7-7-5-5-4-12l1-1 2-1q-2 7 1 12 2 4 7 7l3 4 1 6-2 8-5 11-6 8-4 4-13 1q-11 0-13-4"/><path fill="#0d131a" d="M128 331l2-1q1 1-2 2l-6 4-2 5 2 4q4 3 17 1l2 1 1 1-12 1q-6 0-9-2l-3-5 1-7 5-3 4-1"/><path fill="#0d131a" d="M123 317l1 1 1 1-6 10-5 2-5 3-2 5 1 5 5 2h9l2 1q-5 2-12 1-5-1-7-3l-1-6q0-4 2-6l7-3 5-3 3-4 2-6M226 257l2-2v2l-2 4-3 6h-1v-2l2-4 2-4M222 126l2 2-3-1q-5-2-10 0-6 3-10 10l-2 2 1-3q4-8 9-10 7-3 13 0"/><path fill="#0d131a" d="M221 131h2l-2 1-9 4-10 5h-1l2-2q8-6 18-8M212 141h2l-2 1-4 2h-4l-2-1h1q5 0 9-2M168 136l1 2-2-2q-6-8-12-10-4-2-8 1l-2 1 1-2q5-4 10-2 6 2 12 12M166 139l1 2-2-1q-8-5-17-7l-3-2h4l9 3 8 5M165 143h1l-2 1-4-1-4-1-2-1h2l4 1 5 1"/><path fill="#0d131a" d="M160 131v-2l1-1h1v5l-1 1-1-1v-2M207 130v-2l1-1 1 1v4l-1 1-1-1v-2"/></svg>