<svg xmlns="http://www.w3.org/2000/svg" version="1" width="521" height="271" viewBox="-0.7 -0.1 521.25 270.5"><path fill="#717069" d="M434 87h4l5-1 5 4-10 14-4-17"/><path fill="#888780" d="M160 260l-5-1-1-5 1-7q0-2 10-6l15-6 3-7 1-10-15-12 2-14 71 32-1 6h-14v4 6l1 4-1 4q-1 2-16 10l-16 9-5 1h-6q-3 0-4-2v-2l-6 1h-8l-3-3v-2h-3"/><path fill="#717069" d="M241 230h-14v4 6l1 4-1 4q-1 2-16 10l-16 9-1-3 1-5 8-8q7-7 7-9-1-2-10-7l-17-10 1-7-15-12 2-14 72 23-2 15"/><path fill="#888780" d="M347 189l9 2 3 11-5 4 2 8 4 13q1 3 9 9l9 6 1 8v6q0 2-2 3l-4 2h-4l-1 3-12 4-4-2-2-1-8 3q-3 1-9-6l-10-8-9-8-1-4 1-6v-7l-1-4-14 3-4-5-15 1-2-4 1-2 5-5q9-8 29-16t34-8"/><path fill="#717069" d="M347 189l9 2 3 10-5 5 2 8 4 13 6 6q-18-7-30-8-10 0-22 4l-1-4-14 3-4-5-15 1-2-4 1-2 5-5q9-8 29-16t34-8M352 266l-2-1-8 3h-2v-6l1-3h3l7-1h4l4 1 7-3 4-2v-1l1-1 8-7v11q0 2-2 3l-4 2h-4l-1 3-12 4-4-2"/><path fill="#888780" d="M350 49l6 4 5 20 10 24q9 25 7 32l-4 4-2 3-1 3 3 3q3 3 3 5 1 2-1 12-3 11-6 15l-9 3-4 2v11l-10 9-12 9-4-2-4-1-2 7-14 4-15 3-6-4-5-4-17 11-16 1h-23l-7-10-22-15q-26-17-40-33l-2-12-1-12-11-15q0-3 5-11l5-7 8-50-3-6 7-11q6-12 8-13l10-1h8l7-4 12-5q2-2 4-9l4-7h16l17 2q3 1 5 4l1 2h15q15 0 18 2l14 9 14-7 10 16 6 2 7 2 1 12 5 3"/><path fill="#717069" d="M169 123l-6 2-3 1-10-9 2-3 1-2 5 1 4 3 7 7M214 18l-2 8-8 7q-9 7-13 8-3 1-9-3l-6-4-1-3 1-3 10-1h8l8-4 12-5M331 30l6 2 7 2 1 12 5 3 6 4 5 20 10 24q9 25 7 32l-4 4-2 3-1 3 3 3q3 3 3 5 1 2-1 12-3 11-6 15l-9 3-4 2v11l-10 9-12 9-4-2-4-1-2 7-14 4-15 3-6-4-5-4-17 12-16 1-23-1-7-10-8-12q-8-12-3-11h13l6-1 2 2 1 1 6-5-1-3 27-9 23-9 9-14 11-5 13-6q2 0 3-10v-11l-3-22-3-24-25-33-9-3-10-2q-1 1-9-4l-9-5-3-8-2-10q-3-2-32-5l2-2h16l17 2q4 2 7 6h14q15 0 18 2l13 8 15-6 10 16"/><path fill="#717069" d="M241 155q-7 6-14 7-7 0-14-5l-4-4 1-1q4 2 14 2t17-3h3l-3 4"/><path fill="#888780" d="M170 71q12 8 13 14 1 7-4 25l-5 16-17-13-21-4-16 16-10-1q-7 8-12 10-3 2-17-19L67 94l16-12V71l11-6 12-6q1-1 8 4l6 4 8-5 15 5 7-4 8 2 12 6"/><path fill="#717069" d="M121 68l-6 1q-6 2-7 1l-2-5v-6q1-1 8 4l7 5M165 102l2 10v8l-10-7-21-4-16 16-10-1q-7 8-12 10v-12q1-14-3-20 10 0 23-5 7-2 11-5h6l10-6 9 10 4 2 7 4"/><path fill="#888780" d="M64 92l15 3 14 3q2 0 8 9l7 12v6l-1 7q0 2-8 8l-10 7q-2 2-9 1l-11-1q-4 0-7 3l-4 4q-2 2-9-1l-11-4q-2-1 0-12l3-12 2-7 2-5 9-11q8-10 10-10"/><path fill="#717069" d="M70 97l-1-5 11 3 13 3q2 0 8 9l7 12v6l-1 7q0 2-8 8l-10 7H65q3-3 10-6l11-6q3-1 3-5t-3-9q-6-11-16-16 2-2 0-8"/><path fill="#888780" d="M14 90q6-9 8-8h16l11-1 12 6 10 6v13l-11 7q-12 7-13 6-2 0-7-5l-5-6-11-3-10-1q-3-1-5-4-1-2 5-10"/><path fill="#717069" d="M40 93l-16-1q-2 0-2-5v-5h16l11-1 12 6 10 6v12l-11-9q-2-2-5-2l-15-1"/><path fill="#888780" d="M42 122l3 9-3 9-4 9h-2l-5-3-10 2-9 3H7l-5-1v-6q0-6 2-8l8-8q7-7 9-7l11 1h10"/><path fill="#717069" d="M13 135l6-4q5-3 7-1 3 5 3 8 2 4 0 8l-10 2-7 3q-1-13 1-16"/><path fill="#888780" d="M108 129l3 8 3 14q2 6-2 9-2 3-8 5h-4l-3-4-8-8-8-8 7-6 8-10 6-1 6 1"/><path fill="#717069" d="M106 143l-8-15h5l5 1 3 8 3 14q2 6-2 9-2 3-8 5-3 1-5-2l4-2 5-3 2-6-4-9"/><path fill="#888780" d="M441 97l-3 24-3 23-32 9v-20l-11-15 3-4-1-6-5 4h-13l-4 6-11 1-13-1-1-1-1-1-8 4-17-3-3-22 4-8 5-9 8-2 6-2 3-6 3-5 12-1 16 1 2 7h14l6-6q6-6 8-5l12 6 10 6 2 11 4 4 8 11"/><path fill="#717069" d="M414 75q2 0-4-8l-6-8 12 5 11 7 2 11 4 4 8 11-3 20q-5-10-19-27l-12-14 7-1M378 97l8 1 8 1v9l-5 4h-13l-4 6-11 1-13-1-1-1-1-1-11 6-9-1q-9-1-9-3l9-4 15-6h27l6-5 4-6"/><path fill="#888780" d="M484 142l-16 19-2 1h-15l-8-1-15 10h-7q-6-2-12-7-7-5-6-13l5-14q2-6 8-12 6-5 14-8t19-1q9 2 12 5l5 2 5 3 8 9 5 7"/><path fill="#717069" d="M471 126l8 9 5 7-16 19-2 1h-15l-8-1-15 10h-6q-7-2-13-7l21-5 15-4 6-5 6-6q2-1 1-14l-2-12 2 1 3 2 5 2 5 3"/><path fill="#888780" d="M474 98l-6 5-7 20-24 5-8-4-4-5 6-10 8-11 10-9 9-8h9l9 1 3 5q2 4 1 5l-6 6"/><path fill="#717069" d="M476 82l2 4 2 5-6 6-6 6-7 20-5 1-5-15-4-8 6-6 5-4V81l18 1"/><path fill="#888780" d="M514 122l5 4v13l-3 3-4 1-7-1-8-2-20 4-10-13v-7l22-9 19 3 6 4"/><path fill="#717069" d="M508 118l6 4 5 4v13l-7 4-1-14-8-5-8-2q-10-1-15-4l9-3 19 3"/><path fill="#888780" d="M402 171l-5 4-5 1h-5l-4-6q-3-7-2-9l3-6 4-6q4-1 19-12l4 2 5 2 5 21-6 3-7 2-6 4"/><path fill="#717069" d="M397 175l-5 1h-5l-6-15 4 1 4-1 4-5 3-4 12 15-11 8"/><path fill="#ed8599" d="M195 140l1-1 4-2q7-2 21-2 15-1 28 2l11 3q-23 9-43 7-15-1-22-7"/><path fill="#ce7486" d="M243 145q-5-5-18-6-14-1-24 4l-6-3 1-1 4-2q7-2 21-2 15-1 28 2l11 3-17 5"/><path fill="#888780" d="M261 49l-2 13 8-9 8-8 9 4q9 5 8 6l-6 12-5 12 19-4q5 13 4 14l-27 19-18 10q-21 10-36 11-16 2-34-7l-11-6-4-3-1-5-18-10v-8l1-7 14 1-8-6-7-7 5-8 6-8 14 11-5-21 7-4q7-5 8-4l6 10 6 10 9-2q12-3 19-2l15-24 9 2 9 3-2 15"/><path fill="#717069" d="M179 66l1 3 1 4-11-8-6-6 2-4 13 11M191 47l-4-9 1-1h2l6 10 6 10 9-2q10-3 17-2l2 2-1 1-21 4q-16 4-11-1l-6-12M258 32l5 2-2 15-2 13 4-4 7-8-8 13q-6 7-8 7t1-19l3-19M275 88l6-19 7-18 4 4-6 12-5 12 19-4 1 4-16 5-10 4M264 95q2 0 4 4 3 3 2 4l-12 10-16 6-15 3q-1-4 17-16t20-11M212 106q2 2 3 9 1 8-3 8l-11-3-14-5-7-4q-3-2 0-3h9l15 5q2 1 5-3l3-4"/><path fill="#fff" d="M200 115l11 6-11 1-11-1-2-4q-2-4-1-7 3-1 14 5M253 108l10-5v7q-1 7-3 8-2 3-14 3l-14-1 21-12"/><path fill="#dbdcdc" d="M210 120l-5 1q-8-7-19-7v-2-2q3-1 14 5l10 5M237 120h-5l21-12 10-4v2l-1 4-13 4q-8 2-12 6"/><path fill="#888780" d="M151 142l6-4 5-4 4 50-6 3-7-5-7-6 2-17 3-17"/><path fill="#717069" d="M165 173l1 11-6 3-7-5-7-6 10-1 9-2"/><path fill="#888780" d="M166 143l5-1 6-1 7 8v11l7 8 1-1 3-2 7-2h8l8 4 8 4q2 2 1 6v6l-4 1-4 2-4 2-2 2 4 3 4 1 5 1q2 1 1 5v5l-3 2 2 2 1 3-5 4-5 4-10 1-11-1q-2 0-7-5l-5-7q-3-3-2-6l-23-25 1-5 2-7 4-22"/><path fill="#717069" d="M210 191l-2-5 2-2 4-4 7-1h6v4l-4 1-4 2-4 2-2 2 4 3 4 1 5 1q2 1 1 5v5l-3 2 2 2 1 3-5 4-5 4-10 1-11-1 3-1q5-2 9-6l1-2-1-1 4-5q3-5 2-6l-4-8M173 159q-1-2 4-7t7-3v11l7 8-5 9-6-8-7-10"/><path fill="#888780" d="M335 156l11 5 7 4 1 2 2 3-2 11-3 9-6 1h-5l-4 9-15 7h-8l-13 3-7 5-8 5-25 4-9-10q-6-1-7-3l-1-6v-6h5q2 0 6-4l3-3v-4l-15-2-1-4v-5l6-4 8-5 10-2 9-1q2 0 5 5l3 4 3-1 6-2q2 0 4-3l5-6 20-3 15-3"/><path fill="#717069" d="M242 186l-1-4 8 1 8 1q2 6 0 7v-3l-15-2M353 165l1 2 2 3-2 11-3 9-6 1h-5l-4 10-15 6h-8l-13 3-7 5-7 5-26 4-5-6 13-3 13-4 5-5 4-4 5-3 4-3 1 2q2 2 4 0 3-1 4-4l1-3q12-7 13-9 2-2 1-12l-2-13q0-4 20-4h20l-8 12"/><path fill="#0d131a" d="M169 197l1-7q0-2 1-1l1 3-1 7-1 7 10 7 10 9 2 2-2-1-5-3-2 9-3 7-9 4-15 7-1 8 1 2v1l7 1v1h-8l-2-2v-4-4l1-4q0-2 4-3l13-5 8-4 3-7 1-9-13-9-3-2v-3l2-7M219 229h22v-5h2l-1 7h-14v9l1 4-1 5-15 9-18 11h-12l-2-1q-2-1-2-3v-6l1-5 2-3 7-3 3-1-3 2q-6 3-7 5v4l-1 6 1 2 2 1h6l4-1 16-9 16-9 1-4v-3l-1-5v-5l-7-2"/><path fill="#0d131a" d="M175 244h2l-2 2-5 2-4 2-1 5-1 6 2 3h13l1 2-7 1-7-1-3-1v-5q-1-5 1-9 0-3 11-7M377 243l-3-2-9-7q-5-4-6-7l-3-11-3-10h1l2-2 2 11 3 11q1 3 6 7l8 6 4 3 2 2v11q0 3-2 4l-6 4-4-1v-1h3l5-3 1-1v-8l-1-6M345 250l3 2 2 2 2 4v8l-5 2-5 2q-3 0-10-7l-11-10-5-4-3-2-1-2v-3l1-6 1-2-1-4-2-5h2l2 6v6l-1 5 1 3 2 3 5 4 11 10q6 6 9 5l4-1 4-1v-8l-7-6-3-2v-1h1l4 2"/><path fill="#0d131a" d="M359 244l-1-2 2 1 5 4 5 4 1 2v3l-1 6-3 4-3 1-8 2-4-2-2-1 1-1 2 1 3 1 3-1 5-1 1-1h2l1-2 1-2v-3q1-4-1-5l-4-4-5-4M378 245h1v1l-2 2q-1 2-3 2l-2 1 2-2 4-4"/><path fill="#0d131a" d="M364 258l-5 1h-2l2-1 6-2 5-2v1l-6 3M348 258h2l-1 1-4 1h-4q-1-1 1-1h3l3-1M357 192l1 3 2 4v3l-1 1-8 6-9 6h-4l-3-3-2-1h2l3 1 2 1h3l7-6 7-5 1-1v-2l-2-4-1-3h2M329 213l1-2v2l-2 10-15 3-15 3-2-2-1-3-16 1-2-2v-2l2-1 1 2 1 1h8l10-1h3q1 1-5 1l1 3 1 1 28-6 2-8M155 247h1l2 1 2 2h2l-2 1-3-2-2-2M164 252v-1l1 1 9 3h0l-7-1q-2 0-3-2M181 255v-1h1l4 2 5 1 3 1h-2l-7-1q-3 0-4-2M154 112l-4 8-2 6q1 4 8 13h-1l-1 1-6-8-3-6q0-4 7-14h2M344 35l-4-1-7-2 2 7q0 2-3-4l-6-12-5-8-6 2-7 4 2 3-4-2q-9-8-14-9l-13-2h-17q3 3 2 5 0 2-3-3l-4-6-2-2-17-2h-16q-2 0-7 17l-3 6 1-7-14 7-13 8-2 1q-1-1 1-2 1-2 7-5h-11l-5 1-7 11-6 12v2l2 3-1 1-2-2-2-4 7-13q6-12 8-13h19l6-3 14-7 3-10 2-5 4-1 14 1 18 1 3 2 3 5h18q13 0 15 2l7 4 5 4 8-4q6-3 7-2 2 0 6 8l5 9 8 1 6 3 1 6-1 6 7 3 5 4 1 9h-1l-3-9-6-3-7-4-3-2v-1l3 1 2 1v-6-4M259 222l1 2-15 1h-15l-2-1-1-1-1-3-3-4 1-1h1l4 8q8 1 30-1"/><path fill="#0d131a" d="M377 111l2 9 1 7-8 9v3l4 3q3 3 3 5l-3 14q-3 12-5 14l-13 4 1 11-2 2-10 9-11 8-4-1-4-3-2 8-15 4-16 3-4-3 1-1 4 2 14-3 15-4 1-2 1-5h1l7 3 11-8 10-9v-12l1-1 4-1 8-3q3-3 6-14l2-12-6-7v-5l7-9-3-12 2-3M174 126l3 3-4-2-9-8-7-6-21-3-16 16h-5l-4-1-3 3 1-4 10-10 9-8 1-6v-7-2l1 2v8l-1 6-6 7-11 10h5l3-1 7-7 8-7v-5l1-5 1 2v7l10 2 11 2 7 6 9 8M136 69l2 1 1 2 5 10 3 8-2 3-4 2-2 2q-1-1 1-2l3-3 2-3-4-9-4-9h-3l-5 1-2-1h2l3-1 4-1"/><path fill="#0d131a" d="M121 69l-15-9-11 5-11 7v3l1 6 6-3-5 4-16 11-1-1v-1l8-5 5-4v-6-5l12-8 12-6q2 0 14 9l4-3 4-2q2-1 8 2l8 3 3-2 3-2 8 2-1 2-3-1-4-1-2 1-3 2 6 8 1 3-2-2-6-8-7-3-8-2-4 2-4 3 2 2-2-1M45 117l-1 3v3l-3-1 2-6 2 1"/><path fill="#0d131a" d="M22 83l-3 2-5 7-4 7v1l5 3q19 2 21 4l5 7 6 4 8-3 9-6 2-1-2 3-9 6-9 4-7-6-4-6-8-2-13-2-4-2-2-3q0-3 5-12 7-9 9-8h18l10-1 10 6 11 7 22 5q2 0 9 10l7 11 1 5-1 7-2-1v-7-3l-7-11-7-9-22-5h-1l-9-6-11-6q-19 2-28 1"/><path fill="#0d131a" d="M24 91l8 1h22q3 0 8 5l8 7v-6l-1-5q0-2 1-1l1 2 1 9q0 4-2 2l-7-6-9-6-12 1-9-1h-9l-3 4-5 6-2 1v-1l5-7 5-5M45 135l-3 7-3 7q17 6 18 4l3-2 3-4 6-1h14l1 1 1 1h-9l-8-1q-3 0-4 2l-3 4-2 2q-1 2-15-3l-14-5q-2-1-9 2-7 1-9 3H5l-4-1q-2-1 0-8l2-7 9-10q6-6 8-6l11 1h11q2 0 4 11l-1 3m-1-4l-2-8-21-1q-2 0-8 7l-9 8-1 4-1 6 1 2 5 1h3l9-3q8-3 11-2l6 3 4-8 3-9"/><path fill="#0d131a" d="M44 130l1 1q1 0 0 0h-5l-18-1-5 4-4 3v7l-1 7h-1q-1 0 0 0v-8l1-7 4-4 5-3h8l11 1h4M91 136l-8 9 8 8q6 5 7 8l3 3h3q6-2 8-5l1-4v-6l-6-19-5-1-5 1-6 6m-10 11l-1-1 1-2 7-7 8-9 6-1 6 1 4 9 4 15-1 6-1 4-11 4-3-1-3-2q-2-5-9-10l-7-6"/><path fill="#0d131a" d="M100 133l-1-2q1-1 2 1l6 10q4 9 3 11l-1 3-2 4-3 1-2 2h-2l1-1 6-3 2-6q1-2-9-20M433 87l4-1 6-1 4 2 2 1-2 2-4-3h-4l-5 1-1-1M378 75l2-1 3-2h3l-2 2-3 1-1 1q-1 1 1 11l3 12 4 3 3 2-4-1-5-3-3-12q-2-12-1-13"/><path fill="#0d131a" d="M395 110q4-4 6-4l4 1 6 3 3 2q-1 1-4-1l-8-3-5 4-4 6 6 7 5 7v8l-2 1v-9l-6-7-6-7 2-3 2-2-1-3-4 3h-13l-2 5-1 2h-13l-11-1h-2l-2-2-7 4-2 1q-1-1 1-2l7-5-2-3-1-4 3 4 5 5 11 1h12l2-5 2-6q1-2 2-1l-1 5h12l4-3v-8l1-2 1 2v10M467 125l-5-3v-2l6 3-1 2M482 143h3l-8 11-7 8q-3 2-11 2l-15-2-8 5-8 4h-6q-6-1-12-5h3q8 5 15 3l8-4 9-6 4-2-3 3q2 2 11 2 8 0 11-2l6-6 8-11M409 137h-3l7-10q4-5 12-9v2q-6 3-10 8-4 4-6 9"/><path fill="#0d131a" d="M458 82l-9 7-9 9-14 21 6 5q3 3 5 3l23-5 7-17 1-4 6-5 5-5q1-1-1-4l-2-4-9-1h-9m-11 6q8-8 10-8 2-2 19 1l3 4 2 7-4 4q-5 3-8 7l-3 9-4 10-1 2q-21 5-25 4l-7-4-5-4h-1l1-1 7-10 7-12 9-9M513 123l-5-4-10-2-9-1-11 4-10 4v7l9 12 21-4 4 1 10 2 3-1 3-3v-5-6l-5-4m-6-6q3 0 7 4l6 5v13l-4 3-4 3-7-2-8-2-10 2-10 2-6-7-4-7-1-7 1-1 11-5 11-5 8 2 10 2"/><path fill="#0d131a" d="M488 121l15 2 5 3 4 2v15l-1 1v-8l-1-7-2-2-5-2q-12-3-15-2l-6 2-8 3h-2l2-1 7-4 7-2M458 90h10l12 1v1h-21l-7 5-6 7-3 6-4 11-3 4 1-5 5-11 3-7 6-6 7-6M389 150l-4 5-3 5v3l3 7 3 5h8l3-3 5-4 4-2 7-2 5-2-5-21-4-1-4-2-8 5-10 7m-1-2l10-6 9-6 5 2 4 2 3 11q3 10 2 11 0 2-3 3l-9 2-7 5-6 5h-5l-5-1-4-7-3-8 4-7 5-6"/><path fill="#0d131a" d="M390 168q-2-5-1-6l2-5 4-5 17-11 3-1v1l-19 11-3 5-3 5 3 7 3 6q1 2-1 1l-5-8M417 75l3 1 8 4-2-9-11-6-11-5q-2 0-5 4l-7 7q-3 5-4 4l2-4h-12l-1 2q-1 1-1-3l-1-3-1-3-14-1h-13l-3 6-4 9q-1 4-2 3l1-6-11 4q-2 1-5 7l-4 9-1 2v-3l7-17 7-2 8-2 4-8 2-4 14-1q12 1 15 3 2 0 3 6h13q9-11 11-11 2-1 14 5l13 7v6l1 6q7 7 11 14l-1 1-10-13-12-8q-2 0-1-1M194 140l1-1q8 6 22 8 19 1 41-7l2 1q-23 9-40 8-15 0-26-9M210 153l-1-1h2l9 1 15-1h3l-3 2-13 1q-8 0-12-2"/><path fill="#0d131a" d="M205 135l17-2q13 0 25 2l15 4 5 2 4-5q2-2 3-1l-1 2-6 6-6-2-14-3-24-2q-18-1-31 5-2 2-4 1t-4-6l-1-2 2 2q2 4 4 4l3-1 13-4M283 49l-8-4-6 7-9 11-4 3 3-5 1-13 2-13-8-3-9-2-7 10-7 14-2 2v-2q-16 0-31 6h-2l1-1 4-2-5-10-6-10-7 4-7 5 1 7 3 11 1 6-2-3-8-6-5-4-5 6-5 7 6 7 10 8 2 2-2-1-2-1-9-1h-4l-1 6v7l8 5 9 6 1 1v5l-1-1-1-4-10-6-8-5v-8l1-8 12 1-10-8-4-5 6-8 7-8 12 10q-5-17-4-18 0-2 7-7l9-4 5 7 8 14 12-3 14-2 8-13 7-11 10 2q9 3 10 5l-4 26 10-13 5-4q1-1 10 4 8 5 8 7l-5 11-6 14-1 1h-1l6-15 5-10-8-6"/><path fill="#0d131a" d="M282 80l-4 1 5-3 9-3q7-2 8-1l3 7q3 7 2 8 0 2-12 10l-15 9-4 1 3-2 14-9 12-10-1-6-3-6-7 2-10 2"/><path fill="#0d131a" d="M279 111l1-6h2l-1 2v4l-1 2-1-2M230 98l3-4 5-5 2-2-1 2-8 10h-2l1-1M191 72l1 2 1 4q0 3-1 1l-2-3-1-4v-1l1-1 5-3h1l1 1 3 4 1 1h-1l-3-2-1-2-3 1-2 2M209 120h1l2 1-11 1h-11l2-1h9l8-1M187 117l1 2q-1 1-1-2l-2-4v-3h2v7M231 120l2-1 11 1 12-1h4l-4 1-12 1-13-1M262 114l-1 3v-3l1-6-1-5h3l-2 11M301 26q-1-1-6 1l-4 1v4l1 4 2 2 3 1 1 1-1 1q-6-1-7-4l-1-5v-5l5-2 7-1 6 2q5 2 6 4l1 4 1 4v2l-1 2h-2v-1l1-1v-2l-1-8-5-2-6-2M219 30v-1h1l3 1 1 1v2l-1 3-1 3q-2 1-7-1l-3-2-1-1q-1-2 3-5h1l-1 1-1 3 1 2 4 1h3l1-5-3-2M309 111l-1-1h1l3 1 1 1v1l-1 4-3 4v1h-5l-2-2 1-4v-5l1-1v9l2 1h2l2-4 2-4-2-1h-1M369 124v-1l1 1 2 4v7l-1 6q-1 6-6 10l-1 1v-1q5-6 6-15 1-6-1-12M164 133l-1 1-6 5-5 4-3 16q-2 14-1 16l6 6 6 4 3-1 2-1 1 1-6 3q-1 1-7-4l-7-6q-1-2 1-18l2-18 6-4 6-3 3-1"/><path fill="#0d131a" d="M172 143l-6 1q-5 1 0-1l6-2 5-1 4 3 3 4 1 1v11l3 4 3 3 3-2 8-2h8q3 0 9 4 7 3 8 5l1 2 1 4-1 6-5 2-4 1-5 4 3 2 3 1h3l4 1 1 1v10l-1 1h-1l-1 1 2 2 1 2v1l-5 5-5 5h-7l-10-1h-5q-3 0-12-10l-1-2-2-3-1-4-11-12-10-12v-1l1-7 2-5q1-2 2-1l-1 2-2 6v5l9 11 10 11v-4l1-1v2l1 6 2 6 6 6 6 5h5l16 1 5-4 4-5-1-2-2-1-5 2 8-6v-5-3l-3-1h-4l-3-2-4-3v-1q4-4 7-4l4-1 3-2 1-5q0-4-2-5l-7-4-8-4h-8l-7 2-2 2-2 2-8-10v-11l-4-4-2-3-5 1"/><path fill="#0d131a" d="M180 159h4v2h-5q-2 0-1-1l2-1M185 178l3-6 3-5 4-2-9 14q-1 2-2 1l1-2M213 180l9-1h2l-2 1h-5l-3 1-2 2-2 2 1 2 3 3 3 3q1 2-1 0l-5-3-2-3-1-1 1-1 4-5M226 205q3-1 1 1l-5 4-3 2-5-1-6-1-3-1-3-2-1-2 1 1 5 3 11 1 5-4 3-1M190 191v-1l3-1h3l1 1 1 3v3l-2 3-2 2-2-1-2-1-1-1h1l2 1h1l2-1 1-2v-3-2h-6M352 186l5-13 5-15 1-3v4l-4 15q-4 13-7 14v-2M340 137l2-3q1-2 3-2h4l5 1h2l1 3q2 7 1 9l-2 4-2 3-2 1 1-1 1-3 2-4v-6l-1-3-1-2h-9l-2 1-2 3h-1v-1"/><path fill="#0d131a" d="M351 136l-3 3 1 5 1 5 4-2 2-3h1v1l-7 6q-2 0-3-6v-6l6-6 2 1-4 2M357 155v2l-2 5-1 3 3 4q1 1-2 11l-3 11-3 1h-8l-4 9-7 4-7 2-2 1h-2l-5-1-7 2-6 2-2 2-4 2-5 4-4 2-12 3-12 2-2-1-2-1-3-5-4-4-4-1-5-2-1-3 1-5v-5l2-1h4l5-3 3-3v-3l-11-1q-4 0-4-2l-1-7 1-2 5-5 9-6 10-1 10-1 3 3 5 6 4-1 5-2 3-3 4-5h2l-3 5-5 5-10 3h-3l1-1q-5-8-7-8l-9 1-10 2-8 4-5 5v1l1 6 7 1 8 1v5l-2 2-3 3-5 3h-4v1l-1 2v4l1 3v1l7 2h1l9 10 12-2 13-2 9-6 3-2 2-2 13-3h8l7-3 7-3 4-8-6-1 1-1h16q2-1 5-20 1-1-2-3l-5-3q-3-3-1-2l5 2 3-7 2-2"/><path fill="#0d131a" d="M314 137q2 0 3 3l-1 2-1-2-1-1-8 5q-8 5-8 7l-1 5 1 5h11l10-2 1-3v-2l1 1 1 3-1 2-12 2-12 1-2-5 1-8q0-2 9-7l9-6M254 183h3l1 1v7q0 2-1 1v-4l-1-3-7-1-6-1q-2 0-1-1h6l6 1M271 206l-2 2-7 3-7 3-3 1-5-1q-4-1-3-2h10l7-2 7-3 3-1M298 197v-8l1 2 1 3v3l2 1h2l2-3 2-4-3-1-1-1 1-1 2 1h2l1 2-1 1-2 4-2 3h-5l-1-1-1-1M235 183v-1h1l4 3-1 3-2 2-3 2q-1 1-3-1l-2-2q-1-2 1-4l1-1v3l-1 1 2 2 1 1 3-2 2-3-1-1-2-2M198 114l2 1-1 4-1-1v-4M243 118q-2 0-1-4l2-1v4l-1 1"/><path fill="#0d131a" d="M211 120l2 1h-2l-11-5q-10-5-16-6l-2-2h3l14 5 12 7M230 121l-3 1 3-2 15-9 18-9 4-1-4 3-17 9-16 8M211 112l1-2 1 2v5l-1 2v-2l-1-5M226 118l-1-4v-4l1-2v1l1 9v1l-1-1"/></svg>