<?xml version="1.0" encoding="utf-8"?>
<!DOCTYPE svg PUBLIC "-//W3C//DTD SVG 1.1//EN" "http://www.w3.org/Graphics/SVG/1.1/DTD/svg11.dtd">
<svg version="1.1" xmlns="http://www.w3.org/2000/svg" xmlns:xlink="http://www.w3.org/1999/xlink" xmlns:ev="http://www.w3.org/2001/xml-events" width="1003.0px" height="557.0px" overflow="visible" viewBox="0.0 0.0 1003.0 557.0" enable-background="new 0.0 0.0 1003.0 557.0">
	<defs/>
	<rect width="1003.0px" height="557.0px" x="0px" y="0px" fill="#FFFFFF"/>
	<g>
		<g transform="matrix(1.0 0.0 0.0 1.0 0.0 0.0)">
			<g transform="matrix(1.0 0.0 0.0 1.0 0.0 0.0)">
				<path fill="#0D131A" stroke-linecap="round" stroke-linejoin="round" d="M 320.8 94.5 L 328.5 94.1 C 331.86667 93.4 334.56668 92.36667 336.6 91.0 C 339.33334 89.13333 341.38333 85.96667 342.75 81.5 C 343.44998 79.13333 344.21664 77.933334 345.05 77.9 C 345.91666 77.86667 346.46667 79.01667 346.7 81.35 C 346.9 83.45 347.4 84.98333 348.2 85.95 C 349.0 86.95 350.28333 87.566666 352.05 87.8 C 353.71664 88.066666 356.21664 86.38333 359.55 82.75 C 362.55 79.549995 364.68332 76.63333 365.95 74.0 C 367.05002 71.700005 367.9167 70.466675 368.55 70.3 C 369.25 70.13334 369.91666 71.15 370.55 73.35 C 371.08334 75.183334 372.53336 78.53333 374.9 83.4 L 378.25 90.3 C 378.25 92.1 376.86667 94.83333 374.1 98.5 C 372.03333 101.26667 368.31665 105.63334 362.95 111.6 C 357.05002 118.23334 353.78336 122.23334 353.15 123.6 L 355.5 126.0 L 352.35 126.05 C 351.58334 126.05 345.71667 120.66667 334.75 109.9 C 323.81668 99.2 319.1667 94.066666 320.8 94.5 Z"/>
				<path fill="#E3C582" stroke-linecap="round" stroke-linejoin="round" d="M 361.55 84.15 C 365.51666 79.78333 367.6 76.799995 367.8 75.2 C 367.93332 74.23333 369.26666 76.433334 371.8 81.8 L 375.55 90.15 L 375.65 90.5 C 375.65 91.76667 373.86667 94.63334 370.3 99.1 L 361.0 109.85 C 355.53333 115.95 352.26666 119.88333 351.2 121.65 C 335.4 106.316666 327.34998 98.26666 327.05 97.5 C 326.94998 97.26667 328.09998 96.9 330.5 96.4 C 333.66666 95.73334 336.26666 94.600006 338.3 93.0 C 340.33334 91.4 342.0 88.950005 343.3 85.65 L 344.2 83.3 C 344.4 82.933334 344.55 83.083336 344.65 83.75 C 344.91666 85.48333 345.5833 86.96666 346.65 88.2 C 347.88333 89.63333 349.5 90.5 351.5 90.8 C 353.86667 91.13334 357.21667 88.91667 361.55 84.15 Z"/>
				<path fill="#0D131A" stroke-linecap="round" stroke-linejoin="round" d="M 363.0 131.5 C 364.93332 142.2 361.59998 151.61667 353.0 159.75 C 344.73334 167.55 336.25 170.73334 327.55 169.3 C 318.98334 167.83334 311.98334 162.25002 306.55 152.55 C 298.21664 137.61667 290.28333 124.61667 282.75 113.55 C 275.75 103.21667 271.25 97.666664 269.25 96.9 C 266.18332 95.76666 260.46664 96.76666 252.1 99.9 C 243.53334 103.13333 236.58334 107.0 231.25 111.5 L 225.65 117.15 L 218.7 124.55 C 210.33333 133.78333 204.01666 140.4 199.75 144.4 C 192.38333 151.26666 185.4 155.11667 178.8 155.95 C 164.8 157.68333 151.7 157.66667 139.5 155.9 L 128.6 154.25 L 120.8 154.5 L 116.6 147.3 L 153.3 101.65 L 153.5 101.5 C 155.16667 100.299995 160.51668 97.95 169.55 94.45 C 175.78333 92.049995 187.26666 87.78333 204.0 81.65 C 208.53334 80.01666 215.0 77.88333 223.4 75.25 C 230.9 72.950005 235.96666 71.26667 238.6 70.2 C 243.63333 68.2 248.26666 65.83333 252.5 63.1 L 260.45 57.5 C 262.55002 56.166668 264.1 55.216667 265.1 54.65 C 266.76666 53.75 268.46667 53.05 270.2 52.55 C 275.46667 50.983334 280.15 51.05 284.25 52.75 C 288.91666 54.716667 293.19998 58.9 297.1 65.3 C 299.2 68.8 305.28336 74.816666 315.35 83.35 C 325.48334 91.95 335.95 99.95 346.75 107.35 C 355.81668 113.58333 361.23334 121.63333 363.0 131.5 Z"/>
				<path fill="#D18344" stroke-linecap="round" stroke-linejoin="round" d="M 360.2 137.5 C 361.03336 142.93333 360.90002 147.91667 359.8 152.45 C 358.63333 157.28333 356.53333 160.9 353.5 163.3 C 347.1 168.43333 339.86667 169.68333 331.8 167.05 C 323.69998 164.45 316.84998 158.58333 311.25 149.45 C 301.65 133.75 293.21667 120.86667 285.95 110.8 C 278.35 100.333336 273.2 94.6 270.5 93.6 C 266.69998 92.166664 260.1333 93.35 250.8 97.15 C 241.83334 100.816666 234.41667 105.13333 228.55 110.1 C 226.61667 111.73334 222.48334 115.716675 216.15 122.05 C 207.38333 130.81667 200.76666 137.13333 196.3 141.0 C 188.43333 147.76666 182.36667 151.58333 178.1 152.45 C 169.26668 154.28333 158.81668 154.73332 146.75 153.8 C 136.38333 152.96667 128.9 151.63335 124.3 149.8 C 126.166664 147.46667 136.63333 132.3 155.7 104.3 C 158.46667 102.46667 174.98334 96.03333 205.25 85.0 L 239.75 72.15 C 245.15001 69.98334 249.93335 67.76667 254.1 65.5 C 256.3 64.3 259.06665 62.633335 262.4 60.5 L 266.7 57.85 C 268.16666 57.016666 269.66666 56.383335 271.2 55.95 C 275.33334 54.716667 279.6 55.1 284.0 57.1 C 288.36667 59.066666 291.66666 62.1 293.9 66.2 C 296.0 70.03333 302.21667 76.433334 312.55 85.4 C 322.91666 94.36667 333.73334 102.71667 345.0 110.45 C 349.03333 113.25 352.41666 117.166664 355.15 122.2 C 357.71667 126.86666 359.40002 131.96666 360.2 137.5 Z"/>
				<path fill="#AB6B35" stroke-linecap="round" stroke-linejoin="round" d="M 314.15 86.7 C 323.91666 95.1 334.19998 103.01666 345.0 110.45 C 350.69998 114.38333 354.99997 120.316666 357.9 128.25 C 360.6 135.71666 361.4 142.95 360.3 149.95 C 353.96664 139.51666 345.68332 127.566666 335.45 114.1 L 314.15 86.7 Z"/>
				<path fill="#AB6B35" stroke-linecap="round" stroke-linejoin="round" d="M 244.45 100.05 C 238.05 103.21667 232.75 106.566666 228.55 110.1 C 226.61667 111.73334 222.48334 115.716675 216.15 122.05 C 207.38333 130.81667 200.76666 137.13333 196.3 141.0 C 188.43333 147.76666 182.36667 151.58333 178.1 152.45 L 175.1 153.0 C 179.16667 149.43333 184.01666 144.43333 189.65 138.0 L 201.8 123.5 C 206.86667 117.333336 216.0 111.083336 229.2 104.75 C 241.6 98.816666 252.45001 95.13333 261.75 93.7 C 256.65 94.73333 250.88333 96.85 244.45 100.05 Z"/>
				<path fill="#0D131A" stroke-linecap="round" stroke-linejoin="round" d="M 152.65 112.25 C 160.51666 105.583336 165.21666 102.350006 166.75 102.55 C 167.28334 102.61667 167.70001 102.9 168.0 103.4 C 168.26666 104.1 168.4 105.73333 168.4 108.3 C 168.4 111.86667 168.15 115.28333 167.65 118.55 C 167.01666 122.51667 166.16667 125.03333 165.1 126.1 C 164.1 127.1 160.91667 128.1 155.55 129.1 C 149.55 130.23334 145.71667 131.21667 144.05 132.05 C 142.91667 132.68333 140.8 134.21666 137.7 136.65 L 133.45 140.15 L 132.8 129.75 L 133.5 129.15 C 137.46666 126.083336 140.01666 123.86667 141.15 122.5 C 144.84999 119.03333 148.68332 115.61667 152.65 112.25 Z"/>
				<path fill="#FFFFFF" stroke-linecap="round" stroke-linejoin="round" d="M 163.2 124.2 C 162.43333 124.96667 159.93333 125.8 155.7 126.7 L 144.3 128.55 L 143.85 128.6 L 143.05 127.0 C 142.61667 125.76667 142.66667 124.833336 143.2 124.2 C 144.0 123.23333 147.33333 120.26666 153.2 115.3 C 159.46667 110.066666 163.63335 106.83333 165.7 105.6 L 165.8 107.65 C 165.8 110.75 165.58333 113.96667 165.15 117.3 C 164.61667 121.13334 163.96667 123.433334 163.2 124.2 Z"/>
				<path fill="#DBDCDC" stroke-linecap="round" stroke-linejoin="round" d="M 165.7 105.6 L 165.8 107.65 C 165.8 110.38333 165.63333 113.13333 165.3 115.9 C 161.43333 114.1 153.95 117.53333 142.85 126.2 C 142.68333 125.36666 142.8 124.7 143.2 124.2 C 144.0 123.23333 147.33333 120.26666 153.2 115.3 C 159.46667 110.066666 163.63335 106.83333 165.7 105.6 Z"/>
				<path fill="#0D131A" stroke-linecap="round" stroke-linejoin="round" d="M 152.3 120.4 L 152.65 123.6 C 152.58333 124.53333 152.38333 125.066666 152.05 125.2 C 151.71667 125.333336 151.31668 125.03334 150.85 124.3 C 150.41667 123.53333 150.06667 122.566666 149.8 121.4 C 149.53333 120.23334 149.41666 119.183334 149.45 118.25 C 149.51666 117.316666 149.71666 116.78333 150.05 116.65 C 150.38333 116.51666 150.78333 116.816666 151.25 117.55 L 152.3 120.4 Z"/>
				<path fill="#FFFFFF" stroke-linecap="round" stroke-linejoin="round" d="M 151.65 120.0 C 151.65 120.700005 151.4 121.05 150.9 121.05 C 150.7 121.05 150.53333 120.950005 150.4 120.75 L 150.15 120.0 C 150.15 119.700005 150.23332 119.450005 150.4 119.25 C 150.53334 119.01667 150.70001 118.9 150.9 118.9 C 151.4 118.9 151.65 119.26667 151.65 120.0 Z"/>
				<path fill="#0D131A" stroke-linecap="round" stroke-linejoin="round" d="M 193.8 40.7 C 197.53333 31.666666 200.9 25.149998 203.9 21.15 C 205.43333 19.15 206.93333 18.6 208.4 19.5 C 209.63333 20.266666 210.35 21.466667 210.55 23.1 L 210.0 39.25 C 209.5 50.050003 209.25 56.76667 209.25 59.4 L 216.95 48.55 C 220.41666 43.65 223.13333 40.300003 225.1 38.5 C 226.43333 37.333332 227.53333 37.13333 228.4 37.9 C 229.2 38.600002 229.6 39.76667 229.6 41.4 C 229.6 42.56667 227.66667 47.76667 223.8 57.0 L 217.35 72.3 C 217.81667 72.6 219.03333 73.13333 221.0 73.9 L 225.4 75.8 C 225.63333 75.933334 225.4 76.21667 224.7 76.65 L 222.25 77.95 C 217.78334 79.48333 212.45001 81.6 206.25 84.3 C 193.95 89.666664 181.75 96.33333 169.65 104.3 C 161.31667 109.76667 154.41667 114.833336 148.95 119.5 L 139.1 128.35 L 135.0 131.5 C 133.36667 132.7 132.23334 133.63333 131.6 134.3 C 128.26666 137.9 126.049995 139.09999 124.95 137.9 C 124.71667 137.63333 124.75 136.55 125.05 134.65 C 125.38334 132.28334 126.06667 129.91667 127.1 127.55 C 127.2 127.316666 125.23333 120.61666 121.2 107.45 C 116.23333 91.21666 112.48333 76.71666 109.95 63.95 C 109.51667 61.716667 110.06667 60.35 111.6 59.85 C 113.066666 59.383335 114.333336 59.850002 115.4 61.25 L 125.7 73.9 L 138.6 89.25 L 134.55 60.2 C 132.25 43.86667 131.11667 32.800003 131.15 27.0 C 131.18333 24.1 132.43333 22.016666 134.9 20.75 C 137.33333 19.516666 138.88333 19.716667 139.55 21.35 C 140.21667 23.016666 143.53334 29.733334 149.5 41.5 C 155.7 53.76667 159.81667 61.616673 161.85 65.05 L 163.55 36.95 C 164.55 21.349998 165.78334 10.666665 167.25 4.9 C 167.95 2.3 169.31667 0.7166666 171.35 0.15 C 173.28334 -0.3833333 174.71667 0.18333343 175.65 1.85 C 176.31667 3.0500002 178.15 11.783334 181.15 28.05 C 184.45 46.15 186.31667 56.06667 186.75 57.8 L 193.8 40.7 Z"/>
				<path fill="#F09CB4" stroke-linecap="round" stroke-linejoin="round" d="M 206.15 49.3 C 205.18333 62.6 205.03334 69.36667 205.7 69.6 C 206.4 69.86667 209.58333 65.76667 215.25 57.3 C 220.65001 49.233334 223.41667 45.766666 223.55 46.9 C 223.71667 48.2 221.98334 52.916668 218.35 61.05 C 214.71666 69.149994 212.93332 73.399994 213.0 73.8 C 213.09999 74.36667 213.96666 74.88333 215.6 75.35 C 217.16667 75.816666 217.88333 76.28333 217.75 76.75 L 202.55 83.6 C 190.25 89.03333 179.61667 94.7 170.65 100.6 C 155.78334 110.36667 144.50002 118.71667 136.8 125.65 L 131.65 129.95 C 130.34999 130.75 130.04999 130.15 130.75 128.15 C 131.34999 126.48333 128.91666 116.6 123.45 98.5 C 117.95 80.2 115.26666 70.666664 115.4 69.9 C 115.5 69.46667 115.71667 69.083336 116.05 68.75 C 116.48333 68.28333 116.916664 68.25 117.35 68.65 C 119.28333 70.45 124.13333 76.299995 131.9 86.2 C 138.93333 95.2 142.65001 99.65 143.05 99.55 C 143.41667 99.450005 141.96667 87.5 138.7 63.7 C 135.43333 39.800003 134.41667 27.533335 135.65 26.9 C 136.11667 26.666666 136.46667 26.533333 136.7 26.5 C 137.3 26.4 137.78334 26.6 138.15 27.1 C 140.71666 30.3 145.76666 39.433334 153.3 54.5 C 160.43333 68.73333 164.08333 75.88333 164.25 75.95 C 165.01666 76.11666 165.21666 74.35 164.85 70.65 L 167.3 40.0 C 169.13333 19.4 170.45 8.733333 171.25 8.0 L 172.3 7.1 C 172.9 6.7666664 173.31667 6.95 173.55 7.65 C 175.05 12.116667 177.43333 23.516666 180.7 41.85 C 183.76666 59.050003 185.38333 67.700005 185.55 67.8 C 185.75 67.933334 188.5 62.016666 193.8 50.05 C 199.5 37.216667 203.2 29.75 204.9 27.65 L 205.8 27.55 L 206.45 28.05 C 207.25 28.75 207.15 35.833332 206.15 49.3 Z"/>
				<path fill="#F8D1DC" stroke-linecap="round" stroke-linejoin="round" d="M 128.85 117.3 C 127.65 112.63334 124.833336 102.98334 120.4 88.35 C 116.933334 76.88333 115.26667 70.73333 115.4 69.9 C 115.5 69.46667 115.71667 69.083336 116.05 68.75 C 116.48333 68.28333 116.916664 68.25 117.35 68.65 C 118.75 69.95 121.51667 73.166664 125.65 78.3 C 122.48334 76.1 121.96667 80.2 124.1 90.6 L 127.15 104.75 C 128.25 110.28333 128.81667 114.46667 128.85 117.3 Z"/>
				<path fill="#F8D1DC" stroke-linecap="round" stroke-linejoin="round" d="M 138.15 27.1 C 139.25 28.466667 140.63333 30.6 142.3 33.5 C 140.1 32.433334 139.28334 37.666668 139.85 49.2 C 140.61667 65.7 140.88333 75.23333 140.65 77.8 C 138.34999 61.166664 136.9 50.183327 136.3 44.85 C 134.96667 33.35 134.75 27.366665 135.65 26.9 C 136.11667 26.666666 136.46667 26.533333 136.7 26.5 C 137.3 26.4 137.78334 26.6 138.15 27.1 Z"/>
				<path fill="#F8D1DC" stroke-linecap="round" stroke-linejoin="round" d="M 172.3 7.1 C 172.9 6.7666664 173.31667 6.95 173.55 7.65 C 174.25 9.716667 175.11667 13.166668 176.15 18.0 C 174.71666 15.0 173.56667 14.599999 172.7 16.8 C 172.06667 18.4 171.43333 22.116667 170.8 27.95 L 169.0 44.15 C 168.09999 50.516666 167.03333 55.2 165.8 58.2 C 168.33334 25.7 170.15001 8.966667 171.25 8.0 L 172.3 7.1 Z"/>
				<path fill="#0D131A" stroke-linecap="round" stroke-linejoin="round" d="M 106.2 153.3 C 115.433334 148.23334 124.433334 145.15001 133.2 144.05 L 134.45 144.3 C 135.28333 144.6 135.71666 145.11667 135.75 145.85 L 136.0 151.0 C 135.93333 153.59999 135.26666 154.99998 134.0 155.2 C 130.83333 155.73334 124.43333 158.06667 114.8 162.2 C 108.13334 165.03333 98.716675 169.28333 86.55 174.95 L 81.1 177.35 L 84.3 172.35 C 88.9 165.15001 96.2 158.8 106.2 153.3 Z"/>
				<path fill="#D5A985" stroke-linecap="round" stroke-linejoin="round" d="M 110.5 155.2 C 117.76667 151.53333 124.816666 149.11665 131.65 147.95 C 132.21666 148.55 132.41666 149.51668 132.25 150.85 C 132.08333 152.28334 131.54999 153.21667 130.65 153.65 C 128.78333 154.01666 123.68333 155.81667 115.35 159.05 C 107.58333 162.08334 99.666664 165.33334 91.6 168.8 C 96.4 163.66667 102.700005 159.13333 110.5 155.2 Z"/>
				<path fill="#0D131A" stroke-linecap="round" stroke-linejoin="round" d="M 83.15 177.5 L 80.2 181.0 C 79.26667 181.93333 78.36667 182.51666 77.5 182.75 C 68.86667 185.11667 57.11667 190.78334 42.25 199.75 C 33.983334 204.75 23.833332 211.38333 11.8 219.65 L 3.25 225.65 C 1.6499999 226.68333 0.5999998 226.90001 0.1 226.3 C -0.13333333 226.0 0.08333334 225.21666 0.75 223.95 C 1.4166667 222.71667 2.1000001 221.75002 2.8 221.05 L 9.4 213.85 C 15.033334 208.81667 24.35 198.93333 37.35 184.2 C 47.383335 172.83333 56.5 164.55 64.7 159.35 C 66.9 157.98334 70.8 156.06667 76.4 153.6 C 83.3 150.56667 88.86667 147.95 93.1 145.75 C 100.4 141.98334 107.53333 138.1 114.5 134.1 C 121.333336 130.2 125.850006 127.43333 128.05 125.8 L 129.05 125.4 L 130.05 125.7 C 131.71667 126.5 133.15001 129.61667 134.35 135.05 C 135.38333 139.61667 135.88333 143.5 135.85 146.7 C 135.81667 147.33333 135.66666 147.71666 135.4 147.85 L 133.35 148.1 C 122.416664 149.0 111.666664 153.18333 101.1 160.65 C 93.933334 165.71666 87.950005 171.33333 83.15 177.5 Z"/>
				<path fill="#F7C498" stroke-linecap="round" stroke-linejoin="round" d="M 76.55 179.35 C 63.183334 183.01668 42.533333 194.36667 14.6 213.4 C 39.466667 185.9 55.466667 169.93333 62.6 165.5 C 67.066666 162.7 77.96667 156.8 95.3 147.8 C 114.16667 138.03333 125.50001 131.84999 129.3 129.25 C 129.9 130.45 130.48332 132.53333 131.05 135.5 C 131.68333 138.76666 132.06667 142.03333 132.2 145.3 C 117.46667 148.5 105.3 153.5 95.7 160.3 C 90.36666 164.06667 85.24999 169.06667 80.35 175.3 C 78.316666 177.83334 77.05 179.18335 76.55 179.35 Z"/>
				<path fill="#D5A985" stroke-linecap="round" stroke-linejoin="round" d="M 95.7 160.3 C 90.36666 164.06667 85.24999 169.06667 80.35 175.3 C 78.316666 177.83334 77.05 179.18335 76.55 179.35 C 67.48334 181.85 55.200005 187.78334 39.7 197.15 C 46.2 188.78334 53.533333 181.56668 61.7 175.5 C 67.66667 171.03334 75.25 166.41667 84.45 161.65 L 107.55 149.65 C 116.38334 144.68333 124.083336 139.31667 130.65 133.55 C 131.48332 137.35 131.99998 141.26668 132.2 145.3 C 117.46667 148.5 105.3 153.5 95.7 160.3 Z"/>
				<path fill="#0D131A" stroke-linecap="round" stroke-linejoin="round" d="M 384.25 304.85 C 387.61667 302.25 389.4 299.1 389.6 295.4 L 389.7 294.35 L 400.9 297.35 L 400.15 298.35 C 398.25 300.9167 395.93335 302.88336 393.2 304.25 C 390.56668 305.61667 387.76666 306.31668 384.8 306.35 C 383.33334 306.38333 382.80002 306.15 383.2 305.65 C 383.4 305.38333 383.75 305.11667 384.25 304.85 Z"/>
				<path fill="#FFF3C2" stroke-linecap="round" stroke-linejoin="round" d="M 387.35 304.25 C 388.51666 302.94998 389.36667 301.8 389.9 300.8 C 390.53333 299.5 390.94998 298.06668 391.15 296.5 L 397.85 298.3 C 395.11667 301.36667 391.61667 303.35 387.35 304.25 Z"/>
				<path fill="#DBD2A9" stroke-linecap="round" stroke-linejoin="round" d="M 392.35 296.85 L 397.85 298.3 C 395.35 301.1 392.13333 303.01666 388.2 304.05 L 391.85 301.5 C 392.9167 300.33334 393.08334 298.78336 392.35 296.85 Z"/>
				<path fill="#0D131A" stroke-linecap="round" stroke-linejoin="round" d="M 298.35 297.25 C 296.55 294.78333 295.38333 291.98334 294.85 288.85 L 294.65 287.6 L 306.0 290.0 L 305.6 290.95 C 304.1 294.38333 304.26666 298.01666 306.1 301.85 L 306.7 303.0 L 304.9 302.95 C 302.26666 301.55002 300.08334 299.65002 298.35 297.25 Z"/>
				<path fill="#FFF3C2" stroke-linecap="round" stroke-linejoin="round" d="M 302.9 295.65 C 302.9 296.85 303.13333 298.26666 303.6 299.9 C 300.23334 297.23334 298.01666 293.88333 296.95 289.85 L 303.7 291.25 C 303.16666 292.78333 302.9 294.25 302.9 295.65 Z"/>
				<path fill="#DBD2A9" stroke-linecap="round" stroke-linejoin="round" d="M 303.6 299.9 C 303.1 299.5 302.45 298.41666 301.65 296.65 C 300.61667 294.38333 300.13333 292.33334 300.2 290.5 L 303.7 291.25 C 303.16666 292.78333 302.9 294.25 302.9 295.65 C 302.9 296.85 303.13333 298.26666 303.6 299.9 Z"/>
				<path fill="#0D131A" stroke-linecap="round" stroke-linejoin="round" d="M 317.7 263.2 L 329.55 267.7 L 337.5 271.75 L 320.6 279.15 L 320.05 278.8 C 318.98334 278.13333 317.61667 277.91666 315.95 278.15 C 314.75 278.35 313.21667 278.81668 311.35 279.55 C 310.15 280.05 309.46664 280.48334 309.3 280.85 C 309.16666 281.15 309.26666 281.86667 309.6 283.0 L 310.2 285.4 C 310.56668 287.56665 310.13333 289.3 308.9 290.6 C 307.96667 291.6 306.65002 292.11667 304.95 292.15 L 301.1 291.75 C 298.1667 291.41666 295.50003 290.56665 293.1 289.2 C 290.4 287.66666 288.65 285.78333 287.85 283.55 C 286.85 280.68332 287.55002 278.5 289.95 277.0 L 291.9 275.9 L 293.35 274.75 C 294.88333 272.61667 296.53333 270.58334 298.3 268.65 C 301.69998 264.88333 304.7333 262.6 307.4 261.8 C 309.56665 261.16666 313.0 261.63333 317.7 263.2 Z"/>
				<path fill="#F7C498" stroke-linecap="round" stroke-linejoin="round" d="M 331.55 271.55 L 320.7 276.35 C 318.16666 275.15 314.7333 275.43332 310.4 277.2 C 308.43335 277.96667 307.25003 278.91666 306.85 280.05 C 306.58334 280.85 306.68335 282.06668 307.15 283.7 L 307.65 285.85 C 307.88333 287.15 307.68332 288.15 307.05 288.85 C 305.94998 290.01666 303.91666 290.43332 300.95 290.1 C 298.75 289.86667 296.81665 289.11667 295.15 287.85 C 293.48334 286.61667 292.31668 285.05 291.65 283.15 C 291.28333 282.15 291.28333 281.18332 291.65 280.25 C 291.91666 279.51666 292.3 278.96667 292.8 278.6 L 294.6 277.6 L 296.75 275.6 C 298.08334 273.56665 299.71667 271.6333 301.65 269.8 C 304.15 267.4 306.65 265.7 309.15 264.7 C 311.55 263.73334 314.34998 263.91666 317.55 265.25 C 319.48334 266.05002 323.08334 267.6167 328.35 269.95 L 331.55 271.55 Z"/>
				<path fill="#D5A985" stroke-linecap="round" stroke-linejoin="round" d="M 323.9 268.2 C 325.5 268.9 326.98334 269.48334 328.35 269.95 L 331.55 271.55 L 320.7 276.35 C 318.16666 275.15 314.7333 275.43332 310.4 277.2 C 308.43335 277.96667 307.25003 278.91666 306.85 280.05 C 306.58334 280.85 306.68335 282.06668 307.15 283.7 L 307.65 285.85 C 307.88333 287.15 307.68332 288.15 307.05 288.85 C 305.94998 290.01666 303.91666 290.43332 300.95 290.1 C 298.95 289.9 297.1667 289.25 295.6 288.15 C 298.93335 288.68335 301.55002 287.30002 303.45 284.0 C 304.48334 282.13333 305.78333 279.33334 307.35 275.6 C 308.61667 273.03333 310.83334 271.09998 314.0 269.8 C 316.86667 268.66666 320.16666 268.13333 323.9 268.2 Z"/>
				<path fill="#0D131A" stroke-linecap="round" stroke-linejoin="round" d="M 307.75 295.95 C 305.94998 293.48334 304.78333 290.68332 304.25 287.55 L 304.05 286.3 L 315.4 288.7 L 315.0 289.65 C 313.5 293.05 313.66666 296.66666 315.5 300.5 L 316.1 301.7 L 314.3 301.65 C 311.66666 300.25 309.48334 298.35 307.75 295.95 Z"/>
				<path fill="#FFF3C2" stroke-linecap="round" stroke-linejoin="round" d="M 312.3 294.35 C 312.3 295.68335 312.53333 297.1 313.0 298.6 C 309.6 295.86667 307.38333 292.5 306.35 288.5 L 313.1 289.95 C 312.56665 291.48334 312.3 292.95 312.3 294.35 Z"/>
				<path fill="#DBD2A9" stroke-linecap="round" stroke-linejoin="round" d="M 313.0 298.55 C 311.53333 294.91666 310.78333 291.88333 310.75 289.45 L 313.1 289.95 C 312.56665 291.48334 312.3 292.95 312.3 294.35 C 312.3 295.68335 312.53333 297.08334 313.0 298.55 Z"/>
				<path fill="#0D131A" stroke-linecap="round" stroke-linejoin="round" d="M 318.45 259.9 C 320.51666 259.3 323.66666 259.86667 327.9 261.6 L 338.95 266.4 L 346.9 270.4 L 330.0 277.85 L 329.45 277.5 C 328.38333 276.83334 327.01666 276.61667 325.35 276.85 L 320.75 278.25 C 319.55002 278.71667 318.8667 279.13333 318.7 279.5 C 318.56668 279.83334 318.6667 280.56668 319.0 281.7 L 319.55 284.1 C 319.94998 286.3 319.53333 288.01666 318.3 289.25 C 317.36667 290.25 316.05002 290.78333 314.35 290.85 L 310.5 290.45 C 307.80002 290.15 305.40002 289.19998 303.3 287.6 C 301.19998 286.0 299.7333 284.01666 298.9 281.65 C 297.86667 278.78333 298.55002 276.6 300.95 275.1 L 302.95 274.0 L 304.35 272.85 L 309.3 266.75 C 312.73334 262.98334 315.78336 260.7 318.45 259.9 Z"/>
				<path fill="#F7C498" stroke-linecap="round" stroke-linejoin="round" d="M 324.4 274.45 C 323.2 274.65 321.6667 275.11667 319.8 275.85 C 317.83334 276.65 316.65002 277.61667 316.25 278.75 C 315.98334 279.55002 316.08334 280.7667 316.55 282.4 L 317.05 284.55 C 317.31668 285.85 317.1167 286.83334 316.45 287.5 C 315.31668 288.66666 313.28336 289.09998 310.35 288.8 C 308.15 288.56668 306.21664 287.81668 304.55 286.55 C 302.88333 285.31668 301.71667 283.73334 301.05 281.8 C 300.68332 280.8 300.68332 279.8333 301.05 278.9 C 301.31668 278.2 301.7 277.6667 302.2 277.3 L 304.0 276.3 L 306.15 274.3 C 307.48334 272.26666 309.1 270.33334 311.0 268.5 C 313.5 266.1 316.01666 264.4 318.55 263.4 C 320.94998 262.43335 323.75 262.6167 326.95 263.95 L 337.75 268.65 L 340.9 270.25 L 330.1 275.0 C 328.53333 274.23334 326.63333 274.05002 324.4 274.45 Z"/>
				<path fill="#D5A985" stroke-linecap="round" stroke-linejoin="round" d="M 330.35 265.5 C 333.38333 266.93332 335.85 267.9833 337.75 268.65 L 340.9 270.25 L 330.1 275.0 C 328.53333 274.23334 326.63333 274.05002 324.4 274.45 C 323.2 274.65 321.6667 275.11667 319.8 275.85 C 317.83334 276.65 316.65002 277.61667 316.25 278.75 C 315.98334 279.55002 316.08334 280.7667 316.55 282.4 L 317.05 284.55 C 317.31668 285.85 317.1167 286.83334 316.45 287.5 C 315.31668 288.66666 313.28336 289.09998 310.35 288.8 L 307.9 288.25 C 309.16666 287.78333 310.15 286.55 310.85 284.55 C 311.55 281.85 312.2333 279.71667 312.9 278.15 C 315.5 271.98334 321.31668 267.76666 330.35 265.5 Z"/>
				<path fill="#0D131A" stroke-linecap="round" stroke-linejoin="round" d="M 313.1 288.7 L 324.45 291.1 L 324.0 292.05 C 322.56668 295.48334 322.75 299.11667 324.55 302.95 L 325.15 304.1 L 323.35 304.05 C 320.71667 302.65 318.53333 300.75 316.8 298.35 C 315.0 295.88333 313.83334 293.08334 313.3 289.95 L 313.1 288.7 Z"/>
				<path fill="#FFF3C2" stroke-linecap="round" stroke-linejoin="round" d="M 321.35 296.8 C 321.35 298.13333 321.58334 299.53333 322.05 301.0 C 318.68332 298.33334 316.46664 294.98334 315.4 290.95 L 322.15 292.35 C 321.61667 293.88333 321.35 295.36667 321.35 296.8 Z"/>
				<path fill="#DBD2A9" stroke-linecap="round" stroke-linejoin="round" d="M 321.5 298.55 C 320.23334 296.25 319.5 293.98334 319.3 291.75 L 322.15 292.35 C 321.61667 293.88333 321.35 295.36667 321.35 296.8 L 321.5 298.55 Z"/>
				<path fill="#0D131A" stroke-linecap="round" stroke-linejoin="round" d="M 395.65 274.95 C 396.68335 275.55002 399.80002 276.38336 405.0 277.45 L 408.75 278.35 C 410.11667 278.88333 410.93335 279.65 411.2 280.65 C 411.86667 282.88333 411.73334 285.53333 410.8 288.6 C 409.86667 291.56665 408.56668 293.86664 406.9 295.5 C 404.36667 297.96667 401.68335 299.46667 398.85 300.0 C 395.98334 300.5 393.31668 299.95 390.85 298.35 C 388.95 297.08334 388.0 295.36667 388.0 293.2 L 388.45 291.45 C 388.68332 290.61667 388.69998 290.08334 388.5 289.85 C 388.80002 288.85 388.18335 288.0 386.65 287.3 C 383.65 285.9 376.9 285.31665 366.4 285.55 L 362.75 285.3 C 358.38333 284.76666 351.06665 283.45 340.8 281.35 L 334.4 280.1 L 331.5 280.25 C 329.96667 280.55002 328.85 281.13336 328.15 282.0 C 327.31665 283.06668 327.28333 284.80002 328.05 287.2 C 328.65 289.16666 328.41666 290.8333 327.35 292.2 C 326.48334 293.23334 325.16666 293.95 323.4 294.35 L 318.6 294.55 C 316.76666 294.38333 314.78333 293.3 312.65 291.3 C 310.41666 289.23334 308.98334 287.01666 308.35 284.65 C 307.88333 282.95 307.8 281.5167 308.1 280.35 C 308.4 279.01666 309.19998 277.86667 310.5 276.9 L 313.75 275.1 C 315.18332 274.36667 316.21664 273.58334 316.85 272.75 C 318.05 271.31668 319.46664 269.86667 321.1 268.4 C 323.3 266.43335 325.26666 265.06668 327.0 264.3 C 329.76666 263.13333 332.53333 263.16666 335.3 264.4 L 341.85 267.5 C 344.38333 268.13333 348.9 268.73334 355.4 269.3 C 362.3 269.86667 366.93332 269.95 369.3 269.55 C 371.19998 269.25 373.03333 268.63333 374.8 267.7 C 375.86667 267.16666 377.43335 266.18332 379.5 264.75 L 383.65 262.1 C 385.65 260.9 389.01666 260.28333 393.75 260.25 C 398.58334 260.21667 401.63333 260.86667 402.9 262.2 L 403.5 262.85 L 403.1 263.65 C 400.2 265.55 397.95 267.44998 396.35 269.35 C 394.9167 271.08334 394.3667 272.35 394.7 273.15 C 395.1 274.21667 395.41666 274.81668 395.65 274.95 Z"/>
				<path fill="#F7C498" stroke-linecap="round" stroke-linejoin="round" d="M 407.4 289.5 C 406.6 291.43332 405.63333 292.94998 404.5 294.05 C 400.30002 298.15 396.21667 298.86667 392.25 296.2 C 391.38333 295.63333 390.85 294.96667 390.65 294.2 C 390.51666 293.66666 390.53333 292.71664 390.7 291.35 L 390.9 288.7 C 390.86667 287.03336 389.05002 285.78336 385.45 284.95 C 381.91666 284.11667 375.59998 283.46667 366.5 283.0 L 363.05 282.8 C 354.38333 281.73334 347.38333 280.65 342.05 279.55 L 337.15 278.25 L 334.6 277.55 C 333.56665 277.44998 332.3 277.66666 330.8 278.2 C 329.0 278.86667 327.6 279.81665 326.6 281.05 C 325.06665 282.91666 324.7333 285.21667 325.6 287.95 C 325.96667 289.11667 325.88333 289.98334 325.35 290.55 C 324.88333 291.15 324.05 291.58334 322.85 291.85 L 318.85 292.05 C 317.55 291.88333 316.05 291.0 314.35 289.4 C 312.51666 287.66666 311.3333 285.86667 310.8 284.0 C 310.23334 281.80002 310.88333 280.03336 312.75 278.7 L 318.2 273.85 L 322.4 270.0 C 324.0 268.73334 325.58334 267.78333 327.15 267.15 C 330.68335 265.75 335.1 266.33334 340.4 268.9 C 342.6 269.93335 347.4167 270.85 354.85 271.65 L 369.7 272.1 C 371.83334 271.73334 373.9 271.05 375.9 270.05 L 380.95 266.85 L 384.95 264.3 C 386.38333 263.43332 388.9 262.94998 392.5 262.85 L 400.0 263.45 L 397.05 266.3 L 393.55 269.7 C 392.78333 270.53336 392.35 271.21667 392.25 271.75 L 392.1 273.1 C 392.1 274.43335 392.98334 275.5167 394.75 276.35 C 396.58334 277.18335 400.23334 278.1667 405.7 279.3 C 407.1 279.56668 408.0 280.4167 408.4 281.85 L 408.65 283.85 C 408.65 285.58334 408.23334 287.46667 407.4 289.5 Z"/>
				<path fill="#D5A985" stroke-linecap="round" stroke-linejoin="round" d="M 326.6 281.05 C 325.06665 282.91666 324.7333 285.21667 325.6 287.95 C 325.96667 289.11667 325.88333 289.98334 325.35 290.55 C 324.88333 291.15 324.05 291.58334 322.85 291.85 L 318.85 292.05 C 317.51666 291.88333 315.94998 290.93335 314.15 289.2 L 316.35 289.35 L 319.25 289.2 C 320.35 289.0 321.31668 288.06665 322.15 286.4 L 324.25 281.25 C 326.08334 276.58334 328.53336 274.55002 331.6 275.15 L 351.05 279.05 C 361.15 280.75 369.56665 281.35 376.3 280.85 C 378.53333 280.68335 380.81665 281.08334 383.15 282.05 C 385.55 283.01666 386.86667 284.13333 387.1 285.4 C 383.8 284.3333 376.93332 283.53333 366.5 283.0 L 363.05 282.8 C 354.38333 281.73334 347.38333 280.65 342.05 279.55 L 337.15 278.25 L 334.6 277.55 C 333.56665 277.44998 332.3 277.66666 330.8 278.2 C 329.0 278.86667 327.6 279.81665 326.6 281.05 Z"/>
				<path fill="#D5A985" stroke-linecap="round" stroke-linejoin="round" d="M 405.7 279.3 C 407.1 279.56668 408.0 280.4167 408.4 281.85 L 408.65 283.85 C 408.65 285.58334 408.23334 287.46667 407.4 289.5 C 406.6 291.43332 405.63333 292.94998 404.5 294.05 C 400.30002 298.15 396.21667 298.86667 392.25 296.2 L 391.65 295.75 C 394.15 296.25 396.53333 295.41666 398.8 293.25 C 400.93332 291.15 402.19998 288.66666 402.6 285.8 C 402.83334 283.96664 400.51666 281.84998 395.65 279.45 C 390.55 276.91666 387.91666 274.5833 387.75 272.45 C 387.61667 270.71667 386.75 269.25 385.15 268.05 C 383.41666 267.08334 382.4 266.45 382.1 266.15 C 383.06665 265.55 384.01666 264.93332 384.95 264.3 C 386.38333 263.43332 388.9 262.94998 392.5 262.85 L 400.0 263.45 L 397.05 266.3 L 393.55 269.7 C 392.78333 270.53336 392.35 271.21667 392.25 271.75 L 392.1 273.1 C 392.1 274.43335 392.98334 275.5167 394.75 276.35 C 396.58334 277.18335 400.23334 278.1667 405.7 279.3 Z"/>
				<path fill="#0D131A" stroke-linecap="round" stroke-linejoin="round" d="M 382.85 238.65 L 414.55 226.55 L 415.15 227.25 C 416.85 229.25 418.5 231.6 420.1 234.3 L 424.1 241.75 C 426.9 247.11667 429.03333 250.81667 430.5 252.85 L 431.6 254.45 L 429.7 254.95 C 424.36667 256.21667 417.98334 259.28333 410.55 264.15 C 404.21664 268.28333 400.41666 271.28333 399.15 273.15 C 398.35 274.35 397.78336 274.73334 397.45 274.3 L 396.75 271.85 C 396.55002 271.11667 396.43335 270.18332 396.4 269.05 L 396.05 267.25 C 395.85 266.91666 393.88333 267.78333 390.15 269.85 C 386.28333 271.95 384.21667 272.95 383.95 272.85 C 383.61667 272.75 383.75 271.3 384.35 268.5 C 384.95 265.53333 385.18335 263.88333 385.05 263.55 C 384.88333 263.11667 383.86667 262.85 382.0 262.75 L 377.0 262.45 C 375.36667 262.21667 374.68335 261.71667 374.95 260.95 C 375.21667 260.05002 376.7 259.0167 379.4 257.85 C 383.96667 255.91667 386.68335 253.40001 387.55 250.3 C 388.44998 247.13333 387.3 243.73334 384.1 240.1 L 382.85 238.65 Z"/>
				<path fill="#D18344" stroke-linecap="round" stroke-linejoin="round" d="M 421.75 242.95 C 423.88333 247.15 425.76666 250.46666 427.4 252.9 C 423.3 254.2 418.34998 256.53333 412.55 259.9 C 406.78333 263.26666 402.26666 266.43332 399.0 269.4 C 398.16666 266.73334 397.59998 265.18335 397.3 264.75 C 397.0 264.31668 395.35 264.80002 392.35 266.2 L 386.9 268.85 C 386.36667 269.08334 386.30002 268.1667 386.7 266.1 L 387.25 262.3 C 387.15 262.06668 385.71667 261.7 382.95 261.2 C 380.58334 260.73334 379.9 260.35 380.9 260.05 C 382.56665 259.55 384.44998 258.21664 386.55 256.05 C 388.94998 253.61665 390.28333 251.28333 390.55 249.05 L 390.65 247.95 C 390.65 245.41666 389.51666 242.71666 387.25 239.85 L 413.7 229.7 C 415.16666 231.5 416.63333 233.65 418.1 236.15 L 421.75 242.95 Z"/>
				<path fill="#AB6B35" stroke-linecap="round" stroke-linejoin="round" d="M 387.25 239.85 L 413.7 229.7 C 415.16666 231.5 416.63333 233.65 418.1 236.15 L 421.75 242.95 C 423.88333 247.15 425.76666 250.46666 427.4 252.9 C 424.23334 253.9 420.45 255.58333 416.05 257.95 C 411.78333 260.25 407.85 262.68332 404.25 265.25 C 402.85 261.55002 401.03333 258.40002 398.8 255.8 C 396.33334 252.96667 393.53336 251.01668 390.4 249.95 L 390.65 247.95 C 390.65 245.41666 389.51666 242.71666 387.25 239.85 Z"/>
				<path fill="#0D131A" stroke-linecap="round" stroke-linejoin="round" d="M 415.6 297.65 L 427.25 300.75 L 426.5 301.8 C 424.5 304.46664 422.08334 306.53333 419.25 308.0 C 416.51666 309.36667 413.6 310.08334 410.5 310.15 C 408.96667 310.18335 408.4 309.93335 408.8 309.4 C 409.03333 309.13333 409.4 308.85 409.9 308.55 C 413.4 305.88333 415.28333 302.61667 415.55 298.75 L 415.6 297.65 Z"/>
				<path fill="#FFF3C2" stroke-linecap="round" stroke-linejoin="round" d="M 413.15 307.95 C 414.35 306.71667 415.23334 305.51666 415.8 304.35 C 416.4 303.18335 416.85 301.7 417.15 299.9 L 424.1 301.75 C 421.23334 304.94998 417.58334 307.01666 413.15 307.95 Z"/>
				<path fill="#DBD2A9" stroke-linecap="round" stroke-linejoin="round" d="M 418.35 300.2 L 424.1 301.75 C 421.43335 304.71667 418.08334 306.71667 414.05 307.75 L 417.85 305.05 C 418.98334 303.81668 419.15 302.2 418.35 300.2 Z"/>
				<path fill="#0D131A" stroke-linecap="round" stroke-linejoin="round" d="M 316.6 290.6 L 328.4 293.1 L 328.0 294.1 C 326.46667 297.7 326.65 301.48334 328.55 305.45 L 329.15 306.65 L 327.3 306.6 C 324.56668 305.13333 322.30002 303.16666 320.5 300.7 C 318.63333 298.13333 317.4 295.19998 316.8 291.9 L 316.6 290.6 Z"/>
				<path fill="#FFF3C2" stroke-linecap="round" stroke-linejoin="round" d="M 325.95 303.4 C 322.41666 300.63333 320.09998 297.15 319.0 292.95 L 326.05 294.45 C 325.48334 295.98334 325.2 297.5 325.2 299.0 C 325.2 300.33334 325.45 301.80002 325.95 303.4 Z"/>
				<path fill="#DBD2A9" stroke-linecap="round" stroke-linejoin="round" d="M 326.05 294.45 C 325.48334 295.98334 325.2 297.5 325.2 299.0 C 325.2 300.33334 325.45 301.80002 325.95 303.4 C 325.45 303.03333 324.76666 301.91666 323.9 300.05 C 322.8 297.71664 322.3 295.5833 322.4 293.65 L 326.05 294.45 Z"/>
				<path fill="#0D131A" stroke-linecap="round" stroke-linejoin="round" d="M 321.8 271.35 C 325.4 267.38333 328.58334 265.0 331.35 264.2 C 333.58334 263.53336 336.9 263.95 341.3 265.45 C 343.83334 266.28336 347.71667 267.7667 352.95 269.9 L 361.2 274.1 L 343.65 281.8 L 343.05 281.45 C 341.94998 280.75 340.51666 280.53333 338.75 280.8 C 337.51666 281.0 335.93332 281.48334 334.0 282.25 C 332.76666 282.75 332.06665 283.18332 331.9 283.55 C 331.73334 283.88333 331.81668 284.63333 332.15 285.8 L 332.75 288.35 C 333.15 290.58334 332.71667 292.36667 331.45 293.7 C 330.48334 294.73334 329.11667 295.28333 327.35 295.35 L 323.3 294.95 C 320.3 294.61667 317.76666 293.8 315.7 292.5 C 313.36667 291.1 311.78333 289.21667 310.95 286.85 C 310.31668 285.05 310.31668 283.53333 310.95 282.3 C 311.35 281.46664 312.08334 280.71664 313.15 280.05 L 315.2 278.9 L 316.65 277.7 L 321.8 271.35 Z"/>
				<path fill="#F7C498" stroke-linecap="round" stroke-linejoin="round" d="M 340.45 267.35 L 351.7 272.25 L 355.0 273.9 L 343.75 278.85 C 342.11667 278.08334 340.13333 277.9 337.8 278.3 C 336.5 278.53333 334.9 279.01666 333.0 279.75 C 330.96667 280.58334 329.75 281.58334 329.35 282.75 C 329.05 283.58334 329.13333 284.85 329.6 286.55 L 330.15 288.8 C 330.41666 290.16666 330.19998 291.19998 329.5 291.9 C 328.96667 292.46667 328.13333 292.86667 327.0 293.1 L 323.15 293.2 C 320.88333 292.96667 318.88333 292.2 317.15 290.9 C 315.41666 289.6 314.18332 287.95 313.45 285.95 C 313.08334 284.91666 313.1 283.91666 313.5 282.95 C 313.76666 282.18332 314.16666 281.61664 314.7 281.25 L 316.55 280.2 C 317.51666 279.63333 318.26666 278.93332 318.8 278.1 C 320.13333 276.0 321.81668 273.98334 323.85 272.05 C 326.45 269.58334 329.08334 267.81668 331.75 266.75 C 334.25 265.75 337.15 265.95 340.45 267.35 Z"/>
				<path fill="#D5A985" stroke-linecap="round" stroke-linejoin="round" d="M 355.0 273.9 L 343.75 278.85 C 342.11667 278.08334 340.13333 277.9 337.8 278.3 C 336.5 278.53333 334.9 279.01666 333.0 279.75 C 330.96667 280.58334 329.75 281.58334 329.35 282.75 C 329.05 283.58334 329.13333 284.85 329.6 286.55 L 330.15 288.8 C 330.41666 290.16666 330.19998 291.19998 329.5 291.9 C 328.96667 292.46667 328.13333 292.86667 327.0 293.1 L 323.15 293.2 C 321.11667 293.0 319.25 292.31665 317.55 291.15 C 321.05 291.71667 323.76666 290.26666 325.7 286.8 C 326.80002 284.9 328.1667 282.0 329.8 278.1 C 331.13333 275.43335 333.45 273.43335 336.75 272.1 C 339.75 270.9 343.2 270.3333 347.1 270.4 L 351.7 272.25 L 355.0 273.9 Z"/>
				<path fill="#0D131A" stroke-linecap="round" stroke-linejoin="round" d="M 330.3 299.3 C 328.4 296.73334 327.16666 293.81668 326.6 290.55 L 326.4 289.25 L 338.2 291.75 L 337.75 292.75 C 336.25 296.31668 336.45 300.08334 338.35 304.05 L 338.95 305.3 C 339.08334 305.96664 338.46667 305.93332 337.1 305.2 C 334.36667 303.76666 332.1 301.8 330.3 299.3 Z"/>
				<path fill="#FFF3C2" stroke-linecap="round" stroke-linejoin="round" d="M 335.8 293.05 C 335.23334 294.75 334.95 296.28333 334.95 297.65 C 334.95 298.91666 335.2 300.38333 335.7 302.05 C 332.2 299.25 329.9 295.75 328.8 291.55 L 335.8 293.05 Z"/>
				<path fill="#DBD2A9" stroke-linecap="round" stroke-linejoin="round" d="M 335.7 302.0 C 334.23334 298.36667 333.45 295.21667 333.35 292.55 L 335.8 293.05 C 335.23334 294.75 334.95 296.28333 334.95 297.65 C 334.95 298.95 335.2 300.40002 335.7 302.0 Z"/>
				<path fill="#0D131A" stroke-linecap="round" stroke-linejoin="round" d="M 340.85 261.8 C 343.01666 261.16666 346.38333 261.75 350.95 263.55 C 353.55002 264.55 357.48334 266.19998 362.75 268.5 L 371.0 272.7 L 353.45 280.45 L 352.85 280.05 C 350.98334 278.91666 347.95 279.18332 343.75 280.85 C 342.51666 281.35 341.81665 281.80002 341.65 282.2 C 341.51666 282.53336 341.61667 283.28336 341.95 284.45 L 342.55 286.95 C 342.94998 289.15 342.51666 290.94998 341.25 292.35 C 340.28333 293.38333 338.91666 293.91666 337.15 293.95 L 333.1 293.55 C 330.13333 293.21664 327.6 292.41666 325.5 291.15 C 323.16666 289.71667 321.5833 287.83334 320.75 285.5 C 319.68332 282.5 320.4 280.23334 322.9 278.7 L 325.0 277.5 L 326.45 276.35 L 331.45 269.45 C 334.95 265.15 338.08334 262.59998 340.85 261.8 Z"/>
				<path fill="#F7C498" stroke-linecap="round" stroke-linejoin="round" d="M 361.5 270.85 L 364.8 272.55 L 353.5 277.5 C 350.86667 276.23334 347.3 276.53333 342.8 278.4 C 340.76666 279.2 339.55 280.2 339.15 281.4 C 338.85 282.23334 338.93335 283.5 339.4 285.2 L 339.95 287.45 C 340.18332 288.75 339.96664 289.78333 339.3 290.55 C 338.16666 291.75 336.05 292.18335 332.95 291.85 C 330.68332 291.61667 328.66666 290.83334 326.9 289.5 C 325.16666 288.19998 323.94998 286.56665 323.25 284.6 C 322.88333 283.56665 322.88333 282.55 323.25 281.55 C 323.55002 280.81668 323.96667 280.25003 324.5 279.85 L 326.35 278.85 C 327.31665 278.28333 328.06665 277.5833 328.6 276.75 C 329.93335 274.65 331.61667 272.63333 333.65 270.7 C 336.25 268.23334 338.86667 266.46667 341.5 265.4 C 344.0 264.4 346.91666 264.58334 350.25 265.95 L 361.5 270.85 Z"/>
				<path fill="#D5A985" stroke-linecap="round" stroke-linejoin="round" d="M 335.6 280.75 C 338.33334 274.31668 344.4 269.93335 353.8 267.6 C 356.8 269.03333 359.36667 270.11667 361.5 270.85 L 364.8 272.55 L 353.5 277.5 C 350.86667 276.23334 347.3 276.53333 342.8 278.4 C 340.76666 279.2 339.55 280.2 339.15 281.4 C 338.85 282.23334 338.93335 283.5 339.4 285.2 L 339.95 287.45 C 340.18332 288.75 339.96664 289.78333 339.3 290.55 C 338.16666 291.75 336.05 292.18335 332.95 291.85 L 330.4 291.3 C 331.73334 290.8 332.75 289.5 333.45 287.4 C 334.21667 284.6 334.93335 282.38333 335.6 280.75 Z"/>
				<path fill="#0D131A" stroke-linecap="round" stroke-linejoin="round" d="M 339.7 301.85 C 337.83334 299.28333 336.61667 296.34998 336.05 293.05 L 335.8 291.75 L 347.6 294.25 L 347.2 295.25 C 345.66666 298.85 345.84998 302.63333 347.75 306.6 L 348.35 307.8 L 346.5 307.75 C 343.76666 306.28333 341.5 304.31665 339.7 301.85 Z"/>
				<path fill="#FFF3C2" stroke-linecap="round" stroke-linejoin="round" d="M 345.25 295.6 C 344.68332 297.13333 344.4 298.65 344.4 300.15 C 344.4 301.48334 344.65 302.95 345.15 304.55 C 341.61667 301.71664 339.30002 298.2333 338.2 294.1 L 345.25 295.6 Z"/>
				<path fill="#DBD2A9" stroke-linecap="round" stroke-linejoin="round" d="M 344.55 302.0 C 343.18332 299.6 342.43332 297.25 342.3 294.95 L 345.25 295.6 C 344.68332 297.13333 344.4 298.65 344.4 300.15 L 344.55 302.0 Z"/>
				<path fill="#0D131A" stroke-linecap="round" stroke-linejoin="round" d="M 419.85 262.1 C 424.88333 262.06665 428.05 262.74997 429.35 264.15 L 429.95 264.85 L 429.55 265.65 C 426.51666 267.65 424.18332 269.63333 422.55 271.6 C 421.05 273.4 420.46664 274.71664 420.8 275.55 C 421.23334 276.68332 421.56668 277.31665 421.8 277.45 C 422.9 278.08334 426.15 278.95 431.55 280.05 C 433.58334 280.44998 434.88336 280.76666 435.45 281.0 C 436.85 281.53333 437.71667 282.3333 438.05 283.4 C 438.71664 285.7 438.56665 288.45 437.6 291.65 C 436.6667 294.75 435.31668 297.15 433.55 298.85 C 430.91666 301.4167 428.11667 302.96667 425.15 303.5 C 422.15 304.06668 419.36667 303.5 416.8 301.8 C 414.8 300.5 413.8 298.71667 413.8 296.45 L 414.3 294.65 C 414.56668 293.75 414.58334 293.2 414.35 293.0 C 414.68335 291.96667 414.05002 291.06668 412.45 290.3 C 409.31668 288.83334 402.26666 288.21667 391.3 288.45 L 387.5 288.25 C 383.30002 287.71667 375.68335 286.33334 364.65 284.1 L 358.0 282.8 L 355.0 282.95 C 353.36667 283.28336 352.2 283.88336 351.5 284.75 C 350.6 285.88333 350.56668 287.7 351.4 290.2 C 352.06665 292.30002 351.81665 294.03336 350.65 295.4 C 349.75 296.5 348.38333 297.25 346.55 297.65 L 341.55 297.85 C 339.61667 297.65 337.53333 296.51666 335.3 294.45 C 333.0 292.31668 331.51666 290.01666 330.85 287.55 C 330.38333 285.75 330.3 284.25 330.6 283.05 C 330.9 281.65 331.73334 280.45 333.1 279.45 L 336.1 277.55 L 338.95 275.1 C 340.15 273.63333 341.61667 272.11667 343.35 270.55 C 345.68335 268.48334 347.75 267.06668 349.55 266.3 C 352.44998 265.06668 355.46664 265.1 358.6 266.4 L 365.8 269.7 C 368.46664 270.36667 373.15 270.96667 379.85 271.5 C 387.05 272.13333 391.88333 272.23334 394.35 271.8 C 396.31665 271.5 398.21664 270.86667 400.05 269.9 L 405.0 266.8 L 409.3 264.05 C 411.4 262.78333 414.91666 262.13333 419.85 262.1 Z"/>
				<path fill="#F7C498" stroke-linecap="round" stroke-linejoin="round" d="M 410.65 266.3 C 412.18335 265.4 414.80002 264.9 418.5 264.8 C 421.93332 264.66666 424.55 264.88333 426.35 265.45 L 423.25 268.4 L 419.6 271.95 C 418.83334 272.81668 418.4 273.53336 418.3 274.1 L 418.1 275.55 C 418.1 276.91666 419.01666 278.03333 420.85 278.9 C 422.78333 279.76666 426.59998 280.78333 432.3 281.95 C 433.73334 282.25 434.6667 283.13333 435.1 284.6 L 435.35 286.7 C 435.35 288.5 434.91666 290.44998 434.05 292.55 C 433.21664 294.58334 432.21664 296.1667 431.05 297.3 C 426.68332 301.56668 422.41666 302.33334 418.25 299.6 C 417.31668 298.96667 416.7667 298.26666 416.6 297.5 C 416.46667 296.93332 416.48334 295.93332 416.65 294.5 L 416.85 291.75 C 416.81665 290.01666 414.93332 288.71667 411.2 287.85 C 407.46667 286.98334 400.88333 286.3 391.45 285.8 L 387.85 285.6 L 366.0 282.2 L 360.9 280.9 L 358.2 280.15 C 357.13333 280.05 355.81665 280.28333 354.25 280.85 C 352.35 281.55 350.9 282.53333 349.9 283.8 C 348.3 285.76666 347.94998 288.16666 348.85 291.0 C 349.21667 292.16666 349.13333 293.06665 348.6 293.7 C 348.06665 294.33334 347.18332 294.78333 345.95 295.05 L 341.8 295.25 C 340.46664 295.08334 338.9 294.1667 337.1 292.5 C 335.2 290.69998 333.98334 288.81665 333.45 286.85 C 332.85 284.58334 333.51666 282.75 335.45 281.35 L 341.15 276.3 L 345.5 272.3 C 347.16666 270.96664 348.81665 269.9833 350.45 269.35 C 354.08334 267.88333 358.7 268.48334 364.3 271.15 C 366.56668 272.25 371.56668 273.2 379.3 274.0 L 394.8 274.45 C 397.03333 274.08334 399.18332 273.36667 401.25 272.3 C 402.55002 271.63333 404.30002 270.53333 406.5 269.0 L 410.65 266.3 Z"/>
				<path fill="#D5A985" stroke-linecap="round" stroke-linejoin="round" d="M 401.7 283.6 C 404.0 283.43335 406.36667 283.85 408.8 284.85 C 411.3 285.85 412.66666 287.0 412.9 288.3 C 409.56665 287.23334 402.41666 286.4 391.45 285.8 L 387.85 285.6 L 366.0 282.2 L 360.9 280.9 L 358.2 280.15 C 357.13333 280.05 355.81665 280.28333 354.25 280.85 C 352.35 281.55 350.9 282.53333 349.9 283.8 C 348.3 285.76666 347.94998 288.16666 348.85 291.0 C 349.21667 292.16666 349.13333 293.06665 348.6 293.7 C 348.06665 294.33334 347.18332 294.78333 345.95 295.05 L 341.8 295.25 C 340.4 295.08334 338.76666 294.1 336.9 292.3 L 339.2 292.45 L 342.2 292.3 C 343.33334 292.1 344.35 291.13333 345.25 289.4 L 347.4 284.0 C 349.3333 279.16666 351.9 277.05 355.1 277.65 L 375.35 281.7 C 385.88333 283.46667 394.66666 284.1 401.7 283.6 Z"/>
				<path fill="#D5A985" stroke-linecap="round" stroke-linejoin="round" d="M 413.55 274.85 C 413.41666 273.05 412.51666 271.51666 410.85 270.25 C 409.05 269.21667 408.0 268.55002 407.7 268.25 L 410.65 266.3 C 412.18335 265.4 414.80002 264.9 418.5 264.8 C 421.93332 264.66666 424.55 264.88333 426.35 265.45 L 423.25 268.4 L 419.6 271.95 C 418.83334 272.81668 418.4 273.53336 418.3 274.1 L 418.1 275.55 C 418.1 276.91666 419.01666 278.03333 420.85 278.9 C 422.78333 279.76666 426.59998 280.78333 432.3 281.95 C 433.73334 282.25 434.6667 283.13333 435.1 284.6 L 435.35 286.7 C 435.35 288.5 434.91666 290.44998 434.05 292.55 C 433.21664 294.58334 432.21664 296.1667 431.05 297.3 C 426.68332 301.56668 422.41666 302.33334 418.25 299.6 L 417.65 299.1 C 420.25 299.6 422.71667 298.71667 425.05 296.45 C 427.31668 294.31668 428.65002 291.75 429.05 288.75 C 429.31668 286.81668 426.90002 284.6 421.8 282.1 C 416.46664 279.46667 413.71664 277.05002 413.55 274.85 Z"/>
				<path fill="#0D131A" stroke-linecap="round" stroke-linejoin="round" d="M 565.65 144.2 C 601.15 140.66666 631.45 140.59999 656.55 144.0 L 660.65 144.65 C 663.48334 145.15 665.1 145.59999 665.5 146.0 C 666.63336 147.2 669.2667 150.55 673.4 156.05 C 678.2 162.51666 680.75 166.46666 681.05 167.9 C 681.35 169.4 680.94995 170.21666 679.85 170.35 L 672.75 169.8 C 660.7167 168.33334 648.51666 167.15001 636.15 166.25 C 612.0833 164.51666 591.7833 164.5 575.25 166.2 C 593.75 168.5 618.13336 173.45 648.4 181.05 C 676.2 188.05 690.35 192.18333 690.85 193.45 C 691.2833 194.45 691.76666 196.81667 692.3 200.55 C 692.8667 204.41667 693.15 207.45 693.15 209.65 C 693.15 218.11667 692.95 223.46667 692.55 225.7 C 692.2167 227.53333 690.7167 227.79999 688.05 226.5 C 681.75 223.43333 673.3667 219.61667 662.9 215.05 C 644.3 206.98334 627.5833 200.46667 612.75 195.5 C 627.85004 201.63333 640.45 207.0 650.55 211.6 C 663.31665 217.43333 670.0833 221.16667 670.85 222.8 C 671.61664 224.36667 671.89996 228.23334 671.7 234.4 C 671.5333 239.63333 671.26666 243.03334 670.9 244.6 C 670.4667 246.33333 668.4 246.06667 664.7 243.8 C 660.6667 241.23334 655.48334 237.7 649.15 233.2 C 648.8167 234.26666 647.7334 238.18333 645.9 244.95 C 644.0667 251.11667 642.7834 254.05 642.05 253.75 C 627.35 243.78334 610.75 233.81668 592.25 223.85 C 555.31665 203.95 525.4166 193.21666 502.55 191.65 C 482.01666 190.25 471.4 185.93333 470.7 178.7 C 470.23334 174.13333 473.6 169.3 480.8 164.2 C 486.86667 159.9 493.25 156.81667 499.95 154.95 C 515.7167 150.55 537.6167 146.96667 565.65 144.2 Z"/>
				<path fill="#D18344" stroke-linecap="round" stroke-linejoin="round" d="M 687.05 195.8 C 688.45 196.93333 689.3334 201.76666 689.7 210.3 C 690.06665 218.73334 689.8 223.01666 688.9 223.15 C 675.8333 217.55 661.75 211.68333 646.65 205.55 C 616.25 193.18333 594.39996 186.01666 581.1 184.05 L 577.45 184.0 C 575.75 184.16667 576.7167 184.71667 580.35 185.65 C 585.48334 186.98332 597.1667 191.61665 615.4 199.55 C 635.76666 208.38333 653.39996 216.75 668.3 224.65 C 668.9667 225.01666 669.0 228.0 668.4 233.6 C 667.8 239.2 667.1666 241.71666 666.5 241.15 L 657.2 234.65 C 651.3667 230.78334 647.5667 228.55 645.8 227.95 C 646.0 229.95 645.2 233.59999 643.4 238.9 C 641.5333 244.26666 640.1666 246.7 639.3 246.2 C 624.5 236.86667 607.95 227.58334 589.65 218.35 C 553.18335 200.01668 524.2167 190.11667 502.75 188.65 C 491.91666 187.91667 484.05 186.38335 479.15 184.05 C 475.71667 182.45 473.88333 180.56667 473.65 178.4 L 473.65 177.9 C 473.65 174.5 476.76666 170.63333 483.0 166.3 C 488.73334 162.36667 494.65 159.55 500.75 157.85 C 514.7167 153.95 537.5 150.71666 569.1 148.15 C 605.89996 145.18333 636.9166 145.08334 662.15 147.85 C 663.4167 148.01668 666.23334 151.15001 670.6 157.25 C 674.8 163.15001 676.85 166.33334 676.75 166.8 L 632.25 163.5 C 599.68335 161.63333 576.5667 162.09999 562.9 164.9 L 560.2 166.95 C 579.1333 168.65 605.31665 173.63333 638.75 181.9 C 651.05 184.96666 662.14996 187.93333 672.05 190.8 C 681.2167 193.46667 686.2167 195.13335 687.05 195.8 Z"/>
				<path fill="#AB6B35" stroke-linecap="round" stroke-linejoin="round" d="M 641.5 157.5 L 669.9 156.3 L 674.7 163.3 L 676.75 166.8 L 633.55 163.6 C 601.75 161.73334 578.81665 162.05 564.75 164.55 C 572.55 161.18333 588.1333 159.08333 611.5 158.25 L 641.5 157.5 Z"/>
				<path fill="#AB6B35" stroke-linecap="round" stroke-linejoin="round" d="M 598.55 183.85 C 644.6167 195.65001 674.9 202.8 689.4 205.3 C 689.76666 209.26666 689.89996 213.21666 689.8 217.15 C 689.7 221.08333 689.4 223.08333 688.9 223.15 C 675.8333 217.55 661.75 211.68333 646.65 205.55 C 616.25 193.18333 594.39996 186.01666 581.1 184.05 L 577.45 184.0 C 575.75 184.16667 576.7167 184.71667 580.35 185.65 C 585.48334 186.98332 597.1667 191.61665 615.4 199.55 C 635.76666 208.38333 653.39996 216.75 668.3 224.65 C 668.9667 225.01666 669.0 228.0 668.4 233.6 C 667.8 239.2 667.1666 241.71666 666.5 241.15 L 657.2 234.65 C 651.3667 230.78334 647.5667 228.55 645.8 227.95 C 646.0 229.95 645.2 233.59999 643.4 238.9 C 641.5333 244.26666 640.1666 246.7 639.3 246.2 C 627.3 238.63333 613.5333 230.78333 598.0 222.65 C 567.0333 206.45 540.93335 195.96666 519.7 191.2 C 518.3667 186.0 527.13336 184.11667 546.0 185.55 L 565.1 187.65 L 572.75 188.3 C 565.35004 183.93333 554.93335 180.05 541.5 176.65 C 536.93335 175.48332 534.3 174.66666 533.6 174.2 C 532.56665 173.53333 533.56665 172.76666 536.6 171.9 C 541.4333 170.53334 562.0833 174.51668 598.55 183.85 Z"/>
				<path fill="#0D131A" stroke-linecap="round" stroke-linejoin="round" d="M 604.2 208.05 C 631.8 220.35 646.6833 227.51668 648.85 229.55 C 650.75 231.35 651.25 232.38333 650.35 232.65 C 649.51666 232.88333 648.4 232.6 647.0 231.8 C 634.8 224.76666 616.89996 216.13333 593.3 205.9 C 572.56665 196.93333 559.56665 191.75 554.3 190.35 C 550.2 189.21666 548.10004 188.26666 548.0 187.5 C 547.86664 186.7 550.25 186.83333 555.15 187.9 C 560.18335 189.0 576.5333 195.71667 604.2 208.05 Z"/>
				<path fill="#0D131A" stroke-linecap="round" stroke-linejoin="round" d="M 566.45 181.95 C 553.48334 177.98334 545.45 175.85 542.35 175.55 C 538.11664 175.11667 535.8 174.68333 535.4 174.25 C 534.93335 173.81667 537.31665 173.61667 542.55 173.65 C 547.25 173.68333 555.73334 175.5 568.0 179.1 L 591.4 186.45 C 595.5 187.71667 597.2833 188.75002 596.75 189.55 C 596.2167 190.31667 594.05 190.21666 590.25 189.25 L 566.45 181.95 Z"/>
				<path fill="#0D131A" stroke-linecap="round" stroke-linejoin="round" d="M 570.2 166.55 L 534.0 171.2 L 527.0 171.6 C 525.93335 171.33333 526.85004 170.79999 529.75 170.0 C 534.14996 168.76666 547.4833 166.63333 569.75 163.6 L 576.5 163.1 L 571.85 166.3 L 570.2 166.55 Z"/>
				<path fill="#D18344" stroke-linecap="round" stroke-linejoin="round" d="M 513.5 188.05 C 507.03333 209.15 490.18332 224.34999 462.95 233.65 C 429.31668 245.15 401.11667 247.43333 378.35 240.5 C 355.75 233.59999 339.51666 217.93332 329.65 193.5 C 325.0833 182.16667 319.28333 169.86667 312.25 156.6 C 310.31668 152.93333 310.23334 147.98334 312.0 141.75 C 313.69998 135.91667 316.61664 130.20001 320.75 124.6 C 325.05002 118.8 329.6167 114.583336 334.45 111.95 C 339.91666 108.98333 344.8333 108.53333 349.2 110.6 C 350.46667 111.2 352.53333 112.36666 355.4 114.1 L 361.25 117.45 C 370.98334 121.98333 397.83334 129.5 441.8 140.0 L 486.0 150.5 C 499.33334 153.76666 506.73334 155.84999 508.2 156.75 C 509.03336 157.28334 509.88336 158.33334 510.75 159.9 L 511.85 162.15 C 512.68335 164.05 513.35 166.06667 513.85 168.2 C 515.55 175.03333 515.43335 181.65 513.5 188.05 Z"/>
				<path fill="#AB6B35" stroke-linecap="round" stroke-linejoin="round" d="M 475.6 209.45 C 486.23334 201.98334 493.13333 197.05 496.3 194.65 C 504.33334 188.51666 509.25 183.88333 511.05 180.75 C 512.85 177.61667 513.86664 177.65001 514.1 180.85 C 514.3 183.65001 514.1 186.05 513.5 188.05 C 507.03333 209.15 490.18332 224.34999 462.95 233.65 C 429.31668 245.15 401.11667 247.43333 378.35 240.5 C 355.75 233.59999 339.51666 217.93332 329.65 193.5 C 327.48334 188.09999 325.01666 182.43332 322.25 176.5 C 326.38333 179.76666 333.98334 187.59999 345.05 200.0 C 354.75 210.86667 362.68335 218.06667 368.85 221.6 C 388.98334 232.7 411.73334 234.65 437.1 227.45 C 451.4 223.35 464.23334 217.35 475.6 209.45 Z"/>
				<path fill="#0D131A" stroke-linecap="round" stroke-linejoin="round" d="M 461.05 142.75 C 478.05 146.75 489.31665 149.46666 494.85 150.9 C 503.08334 152.96666 507.85 154.41666 509.15 155.25 C 509.71667 155.61667 510.30002 156.15001 510.9 156.85 L 512.35 159.05 C 512.7833 160.05 512.65 161.0 511.95 161.9 C 511.21667 162.8 510.30002 162.43333 509.2 160.8 C 508.33334 159.4 507.68335 158.54999 507.25 158.25 C 506.15 157.55 500.86667 156.01666 491.4 153.65 L 460.25 146.2 C 433.98334 140.0 414.6 135.28334 402.1 132.05 C 381.2 126.583336 367.33334 122.26667 360.5 119.1 C 355.63333 116.8 350.46667 113.91667 345.0 110.45 L 346.75 107.35 C 352.51666 110.98334 357.6 113.81667 362.0 115.85 C 368.66666 118.98334 382.4 123.25 403.2 128.65 C 414.86667 131.68333 434.15 136.38333 461.05 142.75 Z"/>
				<path fill="#0D131A" stroke-linecap="round" stroke-linejoin="round" d="M 499.35 208.7 C 505.88333 201.5 510.01666 194.46667 511.75 187.6 C 512.38336 185.03334 513.18335 183.90001 514.15 184.2 C 515.0833 184.53333 515.4333 185.95 515.2 188.45 C 514.56665 195.28333 511.3333 202.4 505.5 209.8 C 497.06668 220.53333 484.88336 228.61665 468.95 234.05 C 451.78336 239.91667 435.25003 243.6 419.35 245.1 C 403.01666 246.63333 389.18332 245.66666 377.85 242.2 C 365.9167 238.53333 355.88336 233.15 347.75 226.05 C 339.01666 218.41667 332.21667 208.56667 327.35 196.5 C 321.48334 182.09999 314.55 167.45 306.55 152.55 L 311.25 149.45 C 319.18332 163.95 325.86664 178.41667 331.3 192.85 C 340.46664 217.08333 356.3333 232.51666 378.9 239.15 C 401.26666 245.71666 429.08334 243.31667 462.35 231.95 C 477.68335 226.71667 490.0167 218.96667 499.35 208.7 Z"/>
				<path fill="#D18344" stroke-linecap="round" stroke-linejoin="round" d="M 303.85 140.0 L 347.1 171.05 L 352.15 193.0 C 354.38333 201.96666 356.95 208.9 359.85 213.8 L 341.55 201.6 L 335.75 220.75 L 325.25 206.7 C 321.68332 210.96667 317.78333 216.05 313.55 221.95 C 314.58334 209.11667 314.9167 197.85 314.55 188.15 C 313.88333 170.08333 310.31668 154.03333 303.85 140.0 Z"/>
				<path fill="#0D131A" stroke-linecap="round" stroke-linejoin="round" d="M 356.55 210.0 C 354.85 206.33333 352.71667 199.54999 350.15 189.65 C 348.15 181.98332 346.71667 175.9 345.85 171.4 C 345.28333 168.63333 345.28333 167.26666 345.85 167.3 C 346.4167 167.3 347.03336 168.5 347.7 170.9 L 353.6 190.85 C 357.06665 202.08333 359.53333 209.51666 361.0 213.15 C 361.63333 214.71666 361.88333 215.59999 361.75 215.8 C 361.55002 216.06667 360.6667 215.76666 359.1 214.9 L 349.9 208.8 L 342.3 203.7 C 342.03333 203.56667 341.18332 207.01666 339.75 214.05 C 338.35 221.05 337.2 224.25 336.3 223.65 C 335.3 223.01666 333.25 220.5 330.15 216.1 L 325.2 208.85 C 324.9 208.41667 323.46664 210.11667 320.9 213.95 L 314.1 223.75 C 312.1 226.31667 310.81668 226.8 310.25 225.2 C 309.71667 223.6 309.81668 219.70001 310.55 213.5 C 311.88333 202.06667 312.01666 190.16667 310.95 177.8 C 309.68332 162.83334 306.78333 150.78334 302.25 141.65 C 300.61667 138.28334 300.0 136.23334 300.4 135.5 C 300.86667 134.66667 302.56668 135.91667 305.5 139.25 C 308.36667 142.51666 310.9 150.63333 313.1 163.6 C 315.03333 175.1 316.0 185.41667 316.0 194.55 L 315.25 209.15 C 314.85 215.11667 314.80002 217.93333 315.1 217.6 L 320.05 210.6 C 323.08334 206.43333 324.83334 204.41667 325.3 204.55 C 325.73334 204.68333 327.25 206.55 329.85 210.15 L 335.25 217.85 L 337.95 207.25 C 339.31668 202.08333 340.25 199.5 340.75 199.5 C 341.28333 199.46666 343.46664 200.79999 347.3 203.5 L 356.55 210.0 Z"/>
				<path fill="#D18344" stroke-linecap="round" stroke-linejoin="round" d="M 464.9 246.2 L 472.35 253.9 L 460.45 252.4 L 461.85 255.05 C 463.01666 257.05 464.13333 258.65 465.2 259.85 C 453.63333 260.11667 443.6 262.7 435.1 267.6 C 432.46667 269.13333 430.13333 270.81665 428.1 272.65 L 425.85 274.9 L 424.45 267.45 L 413.8 270.05 L 414.95 262.55 L 401.5 266.3 L 408.55 260.05 C 413.51666 255.31667 416.7 251.56667 418.1 248.8 C 414.1667 245.26666 410.1 241.79999 405.9 238.4 C 399.8333 233.5 395.19998 230.21667 392.0 228.55 C 390.23334 227.61667 391.73334 225.46667 396.5 222.1 C 401.03333 218.93333 406.81665 215.83333 413.85 212.8 C 421.48334 209.5 428.03333 207.46666 433.5 206.7 C 439.9 205.83333 443.66666 206.95 444.8 210.05 C 446.83334 215.65 452.58334 223.29999 462.05 233.0 C 466.78333 237.83333 471.31665 242.11667 475.65 245.85 L 464.9 246.2 Z"/>
				<path fill="#AB6B35" stroke-linecap="round" stroke-linejoin="round" d="M 439.8 245.75 L 448.2 245.35 C 452.6 245.28334 454.71667 244.86667 454.55 244.1 C 453.01666 240.1 451.56668 236.05 450.2 231.95 C 447.53336 223.88333 446.23334 217.63333 446.3 213.2 C 449.3 218.83333 455.1 225.96666 463.7 234.6 C 467.96667 238.90001 471.95 242.65001 475.65 245.85 L 464.9 246.2 L 472.35 253.9 L 460.45 252.4 L 461.85 255.05 C 463.01666 257.05 464.13333 258.65 465.2 259.85 C 453.63333 260.11667 443.6 262.7 435.1 267.6 C 432.46667 269.13333 430.13333 270.81665 428.1 272.65 L 425.85 274.9 L 424.45 267.45 L 413.8 270.05 L 414.6 264.85 C 418.3 262.25 425.16666 259.46667 435.2 256.5 C 443.86667 253.96666 448.1 252.5 447.9 252.1 C 447.7 251.66667 445.95 250.51666 442.65 248.65 C 439.88333 247.08333 438.93332 246.11667 439.8 245.75 Z"/>
				<path fill="#0D131A" stroke-linecap="round" stroke-linejoin="round" d="M 442.65 204.15 C 443.11667 203.31667 444.25 205.1 446.05 209.5 C 448.25 214.8 453.66666 222.03334 462.3 231.2 C 469.33334 238.66666 474.05002 243.2 476.45 244.8 C 477.55002 245.5 478.13336 246.11667 478.2 246.65 C 478.23334 247.11667 477.85 247.40001 477.05 247.5 L 473.1 247.5 L 467.95 247.45 L 472.85 252.05 C 475.05 254.08334 476.0833 255.3 475.95 255.7 L 470.45 255.4 L 462.85 254.05 C 463.81665 255.75 464.93332 257.4 466.2 259.0 C 466.7 259.63333 466.9 260.13333 466.8 260.5 C 466.66666 260.93332 466.15 261.16666 465.25 261.2 C 453.71667 261.43332 444.0 263.76666 436.1 268.2 C 431.1667 270.93332 428.1 273.44998 426.9 275.75 L 426.05 277.35 C 425.75 277.78333 425.43335 277.98334 425.1 277.95 C 424.76666 277.95 424.4 276.61667 424.0 273.95 L 423.4 269.05 C 423.3333 268.58334 421.78333 268.81668 418.75 269.75 L 412.2 271.8 C 411.16666 272.0 411.05 270.96667 411.85 268.7 L 413.35 264.4 C 413.28333 263.96667 411.68332 264.25 408.55 265.25 L 401.85 267.6 L 399.45 267.75 C 399.25 267.38333 399.65 266.55 400.65 265.25 C 401.35 264.38333 404.31668 261.41666 409.55 256.35 L 416.85 249.05 C 402.88333 236.68333 394.43332 230.25 391.5 229.75 C 389.30002 229.38333 388.2667 228.96666 388.4 228.5 C 388.53333 228.0 389.73334 228.01666 392.0 228.55 C 394.76666 229.18333 398.85 231.46666 404.25 235.4 C 409.15 238.96666 414.06665 243.09999 419.0 247.8 L 419.75 248.45 C 420.05002 249.05 419.68335 249.71667 418.65 250.45 C 417.81665 251.05 416.05 252.95 413.35 256.15 C 410.35 259.75 408.15 262.18335 406.75 263.45 L 416.6 260.75 L 415.45 268.25 L 425.5 265.8 L 426.7 272.15 C 430.5 268.55 434.63333 265.61667 439.1 263.35 C 446.6667 259.51666 454.50003 257.94998 462.6 258.65 C 463.7 258.75 463.26666 257.58334 461.3 255.15 C 459.1 252.41667 458.05002 250.95001 458.15 250.75 C 458.35 250.45 460.1667 250.63333 463.6 251.3 L 468.8 252.1 L 465.25 248.75 C 462.88333 246.61667 461.75 245.36667 461.85 245.0 L 467.05 244.65 C 470.35 244.78334 472.01666 244.78334 472.05 244.65 C 468.21664 241.75 464.15 238.21667 459.85 234.05 C 451.15 225.71667 445.73334 217.88335 443.6 210.55 C 442.56665 207.05 442.24997 204.91667 442.65 204.15 Z"/>
				<path fill="#FFF3C2" stroke-linecap="round" stroke-linejoin="round" d="M 508.7 149.2 L 510.35 148.95 L 510.35 150.55 L 508.7 149.2 Z"/>
				<path fill="#D18344" stroke-linecap="round" stroke-linejoin="round" d="M 667.5 46.75 C 658.0333 44.016666 645.6 42.1 630.2 41.0 C 599.3667 38.766666 569.1167 41.7 539.45 49.8 C 569.68335 46.433334 598.43335 46.333336 625.7 49.5 C 639.3334 51.066666 649.95 52.966667 657.55 55.2 L 652.15 65.15 L 623.05 63.6 L 644.5 70.5 C 636.9667 69.200005 626.65 68.8 613.55 69.3 C 587.35 70.333336 560.35 75.333336 532.55 84.3 C 541.18335 82.73333 558.7167 81.49999 585.15 80.6 C 598.38336 80.13333 610.75 79.83333 622.25 79.7 L 616.15 95.05 L 601.55 92.75 L 611.55 98.15 C 601.7167 97.65 589.76666 97.933334 575.7 99.0 C 547.6 101.166664 523.0 106.25 501.9 114.25 C 512.43335 112.35 527.10004 111.51666 545.9 111.75 L 570.9 112.7 L 560.15 127.25 L 484.25 133.4 L 540.25 144.9 L 527.2 156.4 L 451.3 154.85 L 493.45 166.35 L 477.35 167.15 L 493.45 174.05 L 480.4 177.1 C 475.03333 175.06667 468.65 173.18333 461.25 171.45 C 446.41666 168.01666 433.9 167.08333 423.7 168.65 C 430.83334 170.71666 446.93335 175.83333 472.0 184.0 L 454.35 196.25 C 451.55 193.71666 447.9833 191.09999 443.65 188.4 C 434.95 183.03334 426.7667 180.03334 419.1 179.4 L 352.4 160.25 C 345.36667 156.28334 340.41666 153.28334 337.55 151.25 C 331.71664 147.15001 327.5833 143.05 325.15 138.95 C 318.51666 127.78333 324.01666 115.71667 341.65 102.75 C 369.78333 82.01666 395.05 65.11666 417.45 52.05 C 451.25 32.316666 481.69998 19.05 508.8 12.25 C 509.76666 12.883333 510.7 14.233333 511.6 16.3 L 512.65 19.15 L 480.4 32.95 L 508.0 26.05 L 487.3 38.3 L 506.8 32.65 C 523.0333 28.283333 539.18335 24.65 555.25 21.75 C 606.7833 12.416666 648.0333 12.066667 679.0 20.7 L 685.2 27.6 L 644.5 30.65 L 672.75 35.25 L 667.5 46.75 Z"/>
				<path fill="#AB6B35" stroke-linecap="round" stroke-linejoin="round" d="M 419.4 64.55 C 432.1 57.483334 444.80002 51.366665 457.5 46.2 C 468.69998 41.63333 476.19998 39.216663 480.0 38.95 C 482.93332 38.75 482.13333 40.166668 477.6 43.2 C 475.53333 44.6 469.05 48.516666 458.15 54.95 C 434.65 68.78333 420.05 79.183334 414.35 86.15 C 407.98334 93.91667 409.65 98.183334 419.35 98.95 L 430.1 99.0 C 433.46667 99.0 434.9167 99.38333 434.45 100.15 C 433.95 100.98334 431.75 101.933334 427.85 103.0 L 415.25 106.3 C 403.11667 109.8 396.05 114.066666 394.05 119.1 C 393.15 121.3 397.5 125.13334 407.1 130.6 L 416.05 135.9 C 418.38333 137.56667 418.91666 138.65 417.65 139.15 C 416.5833 139.58333 413.76666 140.03333 409.2 140.5 L 397.8 141.9 C 389.26666 143.36667 388.95 145.96667 396.85 149.7 C 405.38333 153.7 403.98334 154.59999 392.65 152.4 C 381.55 150.23332 373.59998 148.15 368.8 146.15 C 362.6 143.58333 358.2 141.09999 355.6 138.7 C 350.6667 134.1 349.73334 128.75 352.8 122.65 C 362.06668 103.45 384.2667 84.08333 419.4 64.55 Z"/>
				<path fill="#FFF3C2" stroke-linecap="round" stroke-linejoin="round" d="M 480.4 177.1 C 476.66666 175.66667 472.0 174.21667 466.4 172.75 C 466.0 172.05 464.73334 170.86667 462.6 169.2 C 461.0 167.93333 460.51666 167.2 461.15 167.0 L 468.35 165.25 C 472.78333 164.18333 476.06665 163.16667 478.2 162.2 L 493.45 166.35 L 477.35 167.15 L 493.45 174.05 L 480.4 177.1 Z"/>
				<path fill="#FFF3C2" stroke-linecap="round" stroke-linejoin="round" d="M 447.75 187.15 C 450.38333 187.31667 451.56665 187.16667 451.3 186.7 L 447.15 183.15 C 444.91666 181.31667 444.1 180.3 444.7 180.1 L 448.3 179.05 L 452.6 177.7 L 472.0 184.0 L 454.35 196.25 L 450.7 193.25 C 447.56668 190.88333 444.33334 188.75 441.0 186.85 L 447.75 187.15 Z"/>
				<path fill="#FFF3C2" stroke-linecap="round" stroke-linejoin="round" d="M 505.3 149.75 C 506.03333 149.31667 506.0 148.7 505.2 147.9 C 504.53336 147.23332 505.35 147.09999 507.65 147.5 L 512.45 148.25 C 512.9167 148.21666 512.2 147.36665 510.3 145.7 C 508.36667 144.03333 507.61667 143.13333 508.05 143.0 L 518.2 140.35 L 540.25 144.9 L 527.2 156.4 L 478.2 155.4 C 477.76666 154.9 477.55 154.38333 477.55 153.85 L 492.75 151.9 L 501.9 150.7 C 503.63333 150.4 504.76666 150.08333 505.3 149.75 Z"/>
				<path fill="#FFF3C2" stroke-linecap="round" stroke-linejoin="round" d="M 644.5 30.65 L 672.75 35.25 L 667.5 46.75 C 662.10004 45.216667 654.7667 43.816666 645.5 42.55 C 626.93335 40.083332 607.9667 39.63333 588.6 41.2 L 592.4 37.35 C 594.26666 36.116665 593.4166 34.18333 589.85 31.55 L 586.3 29.0 C 585.3333 28.199999 585.1833 27.699999 585.85 27.5 L 594.0 25.9 C 598.0 25.2 600.2167 24.633335 600.65 24.2 C 601.38336 23.466667 598.4 20.9 591.7 16.5 C 626.9667 12.9 656.06665 14.3 679.0 20.7 L 685.2 27.6 L 644.5 30.65 Z"/>
				<path fill="#FFF3C2" stroke-linecap="round" stroke-linejoin="round" d="M 637.0 51.0 C 645.86664 52.366665 652.7166 53.766666 657.55 55.2 L 652.15 65.15 L 623.05 63.6 L 644.5 70.5 L 624.4 69.15 C 607.2 69.01666 589.1167 70.816666 570.15 74.55 C 568.88336 73.950005 566.80005 73.36667 563.9 72.8 L 559.6 71.8 C 559.3 71.566666 562.85 70.01666 570.25 67.15 C 578.01666 64.11667 582.11664 62.383335 582.55 61.95 C 582.85 61.65 580.98334 60.533333 576.95 58.6 C 572.8833 56.633335 571.4833 55.01667 572.75 53.75 C 574.2833 51.716667 576.7 49.566666 580.0 47.3 C 600.23334 47.033333 619.23334 48.266666 637.0 51.0 Z"/>
				<path fill="#FFF3C2" stroke-linecap="round" stroke-linejoin="round" d="M 573.7 81.0 C 589.8 80.333336 605.98334 79.9 622.25 79.7 L 616.15 95.05 L 601.55 92.75 L 611.55 98.15 C 604.5833 97.78333 595.8 97.86667 585.2 98.4 C 564.0333 99.46667 544.39996 102.23333 526.3 106.7 L 523.85 104.75 C 522.85 103.950005 522.73334 103.36667 523.5 103.0 C 524.10004 102.700005 529.8167 101.583336 540.65 99.65 C 551.11664 97.78333 556.3333 96.7 556.3 96.4 C 556.3 96.13333 554.9167 95.316666 552.15 93.95 C 549.38336 92.61666 548.0333 91.799995 548.1 91.5 C 548.13336 91.299995 551.45 89.99999 558.05 87.6 C 565.5833 84.9 570.8 82.700005 573.7 81.0 Z"/>
				<path fill="#FFF3C2" stroke-linecap="round" stroke-linejoin="round" d="M 529.7 124.3 C 535.9 122.53333 539.30005 121.45 539.9 121.05 C 540.36664 120.75 539.3 119.53333 536.7 117.4 C 533.26666 114.6 531.1667 112.73333 530.4 111.8 C 539.0 111.6 548.3333 111.683334 558.4 112.05 L 570.9 112.7 L 560.15 127.25 L 518.3 130.65 C 516.76666 130.01666 515.75 129.51666 515.25 129.15 C 514.4167 128.51666 514.98334 128.0 516.95 127.6 C 519.4167 127.1 523.6667 126.0 529.7 124.3 Z"/>
				<path fill="#0D131A" stroke-linecap="round" stroke-linejoin="round" d="M 576.1 16.4 C 616.9667 10.5 650.4667 11.183333 676.6 18.45 L 678.55 18.9 C 679.9166 19.266666 680.74994 19.55 681.05 19.75 C 686.4166 25.316668 688.7833 28.333334 688.15 28.8 L 671.95 29.95 L 655.85 31.05 L 664.9 32.6 C 671.5333 33.5 675.1 34.11667 675.6 34.45 C 675.89996 34.65 673.75 38.683334 669.15 46.55 C 668.7167 47.283333 667.76666 47.666668 666.3 47.7 C 664.5333 47.766666 661.3833 47.38333 656.85 46.55 C 643.4167 44.15 631.7667 42.800003 621.9 42.5 C 601.26666 41.899998 577.1333 43.999996 549.5 48.8 C 579.60004 45.1 607.0334 44.75 631.8 47.75 C 644.26666 49.283333 653.8333 51.283333 660.5 53.75 C 660.73334 54.05 659.65 56.216667 657.25 60.25 C 654.85004 64.28333 653.43335 66.4 653.0 66.6 L 642.2 65.6 L 629.55 64.65 C 628.48334 64.816666 630.0333 65.35 634.2 66.25 C 639.73334 67.450005 643.31665 68.41667 644.95 69.15 C 647.15 70.15 647.9 70.933334 647.2 71.5 C 646.56665 72.0 645.55 72.13333 644.15 71.9 L 616.55 70.95 C 594.25 71.683334 570.25 75.16667 544.55 81.4 L 587.9 77.7 C 604.36664 76.7 616.39996 76.85 624.0 78.15 C 626.3 78.55 625.8333 81.75 622.6 87.75 L 617.05 96.65 C 612.75 95.41667 609.56665 94.65 607.5 94.35 C 608.2 94.71667 609.93335 95.933334 612.7 98.0 L 611.45 99.55 L 573.7 101.15 C 546.5 103.183334 527.05 106.53333 515.35 111.2 L 546.95 110.15 L 569.3 110.8 C 571.43335 111.03333 572.60004 111.4 572.8 111.9 C 573.0 112.333336 572.51666 113.3 571.35 114.8 L 560.9 128.6 L 531.9 130.55 L 491.75 133.6 L 522.55 139.4 C 536.4166 142.03334 543.3333 143.6 543.3 144.1 C 543.23334 144.7 540.85004 147.06667 536.15 151.2 C 531.45 155.36667 528.63336 157.58334 527.7 157.85 L 457.1 155.4 L 468.9 157.6 C 478.23334 159.63333 486.55002 162.09999 493.85 165.0 C 495.48334 165.66667 496.36667 166.23334 496.5 166.7 C 496.63333 167.23334 495.63333 167.6 493.5 167.8 L 488.55 168.1 L 483.6 168.25 C 484.56665 168.65001 487.91666 169.73334 493.65 171.5 C 497.65 172.73334 499.06665 173.46667 497.9 173.7 L 488.0 176.4 L 480.3 178.6 L 479.9 178.4 C 475.46667 176.73332 470.13333 175.11665 463.9 173.55 C 451.5 170.45 440.58334 169.08333 431.15 169.45 L 450.4 175.0 C 457.5 177.06667 464.85 179.61667 472.45 182.65 C 473.68332 183.15 474.34998 183.51666 474.45 183.75 C 474.58334 184.15001 474.01666 184.76668 472.75 185.6 C 471.08334 186.66667 468.2 188.65001 464.1 191.55 L 456.6 197.05 C 456.03333 197.61667 455.41666 197.81667 454.75 197.65 C 454.21667 197.55 453.18335 197.06667 451.65 196.2 C 447.28333 193.0 442.96667 190.1 438.7 187.5 C 430.43332 182.46666 423.71664 179.9 418.55 179.8 C 415.91666 179.76666 414.38333 179.43333 413.95 178.8 C 413.51666 178.16667 415.26666 177.90001 419.2 178.0 C 425.53336 178.16667 433.21667 181.0 442.25 186.5 C 446.71667 189.23334 450.78336 191.88333 454.45 194.45 L 461.75 189.8 C 466.08334 186.8 468.45 185.01666 468.85 184.45 C 469.18335 183.95 462.40002 181.46666 448.5 177.0 C 435.66666 172.90001 427.65 170.46667 424.45 169.7 L 419.75 168.55 C 419.11667 168.18333 420.35 167.75 423.45 167.25 C 433.18332 165.68333 445.46664 166.61667 460.3 170.05 C 467.69998 171.78333 474.43332 173.63333 480.5 175.6 L 485.5 174.55 L 490.2 173.2 C 490.73334 172.96667 489.41666 172.23334 486.25 171.0 C 483.31668 169.86667 480.18335 168.83333 476.85 167.9 C 473.85 167.06667 472.43335 166.51666 472.6 166.25 L 477.3 165.7 L 487.45 165.35 C 485.65 164.15001 481.86667 162.78334 476.1 161.25 C 469.3 159.48334 460.9 157.81667 450.9 156.25 C 447.93335 155.78334 446.6667 155.26668 447.1 154.7 C 447.46667 154.2 448.86667 153.78333 451.3 153.45 C 456.93332 152.68333 471.05 152.81667 493.65 153.85 L 526.65 154.95 C 527.7833 154.48334 529.7833 152.96667 532.65 150.4 C 535.4167 147.93333 536.9167 146.36667 537.15 145.7 C 537.48334 144.9 520.93335 141.26666 487.5 134.8 C 484.66666 134.33334 483.11667 133.95001 482.85 133.65 C 482.45 133.11667 484.43335 132.5 488.8 131.8 L 527.45 128.55 L 559.4 125.9 C 559.9 125.5 561.4667 123.5 564.1 119.9 C 566.8 116.26666 568.1667 114.283325 568.2 113.95 L 543.3 112.75 C 525.1666 112.549995 511.49997 113.283325 502.3 114.95 L 500.2 114.55 C 499.2 114.15 499.6 113.6 501.4 112.9 C 530.0333 101.63333 564.7833 96.183334 605.65 96.55 L 600.9 94.0 L 596.5 92.85 C 594.6667 92.01666 596.43335 91.51666 601.8 91.35 C 604.1 91.28333 606.8 91.583336 609.9 92.25 L 615.25 93.5 L 619.0 86.95 C 620.9667 83.316666 621.35004 81.38333 620.15 81.15 C 612.95 79.71667 598.26666 79.7 576.1 81.1 C 555.6 82.4 541.1666 83.933334 532.8 85.7 C 530.0 86.299995 528.55 86.21666 528.45 85.45 C 528.35 84.683334 529.55 83.86667 532.05 83.0 C 553.4166 75.700005 576.9666 71.03334 602.7 69.0 L 625.35 67.95 L 633.25 67.65 C 632.61664 67.21667 631.19995 66.71667 629.0 66.15 L 622.6 64.95 C 612.8333 63.68333 613.0 62.766666 623.1 62.2 L 642.55 63.15 L 651.75 64.15 C 652.25 63.783333 653.0 62.533333 654.0 60.4 C 655.0 58.233334 655.4 56.933334 655.2 56.5 C 655.0 56.066666 652.7167 55.283333 648.35 54.15 C 642.55 52.65 635.6333 51.416668 627.6 50.45 C 603.0 47.55 573.60004 47.816666 539.4 51.25 C 536.76666 51.516666 535.39996 51.3 535.3 50.6 C 535.2 49.93333 536.4667 49.216663 539.1 48.45 C 566.8 40.316666 596.31665 37.35 627.65 39.55 C 643.3167 40.65 656.3334 42.5 666.7 45.1 C 667.1333 44.866665 668.4666 41.949997 670.7 36.35 C 670.8 35.95 667.05 35.183334 659.45 34.05 L 644.25 32.05 L 639.4 31.6 C 639.13336 31.433334 641.10004 30.983334 645.3 30.25 L 667.25 27.9 L 682.2 26.4 C 682.26666 26.2 681.7833 25.5 680.75 24.3 C 679.68335 23.1 678.85004 22.316668 678.25 21.95 C 647.68335 13.55 607.25 13.833333 556.95 22.8 C 541.01666 25.666666 524.9667 29.25 508.8 33.55 C 500.4 35.783333 493.38333 37.816666 487.75 39.65 C 485.85 40.283333 484.76666 40.38333 484.5 39.95 C 484.23334 39.483334 485.0 38.666668 486.8 37.5 L 494.35 33.0 C 497.51666 31.133333 499.05 30.066666 498.95 29.8 C 498.85 29.466665 496.16666 29.999998 490.9 31.4 L 480.75 34.35 C 477.51666 35.383335 475.38333 35.966667 474.35 36.1 C 471.95 36.43333 473.78336 34.949997 479.85 31.65 C 483.05 29.883333 487.26666 27.816668 492.5 25.45 C 499.96667 22.050001 506.08334 19.683334 510.85 18.35 C 511.45 18.183334 511.36667 17.366667 510.6 15.9 C 509.86667 14.433333 509.13333 13.75 508.4 13.85 C 489.73334 16.216667 462.56668 27.516668 426.9 47.75 C 395.73334 65.41667 367.6 84.11667 342.5 103.85 C 329.93332 113.71667 323.9 122.583336 324.4 130.45 C 324.66666 134.78333 328.56665 140.25 336.1 146.85 C 341.4 151.48334 346.6 155.28334 351.7 158.25 C 354.36667 159.78334 355.33334 160.76668 354.6 161.2 C 353.93335 161.63333 352.5 161.46666 350.3 160.7 C 345.69998 159.06667 339.96664 155.75 333.1 150.75 C 323.46667 143.71666 318.46667 137.21666 318.1 131.25 C 317.8 126.88333 319.96664 121.799995 324.6 116.0 C 328.76666 110.76667 334.48334 105.46667 341.75 100.1 C 372.65 77.36667 398.3 60.033333 418.7 48.1 C 452.06668 28.566666 481.98334 16.166666 508.45 10.9 C 510.15 10.566667 511.71667 11.95 513.15 15.05 C 514.55 18.150002 514.94995 19.783335 514.35 19.95 C 509.88333 21.116667 504.73334 22.9 498.9 25.3 L 488.8 29.65 C 487.6 30.15 490.11667 29.516666 496.35 27.75 C 503.38333 25.716667 507.16666 24.7 507.7 24.7 C 508.43332 24.666666 508.8833 25.0 509.05 25.7 C 509.25 26.333334 509.15 26.866667 508.75 27.3 L 505.1 29.55 L 497.95 33.65 C 526.2167 25.616667 552.26666 19.866665 576.1 16.4 Z"/>
				<path fill="#0D131A" stroke-linecap="round" stroke-linejoin="round" d="M 388.3 83.2 C 397.6 76.6 407.63333 70.2 418.4 64.0 C 427.4 58.866665 434.35 55.266666 439.25 53.2 C 446.41666 50.2 449.43332 49.3 448.3 50.5 C 447.43332 51.399998 444.78333 53.116665 440.35 55.65 C 424.25 64.65 408.95 74.21667 394.45 84.35 C 367.01666 103.58333 353.11667 118.11666 352.75 127.95 C 352.65 130.41666 353.65 132.99998 355.75 135.7 C 357.51666 137.96667 359.58334 139.78334 361.95 141.15 C 364.58334 142.68333 366.1 143.7 366.5 144.2 C 367.06668 144.9 365.38336 144.5 361.45 143.0 C 352.71667 139.63333 348.48334 134.66667 348.75 128.1 C 349.15 116.6 362.3333 101.63333 388.3 83.2 Z"/>
				<path fill="#0D131A" stroke-linecap="round" stroke-linejoin="round" d="M 519.65 68.15 L 514.7 66.8 L 513.05 66.3 C 512.31665 65.9 512.89996 65.48334 514.8 65.05 L 523.2 63.75 L 528.85 62.85 C 529.31665 62.616665 530.89996 59.216667 533.6 52.65 C 536.3333 46.083332 537.56665 42.68333 537.3 42.45 C 536.93335 42.11667 528.9 43.483334 513.2 46.55 C 496.6 49.783333 485.11667 52.416668 478.75 54.45 C 472.21667 56.55 469.5 57.13333 470.6 56.2 C 471.6667 55.266666 474.18335 54.13333 478.15 52.8 C 489.11667 49.166664 502.65 45.85 518.75 42.85 C 533.18335 40.149998 540.73334 39.116665 541.4 39.75 C 541.86664 40.216667 540.3333 44.3 536.8 52.0 C 533.3 59.7 531.06665 63.833336 530.1 64.4 C 529.3333 64.86667 527.7833 65.23334 525.45 65.5 L 519.15 66.15 L 523.6 67.35 L 524.7 67.95 C 525.1667 68.38333 524.7833 68.76666 523.55 69.1 L 517.9 70.4 L 511.3 71.85 L 525.4 69.8 L 535.0 68.65 C 535.8333 68.71667 534.94995 70.95 532.35 75.35 C 529.81665 79.71667 528.0333 82.200005 527.0 82.8 L 513.85 86.45 L 497.95 90.4 L 504.9 91.75 L 511.2 92.9 C 513.8667 93.46667 513.43335 94.333336 509.9 95.5 L 499.55 97.3 L 483.0 99.8 L 497.7 99.75 L 506.35 100.15 C 506.81665 100.51666 505.81665 103.36666 503.35 108.7 C 500.95 113.96667 499.38333 116.86667 498.65 117.4 L 486.65 118.05 L 470.2 118.05 L 482.0 121.6 L 490.5 124.2 C 491.63333 124.7 488.43332 129.06667 480.9 137.3 C 480.5 137.8 475.63333 138.25 466.3 138.65 L 447.3 139.4 L 455.0 141.7 C 457.96667 142.56667 459.58334 143.26666 459.85 143.8 C 460.18335 144.4 458.6 146.29999 455.1 149.5 C 451.7 152.59999 449.65002 154.23332 448.95 154.4 L 438.25 153.05 L 424.25 150.9 L 432.15 155.9 C 435.41666 158.0 436.98334 159.21667 436.85 159.55 C 436.58334 160.18333 434.83334 161.56667 431.6 163.7 C 428.1 166.0 425.76666 166.95 424.6 166.55 C 421.06665 165.38333 416.8333 164.36667 411.9 163.5 C 403.8333 162.09999 397.03333 161.83333 391.5 162.7 C 388.80002 163.13333 387.00003 163.13333 386.1 162.7 C 385.23334 162.23334 386.98334 161.65001 391.35 160.95 C 395.4167 160.28333 401.83334 160.63333 410.6 162.0 C 416.13333 162.86667 420.69998 163.75 424.3 164.65 C 425.33334 164.91667 427.21667 164.18333 429.95 162.45 C 432.65 160.78333 433.8333 159.76666 433.5 159.4 L 428.0 155.4 L 420.1 150.25 C 418.56665 149.34999 418.21664 148.79999 419.05 148.6 L 420.75 148.6 L 447.95 152.4 L 456.5 144.5 L 442.55 139.6 L 440.35 139.05 C 439.4167 138.65 440.23334 138.26666 442.8 137.9 L 479.95 135.6 L 486.7 125.45 L 464.8 118.15 L 461.75 117.3 C 460.41666 116.700005 461.51666 116.4 465.05 116.4 C 470.71664 116.433334 481.51666 116.183334 497.45 115.65 L 502.9 102.05 L 473.5 101.3 L 469.95 101.15 C 468.35 100.88333 469.5 100.35 473.4 99.55 C 479.6 98.28333 490.61667 96.48333 506.45 94.15 L 494.05 91.3 L 491.75 91.15 C 490.71667 90.88333 491.46667 90.36666 494.0 89.6 L 525.85 81.25 L 531.7 70.9 L 498.05 75.25 C 494.68332 75.65 494.3333 75.333336 497.0 74.3 C 500.30002 73.03333 507.85004 70.98333 519.65 68.15 Z"/>
			</g>
		</g>
	</g>
</svg>
