<svg xmlns="http://www.w3.org/2000/svg" version="1" width="297" height="294" viewBox="-0.1 0.3 296.75 293.65"><path fill="#dbdcdc" d="M239 248q3 3 4 7l-1 7q-2 3-6 5-4 1-9-1l12-18"/><path fill="#b4b4b5" d="M239 247q2 2 2 6l-2 8q-3 4-6 5h-7q-2-2-2-6l2-8q3-4 6-5 4-2 7 0"/><path fill="#88bda5" d="M213 181q18 11 22 32 5 20-6 38-12 18-32 23-21 4-39-7t-23-32q-4-21 7-39 12-17 32-22 21-5 39 7"/><path fill="#77a48f" d="M186 173q14 0 27 8 18 11 22 32 5 20-6 38-11 17-29 22t-36-3q14 2 24-2 14-5 21-19 5-9 5-19 1-12-3-23-12-25-51-27 12-7 26-7M139 245l6-5q3-2 5-1l1 10q1 9 4 16-11-8-16-20"/><path fill="#87b1d0" d="M161 292v-24l4 3 12 4v17h-16"/><path fill="#759ab5" d="M161 272v-4l4 3 12 4v5q-10-3-16-8"/><path fill="#00a4e3" d="M161 292v-12l16 1v11h-16"/><path fill="#87b1d0" d="M194 293v-18l3-1 6-2 8-4 1 13v12h-18"/><path fill="#759ab5" d="M195 280v-5l2-1 6-1q6-2 8-5l1 13h-9l-8-1"/><path fill="#e50020" d="M195 281h17v12h-18l1-12"/><path fill="#c60019" d="M202 285q-5 0-7-2v-2h17v4h-10"/><path fill="#dbdcdc" d="M35 182q-4-2-6-5l-1-7 3-7 13 18q-5 2-9 1"/><path fill="#b4b4b5" d="M32 176l-2-8q0-4 2-6h7q3 1 6 5l2 8q0 4-2 6-3 2-7 0-3-1-6-5"/><path fill="#dbdcdc" d="M36 171q-2-3-1-4v-2h2l2-1 6 8-4 3q-4-1-5-4"/><path fill="#b4b4b5" d="M36 171q-2-2-1-4v-1q2 3 9 5l1 1-4 3q-3-1-5-4"/><path fill="#87b1d0" d="M113 184l1 1 3 6 2 24 1 21-7 8-15-3-2-27-1-8-3-4q-1-2-3-1l-3 2v8l2 21-7 6-15-4-4-34q0-11 2-13l49-3"/><path fill="#759ab5" d="M63 191l1-4 49-3 1 1 3 6 2 24 1 21-7 8-1-16-1-18-16-3-3-5q-1-2-3-1l-3 2v8l2 21-7 6-1-15-1-19q-7-2-16-13"/><path fill="#e50020" d="M86 217l2 15-7 6-15-4-2-15 16 3 6-5"/><path fill="#c60019" d="M86 217l2 15-7 6-1-16 6-5"/><path fill="#00a4e3" d="M112 228l8-8v16l-7 8-15-3-2-16 16 3"/><path fill="#008fc5" d="M120 236l-7 8-1-16 8-8v16"/><path fill="#87b1d0" d="M37 80q16 11 18 14l3 3-23 45-4-1-7-4-13-13-10-9 2-15 10-2q22 18 24 18h2v-2q-1-3-5-6L18 95 6 86l3-15 12-1 16 10"/><path fill="#759ab5" d="M9 71l12-1 16 10q16 11 18 14l3 3-3 3-5 4q0-2-3-5l-5-4L9 71M38 122l-3 2-5-1-13-11-14-12 10-2q22 18 24 18h3l-2 6"/><path fill="#00a4e3" d="M22 80l-3 16L6 86l3-15 12-1 13 8-8 1-4 1"/><path fill="#008fc5" d="M21 70l4 2 9 6-12 2-7-5-5-4 11-1"/><path fill="#e50020" d="M15 110l-3 16-11-11 2-15 10-2 11 9-9 3"/><path fill="#c60019" d="M24 107l-9 3-6-5-6-5 10-2 11 9"/><path fill="#88bda5" d="M49 105q15-15 36-15 22 0 37 15t15 36q0 21-15 36t-37 15q-21 0-36-15t-15-36q0-21 15-36"/><path fill="#77a48f" d="M84 90h1q22 0 37 15t15 36q0 21-15 36t-37 15l-8-1q3-1 7-6 12-7 18-20 6-11 5-25 0-14-6-27-7-14-17-23"/><path fill="#fff" d="M81 148q4 6 3 14 0 7-6 11-6 5-13 3-8-1-13-8-4-6-3-14 0-7 6-12 6-4 13-2 8 1 13 8"/><path fill="#88bda5" d="M215 91q16 16 16 38t-16 37q-15 16-37 16t-38-16q-15-15-15-37t15-38q16-15 38-15t37 15"/><path fill="#77a48f" d="M136 141q2 1 2 3l-1 5q-2 8 1 14l-8-10-4-11 6-2 4 1M180 84q-8 4-17 5l-22 1q8-7 17-11 9-3 20-3 22 0 37 15 16 16 16 38 0 21-14 36t-35 17l3-9q3-6 5-6 7 0 13-10 7-9 8-22 1-15-5-27-8-15-26-24"/><path fill="#fff" d="M186 230q8-1 14 4 6 4 6 12 1 7-4 12-6 6-14 6-8 1-14-4t-6-12q-1-7 5-13 5-5 13-5"/><path fill="#87b1d0" d="M173 53q3 6 2 12-2 8-7 12-7 6-14 9l-16 5q-6 1-13-3-8-4-11-12l-11-25-8-21 15-10 9 5 17 36q3 7 7 7 3-2 3-5l-1-8-11-24-9-20 16-10 12 9 20 43"/><path fill="#759ab5" d="M118 39l-9-19 10 5 17 36q3 6 6 7l-3 2q-3 1-5-1l-4-5-12-25M173 53q3 6 2 12-2 8-7 12l-3 2-2 1 5-8q2-6 0-13l-11-26-16-32 12 9 20 43"/><path fill="#e50020" d="M149 19l-16 9-8-17 16-10 12 9 8 17-12-8"/><path fill="#c60019" d="M161 27l-11-8-9-18 12 9 8 17"/><path fill="#00a4e3" d="M116 37l-15 9-6-16 15-10 9 5 7 16-10-4"/><path fill="#008fc5" d="M117 37l-4-9-3-8 9 5 7 16-9-4"/><path fill="#87b1d0" d="M271 55l9 7 5 17-31 15-7 4-6 5-1 5q1 3 4 4l38-18 9 5 5 19-38 20-11 4h-8q-7 0-17-7-4-3-8-14-3-11-3-17 0-7 3-14 4-6 10-10l24-13 23-12"/><path fill="#759ab5" d="M244 89l32-17 9 7-31 15-7 4-6 5-1 5q1 3 4 4-2 2-5 2t-5-3q-4-7-1-12t11-10M239 142q-7 0-17-7 5 3 11 2 7 0 14-3l40-21 8 5-37 20-11 4h-8"/><path fill="#e50020" d="M260 80l-5-16 16-9 9 7 5 17-16 7-9-6"/><path fill="#c60019" d="M269 86l-9-5 16-9-4-17 8 7 5 17-16 7"/><path fill="#00a4e3" d="M291 99l5 19-16 9-10-5-5-20 17-8 9 5"/><path fill="#87b1d0" d="M214 198q0-7 4-12 3-6 8-9l21-10 21-10 6 5 4 15-38 17q-2 1-2 5 0 3 3 4l32-16 7 5 3 16-19 10q-20 9-25 9l-7-1q-4-1-8-5-5-3-8-10l-2-13"/><path fill="#759ab5" d="M257 178l13-6 8 5-38 17q-2 1-2 4t3 5l-7 2-2-2-1-4q0-7 6-11l20-10M259 213l16-9 9 4-19 10q-21 9-26 9l-7-1q-4-1-8-5l3 1h9l23-9"/><path fill="#e50020" d="M258 195l15-8 7 5 3 16-14 7-8-3-3-17"/><path fill="#c60019" d="M273 187l7 5 3 16-13 8-9-4 15-7-3-18"/><path fill="#00a4e3" d="M256 179l-3-15 15-7 6 5 4 15-14 6-8-4"/><path fill="#008fc5" d="M291 99l5 19-16 9-10-5 17-9-5-19 9 5M278 177l-14 6-8-4 14-7-2-15 7 5 3 15"/><path fill="#dbdcdc" d="M190 167v3q1 3-1 4v4l-13-4 1-3q-1-1 1-2l1-2 1-2 4-1q4 0 6 3"/><path fill="#b4b4b5" d="M190 170v2l-1 2v4l-8-2 3-2v-4l3-1-2-2v-1-2q4 0 5 3v3"/><path fill="#dbdcdc" d="M169 181q1-4 4-6l9-1 7 3q4 3 3 7 0 3-4 6l-5 3-4-1h-3q-4-2-6-5t-1-6"/><path fill="#b4b4b5" d="M175 192l-3-2q6 0 11-3 4-4 6-10l2 3q2 2 1 4 0 3-3 6t-7 3l-1-1-3-1-3 1"/><path fill="#888" d="M177 181v-2l6 1v7l2-1 5-1-1 4-3 1h-4v2h-6v-2l-6-4-1-5 1 1 6 4 1-5"/><path fill="#dbdcdc" d="M148 246l-1 3-11-6 1-2 1-2 2-1 1-2h4q4 1 5 4l-1 3-1 3"/><path fill="#b4b4b5" d="M147 237l3 3-1 4v1l-1 1-1 3-3-2-1-3 1-2h2l1-1-1-1v-1l1-2"/><path fill="#dbdcdc" d="M133 244h7q4 1 6 4 3 3 3 7-2 4-5 5-4 2-8 1l-2-2h-2q-3-2-4-5v-6q1-3 5-4"/><path fill="#b4b4b5" d="M149 255l-5 5q-4 2-8 1l-2-2h-2l-2-1q6 1 11-2t4-9q4 3 4 8"/><path fill="#888" d="M146 256l-1 2-1 2h-7l-1 1-2-2h-3l1-2-2-2-3-4 1-3q2 4 5 6l3-6 5 2-2 6h7"/><path fill="#dbdcdc" d="M124 142l3-1q1-3 3-2h4q3 1 4 6v3l-3 2-1 1-2 1-3 1-5-11"/><path fill="#b4b4b5" d="M126 146l2 1h1v-2l-1-1 3-1 3 2v-3l2-1q2 2 2 5l-1 2-2 2q-2 4-3 2l-3 1-3-7"/><path fill="#dbdcdc" d="M112 143q2-3 6-4 4 0 7 3l3 7v8q-1 3-4 5l-7-1q-4-1-6-5v-3l-1-2q-1-5 2-8"/><path fill="#b4b4b5" d="M117 161q-4-1-5-5v-2q8 3 16 0l-1 5-3 3q-4 1-7-1"/><path fill="#888" d="M112 148v-5l2-1 2-1v8l6-2 2 6-7 2 3 4q1 2 3 2l-3 1-2-1-3-3-1-2h-2l-1-3v-1l-1-1 2-1v-2"/><path fill="#dbdcdc" d="M98 178q3 2 4 6l-1 1-2 2v1l-1 2-3 2-8-9 2-2 1-2h2l2-2 4 1"/><path fill="#b4b4b5" d="M96 178l4 1 2 5-1 1-2 2v1l-1 2-3 2-6-6 1-1 1-1 2-2h3q1-1-1-2l1-2"/><path fill="#dbdcdc" d="M77 197l-1-6 1-6q2-3 6-3l7 3q4 2 5 6 2 4 1 7-3 4-6 4h-8l-1-3q-1-2-4-2"/><path fill="#b4b4b5" d="M78 198l-2-3q10 6 19-5 2 4 1 8-3 4-6 4-4 1-8-1l-1-3h-3"/><path fill="#888" d="M79 197h-1l1-1-3-7 2-4 1 5 2 3 4-5 5 3-4 5q1 2 7 3l-2 2-1 1-5-1-1-2-2 3v-2l-1-1-2-2"/><path fill="#b4b4b5" d="M188 68h1l16 8-1 2v3q0 2-2 2l-2 4q-5 3-10 0t-6-7l1-2q-1-5 2-5v-2-2l1-1"/><path fill="#dbdcdc" d="M183 60l1-4 5-4q8-5 17-2-1 2 3 4 3 2 5 0 3 2 4 7 2 7 0 13-3 2-9 2-5 1-10-1-13-4-16-15"/><path fill="#b4b4b5" d="M214 54q3 2 4 7 2 7 0 13-4 2-11 2-6 0-13-3 8-1 13-6 6-6 7-13"/><path fill="#888" d="M201 67l-7-4q5-8 8-10-3-2-8-1t-8 4v-1l1-1 8-5q5-1 11 1-1 2 3 4 3 2 5 0l3 4 2 8-2 1-2 1-2-6-4-6-8 11"/><path fill="#c8ded2" d="M58 123q-3 3-6 3-4 0-4-3-1-3 1-8 1-4 5-7 3-3 7-3 3 0 4 3l-1 7q-2 5-6 8M145 114q-4 3-7 3t-4-3q-1-3 1-7t6-7q3-3 6-3t4 3q1 3-1 7l-5 7M149 203q4-4 8-5t6 1q3 3 2 8 0 4-4 8-3 4-7 5t-7-2q-2-2-2-7l4-8"/><path fill="#fff" d="M183 121q6 8 5 19-1 10-9 15-8 6-17 4-10-2-16-11-6-8-5-19 1-10 9-15 7-6 17-4t16 11"/><path fill="#0d131a" d="M162 269v22h14v-17h3l-1 18-1 1h-16-1v-25l2 1M195 292h16v-24h2v25l-2 1h-17v-1l-1-1v-18l2-1v19"/><path fill="#0d131a" d="M161 279l16 1v1l-16-1v-1M195 280h16v1h-16v-1M239 248v-1q4 3 5 8l-2 8q-2 4-6 5t-9-1v-2q4 2 8 1t6-4q2-3 1-7 0-4-3-7"/><path fill="#0d131a" d="M232 246h2q3-1 5 1 3 2 3 6t-3 8q-3 6-7 6-4 1-6-1l-2-2-1-4 1-2 1 4q0 2 2 3l4 1 4-2 3-4q3-3 3-7 0-3-3-5l-4-1-3 1 1-2"/><path fill="#0d131a" d="M232 247l2 2 2 1 1 3-1 4q-2 3-6 3-1 1-2-1l-2-1-2-1v-1l2 1 4 2q3 0 5-3l1-4-1-1-1-1-2-1-2-2 1-1 1 1"/><path fill="#0d131a" d="M236 253l-4 3-7 2v-1l7-2 4-3v1M234 250l-2 2-5 3 1-2 4-2 1-1h1M29 178l-2-8q1-5 5-8v1q-3 3-3 7-1 4 1 7t6 4q4 1 8-1v2q-4 2-9 1l-6-5"/><path fill="#0d131a" d="M32 162l2-1h5l1 2-3-1-4 1q-3 2-3 5 0 4 3 7l3 4 4 2 4-1q2-1 2-3l1-4 1 2-1 4-2 2q-2 2-6 1l-4-2-4-4q-2-3-2-8 0-4 3-6"/><path fill="#0d131a" d="M40 163q-1 2-3 2t-2 2l1 4q2 3 5 3l3-2h2l-1 1-2 2h-2q-4 0-6-3l-1-4 1-3 2-1 2-1v-1l1 1"/><path fill="#0d131a" d="M35 168v-1l4 3 7 2v1l-7-2-4-3M37 165h1l1 1 4 2 1 2-5-3-2-2M64 187l1 1q-2 1-2 9v3l3 33 15 4 6-5-1-6-1-20v-3h3-1v11l1 12v6l-3 4-3 3-16-4-1-1v-1l-3-32q-1-12 2-14M116 191l-3-5-1-1 2-2 1 1 3 6q2 6 3 45v2l-3 3-4 5h-1l-8-2-7-2h-1v-1l-2-26-1-8-2-4h-1l2-1q2 2 2 5l2 8 1 26 15 4 6-9q-1-39-3-44"/><path fill="#0d131a" d="M82 238h-1l-1-10-1-20q-1-8 1-10l1 1q-2 2-1 11l1 18 1 10M109 192q2 4 3 13l1 38v1l-3-39q0-9-2-13l-4-4h2l3 4"/><path fill="#0d131a" d="M87 218l-7 5-16-4v-1l16 4 6-5 1 1M120 220l-8 8-16-3 1-1 15 3 8-8v1M23 69l15 11 18 13 3 4-2 2-2-5-18-12-16-11-11 1-3 13 28 22 4 6 1 3v1h-4L12 99l-8 2-2 14 23 21 6 4 4 1v2l-4-1-6-3-14-13-10-10-1-1v-1l2-14 1-1 5-1 4-1h1l1 1 12 9 11 9h1q0-4-4-8L18 96 6 87v-2l3-14v-1l6-1h8"/><path fill="#0d131a" d="M33 123h2q3-1 4-5l1 1-2 3-2 2h-5L6 104l-3-3v-1l3 3 25 20h2M17 76l30 22q4 4 4 6h-1q0-2-4-6L16 76l-6-4v-1l7 5"/><path fill="#0d131a" d="M34 78l-11 2-3 16h-1l3-16 12-3v1M24 107l-9 4-2 15h-1l2-16 10-3M86 88q13 0 24 6t18 16l-1 3q-7-10-18-16t-24-6q-20 0-35 15-15 14-15 35 0 18 12 32 11 14 28 17v2l1 1q-19-4-31-18-12-15-12-34 0-22 16-37 15-16 37-16M96 190q12-2 22-11 10-8 14-20l1 1 1 2q-5 11-15 20-10 8-22 11l-1-3"/><path fill="#0d131a" d="M80 148q-4-6-12-8-7-1-12 3-6 4-7 10l1 8 3 7q2 3 6 5l7 3q6 1 11-3 6-4 7-11l-1-7-3-7m-25-6q6-5 14-3 8 1 13 8 4 7 3 15t-7 12q-6 4-13 3-8-1-13-8t-4-15q1-8 7-12"/><path fill="#0d131a" d="M65 160v1l-1 1-1-1v-2h1l1 1M215 89l-1 2q-5-5-11-8l1-2q6 3 11 8M168 180v3q-12-3-23-10-10-8-16-19l2-2q6 11 15 18 10 8 22 10M229 140l2 1q-3 15-14 26-10 11-25 15l-1-2v-1q14-3 24-14 11-11 14-25M139 91h3q-8 7-12 17-5 10-5 21l2 11-2 1-2-12q0-11 4-21t12-17M185 75v2l-7-1-10 1 3-2 7-1 7 1M187 139q1-9-5-18l-7-7-10-4-8 1-7 3q-7 6-8 16-1 9 4 18l8 7q4 3 9 4l8-1 8-3q7-6 8-16m-20-30q10 2 17 11 6 9 5 19-1 11-10 17-7 5-17 4-10-2-17-11-6-9-5-20 1-10 9-16t18-4"/><path fill="#0d131a" d="M164 136v2h-2l-1-1 1-1h2M141 196q7-11 18-17l2 1q-11 6-18 17-6 10-8 22-1 11 3 22l-2 2q-4-11-3-24 1-12 8-23M214 180l5 4-2 1-5-4-10-4 2-2 10 5M157 269q-6-4-11-10l1-1 1-1q5 6 10 9 9 6 19 7 10 2 19 0 10-2 18-8t14-14q7-12 7-25l3 2q-1 13-8 25-6 8-14 14-9 6-19 9-10 2-21 0-10-2-19-7"/><path fill="#0d131a" d="M200 235l-6-4-8-1q-4 0-7 2-4 2-6 5-5 5-4 11 0 7 5 11l7 4 7 1q8-1 13-6t5-12q-1-7-6-11m-14-7q9 0 15 6 6 5 6 12t-5 13q-6 6-14 6-8 1-14-4t-7-13q0-7 5-13 6-6 14-7"/><path fill="#0d131a" d="M188 249l1 1v1l-1 1-1-1h-1l1-1 1-1M111 22l10 22 11 22q2 3 4 3 3 1 5-1-2 0-3-2l-3-4-16-36-8-4m56 54q4-2 6-6l1-8q0-5-2-9l-20-42-11-9-15 9 10 22 9 22 2 7q0 4-3 7-3 2-8 2-3 0-5-4l-11-23-11-22-13 8 9 23 9 23q4 8 12 12 6 3 12 2 8-1 15-4l14-10m7-24q3 7 2 14t-8 12q-7 6-14 9l-16 5q-6 1-14-3t-11-12l-10-25-9-21v-2l7-4 8-5h2l4 2 4 2 1 1 17 36q2 6 5 6 3-2 3-5l-1-7-11-23-9-20v-1l1-1 15-10h2l11 10h1l20 42"/><path fill="#0d131a" d="M167 58l-13-29-13-28h1l13 28 13 29v1q2 7 1 11-1 7-10 14v-1q8-6 9-13 1-4-1-10v-2M126 41l-8-3-2-1-15 9v-1l15-9 10 4v1"/><path fill="#0d131a" d="M150 18l10 8v1l-10-8-17 9v-1l16-9h1M279 62l-8-6-23 12-23 13q-6 3-10 9-3 7-3 14 0 6 3 17 4 11 7 13 10 7 17 8l7-1 11-4 38-19-5-18-8-5-19 9-19 9q-3-1-4-4l-1-2 1-4q2-3 6-5l7-4 17-9 14-7-5-16m1 0l3 8 2 8v2l-15 7-16 8-7 4-5 5-1 3v2l3 2 37-18h2l4 3 4 3 5 18v2l-16 9-22 11-11 4h-8q-4 0-10-3l-8-5q-4-2-8-14-3-11-3-17 0-8 4-15 3-6 10-10l46-25h2l8 8"/><path fill="#0d131a" d="M277 72v1q-29 14-36 19-5 3-7 7t-1 8q1 4 4 5 3 2 7 0l1 1-5 1h-4q-3-1-5-6v-3q0-4 2-7l7-7q7-5 35-19l-4-16 1-1 5 17M282 94l6 19-1 1-20 11-26 12q-9 2-15 0-4-1-7-5v-1q3 4 7 5 6 2 15-1 5-1 24-11l21-11-5-19h1"/><path fill="#0d131a" d="M261 80l8 6h-1l-9-5-5-18h1l6 17M269 122l-3-10-2-9 1-1 2 8 3 12 10 4-1 1-10-5M276 72l9 7h-1l-8-6v-1M296 118l-1 1-9-5 1-2 9 6M226 178q-4 3-7 8-4 5-4 11v1l2 12q2 8 7 11l8 4 7 1q5 0 23-8l20-10-2-16-7-4-32 16h-1q-2-1-3-5v-1l1-3 2-1 37-17-3-15-6-4-21 10-21 10m14 17l-1 1v3q0 2 2 3l31-15h2l6 4 1 1 2 8 1 7v1l-1 1-19 10q-19 9-25 9l-7-1-9-5q-8-5-9-25 0-6 3-12 3-5 8-8l41-20 2-1 1 1 3 3 3 2 3 14v1l-1 1-16 8-21 9"/><path fill="#0d131a" d="M237 187l33-15-3-15h1l3 15v1q-27 11-33 15l-6 6v7q0 3 2 3 2 1 8-2v1l-6 2h-3l-3-4v-3q0-6 7-11M273 188l3 16v1q-32 16-38 17-7 2-12 1l-6-4h1l6 3 11-1q6-1 37-17l-3-16h1"/><path fill="#0d131a" d="M256 178l1 1 7 4v1l-9-5-2-15h1l2 14M258 195l3 16 9 4-1 1-9-4q-3-15-2-17M277 176v1l-7-5h1l6 4M276 204l8 3-1 1-8-3 1-1M141 236l4-1q4 1 6 5l-2 3v3h-1l-1 3h-1l2-4h1v-2l1-3q-2-3-5-3h-3l-2 1-2 2h1l-2 3h-1l1-2v-2l2-1 1-1 1-1"/><path fill="#0d131a" d="M138 239l1-1h4l4 1 2 4q0 2 0 0l-3-3-4-1h-4"/><path fill="#0d131a" d="M142 240l4 2q2 1 2 4v1l-1-2-2-3-4-1h-3v-1h4"/><path fill="#0d131a" d="M144 244l2 2 1 3-1-1-2-3-4-2h-5l4-1 5 2"/><path fill="#0d131a" d="M139 243q4 1 7 4 4 4 3 8t-5 6q-4 2-8 1v-1q4 1 7-1 4-2 5-5v-1q0-3-3-6t-6-3h-6q-3 0-5 3-1 4 1 7l3 4h-1l-3-3q-2-4-1-8 1-3 5-4l7-1"/><path fill="#0d131a" d="M144 259l1-2h-6l-1-1 2-6-4-1-1 3-1 2-1 1-5-5v2l4 5v2h3l1 1 1-1h7m-2-3h4l-1 4h-7l-1 1-1 1-1-1-1-1-1-1-1 1-1-1 1-2q-4-2-5-6l1-3 1 1 1 2 3 3 2-6h1l5 2-2 6h3M191 167l-1 3 1 4h-1v4l-2-1 1-5h1l-1-2 1-3q-2-2-6-2l-4 1-1 2-1 1v1l-1 4h-1l1-2-1-2 2-2 1-2v-1l5-2q4 0 7 4"/><path fill="#0d131a" d="M186 168h-7l-2 1 1-1 4-2 4 1q4 1 4 3v1l-4-3"/><path fill="#0d131a" d="M185 171l-4-1-4 1 1-1 3-1 5 1 4 3-1 2-1-2q-1-2-3-2"/><path fill="#0d131a" d="M175 174l4-2 6 1 3 1 1 3-1-1-3-2-5-1-3 1h-2"/><path fill="#0d131a" d="M179 175l-6 1q-3 2-3 5-1 4 2 7 2 3 5 4h-1l-3-1-2-2q-3-4-3-8 1-4 4-6t7-2q5 0 9 3 4 2 5 7 0 4-3 7t-8 3h-1v-1q4 0 7-3 3-2 4-6v-1q-1-3-5-6l-8-1"/><path fill="#0d131a" d="M178 180l-1 3v3l-1 1-6-4v2q1 2 6 4v2h3l2 1v-2h1l4-1 3-1v-2l-7 1v-1l1-6h-5m-1-1h7l-1 7h3l4-2 1 1-1 4-8 2v2h-1l-4-1h-2v-2l-3-2-3-4 1-3v1l2 1 4 2 1-6M99 178q4 3 3 6l-1 2-1 1-1 3h-1l-2 2-1-1 3-3h1v-2l2-2q0-3-3-5l-4-1-2 1-2 1v1l-2 2h-1l1-2 1-2h2l3-2q2-1 5 1"/><path fill="#0d131a" d="M98 182q2 2 2 5h-1l-1-4-3-3-4-1h-1l2-1 3 1 3 3"/><path fill="#0d131a" d="M97 184q2 3 1 5l-1 1v-3l-1-2-4-3-3-1 1-1 3 1 4 3"/><path fill="#0d131a" d="M90 182l5 4 1 3v3l-1-1q1-2-1-4l-4-3-2-1-2-1h4"/><path fill="#0d131a" d="M78 185q-2 4-1 8l2 4-2 1-2-5q-1-5 2-8 2-3 5-3l8 2q4 2 6 6t0 9q-2 3-6 4t-8-1v-2q3 3 7 2t6-4q1-4-1-8l-5-5-6-2q-3 0-5 2"/><path fill="#0d131a" d="M79 198h-1-1l1-1v-1l-1-3-1-5 2-3 1 3 2 4 4-5h1l4 4-4 6 3 1h4v1l-2 3h-1l-6-2-1 1-1 1-1-1v-2l-1-1h-1m-2-11v2l1 4 1 2v2h1l2 2v1l1-1h1l4 2h2l2-2q-4 0-6-2v-1l3-5-4-3-2 3-2 2q0 1 0 0l-4-6M131 140h-2l-5 2v-1l3-1v-1h4l3-1q4 2 4 7v4l-3 2-1 2h-3l-2 1v-1l3-2h1l2-2 2-1v-4q0-3-3-5l-3 1"/><path fill="#0d131a" d="M134 142l2 5-1 3-1 2v-2l1-3-1-4-4-3v-1h1q2 0 3 3"/><path fill="#0d131a" d="M132 143l1 5v3l-1 1v-4l-1-4-2-2-2-1 1-1q2 0 4 3"/><path fill="#0d131a" d="M128 145q-1-3-3-3v-1l2 1 2 2 2 7-2 4v-3-3l-1-4"/><path fill="#0d131a" d="M119 139h-1q-4 1-6 5-2 3-2 7h-1q0-5 2-8 2-4 7-5 4 0 8 4 3 4 3 8 1 5-1 8-1 3-5 4t-8-1l-4-4v-1l1-1q1 3 4 5t7 1q3-1 4-4l1-6-3-8-6-4"/><path fill="#0d131a" d="M116 142l-3 1-1 3v5h-1l1 2v3h2l2 2 3 3h2l-4-6 3-1 3-1-1-5-6 2-1-1q-1-3 1-7m-5 3l1-3 4-1h1v1l-1 3v4l4-1 3-1 1 3v4l-6 2q1 3 4 5h1l-3 1q-4-1-6-5h-2l-1-1v-3l-1-1v-2h1v-5M187 75v-1h-1l2-5v3l-1 3M200 86l1-3h2l-2 3v1l-1 1q-5 3-10 0l-4-3-2-5 1-3 1 2v1l1 4 4 3 5 1q4 0 4-2M205 77l-1 2h-2l2-3 1 1"/><path fill="#0d131a" d="M187 74l-1 1v2q-1 2 2 5t10 6l-1 1q-7-2-11-7l-2-5 1-3 1-1 1 1"/><path fill="#0d131a" d="M188 73v3l3 5 9 5q-6-1-9-4l-4-5v-4h1"/><path fill="#0d131a" d="M188 69l1 3 4 6q4 4 8 4h2v-2-1l1-1 1 2-1 2-1 2h-2q-4 0-8-4l-6-8v-4l1 1"/><path fill="#0d131a" d="M197 76q4 3 6 2v1q-3 1-6-1-4-2-5-6h1l4 4"/><path fill="#0d131a" d="M189 68q3 4 9 6 5 2 11 1 5 0 9-2v-5l-1-8-3-5h-6q-3-2-3-5-6-2-11 0l-7 4-2 4-1 1q1 5 5 9m17-19l1 1q-1 2 2 3l3 1 2-1h1l4 8q2 7 0 13v1q-4 2-10 2l-12-2q-6-2-9-6-4-4-6-9v-1q0-2 3-5l8-5q6-3 13 0"/><path fill="#0d131a" d="M202 52v1l-3 5-4 5 3 2 2 1 4-6 4-4h2l3 5 2 6 2-1 2-1 1 1-2 2-2 1h-2v-1l-2-6-3-5-4 5-3 5-2 1-3-2-3-2v-1l3-5 4-5q-4-1-10 1l-4 2h-1v-1l1-1 6-2q5-2 9 0"/></svg>