<svg xmlns="http://www.w3.org/2000/svg" version="1" width="204" height="216" viewBox="-0.8 0.1 203.8 216.25"><path fill="#0d131a" d="M203 133v2h-2l-7-3-7-3 2 3 2 3h-3l-3-2 7 12q5 9 5 17v3l-1-1-7-6 1 3 1 4v2l-2-1-3-2-5-4 1 3 1 3h-1l-2-1-5-5-4 11-8 9q-11 10-21 3-10-6-17-26l-10-32-4-13q-2-6-2-14 1-8 4-13 5-6 12-9 7-4 16-3 17 2 33 14 14 9 22 22l2 4q0 2-2 0l-7-4 7 9q5 7 7 15"/><path fill="#fff3c2" d="M193 106l2 4-4-1-5-3h-4l3 1 8 9q6 8 8 17l-7-3-8-3h-2l1 1 2 4-5-2h-2l3 2 5 10q6 11 7 18l-3-2-3-3-2-3v2l1 6 1 4-4-3-6-4 1 3v2l-3-3-2-2q3-14 1-27-2-12-7-19l-2-1 1 2q4 6 6 17v21q-1 12-5 20-6 9-14 12-4 2-7 1l-6-1q-8-7-16-26l-9-32-5-13q-2-5-2-11 1-7 4-13 9-14 29-11 21 3 40 19l10 11"/><path fill="#dbd2a9" d="M171 120q6 16 3 35-5 22-19 27-4 2-7 1l-6-1q-7-6-13-19 20-4 33-17 11-13 9-26"/><path fill="#0d131a" d="M33 205h-6l-1-1v-1l2-4 4-3 1 9"/><path fill="#fff" d="M31 198l1 5h-4l1-2 2-3"/><path fill="#0d131a" d="M32 194v-11l-3-12-1-9v-1l3-5 6-2q5-1 11 3 6 3 9 9t3 23v8q0 8-2 9l-11 1-11-1q-8-3-6-8l2-4"/><path fill="#db4f03" d="M37 156q5-1 11 2l8 8q3 7 3 22l-1 11-1 5q-2 2-10 2l-10-1-4-2q-2-2-1-4l1-3 1-5-1-8-2-11v-10q1-6 6-6"/><path fill="#b94100" d="M31 171v-9q1-6 6-6 5-1 11 2l8 8q3 7 3 22l-1 11q-5-8-12-15l-15-13"/><path fill="#0d131a" d="M32 183l-1-5v-2l4 3 4 2 17-7 1-1v5l-15 15-1 1-1-1-3-2-4-4-1-4"/><path fill="#0d131a" d="M39 183l17-8v3l-15 15-3-2-4-4-2-9 6 4 1 1M42 198l1 2 1 3 1 3-3 2-5 1-1-2 1-4 3-4 2-1"/><path fill="#fff" d="M44 205l-4 2h-3l2-4 2-4 1 2 1 2 1 2"/><path fill="#0d131a" d="M8 47q1-2 4-2l5 3 2 1L8 76l-1-2-7-10q-1-2 3-9l5-8"/><path fill="#db4f03" d="M17 49l1 1L8 72l-4-4-2-5 2-8 5-7q1-2 3-1l5 2"/><path fill="#0d131a" d="M15 50l2 1-7 20-1-1q-5-4-5-7l2-7q2-5 4-6l2-1 3 1"/><path fill="#91301d" d="M6 63l2-6q1-5 3-7h3l2 2-7 17-3-6"/><path fill="#db4f03" d="M84 171q2-8 6-7 5 0 12 15 6 14 6 20 0 3-3 5-4 2-15 2l-12-2q-2-1-2-3-1-2 4-7l2-5 1-9 1-9"/><path fill="#dbd2a9" d="M101 180q6 13 5 19 0 2-2 3-4 3-14 2-9 0-12-2l-1-1q0-2 4-6l2-6 1-9 1-9q2-6 4-6 5 1 12 15"/><path fill="#0d131a" d="M18 45q5-5 12-7 19-4 30 3 6 4 10 10t5 15q2 10 10 19 8 8 22 17 22 13 32 23 5 5 9 15 2 5 1 7l-2 2-1 5-5 2-10 2-15 2-21 5q0 13-3 27-3 16-5 18-4 2-14 3-12 0-17-3-3-2-3-4l2-4q2-1 1-7l-1-11-1-6-1-6q0-10-7-31-7-23-11-28-10-10-17-21-11-18-8-29 2-12 8-18"/><path fill="#db4f03" d="M31 39q18-4 28 3 11 7 14 24 5 22 33 37 21 13 30 22 7 9 10 22l-1 6-5 2-9 1-16 3-21 5v1l-4 27q-2 15-5 17t-12 2q-11 1-15-2l-4-3 2-3q2-2 2-7l-1-13-1-9-7-32q-8-25-13-30-10-10-17-21-10-17-8-28 3-11 9-18 5-4 11-6"/><path fill="#b94100" d="M30 46l-2-6 3-1q18-4 28 3 11 7 14 24 5 20 30 36l-15-6q-6-1-13-17l-7-14-7-15q-4-7-14-7l-17 3M22 95h13l12 3q16 5 29 5l-5 4-5 4 10 3 9 2-10 6-7 4 4 13q2 10 4 13v17l-7-8-5 11q-3 7-7 10l-1-8-7-32q-8-25-13-30-8-8-14-17M93 149h7l-3 2-3 3-2-3-1-2h2"/><path fill="#0d131a" d="M85 86h1l9 9q-3 9-8 15l-4 4h-1l1-5-8 5 2-7-3 3h-2l1-1 6-9q5-8 6-14"/><path fill="#0d131a" d="M86 88q3 4 8 7-5 12-11 17l1-5-7 4 2-7-3 3 5-9 5-10M57 191l-2-11 1 1 5 3 14-7 3-1-1 1-2 2-1 1 6-3q3-1 0 1l-4 4 2-1h3q1-1 0 0l-17 15h-3l-4-5"/><path fill="#0d131a" d="M56 182l5 3h1l12-6-3 4 6-3-4 4 5-1-15 12-3-2-2-2-1-8-1-1M102 100l5 3 10 6q-2 8-6 15l-5 7-1 1-1-1 1-1v-1l-3 3-3 3v-1l1-3 1-3-7 4 2-7-3 2q-2 1 0-1 10-19 9-26"/><path fill="#0d131a" d="M103 101l13 8-5 11-5 9v-3l-5 6 1-6-6 3 2-6-3 2 6-13 2-9v-2M92 151l-1-2 2 1q2 2 1 3v2h-1l-1-4"/><path fill="#db4f03" d="M124 130q10-8 14-4 19 22 15 49-1 10-6 19-3 7-7 11 0 4-8 6-5 2-14 2l-12 1-4-2-6-1q-3-1-3-3-5-2-3-7l7-7-6-6q-3-7-3-14 0-13 8-22 5-7 13-11 4-1 15-11"/><path fill="#b94100" d="M152 179q-1 9-6 17l-6 9q0 4-8 6-5 2-14 2 6-1 8-3 3-3 2-8 18-9 21-32 2-10-1-21-2-11-8-20 18 24 12 50"/><path fill="#0d131a" d="M137 125l-2-2q1-1 4 2 12 13 15 32v20q-1 9-6 19l-7 9q0 7-20 9h-13q-6 0-7-2h-5q-4-1-4-4-4-1-3-5 0-2 3-5l4-4-6-6q-4-6-4-15-1-10 7-20 6-7 12-10l3-1v1l-12 9q-8 9-8 22 0 7 4 13 2 4 6 7l2 2h-1l-2-1q-6 5-7 8t3 4h1l1 3 7 1 1 1 6 1h13q18-2 17-8v-1h1l6-8 6-18q2-15-1-28-4-14-14-25"/><path fill="#0d131a" d="M116 172h-1q-1-1 2-1 5 1 14 6 13 7 17 15v1l-4 8-3 3-1 1q-10-12-20-18l-10-5h-1l2-1h6l-12-6-1-1h2l7 1 6 1-3-4"/><path fill="#0d131a" d="M109 176l13 1-3-3q10 3 18 8 7 5 10 10l-7 11q-8-9-16-15l-11-6h7l-11-6M121 163l-1-1h1l6-1-6-3-3-3h8l-4-1-1-1h7l-1-1h-1l1-1q10 2 17 6l9 6v1q1 9-1 19h-1q-9-9-17-14l-13-6"/><path fill="#0d131a" d="M151 164v8l-1 8q-7-8-15-13l-11-4 6-1-9-6h6q2 0 1-1l-3-1 6 1-2-2 15 5 7 6M101 212q-1-3 1-7l4-4 1-1-1 2-2 4q-2 4-1 6 0 2-1 1l-1-1M92 208l2-6 4-3 2-1-1 2-4 4q-2 3-1 5 1 4-2-1M52 204l3-3h2l1 1v4l-1 3-3 1-4 1-1-1v-2l3-4"/><path fill="#fff" d="M55 203l1-1v6l-3 1h-2l1-2 3-4"/><path fill="#0d131a" d="M63 209l3-4h2l2 4v4l-3 2-3 1h-3v-2l2-5"/><path fill="#fff" d="M67 206l1 3 1 2-2 2-4 2h-1l2-5q1-4 3-4"/><path fill="#0d131a" d="M93 17l2 1-2 1-5 2-6 3 5 1 3 2-3 1-6 1 8 4q5 4 8 10l1 3-2-1-7-1-8-1 4 3 2 2q1 1-20 3v-1l-7-5q-10-6-20-5l-3 1-4 3-3 3-2 1-3-6-2-7 3-7q4-6 10-11Q50 2 65 0h2l-1 2-3 4 7-3h13q1 1-2 2l-7 3-3 2h4l-1 1-4 4h11q8 0 12 2"/><path fill="#fff3c2" d="M93 43l-13-1h-1l1 1 4 4-16 2-11-8q-8-4-15-3v-1l-2 1-4 2-3 2-2 2-2 2-3-4-1-7q-1-2 3-8l9-10Q51 4 64 2l-4 4v2l2-1 9-2 9-1-7 2-6 5h5l-6 5v1h2q11-3 23 1l-11 5 2 2 3 1-8 2q-1 0 0 0l2 1 8 5 7 7 1 2h-2"/><path fill="#db4f03" d="M33 62l6-3q6-3 10-1l2 7-1 5v1q-14 1-15-1l-2-5v-3"/><path fill="#db4f03" d="M40 60q4-2 8-1l1 4 1 5v1l-14 1q-2-3-2-7l6-3"/><path fill="#0d131a" d="M35 70l-2-4v-3l-2 1 2-2 8-4h9l2 1h-2l1 6q1 5-1 5v1q-14 1-15-1"/><path fill="#fff" d="M34 63q2-2 7-3 4-2 7-1 2 4 2 9v1l-14 1q-2-3-2-7"/><path fill="#0d131a" d="M40 59v-1 1l3 6-1 6h-1l-6-1-2-3v-5l3-2 4-1"/><path fill="#0d131a" d="M40 60l1 5v5h-5q-2-3-2-7l6-3"/><path fill="#0d131a" d="M38 59l2 3v5q0 2-2 3l-4-2-1-4v-2l5-3"/><path fill="#0d131a" d="M38 61l1 1v4l-1 2h-3l-1-4v-1l4-2"/><path fill="#fff" d="M37 64v2h-1-1v-2-1l1-1 1 1v1"/><path fill="#0d131a" d="M12 63q8-2 18 4 6 4 11 3l10-1q4-1 8 1l7 7q5 10-3 19h7l6 1h2l-2 1-5 2-5 3 4-1 3 1-3 3-4 3 9 1 11 3 1 1h-1l-7 3-8 4 10 1q2 0 1 1h-1l-8 5q11 8 17 16l1 2h-2l-7-1h-7l6 7 4 6-5-2-5-2v6l1 4-5-5-1 8-2 6-3-2-3-3v8l1 8-1 2-3-1q-6-3-11-8l-6-6 1 6v4l-3-3-3-5v3q0 2-1 1l-5-7-4-8-3 4-3 5-2 1v-2l5-18-4 2-1 1v-1l1-3-5 5-1 1v-2l2-9-9 4H6v-1l3-6 6-10-3 1h-2l1-1 1-3-8 1H3v-1l4-5 5-5-3-2-2-1 1-1 2-1-3-1-1-1q-1 0 0 0l4-3-4-5v-1h1l5 1q4 0 5-2l1-2-1-2-5-7-4-6q-2 1-4-2-4-4-4-9t3-8q3-3 9-4"/><path fill="#fff3c2" d="M38 71h8q5-2 9-1 7 2 10 11 2 5-1 11-3 5-9 10l-1 1h2l6-5h5l7-1-7 4-5 2v1h8l-7 6 2 1 9 1 9 1-14 8-1 1h5l5 1-7 4v1l2 1 8 8 8 8-15-2-2-2v2l9 12-8-3 1 8-2-3-2-2-3 16-3-3-2-2-1-3v21l-10-6-10-10-2-2 1 2 1 7-3-4-2-4q-1-1-1 1v3l1 3q-7-10-8-14l-1-1v1l-2 3-4 5 3-11 2-7v-1l-5 3 1-4v-2l-1 1-2 3-3 3v-4l1-5v-2l-1 2-8 4q4-9 10-16v-2l-1 1-5 1 2-3v-2l-1 1-8 2 4-6 5-4 2-2-3 1-1-1-2-1 2-2-1-1-3-1 4-3h0l-2-2-2-2h6q3 0 4-2l1-3v-3l-6-7-4-6q-3 0-5-3t-2-8q0-4 2-7l8-3q7-2 17 4 5 3 9 3"/><path fill="#dbd2a9" d="M15 84l4 5-1 3-2 2-4-5-3-4h3l3-1M42 109v2l-4 4-4 1-4-2-4-4v-3h2l6 1 6 1h2"/><path fill="#0d131a" d="M23 105v-1h1q4 3 9 4h2l-2 1-6-2-4-2M12 84l5-1h5l12 6h1v1l-2 3q-3 3-8 2-4 0-9-4l-4-6v-1"/><path fill="#922f00" d="M21 85l12 5-2 3-6 1-7-4-4-5 3-1 4 1"/><path fill="#0d131a" d="M25 88q3-2 7-2 6 0 12 3h1v1q-4 5-10 7-7 9-11 10-4 3-8 2-3-1-5-4-2-4-1-9 2-5 6-8l5-1q3-1 4 1"/><path fill="#ed8599" d="M13 92l3-3 5-1 4 1 5-1q6-1 13 2l-5 5-3 1 1-2v-1l-1 1-4 6-7 6-6 2q-4 0-6-3l-1-4v-4l2-5"/><path fill="#ce7486" d="M25 89l5-1q6-1 13 2l-5 5-3 1 1-2v-1l-1 1-2 3q1-3-2-4-3-2-8-2l-1-2-3-1h4l2 1"/><path fill="#0d131a" d="M21 92l2-3 4-1h1q-4 1-6 5l-2 1 1-2"/><path fill="#fff3c2" d="M7 79l15-2h24l10 4 1 2-7 5q-3 2-10 3l-8-1-8-4-6-2h-5l-4 1-2-3q-2-2 0-3"/><path fill="#0d131a" d="M20 62q2 1 1 3 0 2-3 4-2 3-4 3-2 1-5-2l-3-4v-3l4-3h5l5 2"/><path fill="#0d131a" d="M15 62l4 1 1 1-3 4-3 3-4-2-3-4v-1l4-3 4 1"/><path fill="#8a969d" d="M13 63l-1 1-2 1-1-1-1-1 3-1 2 1"/><path fill="#0d131a" d="M125 115h1l10 9-3 7q-3 4-6 5h-1l1-3-4 3-4 1q-1 1 0 0l2-5-2 1q-2 0-1-1l4-6 3-11"/><path fill="#0d131a" d="M124 129l-4 2q5-6 6-14l8 7q-2 8-6 11v-3l1-2q-4 4-9 6l3-4 1-3M13 84l5-1 8 4q8 3 14 3t9-2q4-2 7-6l1-1-1 3-5 5q-4 2-9 2-7 1-16-3l-5-3-3-1-4 1-5 1H7q-1-1 1-1l5-1"/><path fill="#dbd2a9" d="M68 141q0-2 5-2l11 1 5 5-15-2-2-2v2l9 12-8-3 1 8-2-3-2-2-3 16-3-3-2-2-1-3v21l-10-6-10-10-2-2 1 2 1 7-3-4-2-4q-1-1-1 1v3l1 3q-7-10-8-14l-1-1v1l-2 3-4 5 4-8 4-6q1-1 1 1l1 3q1 1 1-4l1-3q1 5 7 12 7 7 7 4l1-8 2-10 1-2 2 2 5 6 4 3 3-7 3-10M182 130h-2l3 2 5 10q6 11 7 18l-3-2-3-3-2-3v2l1 6 1 4-4-3-6-4 1 3v2l-3-3-2-2q2-12 1-24-1-10-5-18 10 4 19 13l-4-1h-2l1 1 2 4-5-2M94 41l1 2h-2l-13-1h-1l1 1 4 4-16 2-6-5-8-4 13-3 14-2q-3-3-7-4l-9-3 6-1 5-3h-4l-2-2 6-3 7-3 6 2h2l-11 5 2 2 3 1-8 2q-1 0 0 0l2 1 8 5 7 7"/><path fill="#db4f03" d="M82 78q-4 1-12-1l-9-12q-6-10-4-12l9-6q8-4 12-2l11 12 5 10-5 7q-4 4-7 4"/><path fill="#0d131a" d="M90 56q5 9 4 11 0 3-4 7-5 5-8 5h-7l-5-2-1-1h1l5 1 7 1 6-4 5-7-5-10q-5-8-11-11-3-2-9 1l-11 7h-1l1-1 9-6q9-5 12-3 6 4 12 12"/><path fill="#0d131a" d="M84 57q6 8 5 10l-5 5q-3 3-5 3l-5-1-5-1q-3-2 0-2l-2-6q-2-5-6-8h-1v-1l7-4q6-4 8-3 4 1 9 8"/><path fill="#91301d" d="M84 71l-5 3-8-2-3-1q0-5-3-9l-4-5 7-5 7-2q3 1 8 8t4 9l-3 4"/><path fill="#0d131a" d="M60 57q0-1 0 0 4 1 6 6l3 9h-1q-1-6-4-11l-4-4"/></svg>