<svg xmlns="http://www.w3.org/2000/svg" version="1" width="309" height="365" viewBox="-0.8 -0.05 309.25 364.9"><path fill="#ed8599" d="M101 257l3 11q-11 4-24 3t-20-7l1-8 10-2h11q8 0 19 3"/><path fill="#fff" d="M51 258l10-2-1 8v2l-1 4q-1 1-3-1-4-5-6-11h1M14 344l-8-2q-4-3-3-5t7-3q12-1 33-13 25-14 40-33 4 9 11 18 7 10 16 18l-3 11-5 8q-4 4-8 3l-6-2q-3 1-7 7-3 6-5 6-3 0-8-4-4-4-7-4l-3 2-4 5q-6 6-13 6-9 0-13-6l-6-9-8-3M101 257l7 3 6 1-2 5-3 5q-2 2-3 1l-2-3v-1l-3-11"/><path fill="#fff" d="M180 56q16 22 41 39 40 25 58 49 20 26 22 58 5 58-19 94l1 4 3 4q3 5 1 9-2 8-11 11l-7 2q-4 2-5 5v5q0 4-2 6-4 4-12 5l-6 1-6 1q-5 1-7 5l-4 5q-3 1-10-3l-13-9h-2q-28 6-53-1-22-6-39-21-9-8-16-18-7-9-11-19l-3-8q-12-2-21-10l1-4v-2q7 6 20 7t24-3v1l2 3q1 1 3-1l3-5 2-5-6-1-7-3q-11-3-19-3H71l-10 2-10 2h-1q-7 1-12-2-3-2-4-6l2-9q3-5 8-9 0-17 9-31t24-19l7-16 2-3 2 3 6 14q17 0 31 10 11 8 23 25 8 10 22 12t28-6q16-8 26-24 12-19 14-44 1-10-3-20-3-9-9-16-17-11-36-6-19 4-29 19-3 5-7 4-3 0-5-5l-1-5-4-5-10-6q-7-4-10-8-2-3-1-9v-9l-4-8-3-6q-2-6 5-18 2-3 0-12-1-9 2-12 2-3 6-5l7-3q8-4 10-11 2-8 6-9 5-1 8 11 8 24 20 42"/><path fill="#ce7486" d="M102 261q-10-3-20-2-11 2-20 7l-2-2 1-8 10-2h11q8 0 19 3l1 4"/><path fill="#dbdcdc" d="M61 263q-5-3-9 0l-1-2-1-3h1l10-2v7M34 361q-2 0-4-3 20-7 37-20 16-13 28-30 7 9 15 16l-3 11-5 8q-4 4-8 3l-6-2q-3 1-7 7-3 6-5 6-3 0-8-4-4-4-7-4l-3 2-4 5q-6 6-13 6l-7-1M101 257l7 3 6 1-1 2-1 2-5-2-5 1-1-7"/><path fill="#ccc" d="M110 324l-10-10q22 12 45 16 21 3 42 0l8 9 8 8h-1q-28 6-53-1-21-6-39-22M287 279l-2-2-4 1q11-11 17-23-5 22-17 40l3-9 3-7"/><path fill="#dbdcdc" d="M211 105q9 5 14 11-17-10-36-5-18 4-28 19-3 5-7 4-3 0-5-5l-1-5-4-5-9-6-9-6q30-17 62-10 13 2 23 8"/><path fill="#ccc" d="M83 288l-2-5-1-3q9 3 20 0 13-3 24-15-3 14-12 23-8 8-17 8-8 1-12-8M211 300q11 1 32-3l22-5q-8 7-29 10l-15 1q-7-1-10-3M221 324l14 4q-9-1-17 1-6 1-8 3-8-5-19-17l-10-11 12 8q6 3 8 2 6 5 20 10"/><path fill="#0d131a" d="M78 181l-1 1-1 2q-14 5-23 18-8 13-8 30l-1 1q-5 4-7 10-3 5-1 9 1 3 5 4 4 2 10 1 6 0 10-2l10-2h11l12 1 10 3 12 3q5-1 9-7l1-1v3q-4 7-10 7-3 1-13-2l-10-4-11-2-11 1-9 2-6 2-7 1q-6 0-10-2-5-2-6-5-2-5 0-9 3-6 10-12-1-17 7-30 9-16 28-21M207 103q15 4 24 17 9 15 8 33-3 33-19 53-12 15-32 21-12 3-23 0t-18-12q-11-16-22-24-14-10-31-10l-1-1v-1q18-1 33 9 12 8 22 23 7 10 19 14 10 2 21-1 18-5 30-21 15-19 18-49 1-18-8-32t-23-18q-3-1-2-2l4 1M79 280l1-1 1 1q4 12 13 25 10 14 24 24 16 12 33 17 24 6 50 0h2l2 1 1 2-3 1q-27 5-52-1-19-6-35-17-15-11-25-26-8-13-12-26"/><path fill="#0d131a" d="M221 95q-27-17-43-41-12-17-19-40-1-5-3-7l-3-3q-2 0-4 3l-2 6q-1 5-5 8l-9 4-5 3-4 3q-2 2-2 6v7l1 6-1 6q-5 9-5 14 0 3 3 8l4 9v7l-1 5q0 3 2 5 1 3 5 5l6 4 8 5 4 5 2 6 2 3 2 1h4l2-3q6-9 15-14 9-6 20-7 9-1 17 1 9 2 15 7l1 3 1 2q-6-6-15-9-10-3-18-2-10 1-19 7t-15 15l-4 3q-2 2-4 1l-4-2-2-5-1-5-4-5-4-3-5-3-7-4q-4-2-6-5l-1-6 1-5 1-4-1-3-2-5-3-4q-3-4-2-8 0-5 5-15l1-5-1-7v-7q0-4 2-7l6-3 6-3 7-4q3-2 4-7 2-6 5-9 2-3 4-3t5 4q3 3 4 9 8 23 18 39 15 24 42 41 39 25 59 51 21 27 23 59 4 57-22 96l-1-5q24-37 19-92-2-31-21-56-18-25-58-51M61 256l1 1v5l-1 4q0 5-2 5-1 1-4-2l-7-10 1-1h2l3 6 3 4 1 1 1-3 1-9 1-1M102 258l3 11 1 2 2-1 5-9 2-1 1 1-6 10q-2 3-4 3l-3-5-4-12h2l1 1"/><path fill="#0d131a" d="M104 268q0-1 0 0v1q-9 5-22 4-14-1-21-7l-1-1 1-1q7 5 20 6t23-2"/><path fill="#0d131a" d="M113 276q-8 4-17 6-10 2-20-1-9-3-17-10v-1h1q8 6 17 8 10 2 19 1 9-2 17-6 7-4 12-11l1-1q1 2-1 4-5 6-12 11M82 286q1-1 2 1v2q-16 19-42 33-20 12-32 13-10 2-3 6l5 2 5 1 6 3 3 4q2 5 5 7 3 3 10 3 5 0 9-2l5-6 3-3 3-1 4 1 3 2 4 3 3 1q2 0 3-2l3-4 2-4 5-3 4 1 4 1q3 0 5-2 4-4 8-19h2v2l-3 11-6 9q-3 3-6 2l-5-2h-3q-2 0-3 2l-2 5-3 4-4 3-5-2-4-3-3-3-3-1-2 1-3 3-5 6q-5 4-10 4-7 0-12-5-3-2-5-7l-2-2-1-2-5-3-5-1H8l-3-2q-4-2-5-5-1-4 10-6 14-3 34-14 25-14 38-32"/><path fill="#0d131a" d="M73 327q-14 11-27 15-3 2-4 1l2-2q12-4 27-15 13-10 22-21l1 1v1q-9 11-21 20M82 295l2-1-1 3-9 13-8 8-4 1 2-2 8-8q7-8 10-14M98 319l1-2v4l-2 7-4 6-2 2v-2l7-15M156 285q-2-3-1-4t2 2q4 10 13 24 9 13 20 25l21 19q11 7 16 6l1-1 2-2 2-3 5-3 9-1q9-1 13-4t4-7l-1-3 1-3 4-4 6-3q5-1 7-3 4-3 6-7l-1-6-2-5q-3-4-3-8t4-10q3-4 1-5-1-1-4 1l-9 3q-29 8-60 4-15-1-25-5-11-3-15-9l-1-3q1-1 3 2 10 10 39 13 31 3 59-5l9-3q6-3 8-1 2 3-2 9l-2 3-2 6v4l3 3 3 5v7q-2 5-6 9l-9 4q-6 2-7 4-2 2-2 6 1 7-4 10-3 2-14 3l-10 2q-3 1-5 5l-2 3-2 2q-6 1-17-6-10-7-21-19-12-12-21-25-10-14-13-26"/><path fill="#0d131a" d="M167 281v-4l1 2q4 12 19 30t30 26l2 2-3-1q-16-7-31-25-14-17-18-30M178 272v-2l2 1 7 7 6 5-6-2-9-9M267 290l2-1-2 3q-9 8-26 11-18 3-32-2l-3-1h3q13 3 31 1 18-3 27-11"/><path fill="#0d131a" d="M217 322q12 5 23 5l2 1-3 1q-13 0-25-5-9-4-15-10l-2-3 3 2q5 5 17 9M173 67l27 24q3 2 2 3l-3-2q-16-11-28-24-14-16-17-30v-4l1 2q5 15 18 31M136 38l-1-3 1 1 10 13 16 13 2 3-3-1q-8-5-15-12l-10-14M192 97l2 1q1 1-1 1-20-4-33-3-8 1-25 7h-1l3-2q13-6 24-7 13-2 31 3"/><path fill="#0d131a" d="M186 99l2 1-1 1q-6 1-11 4-6 4-8 8l-2 2v-2q2-5 7-9 6-4 13-5M71 240q0-2 8-1 8 0 8 2-1 2-8 2-8-1-8-3M122 218q2 5 1 18v2l-1 1h-15l-2-1v-2q-1-12 2-18 2-5 7-5t8 5M58 238l-5-1-3-2q-1-10 1-16 2-5 5-6 4 0 5 6v19h-3"/><path fill="#fff" d="M112 220l1-4 3-1q2 0 3 2l1 3-1 4-3 1-3-1-1-4M54 220l1-4 2-1 2 2v6l-2 1-2-1-1-3"/><path fill="#0d131a" d="M81 176l-5 11q-1 3-2 2v-4l4-10 5-10 2-3q2 0 4 4l9 19q2 3 0 3-1 1-2-2l-9-20-1-2-1 2-4 10"/><path fill="#8a969d" d="M78 240l-2 1-2-1 2-1 2 1"/></svg>