<svg xmlns="http://www.w3.org/2000/svg" version="1" width="371" height="417" viewBox="-0.45 -0.2 371.45 417.4"><path fill="#0d131a" d="M339 124q12 12 20 34 8 21 10 46t-3 44l-1 2-1-2q-17-39-35-58-17-19-34-17h-4l-2-4q-3-16-11-25-6-6-11-5v1l-1 1-1 4-3 3-6 6q-5 5-10 3l-3-1-3-3q-3-5-2-14v-1l4-14q3-7 6-9l8-5 5 1 3 1 2 1 3-1 4-1 4-1 5 1 12 4h14q17-4 31 9M0 29q2-3 23 6l27 12q28 16 68 71l26 38 12 21v2l2 5v4l-4 1h-9q-7-1-26-11-21-11-41-25l-22-16q-11-9-18-17-18-20-22-46l-2-12-3-17q-1-6-5-10l-4-3-2-3"/><path fill="#fff1ac" d="M17 34q13 5 32 16 29 16 68 69l25 38 12 21 1 1 2 5v3l-4 1-8-1q-7 0-24-9-22-11-42-26-23-17-38-35-20-23-23-46l-2-11-3-16q-2-6-6-10l-2-3q1-1 12 3"/><path fill="#dcd096" d="M13 44q-2-6-6-10l-2-3q1-1 12 3 13 5 32 16 29 16 68 69l25 38 12 21 1 1 2 5v3l-3 1q-12-12-31-35l-32-37Q73 96 57 85 37 72 17 69l-1-9-3-16"/><path fill="#0d131a" d="M4 30q3-2 21 6l25 13q29 16 66 65 14 18 26 37l14 26v2l2 5v4l-4 1h-9l-2-1-1-3q-6-14-15-28-18-28-51-64-14-16-34-33Q19 40 4 33v-3"/><path fill="#6cba5a" d="M17 35l32 15q29 16 68 69l25 38 12 21 1 1 2 5v3l-4 1-8-1-2-3q-6-14-15-29-18-28-51-65-13-15-34-32Q20 39 5 31q2-1 12 4"/><path fill="#5da24d" d="M141 155l9 15 4 8 1 1 2 5v3l-4 1-8-1-2-3-6-13q-6-12-15-25l9 3 10 6"/><path fill="#0d131a" d="M3 94q3-2 17 2 15 3 31 10 15 7 45 36 23 22 37 39l2 4-1 6q-2 3-6 5-5 2-14 1-35-5-61-26-27-21-37-55-1-5-4-8l-4-5-4-4q-3-4-1-5"/><path fill="#fff1ac" d="M20 98q13 3 31 11 15 7 44 34 23 22 37 39l1 3v5q-2 3-6 4h-15q-33-5-57-25-24-21-37-54l-4-8-3-5-4-4v-1q1-2 13 1"/><path fill="#dcd096" d="M112 194q-13-2-25-6 17 2 11-15t-38-59q16 11 41 35 20 19 31 33l1 3v5q-2 3-6 4h-15"/><path fill="#0d131a" d="M164 52q6 13 7 21 4 17 7 57 3 49-2 52h-2q-8-6-18-28-11-23-13-40-1-8 3-27l5-30 2-10v-8q0-3 1-2l3 2 7 13"/><path fill="#fff1ac" d="M169 74q3 13 5 42 4 31 4 49 0 15-3 16h-1q-7-5-16-28-10-22-12-39v-5q0-9 3-26l5-27 2-9v-5l6 12q6 12 7 20"/><path fill="#dcd096" d="M163 56q5 11 6 18 3 13 5 42 4 31 4 49 0 15-3 16h-1l-8-11-9-18q5-26 6-48 2-25 0-48"/><path fill="#0d131a" d="M171 46l4-9 6-14 5-16 1-5 1-2q3 0 6 10l8 45q6 42 5 52l-2 5q4 31-6 55-7 17-17 24-3 2-6 1-2-2-3-7l-2-23-4-22q-5-32-5-43-1-23 5-42l4-9"/><path fill="#fff1ac" d="M192 12q2 5 7 44l6 52v9q0 28-8 50-7 18-16 23-2 2-4 1t-2-6l-2-24-3-23-4-24-1-24q0-20 5-37l8-16 5-10 3-9 1-7 2-7 3 8"/><path fill="#dcd096" d="M181 31l5-13 1-7 2-7 3 8q2 5 7 44l6 52v9q0 28-8 50-7 18-16 23-2 2-4 1t-2-6l-4-39q9-33 12-58 4-33-2-57"/><path fill="#0d131a" d="M187 4l2-2 2 2 3 7 7 45 6 51q1 21-3 39l-7 24-1 2-1-2q-6-12-7-44l1-61V27q0-17-2-22V4"/><path fill="#6cba5a" d="M189 4l3 8q2 5 7 44l6 52v9q0 16-3 31-2 11-6 20-3-9-4-25l-1-35V32q0-21-2-28"/><path fill="#e5e5e5" d="M360 192q-14-26-22-34-8-9-21-10l-16-2-10-6q-5-5-10-7-6-4-11-3h-1l3-4q4-3 12-1l8 3 8 4 3 2 2 1 3-1 5-2q6 0 11 2 6 3 10 8 17 23 26 50"/><path fill="#e5e5e5" d="M342 166q5 6 10 16l10 16q4 14 4 24 1 10-1 24-17-44-38-63-17-15-34-12l-2-5-4-11q-8-17-20-18l2-7h1q4 0 10 3l11 9q5 4 9 5 4 2 14 2 16 1 28 17"/><path fill="#c8c9ca" d="M334 142q7 9 12 19-14-14-27-19-14-5-26-1l-2-1q-5-5-10-7-6-4-11-3h-1l3-4q4-3 12-1l8 3 8 4 3 2 2 1 3-1 5-2q6 0 11 2 6 3 10 8"/><path fill="#c8c9ca" d="M270 130q4 0 10 3l11 9q-5 1-9 4-6-8-15-9l2-7h1"/><path fill="#0d131a" d="M241 130v-2l2 2 2 6 3 6q2 3 4 3l3-2 5-2q2-2 5-1l-1 3q-1 4-3 5l-2 2-3 2-4 4q-3 2-6 1-3 0-6-4-5-7-4-12 0-3 3-7l2-4"/><path fill="#5da24d" d="M238 142v-3l5 7 4 2 3 1q3 0 6-3 1-2 3-2l5-2-2 3-2 1-3 3-5 5-6 2q-3 0-5-4-3-6-3-10"/><path fill="#6cba5a" d="M325 132l-12-2-5 1-3 1-7-3-14-6q-8-2-13 2l-4 4-1 7-1 2-1 2-4 1-6 3-3 3q-6 1-11-9 1-7 4-13 2-7 5-9 4-3 8-3 2-1 5 1l4 1h3l3-2 4-1 5 1 11 3 13 1h15q12 2 20 13 16 19 23 47 5 20 5 37v1q-5-23-10-35-7-20-22-39-4-6-11-9"/><path fill="#5da24d" d="M240 138l2-9 1 1 8 4q4 2 6 1l5-3 5-4-1 8-1 2-1 2-4 1-6 3-3 3q-6 1-11-9"/><path fill="#0d131a" d="M220 345h2v-1q18 7 24 20l2 4h-3l-10-3-11-2-4-1-1-2-1-8 2-7"/><path fill="#eeeeef" d="M220 354l1-7v-1l11 6q9 6 13 14-8-3-21-5h-3l-1-7"/><path fill="#c8c9ca" d="M231 351q3 6 10 14l-17-4h-3l-1-7 1-7v-1l10 5"/><path fill="#0d131a" d="M148 343l-2-3 2-7v-15l1-11 1-7 5-2 6-2 5 1 6 2q3 1 3 5v5q5 2 9 6l7 11q2 4 8 7l12 4h1l9 4q4 4 4 13v2q-1 8-13 14-11 5-19 5h-12q-5-1-7-4-11-21-17-24l-9-4"/><path fill="#6cba5a" d="M150 308l2-7 3-2 7-1h5l4 2 2 4q1 3-1 5-4 5-2 5l4-3 8 6 7 11q3 4 10 8l10 3h1q7 1 9 4 4 4 4 13 0 7-13 12-11 5-19 5h-9q-4-1-5-4l-6-10q-7-10-11-13l-5-3-5-3q-2-2-1-6l1-7v-9-10"/><path fill="#5da24d" d="M160 346l-5-3-5-3q-2-2-1-6l1-7v-9-10l11 7 6 5q4 14 13 21 6 5 15 7l13 2q6 2 6 7 1 7-9 12-7 4-14 4h-9q-4-1-5-4l-6-10q-7-10-11-13"/><path fill="#0d131a" d="M162 312q-4 0-6-3-3-4-3-8t3-6q3-3 6-3 4 0 7 3 2 2 2 6l-2 8q-3 3-7 3"/><path fill="#dcd096" d="M155 301q0-3 2-5 2-3 5-3 4 0 6 3 2 2 2 5l-2 6q-2 2-6 2-3 0-5-2l-2-6"/><path fill="#0d131a" d="M212 350l2-1h3q6 2 12 9 8 7 11 15l1 4h-2l-14-4-15-5-2-2v-2l1-8q1-5 3-6"/><path fill="#eeeeef" d="M210 366v-2-5l3-6q1-3 3-2 5 2 12 9 8 8 10 15l-14-4-11-4-3-1"/><path fill="#c8c9ca" d="M213 353v-1l13 11q5 5 7 10l-11-3-9-3-3-1v-2-5l3-6"/><path fill="#0d131a" d="M194 360q1-2 3-2 2-1 5 1l9 7 10 12 2 4h-3l-15-4-14-3-1-1h-1l1-6 4-8"/><path fill="#eeeeef" d="M192 373l1-6q1-5 3-7l2-1 11 8 11 13-18-5-10-2"/><path fill="#c8c9ca" d="M198 374l-6-1 1-6 3-6 8 7q5 4 6 9l-12-3"/><path fill="#0d131a" d="M147 295q-5-5-5-18 1-12 5-24l8-13q4-5 8-6 5 0 9 6l9 8 4 3 3 3q4 4 7 13 3 11 0 20-2 7-11 13t-19 5q-10 0-18-10"/><path fill="#6cba5a" d="M149 254q3-8 7-13t7-5q4-1 8 4l8 9 7 6q3 4 6 13 3 10 1 17-3 8-12 14-9 5-16 5-10-1-17-10-5-5-4-18 0-11 5-22"/><path fill="#5da24d" d="M148 294q-5-5-4-18 0-11 5-22 3-8 7-13t7-5q4-1 8 4l8 9 2 1q-6 6-10 13l-4 15q0 8 3 13 3 6 9 8l-7 4-7 1q-10-1-17-10"/><path fill="#0d131a" d="M134 222q15-5 24-4 7 0 11 4 2 4 2 10 0 5-2 8v2l-3 5-2 10 1 5 1 8q3 16 1 29-2 16-10 30-10 18-24 27-15 10-34 11-3 0-5-2-5-4-7-25-2-15-1-38l1-18q0-13 4-22 9-28 43-40"/><path fill="#6cba5a" d="M158 219q6 1 9 4t2 9l-3 8q-2 3-3 10-2 7 0 13v2q3 14 2 25-1 20-10 37-10 17-23 26t-33 12q-2 1-4-1-4-4-6-20t-1-42q1-27 9-44 11-25 38-35 14-5 23-4"/><path fill="#5da24d" d="M135 223q14-5 23-4 6 1 9 4t2 9l-3 8-2 2q-17 5-32 24-14 16-21 39-7 22-6 37 2 17 13 19-8 3-19 4-2 1-4-1-4-4-6-20t-1-42q1-27 9-44 11-25 38-35"/><path fill="#0d131a" d="M99 273h1q3 6 14 13t18 6q5 0 12-3l8-3q4-2 7-1 3 0 6 3l1 3v3l-2-4q-2-3-5-3h-7l-7 3-7 2-7 3q-7 1-19-7-10-8-13-15M152 333l-1 1q-21 10-38 1-14-7-21-24h1q6 16 21 23 17 8 38-1M171 171q9-5 12-4 4 1 10 7t10 13q7 13 4 22l-1 4-8 20q-6 11-15 11-9 1-16 4-5 1-9 5l-5 3q-3 2-5 1-10-4-15-17-6-13-5-28 1-7 10-17l15-13q9-7 18-11"/><path fill="#fff1ac" d="M202 188q5 8 5 15l-1 5-2 4q-4 14-8 19-5 10-14 11t-16 4l-9 5-4 3h-4q-10-4-15-15-5-12-4-27 0-6 6-13 7-8 17-16 10-7 19-11 8-4 11-4 3 1 9 7 6 5 10 13"/><path fill="#dcd096" d="M172 172q8-4 11-4 3 1 9 7 6 5 10 13 5 8 5 15l-1 5-4 10-11-1q-7 1-13 4-18 9-18 28l-3 2-4 3h-4q-10-4-15-15-5-12-4-27 0-6 6-13 7-8 17-16 10-7 19-11"/><path fill="#0d131a" d="M153 244l-1-1-1-1 4-7q4-6 8-7h1q5 3 14 3 9 1 13-1l4-1q2 2-1 6t-10 8q-8 5-18 5-9 0-13-4"/><path fill="#6cba5a" d="M156 236l7-7q6 5 15 5t14-3l1-1h1q1 1-2 4l-9 8q-8 5-19 3-8-1-11-3l3-6"/><path fill="#0d131a" d="M204 193l2-1 1 3q1 6-2 20-6 35-30 41-2 0 0-4 1-4 5-8l10-18 10-21 4-12"/><path fill="#6cba5a" d="M202 205l3-10-2 18q-6 31-25 39-2 1-1-1l4-6 12-21 9-19"/><path fill="#0d131a" d="M207 114q5 2 9 15 3 11-13 33l-11 15-7 7q-5 4-6 9-2 4 1 7l1 6-3 12q-5 13-16 24t-19 10q-7 0-14-14-5-10-6-18-1-4 3-12l7-16 4-10 4-9q3-8 10-11l10-2h3q3-1 8-7t6-10q1-4-3-15l-6-18-3-7-1-3h1q2 0 25 15l3 1 4-1 4-2 5 1"/><path fill="#6cba5a" d="M214 130q3 10-12 31-5 8-12 15l-6 7-7 7q-2 5 0 10l2 8-4 10q-4 10-13 20-11 11-19 11-5 0-12-12-5-10-6-18l-1-1q0-3 4-11l7-15 8-17q3-8 9-11 3-2 9-2l4-1 8-5 7-9v-3q0-6-3-17l-6-17-2-4v-3q3 0 22 14l4 1 3-2 4-1h4q5 3 8 15"/><path fill="#5da24d" d="M206 115q5 3 8 15 2 7-5 20-5 10-15 21h-18q-10-1-16 1-6 3-4 17l2 12v11q-1 7-10 17t-10 17q-5-4-9-13t-4-14l-1-1q0-3 4-11l7-15 8-17q3-8 9-11 3-2 9-2l4-1 8-5 7-9v-3q0-6-3-16l-6-17h3l5 4q9 4 12 2l4 1 3-2 4-1h4"/><path fill="#0d131a" d="M170 161l5 2 5 1 1 1q12 1 27 11 14 9 15 17 2 14-3 27l-2 5-2 2q-1 1-5-1l-5-2h-11q-2 0-3-4l-3-14-4-12-7-6-3-1-1-1 1-2 1-1 2-1 1-2q-2-5-8-8-3-3-10-6l-7-4-2-2q0-2 7-1l11 2"/><path fill="#6cba5a" d="M180 167q13 1 27 11 13 9 14 15v13l-3 14q-1 4-3 5h-2l-3-1-1-1-6-1h-6q-2 0-4-5l-2-12q-2-9-5-13-2-3-7-5l-1-1 1-1 2-4-1-2q-2-5-7-9l-10-6-6-2 4-1 11 3 8 3"/><path fill="#5da24d" d="M172 164l8 3q13 1 27 11 13 9 14 15v14l-10 4q-5 3-10 2l-3-2-6-2-1-4q-2-9-5-13-2-3-7-5l-1-1 1-1 2-4-1-2q-2-5-7-9l-10-6-6-2 4-1 11 3"/><path fill="#0d131a" d="M188 176h1q5 2 18 15t13 16l-1 7-2 6-2 3-2-1-3-2-5-1h-5q-2 0-2-3v-7l-1-5q0-6-4-13l-5-9v-6"/><path fill="#ed8599" d="M192 178l16 16q11 11 11 13l-1 7-2 6-1 1-4-2-10-1-2-3v-6l-1-6-3-12-4-9-2-4-1-1 4 1"/><path fill="#ce7486" d="M195 191l-4-9-2-4-1-1 4 1 15 14q10 10 12 14h-12q-6 2-8 7v-4l-1-6-3-12"/><path fill="#0d131a" d="M214 206l3 1 3 2q2 2 1 4l-3 2-4 2-2 1v-1l1-7-1-4h2"/><path fill="#eeeeef" d="M214 207l2 1q2 0 3 2l1 2-3 3-4 1 1-9"/><path fill="#c8c9ca" d="M214 214v-7l2 1q2 0 3 2l1 2-3 3q-2-2-3-1"/><path fill="#0d131a" d="M187 84q2-1 10 2l12 8q7 6 8 10l5 7q4 6 8 7l10-6 9-5 7-4q3-1 0 10-2 8-6 15l-2 8-1 9 1 5 1 2v3l-1 5-2 6 2 2v4l-1 6-3 5-1 8v11q0 4-6 11l-7 7-4 2-3 1-2-2v-2q-1-3-5-6l-6-4-1-1-3-3q-2-2-2-5 0-5-8-12-3-3-11-6l-10-5-3-2-1-3 3-8 2-9v-3l-1-1q-1-4-7-10l-12-10-6-6q-6-4-7-7-2-4 5-3l14 2 12 3q5 2 13 2l8-1q1-2-1-14-2-13-4-17l-2-4-1-2"/><path fill="#6cba5a" d="M197 88l11 9 9 10 4 8q5 5 12 7l1-1h-1l-1-1-1-1 4-2 5-3 9-5 5-2q1 1-1 8l-5 13-2 8-1 9 1 6 1 4-3 9-2 7v2l1-1 2-4h1v3l-1 6-2 5q-3 5-3 16v3q0 3-4 8l-7 8q-3 3-5 3l-2-2-4-5-6-5-1-1-3-3-1-4-3-6-7-7q-6-5-20-11-3-1-3-5l2-7 1-7v-7l-7-9-12-11-5-5-5-6q-2-2 2-2l10 2 13 3q5 2 13 1l10-1q2-1 0-14l-2-15-2-5v-1h3l2 1"/><path fill="#5da24d" d="M194 93l-2-4-1-2q8 8 12 18 5 12 2 18l-4 2-7-1-3-1 5-1q2-1 0-14l-2-15M197 187q-6-5-20-11-3-1-3-5l2-7 1-7v-7l-7-9-12-11-5-5-5-5q-2-3 1-3l1 2 7 2q25 10 41 31 16 20 20 47 0 5 3 7l2 1 2 2 1 6 2 3-4 2-2-2-4-5-6-5-1-1-3-3-1-4-3-6-7-7"/><path fill="#5da24d" d="M206 146q-3-2 0-2l7 2q5 3 8 10 3 10-4 18-2 1-1-1v-6q0-12-10-21M239 121l-5 1v-1h-1l-1-1-1-1 4-2 5-3 8-4 6-3-7 7-8 7"/><path fill="#0d131a" d="M201 181l-10-10q-2-2-1-10l1-10 1-2h1v-1l1 1q9 10 14 26l3 10 1 5q-3-1-11-9"/><path fill="#fff" d="M193 171l-1-8v-7l1-5q7 7 13 20l5 16q-3-1-9-7l-9-9"/><path fill="#dbdcdc" d="M201 167l-9-10 1-6q6 6 10 14 4 7 6 15l-8-13"/><path fill="#0d131a" d="M204 165v1q4 6 6 13l2 9q-1 1-9-5-3-5-2-10 0-5 3-8"/><path fill="#0d131a" d="M207 174v9l3-1 1 6-7-6q-2-3-2-8t2-8l3 8"/><path fill="#fff" d="M208 182l-1-2 1-4 2 5q-1 2-2 1"/><path fill="#0d131a" d="M206 147l2 1q4 2 6 5 4 5 3 16-1 9-2-2 0-7-3-12-2-4-5-6l-1-2M183 140q-7-6-17-11l-11-6q-3-2 1-1 15 5 28 17 24 20 29 51v2l-1-2q-7-31-29-50M223 209h1v2l1 3h-1v-1l-1-2v-2M60 315q5 0 13 4l10 7 4 4 2 5 8 16q7 12 12 15l6 3 7 2 6 2 4 2q3 2 3 8 1 5-1 11-2 4-7 7l-10 4-6 1q-7 3-20 4l-18 1q-3-1-4-5l-2-11-1-9-2-8q-1-4-5-8l-7-8-5-6q-2-2-2-6l2-6q6-11 5-16-2-12 8-13"/><path fill="#6cba5a" d="M72 321l10 6 3 4 2 7 8 14q8 12 13 16l7 3 7 2 8 3q2 2 3 7 1 6-1 10-1 4-6 6l-10 4-6 2-18 4H76q-3-1-4-6l-2-11-2-9-2-8q-1-4-6-8l-7-8-4-5-1-4 2-7 4-9 1-5 1-7q1-4 5-4 4-1 11 3"/><path fill="#5da24d" d="M50 343l4-9 1-5v-5q4 13 14 19l4 3-4 1q-8 2-4 12 5 10 15 18l11 13q3 3 10 17l-15 2H76q-3-1-4-6l-2-11-2-9-2-8q-1-4-6-8l-7-8-4-5-1-4 2-7"/><path fill="#0d131a" d="M134 379q3-1 11 6t10 12l2 4h-3l-8-2-11-1-7-1-1-1-1-3 2-9q3-5 5-5h1"/><path fill="#eeeeef" d="M143 386q8 7 11 13l-9-2-10-1h-6l-1-2v-1l2-8q2-4 4-4 2-1 9 5"/><path fill="#c8c9ca" d="M132 382q6 2 10 7l8 9-7-1-8-1h-6l-1-2v-1l2-6 2-5"/><path fill="#0d131a" d="M110 393q3-6 5-6 10 0 19 9 7 7 9 15l1 4-2-1-8-2-24-6-1-1q-2 0-2-3 0-4 3-9"/><path fill="#eeeeef" d="M116 388q8 0 16 10 7 7 9 14l-11-4-20-4-1-2v-1q0-3 3-8l4-5"/><path fill="#c8c9ca" d="M112 394l3-5q8 3 14 9t9 13q-6-3-28-7l-1-2v-1q0-3 3-7"/><path fill="#0d131a" d="M105 398q8 7 11 16l1 3h-2l-17-4-9-1-5-1-1-2v-2q0-3 4-9l5-6q6 0 13 6"/><path fill="#eeeeef" d="M114 416q-3-2-16-5l-13-3v-1l3-7 4-5q5-1 12 7 8 7 10 14"/><path fill="#c8c9ca" d="M107 413l-9-2-13-3v-1l3-6 3-5q9 6 16 17"/><path fill="#0d131a" d="M75 309l1-1q3-4 8-2 3 0 6 3l3 4-1 3-1 2-2 4-11 13v2q-1 2-7 0l-5-3-2-4-1-4 1-3 8-11 3-3"/><path fill="#fff1ac" d="M65 325l3-3 4-6 3-4 2-3q3-3 7-2l5 3 3 4-1 1-6 8-6 8-3 5q-12-2-11-11"/><path fill="#dcd096" d="M81 329q-4-7-10-11l1-2 3-4 2-3q3-3 7-2l5 3 3 4-1 1-6 8-4 6"/><path fill="#0d131a" d="M94 246h3l3 3 5 4 4 4 3 3q10 6 14 19 3 12 0 22-4 11-14 17-9 6-22 5-12-1-21-14-6-8-8-16l-2-7-1-3q-2-6-11-15l-16-17-4-4q-6-6-5-8l5-1 12 3 24 9-2-2-1-2v-1q2-3 13 2 9 4 13 4t7-3l1-2"/><path fill="#6cba5a" d="M111 261q10 6 13 17t0 21q-8 23-33 21-12 0-20-12l-9-21-1-3q-3-6-12-16l-16-18-3-4q-4-3-3-5h2l10 2q6 1 14 5 9 3 12 6l4 2-1-2-5-7-1-1h3l8 3 13 4q7 1 9-4h1q1-1 3 2l5 4 7 6"/><path fill="#5da24d" d="M82 268q9 8 12 23 3 16 9 20 5 3 14 0-10 10-26 9-12 0-20-12l-9-21-1-3q-2-5-9-14l-14-15q-15-16-3-11 7 2 26 12 15 7 21 12"/><path fill="#0d131a" d="M104 197q1-12 11-21 10-11 24-11 13 0 22 9 8 10 8 24t-9 23q-9 9-22 9-7 0-14-3t-11-7q-5-5-7-11l-2-12"/><path fill="#6cba5a" d="M117 176q9-9 22-9 12 0 20 8 8 9 8 23 0 13-8 21-9 9-21 9-6 0-12-3l-10-7q-5-5-7-10l-2-12q1-11 10-20"/><path fill="#5da24d" d="M107 196q1-10 8-18 8-9 20-11l-5 8-3 8q-3 8 3 14-5 10-1 20 3 7 9 11-6 0-12-3l-10-7q-5-5-7-10l-2-12"/><path fill="#0d131a" d="M124 184q5-4 8-4t4 3q2 2 2 6 0 3-3 6-2 3-5 3l-6-2q-4-3-4-6t4-6"/><path fill="#dcd096" d="M124 194q-3-2-3-4t4-5q4-3 7-3 2 0 3 3l1 5-2 4-4 2-6-2"/><path fill="#0d131a" d="M125 125l3 1 1 4v1l1 3-2 7-1 9q0 13 4 18l3 4 3 3 1 4-1 6q-1 4-4 7-4 4-7 4h-6q-3-1-5-4-5-7-8-20-4-14-2-26 0-6 8-14 7-7 12-7"/><path fill="#6cba5a" d="M127 134l-2 17q1 13 5 18l2 4 4 5-1 7-4 6-6 3q-5 1-8-3-4-6-7-21-3-13-3-22 1-6 8-14 6-7 10-7 2 0 2 4v3"/><path fill="#5da24d" d="M125 127q2 0 2 4v3l-1 8q-8 5-10 9v11q2 13 9 22l5 7-5 3q-5 1-8-3-4-6-7-21-3-13-3-22 1-6 8-14 6-7 10-7"/><path fill="#0d131a" d="M53 136q9-9 24-12l12-5 11-8 4-3 4-2 6-3 8 1 8 4q4 3 5 6h1l3 10q1 6-2 14-1 3-6 4l-6 1h-6q-16 15-24 38-4 12-7 16-3 3-9 2-8-2-18 24l-8 31-8 28-1 3-3-3-3-6q-8-21-7-56 0-35 8-60 5-15 14-24"/><path fill="#e5e5e5" d="M59 162q2-5 4-6l5-2h3l4-2 5-4 5-5 10-8q5-4 8-4h5l-13 12-13 10q-4 4-9 15l-3 8-4 7q-11 13-19 34-10 30-5 62-6-18-3-50 4-38 20-67"/><path fill="#e5e5e5" d="M59 197l9-13 4-6 3-8 4-8 4-6 13-11 13-13 4 3 3 4 1 3 1 1-12 12q-8 11-12 24-4 12-8 16-3 2-8 2t-10 8q-4 6-8 17l-11 34-5 27h-1q-5-32 6-64 4-12 10-22"/><path fill="#c8c9ca" d="M52 176l7-14q2-5 4-6l5-2h3l4-2 5-4 5-5 10-8q5-4 8-4h5l-13 12-13 10-1 1q-12 7-29 22M109 132l4 3 3 4 1 3 1 1-11 10q-2-3-6-4-5-1-12 2l20-19"/><path fill="#6cba5a" d="M57 160q-21 38-21 85l1 18q-4-21-4-42 0-33 9-60 9-29 38-35l11-5 11-8 7-5q5-4 12-2l7 4 5 4v1q3 5 3 9 1 5-1 12-1 2-6 4l-7 1h-4l-1-2-4-7q-3-4-10-4l-9 5-10 9q-6 6-9 7l-4 2-3 1-5 2q-3 1-6 6"/><path fill="#5da24d" d="M39 212q-3 16-3 33l1 18q-4-21-4-42 0-25 5-47-1 21 1 38M134 118l2 7q1 5-1 11-1 2-6 4l-7 1h-4l-1-2-2-4-3-5 3-1h2q7 2 12-1t5-10"/></svg>