<?xml version="1.0" encoding="utf-8"?>
<!-- Generator: Adobe Illustrator 21.1.0, SVG Export Plug-In . SVG Version: 6.00 Build 0)  -->
<svg version="1.1" id="Layer_1" xmlns="http://www.w3.org/2000/svg" xmlns:xlink="http://www.w3.org/1999/xlink" x="0px" y="0px"
	 viewBox="0 0 114.1 109.6" style="enable-background:new 0 0 114.1 109.6;" xml:space="preserve">
<style type="text/css">
	.st0{fill:#976DB0;}
	.st1{fill:#F0EDA7;}
	.st2{fill:#968A72;}
	.st3{fill:#B286C5;}
	.st4{fill:#7D579E;}
	.st5{fill:#968977;}
	.st6{fill:#D9D8A3;}
	.st7{fill:#BF92DC;}
	.st8{fill:#D3A2EA;}
	.st9{fill:#835FA2;}
	.st10{fill:#B58CD2;}
	.st11{fill:#674A87;}
	.st12{fill:#8F69AE;}
	.st13{fill:#CFC399;}
	.st14{fill:#CDCB9E;}
	.st15{fill:#CDC898;}
	.st16{fill:#A57CC5;}
	.st17{fill:#B98EDB;}
	.st18{fill:#1F1F2B;}
	.st19{fill:#847665;}
	.st20{fill:#B6AF7E;}
	.st21{fill:#E0E0AA;}
	.st22{fill:#D4D4A3;}
	.st23{fill:#B3A483;}
	.st24{fill:#D0C690;}
	.st25{fill:#8F824E;}
	.st26{fill:#988D53;}
	.st27{fill:#B4AA84;}
	.st28{fill:#928B56;}
	.st29{fill:#8C8169;}
	.st30{fill:#CD9DEB;}
	.st31{fill:#73664D;}
	.st32{fill:#9E77C1;}
	.st33{fill:#655C42;}
	.st34{fill:#71654E;}
	.st35{fill:#CDCA8F;}
	.st36{fill:#ECEAAB;}
	.st37{fill:#AEA67E;}
	.st38{fill:#B0A387;}
	.st39{fill:#A89A7A;}
	.st40{fill:#BAB58A;}
	.st41{fill:#857E54;}
	.st42{fill:#D3D29C;}
	.st43{fill:#AFAD84;}
	.st44{fill:#A79C79;}
	.st45{fill:#D3D1A1;}
	.st46{fill:#A5997A;}
	.st47{fill:#C6BD90;}
	.st48{fill:#B3A884;}
	.st49{fill:#A5967E;}
	.st50{fill:#0C0C0C;}
	.st51{fill:#CBC998;}
	.st52{fill:#65635F;}
	.st53{fill:#181817;}
</style>
<g>
	<path class="st0" d="M77.9,97.8c2.6,4.1,6.3,5.6,11.1,5.4c4.7-0.2,9.4,0.5,14.1,1.5c0.9,0.2,2.3,0.3,2.1,1.6
		c-0.1,0.9-1.4,1-2.2,1.1c-5.6,0.3-11.2,0.6-16.8,0.7c-1.7,0-3.2-0.8-4.7,1c-1.1,1.4-2.9,0.2-4.1-0.3c-5.1-1.9-10.1-4.2-15.3-5.9
		c-8.9-2.8-17.7-3.8-26.3,1.4c-1.6,1-3.4,1.5-5.1,2.2c-1.5,0.7-2.7,0.4-3.4-1.1c3.3-4.8,7.3-9,10.6-13.8c2.8,0.3,4.8,2.8,7.6,3.2
		c0.8,0.2,1.6,0.5,2.5,0.5c4.1,0.1,7-2.4,9.9-4.7c1.4-0.2,2.7-0.6,3.4-1.9c2.1-3.7,5.7-5.4,9.4-6.9c4.5-1.8,8.9-3.7,12.1-7.6
		c1.1-1.6,2.5-3,4.1-4.1c1.2-0.5,2-2.2,3.7-1.5c0.6,1.3-0.2,2.1-0.9,3c-3.8,4.8-8.2,9-13.7,12c-0.8,0.4-1.5,0.9-2.2,1.4
		c-6,3.9-6.1,6.2-0.4,10.5c1.1,0.8,2.2,1.7,3.6,1.8C77.4,97.3,77.7,97.5,77.9,97.8z"/>
	<path class="st1" d="M62.1,12.2c1.2-0.7,2.5-0.6,3.8-0.6c2.7-1.6,5.4-0.2,8,0c2.3,0.7,4.6,1.4,6.1-1.4c0.6-1,1.6-0.4,1.6,0.3
		c0,4,3.7,4.5,5.9,6.4c-0.6,2.3-2.5,2.5-4.3,2.8c-1.3,0-1.8-1.1-2.7-1.8c-1.8-1.3-3.7-2.3-6.1-3.2c2.3,1,4.3,1.8,5.9,3.2
		c0.5,0.3,0.8,0.8,0.7,1.4c-3.6,2.3-6.4,5.4-9.2,8.5c-7-1.5-14.1-3.1-21.3-2.5c-4.4-0.2-4.4-0.2-3.7,4.2c0.2,1.5,0.4,2.9,0.2,4.4
		c-0.1,0.9-0.4,1.8-1.1,2.3c-3.3,2-4.2,5.4-5.2,8.7c-0.5,1-1.9,0.9-2.4,1.8c2.4,1.1,1,2.5,0.1,3.5c-2,2.2-3.3,4.6-3.4,7.6
		c-0.2,0.5-0.5,1-1,1.2c-0.9,0.2-1.4-0.2-1.7-1c1.7-9.8,3.7-19.5,7.7-28.7c1.3-3,2.3-6.5,6.5-7c0.5-0.1,1.2-1,1.3-1.7
		c0.6-2.7,2.6-4.3,4.8-5.3c3-1.3,4.6-3,4.3-6.5c-0.1-0.9,0.1-2.3,1.3-2.8C58.6,6,58.9,6.9,59,7.6c0.5,2.5,0,4.9-1.1,7.2
		c-0.8,1.7-1.6,3.5,0,5.2c0.8,0.3,1.7,0.3,2.6,0.2c2.8-0.5,3.5-1.9,2.2-4.4c-0.4-0.9-1.1-1.7-1.1-2.7C61.6,12.7,61.8,12.4,62.1,12.2
		z"/>
	<path class="st2" d="M98.5,44.6c0.6,10.2-0.2,20.2-4.4,29.7c-0.6,1.3-1.4,2.6-2.1,3.9c0.3,1.3-0.7,1.6-1.5,2.2
		c-2.9,1.2-5.6,3.2-9,2.7c-0.9-2.2,1.1-3.1,2.2-4.2c4-4.2,7.6-8.5,9.5-14.1c0.4-1.2,0.8-2.3,0.6-3.6c-0.7-1.4-1.4-0.4-2,0.1
		c-0.9,0.7-1.6,2-3.1,1.4c-1.8-1.6-3.4-3.3-2.9-5.1c-0.3,1.6,0.6,3.6,2.5,5.1c-0.3,2.4-1.6,3.7-4,3.9c-0.9-0.4-1.3-1.1-1.5-2
		c-1.1-5.1-0.9-10.1,0.8-15c0.9-2.7,2.2-3.1,4.5-2.2c-1.9-1.1-2-1.1-3.4,0.2c-2,2.1-2,5-2.4,7.6c-0.4,2.4-0.4,4.7,0.1,7
		c-0.2,1.6,1.2,3.4-0.3,4.9c-2.5-0.5-2.5-2.6-2.5-4.4c-0.3-7-0.8-13.9,0.1-20.9c0.2-1,0.6-2,0.9-2.9c0.1-0.4,0.3-0.7,0.5-1
		c0.4-0.6,1-1.1,1.5-1.6c3.5-3.1,6.5-2.5,8.6,1.7c0.6,1.1,0.4,2.4,1,3.3c-0.3-1.3-0.4-2.7,1.6-3.1c1.5,0.4,2.2,1.6,2.5,3
		C96.7,42.6,97.2,43.8,98.5,44.6z"/>
	<path class="st3" d="M38,91.7c-2.4,5.5-6.2,9.8-10.7,13.6c-3.8-1-7.1-3-10.3-5.1c-0.8-0.5-2.3-1.2-1.6-2.5c0.6-1.2,2-0.8,3.1-0.5
		c2.4,0.7,4.8,1.4,7.1,2.3c1.1,0.4,1.9,0.6,2.5-0.6c2.3-3.7,2.1-10.3-0.6-13.7c-3.2-3.8-6.8-3.3-10.9-1.2c-5.9,3-10.6,7.2-13.9,13
		c-0.3,0.3-0.5,0.5-0.8,0.8c-0.4,0.4-0.9,0.4-1.3,0.5C-0.9,96.8,1,95.9,1.4,95c4-8.2,9.9-14.4,19.4-16.2c-0.1-1.8-2.6-2.3-2.3-4.3
		c0.1-2.1,1.3-2.1,2.8-1.5c1.3,0.5,2.4,1.4,3.5,2.2c2.1,1.5,4.1,1.8,6.1,0c0.7-0.3,1.4,0,2,0.3c0.8,0.6,1.7,1.1,2.7,1.3
		c0.9,0.3,1.7,0.7,2.1,1.6c0.6,1.5-0.3,2.9-0.2,4.4c0,0.9,0,1.8,0,2.7c0,0.5,0,1.1,0,1.6C37.1,88.7,39.1,90.1,38,91.7z"/>
	<path class="st4" d="M94.9,60.3c-0.1,7.1-4.4,12.2-8.6,17.3c-1.5,1.8-3.2,3.5-4.8,5.2c0,2.2,1.4,1.6,2.6,1.3c3.5-1,6.7-2.8,9.9-4.5
		c4.2-1.9,8.4-3.5,13.5-1c-2,1.4-3.7,0.5-5.1,1.1c-3.2,0-5.4,2.2-8.1,3.4c-4.4,2.1-8.6,4.8-13.7,4.9c-0.5-0.1-1-0.2-1.5-0.2
		c-1.9-0.2-4-0.5-5.1,1.3c-1.1,1.7,0.5,3.2,1.2,4.8c0.5,1.3,2.1,2.2,1.7,3.9c-2.8,0.1-7.5-3.5-8.5-6.6c-1-3.1,1.2-4.5,3.3-5.8
		c6.1-3.9,12.5-7.5,16.8-13.7c0.7-1,1.9-1.6,1.9-3.1c-0.1-3,2.8-4.7,3.2-7.5C93.9,60.5,94.3,60.1,94.9,60.3z"/>
	<path class="st5" d="M98.5,44.6c-2,1.2-2.6-0.4-2.7-1.7c-0.1-1.7-0.7-3.1-1.7-4.4c-0.7-0.7-0.2-1.4,0.2-2c-0.6,0.8-0.8,2.3-2.2,2.1
		c-1.5-0.2-1.8-1.9-2.6-3c-0.7-0.9,0.2-1.8,0.2-2.8c-0.3,0.9-0.8,1.9-1.9,1.6c-2.6-0.6-3.8,1.3-5.3,2.7c-0.5,0.4-0.7,1-1.1,1.5l0,0
		c-2.6-1-2.9-3.4-3.5-5.7c0.6-1.8,1.6-3.5,3-4.7c2.9-2.5,2.5-4.8,0.5-7.4c-0.4-0.5-0.5-1.1-0.7-1.7c-0.2-0.2-0.5-0.5-0.7-0.7
		c-0.2-0.7-0.1-1,0.7-0.7c0.7,0.5,1.5,1.1,2.2,1.6c1.9,0.8,2.3,2.6,3.1,4.2c1.7,3.6,2.2,3.7,4.6,0.8c0.3-0.4,0.7-0.7,1.2-0.8
		c2.1,2.3,2.4,5.6,4.5,7.8C97,35.6,97.8,40.1,98.5,44.6z"/>
	<path class="st6" d="M32.2,58.1c0.4,0.2,0.9,0.5,1.3,0.7c2.9-0.3,5.9-0.4,8.5,1.3c0.3,0.2,0.6,0.4,0.9,0.6c1.7,1.6,3.5,3.3,6.1,1.8
		c1.2-0.7,2.5-1.4,3.9-1.7c0.8-0.2,1.5-0.5,2.3-0.6c3.3,0,6.8-1.2,9.7,1.3c0.3,2.1-1.5,2.3-2.8,2.7c-3.6,1.3-7.3,2.2-10.7,4.1
		c-2.8,1.6-6,1.5-9.1,0.9c-1.5-0.5-2.4-1.7-3.5-2.6c-3.1-2.5-5-2.2-7.4,1c-0.2,0.3-0.6,0.4-1,0.5c-0.4,0-0.7-0.2-0.9-0.5
		C28.8,64,31.9,61.5,32.2,58.1z"/>
	<path class="st7" d="M31.2,75.2c-1.1,3-3.2,3-5.6,1.6C24.2,76,22.7,75,21.4,74c-1.3-1-2.2-1-2.9,0.5c-2.4-2.8-3.5-6.2-4.5-9.7
		c0.2-2.3,1.4-1.8,2.7-0.9c1.2,0.8,1.7,2.4,3.3,2.9c1.6-0.7-2-5.9,3.1-3.6c2.1,1.7,4.1,3.4,6.6,4.5c0,0,0.2,0.3,0.2,0.3
		c0.8,0.6,1.3,1.4,1.5,2.3C31.3,71.9,32.2,73.5,31.2,75.2z"/>
	<path class="st8" d="M23,63.2c-1.2,0.2-3.1-0.2-1.7,2.2c0.4,0.7,1.4,2.2-0.2,2.8c-1.1,0.4-2.1-0.4-2.9-1.2c-0.8-0.8-1.3-1.7-2-2.6
		c-0.9-1.1-1.6-0.7-2.2,0.4c-1.2-3-2.5-5.9-3.6-8.9c-0.3-0.9-0.5-2.1,0.5-2.7c0.9-0.6,1.9-0.1,2.7,0.5C17.3,56.3,20.5,59.3,23,63.2z
		"/>
	<path class="st9" d="M77.1,91.7c5.9-0.3,11.1-3,16.5-5.1c1.5-0.6,3.9-2.2,4.6-0.9c1.1,1.8-1.7,2.6-2.9,3.6
		c-3.3,2.7-6.9,4.7-10.9,6.1c-2-0.9-4.2,0-6.1-0.8C76.5,93.9,76.2,93.2,77.1,91.7z"/>
	<path class="st10" d="M102.4,79.6c1-1.2,2.6-0.3,4-1c-4.8-1.1-8.8,0.5-12.9,2c-1.2,0.3-2.6,1.3-3.1-0.9c0.6-0.5,1.1-1,1.7-1.6
		c4.7-1.8,9.4-3.5,14.7-2.2c2.2,0.6,4.2,1.3,6.2,2.4c0.6,0.3,1.4,0.8,1.1,1.7c-0.3,0.7-1.1,0.7-1.6,0.5
		C109.1,79.3,105.7,80,102.4,79.6z"/>
	<path class="st11" d="M77.1,91.7c0.6,2.2,0.6,2.1,3.3,2.3c1.4,0.1,3.4-1.1,4.1,1.4c-0.2,0.1-0.4,0.1-0.7,0.1
		c-0.4,0.4-1.1,0.3-1.5,0.6c-1.4,0.7-3.1,0.4-4.3,1.6c-0.3,0-0.6,0-1,0c-1.1-1.6-2.5-3-3.2-4.9c-0.6-1.7-2.4-3.6-0.4-5
		c2.2-1.4,4.9-2.7,7.3,0C79.5,89.2,78.3,90.5,77.1,91.7z"/>
	<path class="st12" d="M2.7,97c0.9-5.5,5.5-8.1,9.2-11.2c1.9-1.6,4.4-2.7,6.9-3.6c4.7-1.7,5.7-1.5,8.7,3.1
		c-9.3-2.7-15.7,1.7-21.4,8.3C5,94.8,4.2,96.3,2.7,97z"/>
	<path class="st13" d="M96.3,31.2c-2.9-1.7-3.9-4.5-4.4-7.6c-2.2-1.1-4.4,1-6.6-0.2c-0.8-1.4-1.6-2.9-2.4-4.3
		c1.5-0.8,3.1-1.5,4.6-2.3C92.7,20.2,95,25.4,96.3,31.2z"/>
	<path class="st14" d="M73.9,11.6c-2.7,1.8-5.3-0.6-8,0c1.3-2.2,1.3-5.2,3.9-6.9c1.2-0.8,0-2.7,0.7-4.7C71.6,4.2,72.7,7.9,73.9,11.6
		z"/>
	<path class="st15" d="M62.1,12.2c-0.1,0.3-0.1,0.6-0.2,0.9c-0.4,3.3-0.7,6.6-4.4,8.1c-2.4-1.1-1.8-3.2-1.2-4.8
		c1.2-2.9,1.9-5.8,2.7-8.8C60,9.1,61,10.7,62.1,12.2z"/>
	<path class="st14" d="M69.4,3c-0.1,0.2-0.2,0.4-0.4,0.6C69,3.4,68.8,3.2,68.8,3c0-0.2,0.2-0.4,0.3-0.6C69.2,2.6,69.3,2.8,69.4,3z"
		/>
	<path class="st12" d="M0.6,98.3C1,98.1,1.5,98,1.9,97.8C1.7,98.6,1.2,98.5,0.6,98.3z"/>
	<path class="st9" d="M82.2,96.1c0.4-0.5,0.9-0.7,1.5-0.6C83.4,96.1,82.8,96.3,82.2,96.1z"/>
	<path class="st16" d="M36.5,83c0.2-1.6,0.5-3.1,0.7-4.7c1.3-1.8,3.2-3.1,4.3-5.1c0.5-1,1.5-1.3,2.6-0.9c2.7,1.1,5.4,0.3,8-0.2
		c1.5,1.8,1.6,4.6,4.3,5.5c5.1,1.1,7.9-0.8,8.2-5.8c0.1-0.7-0.1-1.5,0.6-2c2.4-0.1,4.7,0.8,7,1.4c1.1,2-0.8,2.4-1.8,3.4
		c-0.9,0.9-2.8,1.4-2,3.1c0.8,1.6,2.5,1.2,4,0.9c2.9-0.5,5.3-2,7.9-3.3c1-0.5,2-1.6,3.4-0.7c-3.1,4.2-7.7,6.1-12.3,8
		c-3.8,1.6-7.6,3-9.6,7.2c-0.7,1.5-2.1,2.1-3.8,1.3c-1.1-1.3-0.7-2.9-0.9-4.3c-1.3-4.5-4.6-6.8-9.1-7.7c-1-0.3-1.9-0.1-2.9,0.1
		c-2.3,0.1-4.2,0.8-5.9,2.5C38.6,82.3,37.8,83.2,36.5,83z"/>
	<path class="st17" d="M83.7,74.5c-3.8,1.6-7.2,4.3-11.4,5c-1.5,0.3-3,0.4-4.2-0.5c-1.5-1.2-2-2.5-0.2-3.9c1.5-1.2,3.5-1.8,4.6-3.6
		c1.1-1.5,2.5-1.7,4.2-1.2c2,3.6,2.4,3.6,6.1,1.1c1.7-1.2,2.7-3.8,5.5-3c0.6,1.1-0.4,1.6-0.8,2.4C85.9,71.8,84.7,73,83.7,74.5z"/>
	<path class="st18" d="M45.6,78.3c0.7-0.2,1.5-0.9,2.2-0.1c0.3,0.7,0.1,1.4-0.1,2.1c-0.2,0.6-0.3,1.2-0.5,1.8
		c-1,2.7,0.3,3.6,2.8,3.5c1.1-0.1,2.2-0.1,3.3-0.1c1,0,2,0,3,0.2c1.1,0.3,1.6,1.1,1.5,2.2c-0.2,1.2-1.2,1.5-2.2,1.7
		c-2.7,0.5-5.5-0.2-8.2,0.5c-2,1.9,0.4,3.1,0.7,4.7c0.1,0.5,0,1-0.5,1.3c-0.6-0.2-1.3-0.5-1.9-0.7c-2.6-3.2-5.4-6.2-9.1-8.2
		c0-0.5,0-1,0-1.5c2.3-0.8,6.1-4,7.7-6.3C44.5,78.9,45.1,78.6,45.6,78.3z"/>
	<path class="st19" d="M47.6,96.2c0-0.4,0.1-0.8,0.1-1.2c-0.3-3.2,3.4-2.9,4.3-4.9c0.6-0.2-0.2-0.8,0.1-0.4c0.1,0.1,0,0.2-0.1,0.2
		c-2.2,0.9-4.3,0.9-6.3-0.4c3.3-1.7,6.8-0.2,10.2-0.8c0.7-0.1,1.6,0,1.7-1c0.1-1.1-0.8-1.1-1.5-1.3c0.3-1.6,1.2-1.2,2.2-0.7
		c0,1.8,0,3.5,0,5.3C55.5,94.5,51.9,96.2,47.6,96.2z"/>
	<path class="st20" d="M36.5,87.2c5.1,0.5,7.5,3.9,9.1,8.2c-3.2,0-5.3-2-7.7-3.8C37.9,90.1,35.9,89.1,36.5,87.2z"/>
	<path class="st16" d="M87.4,70.8c0.3-0.7,0.5-1.5,0.8-2.2c1.4-2.9,2.6-6.1,6-7.5c0.1,3.2-2.4,5-3.7,7.5
		C89.4,69.3,88.4,70,87.4,70.8z"/>
	<path class="st21" d="M40.2,45.3c0.4-3.8,1.1-7.5,5.1-9.4c0.7-0.3,0.9-1.1,1-1.9c2,0.3,1.5,2,1.7,3.2c0.4,2.6,2.1,3.4,4.3,3.1
		c2.9-0.4,4.6-2.4,5.4-5c0.7-2.6-1-3.9-3-4.9c-1.4-0.8-2.8-1.6-4.1-2.5c-0.6-0.4-1.4-0.9-1.2-1.7c0.3-1.1,1.3-1,2.1-1
		c1.6-0.1,3.2,0,4.9,0c4.5-0.1,8.8,0.9,13.1,2.2c1.3,0.4,2.6,0.8,3.4,2.1c0.6,1.4,0,2.7-0.6,4c-1.5,3.6-2.7,7.2-3.9,10.9
		c-0.8,2.2-2.1,3.7-4.6,3.6c-6.1-0.1-12.1-0.9-18.2-0.9C43.6,46.9,41.7,46.6,40.2,45.3z"/>
	<path class="st22" d="M34.3,58.1c-0.8-4.4,2.2-7.1,4.7-9.9c-0.9-1.3-2.6-0.1-3.3-1.4c1-0.7,2.2-0.8,3.2-0.7
		c9.7,0.8,19.5,0.3,29.2,2.2c1.7,1.1,1.3,2.5,0.6,3.9c-1.6,3.2-3.7,6.1-7,7.9c-2.2,0.3-4.4,0.2-6.6,0.1c-1.4-0.4-1.9-1.5-2.2-2.8
		c-0.8-3.1-2.6-3.7-5.3-2.4c-0.6,0.3-1.2,0.4-1.8,0.5c-1.7,0.3-2.7,1.1-2.1,3.1c0.3,0.9,0.7,2.3-1.2,2.4l0,0
		C40.4,58.2,36.9,59.4,34.3,58.1z"/>
	<path class="st23" d="M55.9,25.7c-2,0-4,0-6.6,0c2.5,2.2,4.9,3.4,7.3,4.6c1.9,1,2.7,2.5,2.4,4.6c-0.6,3.4-2.8,5.5-5.9,6.5
		c-2,0.7-4.1,0.1-5.5-1.4c-1.6-1.6,0.3-4.2-1.3-5.9c0.2-3.4-1-6.6-1.3-10c1.7,0.1,3.4,0.3,5,0.4C51.8,25.6,54.4,23.3,55.9,25.7z"/>
	<path class="st24" d="M80.8,19c4.1,3.6,4.3,5.4,1,9.4c-1.2,1.4-1.7,3.3-3.3,4.3c-1.5,0.2-1.8-1.3-2.7-1.9c-0.9-1.3-3.1-1.3-3.3-3.3
		C73.2,22.6,77.1,20.9,80.8,19z"/>
	<path class="st25" d="M68.6,49.2c-10.9-2-21.9-1.9-32.8-2.4c1.1-1.6,2.9-1.3,4.5-1.6c8,0.5,16,1,23.9,1.6c2.4,0.6,5-0.5,7.3,0.8
		c1.7,0.8,3.6,1.3,5.1,2.4c0.7,0.8,1.9,1.7,1,2.7c-1,1.1-2.2-0.2-3.3-0.5C72.3,51.4,70.1,50.9,68.6,49.2z"/>
	<path class="st26" d="M72.5,27.4c1,1.3,3.1,1.1,3.8,2.9c-0.2,0.3-0.6,0.5-0.9,0.6c-1.2,0.2-2.1-0.5-2.9-1.2c-5-3.4-10.7-3.6-16.4-4
		c-1.7-1.5-4.2,0.3-5.9-1.3C57.7,23.8,65.2,24.8,72.5,27.4z"/>
	<path class="st27" d="M57.5,21.2c2.7-2,2.4-5.7,4.4-8.1c1,1.8,3.7,3.2,2.7,5.6C63.3,21.6,60.2,21.4,57.5,21.2z"/>
	<path class="st28" d="M34.3,58.1c3,0.2,6.6-1.2,8.2,2.9c-2.8-1.5-6.1-1.1-9-2.2C33.8,58.6,34,58.4,34.3,58.1z"/>
	<path class="st24" d="M80.7,17.5c-0.2,0.2-0.4,0.5-0.7,0.7c-2.4-1.6-5-2.8-7.5-4.1C75.6,14.4,78.4,15.3,80.7,17.5z"/>
	<path class="st29" d="M74.5,51.4c0.8,0.4,1.5,0.8,2.8,1.4c-0.5-1-0.8-1.7-1.1-2.3c0.6-3.5,0.4-7.3,3.5-10c0.4-0.1,0.8,0.1,1.1,0.3
		c-0.5,7.2-0.1,14.3,0,21.5c0,1.7-0.1,3.5,1.6,4.7c0.4-0.1,0.7,0,0.8,0.4c-1.4,2.4-3.3,3.8-6.2,3.4c-1.5,0.3-3,0.5-4.5,0.8
		c-2.7,0.4-5.2-0.2-7.6-1.4c-1,0.2-1.4-0.6-2.1-1c-0.9-0.7-1.9-1.3-3-1.6c-0.8-0.7-2.9-0.2-2-2.3c4-1.5,7.7,1,11.6,0.9
		c0.6,0.1,1.2,0.3,1.7,0.7c-0.9-0.9-1.4-1.9-1.5-3.2C70.8,59.4,72.8,55.5,74.5,51.4z"/>
	<path class="st30" d="M76.9,70.7c2.3-0.8,4.4-2,6.2-3.6c0.1-0.7,0.5-1,1.2-1c1.7-0.8,2.9-2.1,4-3.5l0.1-0.3l0.3,0
		c1.4-0.5,2.1-1.7,3-2.6c1.3-1.4,2.3-1.1,3.1,0.6c-0.2,0.2-0.5,0.5-0.7,0.7c-2.4,2.2-3.2,5.6-6,7.5c-2.9,0.7-4.2,3.7-6.8,4.9
		c-1.4,0.6-2.8,1.6-4.2,0.9C75.5,73.5,77.5,71.9,76.9,70.7z"/>
	<path class="st31" d="M81.4,38.6c1.1-2.8,2.7-5.1,6-4.8c2.3,0.2,1.7-2.5,3.7-3c-1,2.6-2,5.6,0.7,7c2.3,1.2,1.4-2.7,3.5-2.9
		c-0.4,1.2-0.8,2.5-1.1,3.7c-2.6,1-0.5,3.2-1.1,5.2c-1.8-2.8-1.9-6.2-4.5-7.9C85,33.4,83.8,37.5,81.4,38.6z"/>
	<path class="st32" d="M90.4,79.7c0.8,1.2,2,0.7,3.1,0.9c-3.2,2.4-7,3.6-10.7,4.9c-1.1,0.4-2.1,0.3-2.5-0.8c-0.4-1,0.5-1.5,1.3-1.9
		C84.5,81.8,87.5,80.7,90.4,79.7z"/>
	<path class="st33" d="M84.3,66.2c-0.4,0.3-0.8,0.7-1.2,1c-0.3,0-0.5-0.1-0.8-0.1c-0.1-1.7-0.1-3.5-0.2-5.2c-0.5-2.2-0.5-4.5,0-6.7
		c0-2.1,0.1-4.3,1.1-6.2c0.8-1.5,1.8-3.5,3.6-3.3c2,0.3,2.5,2.3,2.9,4.5c-1.6-0.8-1.4-3.4-3.2-2.9c-1.8,0.5-2.4,2.4-2.7,4.1
		C82.8,56.2,82,61.3,84.3,66.2z"/>
	<path class="st31" d="M80.7,40.8c-0.3,0-0.6,0-0.8,0c-1.2-1.4-1.1-3.4-2.1-4.8c-0.6-2-3.2-3.1-2.6-5.6c0.4,0,0.7-0.1,1.1-0.1
		c0.7,0.8,1.4,1.6,2.2,2.4c1,2,2,3.9,3.1,5.9C81.4,39.4,81.5,40.2,80.7,40.8z"/>
	<path class="st34" d="M88.8,62.3c-0.1,0.1-0.3,0.2-0.5,0.3c-3.2-1.6-4-4.8-1.9-8.5C86,57.3,87.1,59.9,88.8,62.3z"/>
	<path class="st29" d="M82.1,55c0,2.2,0,4.5,0,6.7C81,59.5,81.1,57.3,82.1,55z"/>
	<path class="st35" d="M45.6,78.3c-0.4,0.9-0.8,1.8-1.3,2.7c-1,1.7,0,4.5-1.9,5.2c-1.7,0.6-3.9-0.2-5.9-0.4c0-0.9,0-1.9,0-2.8
		C39.1,80.5,41.4,77.6,45.6,78.3z"/>
	<path class="st29" d="M52.3,72.4c-2.4,1.7-5,2.1-7.7,0.9c-1.5-0.7-2.1-0.4-2.8,1c-0.9,1.9-2.3,3.5-4.6,4c-0.7-0.2-1.5-0.5-2.2-0.7
		c-0.3-0.2-0.4-0.5-0.2-0.8c0.5-0.7,1-1.2,1.8-1.6c0.3-0.1,0.7-0.1,1,0c1.6,0.1,2.3-1.1,2.7-2.2c0.9-2.3,2.5-2.7,4.8-2.4
		c2.6,0.4,5-0.3,6.8-2.3c1.4-0.7,2.1-2.6,4.1-2.2c0.3,0.3,0.4,0.6,0.5,0.9C55.3,69,54.1,70.9,52.3,72.4z"/>
	<path class="st36" d="M31.2,75.2c-0.3-1.6-1-3.2-0.6-5c0.8-2.4,0.9-5.6,4.8-5c0.8,0.5,0.6,1.3,0.5,2c-0.1,0.7-0.2,1.4-0.4,2.1
		c-0.1,0.5-0.4,0.9-0.7,1.4c-1,1.5-0.4,3.2-0.4,4.8c0,0.4-0.2,0.7-0.4,0.9c-0.5,0.2-1,0.1-1.5-0.2C32.2,75.8,31.7,75.5,31.2,75.2z"
		/>
	<path class="st37" d="M32.7,76.1c0.6,0,1.1-0.1,1.7-0.1c0.5,0,0.8,0.1,0.6,0.7c0,0.3,0,0.5,0,0.8C33.9,77.6,33.2,77,32.7,76.1z"/>
	<path class="st38" d="M85.3,23.4c1.6-1.2,3.7-0.1,5.5-1.5c0.8-0.6,1.1,0.8,1.2,1.6c-0.2,0.2-0.4,0.3-0.5,0.5
		c-0.5,1.8-1.2,3.5-3.7,3.1C85.4,27,85.7,25,85.3,23.4z"/>
	<path class="st39" d="M42.4,61c0.6-0.4,0.9-1,0.6-1.6c-1.9-3.3-0.3-4.3,2.9-5.1c6.4-1.5,6.4-1.6,8.6,5.1c-0.9,2.6-3.8,1.8-5.4,3.2
		c-0.1,0.1-0.1,0.2-0.1,0.3c0,0.1,0.2,0.2,0.2,0.2C46.1,65.2,44.1,63.5,42.4,61z"/>
	<path class="st40" d="M55.9,66.3c-1.7-0.1-2.3,1.7-3.7,2.3c-2.3,1.9-5,2.6-7.9,2.1c-1.2-0.2-2.8-0.2-2.7-2.2c4.7,0.4,9-0.4,13.2-3
		c2.9-1.8,6.9-1.5,10-3.6c3.4,0.1,4.8,1.4,5.5,5.2c-4.4,0.7-8.4-2.3-12.8-1.5C57.1,66,56.6,66.4,55.9,66.3z"/>
	<path class="st37" d="M41.7,68.5c2.1,2.8,4.9,1.4,7.4,1.1c1.1-0.1,2.1-0.7,3.1-1c-1.7,3.3-4.8,3.3-7.7,2.8c-2-0.3-2.7,0.1-3.5,1.9
		c-1.3,3-2.4,3.4-4,2.1c0-0.2,0-0.3,0-0.5c0-0.5,0.1-1,0.3-1.4c1.9-4.6,1.9-4.6-1.7-7.8c-3.3-0.2-3.7,2.7-5,4.6
		c-0.3-0.7-0.6-1.5-0.9-2.2c1.7-2.7,3.5-5.3,7.4-3.5C39.1,65.3,40.5,66.8,41.7,68.5z"/>
	<path class="st41" d="M70.3,67.1c-1-2.6-2.8-4.4-5.5-5.2c-3.4-1.3-6.9-1.2-10.4-0.8c-0.5,0.3-1.1,0.2-1.6,0.5
		c-1.2,0.5-2.5,1.1-3.7,1.6c-0.4,0-0.8,0-1.1-0.1c-1-0.4-0.3-0.5,0.1-0.7c2.1-1,4.1-2,6.2-3c2.5,0,5-0.1,7.4-0.1
		c3.9-0.5,6.5,1.2,8.3,4.6c0.6,1.7,1.9,3,3.1,4.6C71.6,68.8,71.4,67.3,70.3,67.1z"/>
	<path class="st39" d="M52.9,61.7c0.4-0.5,1-0.6,1.6-0.5C54.1,61.7,53.6,61.8,52.9,61.7z"/>
	<path class="st42" d="M52.3,72.4c0.7-2.1,1.6-4.1,3.7-5.3c1.5-0.9,3-0.4,4.5-0.1c1.2,0.1,1.9,1.1,2.8,1.6c1,3.1-0.4,5.5-2.6,7.5
		c-1,0.9-1.9,1.1-2.8,0c-0.8-1.3-0.6-2.8-0.7-4.6c-0.6,2.2,0,4.2-0.7,6c-0.2,0.3-0.4,0.6-0.7,0.7C53.2,77.2,52.1,75.2,52.3,72.4z"/>
	<path class="st43" d="M58.1,85.8c-0.8,0-1.6-0.1-2.2,0.7c-1,0-2,0-3,0c-1.6-2.5-4.3-4.1-5.9-6.6c0.3-0.5,0.5-1.1,0.8-1.6
		C53.1,78.3,55.9,81.6,58.1,85.8z"/>
	<path class="st44" d="M55.8,78.3c0.1-0.3,0.2-0.7,0.3-1c0.8-0.3,1.4-1,2.2-1.3c2.8-0.3,3.6-2.5,4.4-4.6c0.3-0.9,0.4-1.9,0.6-2.8
		c0.5,0.5,1,1,1.6,1.5c1.6,2.7,0.6,5-1.3,7C61.3,79.6,58.7,79.7,55.8,78.3z"/>
	<path class="st45" d="M47,79.8c2.5,1.7,5.4,3.1,5.9,6.6c-0.5,0-1,0.1-1.5,0.1C44.5,86.8,44.2,86.3,47,79.8z"/>
	<path class="st46" d="M45.5,89.6c2.4,0,4.9,0,7.5,0c-0.4,3.4-4.5,2.8-5.4,5.4C45.7,93.7,45.5,91.7,45.5,89.6z"/>
	<path class="st47" d="M75.2,30.3c1.1,1.7,2.2,3.5,3.3,5.2c-1.6,3.2-3.1,6.4-4,10c-0.3,1.3-0.7,3.1-2.8,2.9
		c-2.5-0.5-5.1-0.5-7.5-1.5c1.6,0.1,2.4-0.8,3-2.2c1.7-5,3.5-10,5.3-14.9C73.5,29.3,74.2,30.3,75.2,30.3z"/>
	<path class="st48" d="M70.2,64c-2.3-2.3-5.1-3.8-8.3-4.6c2.6-3.1,6.2-5.7,6.7-10.2c2,0.7,4,1.5,5.9,2.2
		C74.8,56.2,71.3,59.7,70.2,64z"/>
	<path class="st49" d="M71.7,48.4c1.9-1.1,1.7-3.1,2.3-4.8c1-2.9,1.2-6.3,4.4-8c1.3,1.5,1.7,3.3,1.5,5.3c-2.5,2.8-1.3,6.9-3.7,9.7
		C74.7,49.7,72.9,49.7,71.7,48.4z"/>
	<path class="st37" d="M60.5,67c-1.5,0-3,0.1-4.5,0.1c0-0.3-0.1-0.5-0.1-0.8c0.3-0.7,1-0.8,1.6-0.7C58.2,66.7,59.9,65.8,60.5,67z"/>
	<path class="st50" d="M35,76.7c-0.2-0.2-0.4-0.5-0.6-0.7c-0.1-0.2-0.1-0.5-0.2-0.7c-0.4-1.7-0.6-3.5,0.1-5.2
		c0.2-0.3,0.5-0.5,0.7-0.8c0.4-0.7,0.9-1.5,1.8-0.6c0.7,1.3,0.7,2.7,0.5,4.2c-0.1,0.8-0.2,1.6-0.7,2.3C36.5,76.2,36.3,77.1,35,76.7z
		"/>
	<path class="st37" d="M36.6,75.3c0-0.7,0-1.5,0-2.2c1.6,0.3,1,1.3,0.7,2.2c0,0-0.1,0.1-0.1,0.1C36.9,75.3,36.7,75.3,36.6,75.3z"/>
	<path class="st51" d="M37.2,75.2c-0.1-0.8,0.1-1.6-0.7-2.2c0-1.5-0.1-3-0.1-4.5c-0.5-0.4-0.9-1-1.4-1.4c0.2-0.5,0.4-1.1,0.6-1.6
		c4.7,1.4,5.4,3,3,7.1C38.2,73.5,37.7,74.4,37.2,75.2z"/>
	<path class="st37" d="M34.3,70.1c0,1.7-0.1,3.5-0.1,5.2C33,73.5,32.9,71.8,34.3,70.1z"/>
	<path class="st52" d="M35,67.2c0.9,0,1.5,0.3,1.4,1.4c-0.5,0.3-0.9,0.5-1.4,0.8C35,68.6,35,67.9,35,67.2z"/>
	<path class="st53" d="M58.3,76c-0.2,1.3,0.1,3.5-2.2,1.3c-0.9-3-0.7-5.9,1.8-8.9C58.1,71.3,58.2,73.6,58.3,76z"/>
</g>
</svg>
