<svg xmlns="http://www.w3.org/2000/svg" version="1" width="313" height="269" viewBox="-0.45 -0.8 313.4 268.6"><path fill="#00a0b6" d="M165 88l3 1q1 1-1 3-5 7-6 15-1 9 3 18 3 6 8 11l10 8 9 9q5 5 8 13 3 7 1 16-2 8-6 15l-6 7q-1 4 1 10l8 11 7 8 7 8 4 6q0 4-3 7-6 7-29 1-18-5-37-7t-31 1q-7 1-13 5l-13 8q-8 6-13 3t-2-10l3-6 1-7v-7l-9-1-8-2-6-4-11-8q-6-4-12-4-6-1-12 2-5 3-9 8l-3 3-1-4q-2-15 10-24 11-8 26-7h1l13 1q7-1 11-5l3-4v3q2 6 6 10 4 3 9 2 4-1 6-6t1-12l-4-7 6 8q5 4 11 3t10-8l2-6 3-6-3 7v7q2 7 9 11 6 4 12 2 7-2 10-9 3-6 1-12-1-4-4-7 3-1 4-5l1-8-3-8q-14-18-7-36 3-8 10-14 6-5 14-7"/><path fill="#00a0b6" d="M78 235v7l-6 6-4 9q-1 6-3 5-3 0-4-5-1-6 2-12 2-6 6-11l9 1M55 228l6 4 8 2q-6 1-11 5-5 3-9 10-5 7-14 9-7 3-15 1t-13-8q-5-6-5-14 0-3 3-3 2 0 3 2 4 12 14 14 9 2 17-7l8-8q5-6 8-7"/><path fill="#e3c582" d="M77 171q-3 1-5 5t-1 10l-3 4q-4-2-6-6-4-4-3-10 0-6 6-11 7-4 13-4l20 8q4 1 8-3 3-3 4-7 9-9 20-11 11-1 21 6l-1 8q-2 5-4 6-3-4-7-5h-9q-6 1-9 6l-3 6-2 6q-4 7-10 8t-11-3l-6-8-6-4q-3-2-6-1"/><path fill="#00a0b6" d="M4 147q12-7 22-1 11 7 15 27 2 9 8 12 5 2 13-1 2 4 6 6-4 4-11 5l-13-1h-1q-9-2-12-12l-2-9-2-10q-2-7-8-10-5-3-14-1-3 1-4-1 0-3 3-4"/><path fill="#e3c582" d="M213 205q7-1 13 1l-10 4q-7-4-14-3 5-2 11-2"/><path fill="#00a0b6" d="M194 197l6-3q11-4 22-3 9 1 19 6 7 3 15 9l14 11q9 7 18 4 9-2 15-10 3-4 6-4 3 1 1 5-3 11-11 16-8 6-17 6-12 0-21-7l-18-13q-8-6-17-8-6-2-13-1-6 0-11 2-9 2-13 7-2-6-1-10l6-7"/><path fill="#e3c582" d="M167 92q2-2 1-3l-3-1q-9 2-15 8t-9 14q-2 8-1 17 2 10 8 18l2 3 1 4q-10-7-21-6-11 2-20 11v-1q0-6-3-10t-8-4l-19 4-15 5q-2-26 9-53 12-28 31-44t45-21q27-6 52 2 10 3 19 8 18 11 30 30 10 15 14 31l2 9q5 25-2 48-7 22-24 36-10-5-19-6-11-1-22 3l-6 3q4-7 6-15 2-9-1-16-3-8-8-13l-9-9-10-8q-5-5-8-11-4-9-3-18 1-8 6-15"/><path fill="#00a0b6" d="M241 147l-1-14q2-9 8-17 7-8 17-12l9-2q5-1 6 1 0 2-4 5l-9 5q-8 6-11 14-2 7-2 15v15q0 8-3 13-6 10-26 15l-14 4q-8 2-11 5l-6 3q4-7 6-15l11-7 11-3 9-4q4-2 7-7t3-14M254 236h4l-2 4q-5 5-12 6-8 0-13-4-5-3-9-8l-8-8q-4-4-9-4-6 0-8 3l-8-11q4-5 13-7 7-1 14 3l8 6 6 7q5 10 12 13t12 0"/><path fill="#e3c582" d="M217 25l4 18q-9-5-19-8l6-6 6-5 2-1 1 2M79 159l-16-6-1-1 1-1 17-5 19-4q5 0 8 4t3 10q0 3-3 7-3 5-9 4l-19-8"/><path fill="#fffac6" d="M71 189v-3q-1-6 1-10t5-5q3-1 6 1l6 4 4 7q1 7-1 12t-6 6q-5 1-9-2-4-4-6-10M118 181v-7l3-7q3-5 9-6h9q4 1 7 5 3 3 4 7 2 6-1 12-3 7-10 9-6 2-12-2-7-4-9-11"/><path fill="#f0e78e" d="M145 221q-1 7-8 12-7 6-19 7l-6-4-5-7v-1l2-1q24 1 36-6M133 202q7 3 10 9-5 5-20 8-14 2-16 0t0-10q3-7 8-11 10-1 18 4"/><path fill="#0d131a" d="M123 219q15-3 20-8 2 2 2 5v5q-12 7-36 6l-2 1v1l5 7 6 4-7 1-8-1-3-4-1-6-1-2-1 1-7 1-5-1-2-5v-5q1 3 8 2 7 0 7-2l-2-7-1-10 7-2 13-2q-5 4-8 11-2 8 0 10t16 0"/><path fill="#f0e78e" d="M97 229l1-1 1 2 1 6 3 4q-6-1-11-4t-7-7l5 1 7-1M98 219q0 2-7 2-7 1-8-2 1-5 4-9 3-5 8-8l1 10 2 7"/><path fill="#e3c582" d="M97 85q5 0 8 4 5 4 3 12-1 5-5 9-5 3-10 1l-21-10-17-10q-2-1-1-2l2-1q26-3 41-3M87 36l15 6 15 8q3 1 3 5 1 5-4 10-4 4-10 4-5 0-6-2l-9-15-6-13v-2l2-1M163 36h-9q-4-1-4-3l1-14 2-15q1-5 4-1l7 12 9 15q0 2-3 4t-7 2M65 154l5 2 6 3-5 1-5 2-1-3v-5"/><path fill="#008c9f" d="M78 235v7l-5 5-4 8-5-14 5-7 9 1M55 228l6 4 8 2-9 3-9 9q1-7-2-14l6-4"/><path fill="#bfa56f" d="M90 178q8 4 15 3 5-1 12-7l-4 8q-3 5-7 5-5 1-10-2l-6-7M59 178l6 2 6-2v8l-3 4q-4-2-6-6-3-3-3-6"/><path fill="#008c9f" d="M32 184l-4-15q3 4 7 6 3 2 7 2 2 6 8 8 5 2 12-1 2 4 6 6-4 4-11 5l-13-1h-1q-8-2-11-10"/><path fill="#bfa56f" d="M213 205q7-1 13 1l-10 4q-7-4-14-3 5-2 11-2"/><path fill="#008c9f" d="M194 197l6-3 7-2q3 9 12 13-9-1-17 2-9 2-13 7-2-6-1-10l6-7"/><path fill="#008c9f" d="M200 194l-6 3q4-7 6-15 7-6 17-9 21 5 37-13l-3 10q-6 10-26 15l-14 4q-8 2-11 5"/><path fill="#bfa56f" d="M167 94l3-6q7-13 22-20t30-5q16 1 28 11 12 12 15 30-10 4-17 12-6 8-8 17l1 14q0 9-3 14t-7 7l-9 4-10 3-12 7 1-9q0-5-2-9-2-6-7-11-4-5-12-10-14-10-17-23-3-8 0-18l4-8"/><path fill="#bfa56f" d="M241 197q-12-7-23-7-9 0-18 4 3-3 11-5l14-4q20-5 26-15 3-5 3-13v-15q0-8 2-14 3-9 11-15 4 23-1 43-6 25-25 41"/><path fill="#008c9f" d="M220 225q5 4 7 15l-6-7-7-7q-4-4-9-4-6 0-8 3l-8-11q4-4 11-7 3 5 9 10l11 8"/><path fill="#bfa56f" d="M218 30l3 13-13-6q6-2 10-7M109 150l1 6q0 3-3 7-3 5-9 4l-8-4q6 1 11-4t6-14l2 5"/><path fill="#dcd8ac" d="M85 194q6-2 8-10 1 7-1 11-2 5-6 6t-7-1q-3-1-5-5 5 2 11-1M122 188q7 3 16-1 10-5 12-14 2 6-1 12-3 7-10 9h-9q-5-2-8-6"/><path fill="#c9c279" d="M137 224l8-3q-1 7-8 12-7 6-19 7-4-1-7-5 16-2 26-11M92 236h9l2 4q-7-1-11-4"/><path fill="#bfa56f" d="M108 101q-1 5-5 9-5 3-10 1l-19-9q13 0 20-2 9-4 11-12 5 4 3 13M117 50q3 1 3 5 1 5-4 10-4 4-10 4-5 0-6-2l-6-10q14 0 21-8l2 1M173 30q0 2-3 4t-7 2h-9q-4-1-4-3v-2q11-3 17-11l6 10"/><path fill="#008c9f" d="M201 178q-1 10-7 19l-6 7q-1 4 1 10l10 12 12 15q3 2 3 5v7q-3 4-10 4-8 1-21-2-18-5-37-7t-31 1q-7 1-13 5l-13 8q-3 3-7 3h-7q-6-4 1-16 3-5 2-14-6 1-13-1-9-3-17-10-10-9-20-8-8 1-15 7 5-9 13-12 9-4 21 0l8 4 6 5q8 5 23 8 4 6 9 9 9 5 21 4 15-1 23-8 5-4 8-11 17-5 33-18 15-12 23-26"/><path fill="#bfa56f" d="M137 161l8-2q5-2 6-7v5q-1 5-5 9l-3-3-6-2"/><path fill="#0d131a" d="M65 164l-2-11 2 1 2 9h-1l-1 1M96 60l1 2q-9 11-16 24h-3q7-15 18-26M130 37l20-6v2q-20 4-36 15l-2-1q8-6 18-10M215 209l10-4 3 1q-5 3-11 4h-1l-1-1M188 32l-15-1v-2l15 1q20 4 37 15t28 27q9 15 13 32h-2q-4-16-13-31-11-16-27-27-16-10-36-14M243 198l-3-2q14-11 21-28 5-13 6-27 1-13-1-27l1-1 1-1q3 15 2 29-2 15-7 28-7 18-20 29M72 101l1 1 1 1-1 2q-9 25-8 46h-2l1-22 6-24 2-4"/><path fill="#0d131a" d="M77 159l2 1 2 1q-8-2-15 3-7 4-7 10t3 10l6 5v1l-1 1q-10-7-10-17 0-6 6-11 6-4 14-4"/><path fill="#0d131a" d="M63 152l17 7q13 6 19 7 3 1 5-1 5-4 5-10t-4-10l-6-2-19 4-17 5m0 2l-2-2 2-1v-1l17-5 19-4q4-1 7 2 5 5 5 12-1 8-6 12-3 2-7 1-8-2-35-14M105 89l-3-2-5-1q-16 0-41 3h-2l1 1 18 10 20 11q4 1 8-1l4-4q2-2 2-5 2-8-2-12m-7-5q6 0 9 4 4 5 2 13-1 8-7 11-4 3-9 1l-21-11-18-10q-5-4 2-5l42-3M102 43l-15-6q-2-1-1 1l6 14 9 15q1 2 6 1 5 0 8-4 4-4 5-8 0-4-3-6l-15-7m-15-7l15 5 16 7q3 2 3 7 1 5-5 11-3 3-9 4t-8-2q-5-7-15-29-2-5 3-3"/><path fill="#0d131a" d="M110 158v-2q7-9 19-11 13-2 22 6v1l-1 1q-8-7-20-6-11 2-20 11M121 168l-2 4-1 3-4 9q-3 4-8 5t-9-3q-3-1-6-7l-2-3v-1l7 8q5 4 10 4 4-1 7-5l3-7 3-6 3-4-1 3"/><path fill="#0d131a" d="M165 87q4-1 5 1 1 1-1 5-6 7-6 15-1 9 3 17 2 6 7 10l8 8q8 5 11 9 6 5 9 13 3 11-1 22-3 11-14 20l-3 2 2-3q9-8 13-19t0-21q-3-8-8-14l-10-8-9-8q-5-4-7-10-4-9-4-18 1-9 7-16l1-3h-3q-8 2-14 7t-9 12q-3 10-2 18 2 9 9 19 5 6 3 14-2 6-5 7l-2-1v-1l2-1 2-4q2-7-2-14-7-10-9-19-1-9 2-18 3-8 10-14 7-5 15-7"/><path fill="#0d131a" d="M163 120l-1-1 1-1q7 1 15 6 9 6 13 15v2h-1q-3-8-11-14t-16-7M65 141q-2-3-1-4 7-12 35-18 23-5 40-3l1 1-1 1h-20q-12 1-23 4-28 6-31 19M163 35l6-1 3-3-8-16-7-11-2-2-1 2-2 15-2 14 1 1 4 1h8m2-21l9 16-1 3q-3 3-11 4-9 1-13-2l-1-2 2-14 3-15 1-4 4 3 7 11M213 23q3-2 4-1l1 3 4 19h-1l-1-2-3-17-1-2-2 1-6 6-5 5h-2l6-6 6-6"/><path fill="#0d131a" d="M242 124q-1-11-8-18-7-6-15-6-9-1-18 9-9 11-10 26l2 18-3-2v-16q0-15 9-26t20-11q8 0 15 6t10 18l-2 2"/><path fill="#0d131a" d="M210 118q4-5 9-6 7 0 11 6 5 6 5 14l-3 12q-2 4-6 4-3-1-5-6-2-7 1-13 0-2 2-1 1 0 0 0l-1 2q-2 5-1 10t5 6q2 0 4-4l2-9q0-10-5-15-3-4-8-4-6 1-9 7-4 5-4 14 0 12 5 20 5 7 12 7 5 0 10-4 4-4 7-11v4l-7 10q-5 4-10 3-10-1-15-10-4-9-4-19 1-11 5-17"/><path fill="#0d131a" d="M241 133v19q0 6-2 9-4 6-8 8l-10 4-10 3-11 7v-1-1l11-7 9-3 10-3q4-3 7-8 3-3 3-8l-1-10v-9q2-12 11-21 10-9 24-11 6-1 6 2 1 3-4 6-15 8-19 19-3 7-2 21v11q0 7-3 11-4 7-13 11l-18 6-9 2-8 3-3 1h-2l8-5 12-3 18-5q9-4 14-12 2-4 2-9v-11q0-14 2-22 5-12 20-20 4-2 4-4l-4-1q-14 2-23 11-10 9-11 20M166 77q13 4 21 16 8 11 8 26l-2 3q1-14-6-26-8-13-22-17-20-6-45-5-27 1-39 10h-2l2-1q11-9 38-11t47 5"/><path fill="#0d131a" d="M188 51q12 7 18 21 5 14 2 30l-2 2q3-19-3-33-5-13-16-19-15-8-36-11-21-2-32 4v-2-1q15-4 35-2t34 11M204 36h3l4 2q15 10 18 30 2 9 0 17-1 8-4 14h-2q3-6 4-15V65q-5-22-23-29M251 73h1l1 2q2 7-2 15-4 9-15 17l-1-1q-1 0 0 0 11-8 15-18 4-9 1-15M254 133h8l6 3v2q-1-2-6-3l-8-1v-1M254 161v-1l5 1 4 5-1 1h-1q0-2-3-4l-4-2M194 198v-2q19-11 40-4 8 3 17 9l14 11 6 4q8 6 16 5 8-2 15-11 4-4 7-4 4 1 2 7-4 11-12 17t-18 5q-12 0-23-8l-8-7-7-5q-15-10-31-9-15 1-22 9l-1-1v-1q8-8 23-9 17-1 31 9l8 6 9 7q10 7 22 7 9 0 17-5 7-6 10-16 2-4 0-4-2-1-5 3-7 9-16 11t-18-4l-5-5q-20-15-32-19-20-7-39 5v-1"/><path fill="#0d131a" d="M254 235h5q1 2-2 5-5 6-13 7-7 1-14-4-4-2-9-8l-7-9q-4-3-9-3t-7 3l-1-1-1-1q3-3 9-3l10 4 7 8 9 9q5 3 12 3t13-5l1-3h-2q-6 3-13 0-8-3-13-13-4-8-11-13-8-5-18-4h2l4-1q8 0 15 5l9 12q5 9 12 12 6 3 12 0"/><path fill="#0d131a" d="M115 250q-6 1-13 5l-13 9q-4 3-9 4l-6-2q-2-2-2-6l2-7 3-8v-10l2-1v11l-3 8-2 6q0 3 2 5t5 1l8-4 13-8 13-5q11-2 31-1 19 2 37 7 14 4 22 3 6-1 8-5 3-4-1-10l-9-10-12-14q-5-7-4-13l2-2 1-1q-3 6 2 14l12 15 10 10q4 8 1 13-2 4-9 5-8 2-23-2-19-6-37-7-20-3-31 0"/><path fill="#0d131a" d="M68 234l1 1h1l-7 9q-2 7-1 13 1 5 3 4 2 0 2-4 1-5 5-9 3-5 7-7v1l-1 1-6 6-3 9q-1 7-4 6-4-1-5-8-1-6 2-12l6-10"/><path fill="#0d131a" d="M70 184l1 1v2q-4 7-12 9l-14-1q-8-1-16 1-9 3-14 8-9 8-8 21l1 3 3-2q3-5 9-9 6-3 13-2l9 3 8 6 13 8q7 3 16 2h2l-2 1q-9 2-17-1l-12-8-8-6-10-4q-5 0-11 3-5 3-9 8-2 3-4 3-2-1-2-5-1-7 1-12 2-6 7-10 12-12 31-9h15q7-2 10-10"/><path fill="#0d131a" d="M54 227l1 1v1q-4 1-12 11l-9 9q-6 3-12 2-5-1-9-5t-5-9q-1-3-3-3t-2 3q0 7 4 13 4 5 11 8 8 2 16 0 9-2 14-10l9-9q5-4 10-5h4l2 1q-14 1-23 15-6 8-16 10-9 3-17 0-7-3-11-9-5-6-5-13 1-5 4-5 3-1 4 3l5 9 8 4q6 2 12-2l8-9 5-6 7-5M4 146l10-4q6 0 10 2 7 3 11 9 5 8 7 20 1 8 6 10l6 2 7-2 1 2q-8 3-14 0t-8-12q-2-11-6-18t-10-10q-5-2-10-1-4 0-10 3l-2 4 3 1q9-2 14 1 6 3 8 10l3 10q1 9 3 13 4 6 11 8h-4q-6-2-9-8l-3-12-1-6-1-5q-2-7-8-9-5-3-12-1-5 1-6-2 0-2 4-5M77 172q-4 1-5 7v10q1 6 5 9 4 4 9 2 4-1 5-5 3-5 1-12-2-5-6-9-5-3-9-2m-7 17q-2-7 1-12 2-5 6-6 4-2 9 2 6 3 7 10 2 8 0 13t-7 6q-4 1-9-2-5-4-7-11M120 170q-2 5-1 11 2 7 8 10 6 4 12 2 7-2 10-8 2-6 1-11-2-7-8-11-5-3-12-2-7 2-10 9m-2 12q-2-8 2-14 3-6 10-8 8-2 14 2t8 11q1 6-2 12-3 8-10 10-6 2-13-2-8-4-9-11M240 181v-1h1l4 4 2 6v1l-1 1q0-4-2-7l-4-4M212 155v2l-6 3h-3l2-1 7-4M206 137v1l-7 1h-3l3-1 7-1M210 121l-1 1-9-2-2-1h3l9 2M137 232q8-6 7-15 0-4-3-8l-9-7q-13-6-30-2-10 3-15 10-4 7-3 14t9 12q8 5 18 4 17 0 26-8m-4-31l10 7q3 4 4 9 1 9-8 16-10 8-28 9-11 1-20-5-8-6-9-13t4-15q5-7 16-10 17-5 31 2"/><path fill="#0d131a" d="M113 198h3q-4 3-7 8l-2 9v3l6 1 10-1q15-3 20-8l1 1v1q-6 5-21 7-14 3-17 0l-1-5 3-8 5-8M95 202h1l1 11 1 6v1q-2 2-8 2l-7-1v-2h1q0 2 6 2t7-2q-3-8-2-17M98 230v-1h-1l-6 1h-6l-1-2 6 1 7-1h2l1 2 1 6 3 5h-1l-1-1q-3-3-4-10M145 220v2q-13 7-36 6h-1v1l5 7 6 4q1 0 0 0l-2 1-6-4q-3-3-4-7v-3h2q24 0 36-7M128 171q-1-5 2-5 3-1 3 3l3 8 2 9q1 4-1 5-3 1-5-3l-3-8-1-9M76 179q0-3 2-4 2 0 3 3l4 15q1 4-1 4-3 0-5-3l-2-6-1-9"/><path fill="#fff" d="M79 178l-1 2-1 1h-2l-1-2v-1l2-2 1 1 2 1M130 169v3l-2 1h-2l-1-2v-3l2-1 2 1 1 1"/></svg>