<?xml version="1.0" ?><svg enable-background="new 0 0 512 512" id="Layer_1" version="1.1" viewBox="0 0 512 512" xml:space="preserve" xmlns="http://www.w3.org/2000/svg" xmlns:xlink="http://www.w3.org/1999/xlink"><circle cx="261.5" cy="256" fill="#94C268" r="183.7"/><linearGradient gradientUnits="userSpaceOnUse" id="SVGID_1_" x1="261.5117" x2="261.5117" y1="432.6668" y2="79.3338"><stop offset="0" style="stop-color:#FFFFFF;stop-opacity:0"/><stop offset="1" style="stop-color:#FFFFFF;stop-opacity:0.8"/></linearGradient><path d="M261.5,432.7c-97.4,0-176.7-79.3-176.7-176.7S164.1,79.3,261.5,79.3S438.2,158.6,438.2,256  S358.9,432.7,261.5,432.7z" fill="url(#SVGID_1_)"/><path d="M384.5,144.4c-2.9-6.9-10.8-10.1-17.7-7.2L264.8,180L156,137c-6.9-2.7-14.8,0.7-17.5,7.6  c-2.7,6.9,0.7,14.8,7.6,17.5l105.3,41.6v32.6c0,7.5,6,13.5,13.5,13.5s13.5-6,13.5-13.5v-32.7l98.9-41.6  C384.1,159.2,387.3,151.2,384.5,144.4z" fill="#71964A"/><path d="M384.5,139.1c-2.9-6.9-10.8-10.1-17.7-7.2l-101.9,42.9l-108.9-43c-6.9-2.7-14.8,0.7-17.5,7.6  c-2.7,6.9,0.7,14.8,7.6,17.5l105.3,41.6v32.6c0,7.5,6,13.5,13.5,13.5s13.5-6,13.5-13.5v-32.7l98.9-41.6  C384.1,153.9,387.3,146,384.5,139.1z" fill="#ED784C"/><linearGradient gradientUnits="userSpaceOnUse" id="SVGID_2_" x1="261.5117" x2="261.5117" y1="240.606" y2="134.8775"><stop offset="0" style="stop-color:#FFFFFF;stop-opacity:0"/><stop offset="1" style="stop-color:#FFFFFF;stop-opacity:0.8"/></linearGradient><path d="M264.8,240.6c-5.2,0-9.5-4.3-9.5-9.5v-35.3l-107.8-42.6c-2.4-0.9-4.2-2.7-5.2-5.1  c-1-2.3-1.1-4.9-0.1-7.3c1.4-3.7,4.9-6,8.8-6c1.2,0,2.4,0.2,3.5,0.7l110.4,43.6l103.4-43.5c1.2-0.5,2.4-0.7,3.7-0.7  c3.8,0,7.3,2.3,8.8,5.8c1,2.3,1,4.9,0,7.3c-1,2.3-2.8,4.2-5.1,5.2l-101.3,42.6v35.3C274.3,236.3,270.1,240.6,264.8,240.6z" fill="url(#SVGID_2_)"/><ellipse cx="261.5" cy="367.2" fill="#71964A" rx="86.8" ry="65.4"/><linearGradient gradientUnits="userSpaceOnUse" id="SVGID_3_" x1="261.5115" x2="261.5115" y1="416.7638" y2="317.7287"><stop offset="0" style="stop-color:#FFFFFF;stop-opacity:0"/><stop offset="1" style="stop-color:#FFFFFF;stop-opacity:0.8"/></linearGradient><ellipse cx="261.5" cy="367.2" fill="url(#SVGID_3_)" rx="65.7" ry="49.5"/><g><circle cx="371" cy="254.8" fill="#FCEAA0" r="53"/><circle cx="371" cy="254.8" fill="#1A1F18" r="40"/><linearGradient gradientUnits="userSpaceOnUse" id="SVGID_4_" x1="371" x2="371" y1="271.3235" y2="201.8257"><stop offset="0" style="stop-color:#FFFFFF;stop-opacity:0"/><stop offset="1" style="stop-color:#FFFFFF;stop-opacity:0.8"/></linearGradient><circle cx="371" cy="236.6" fill="url(#SVGID_4_)" r="34.7"/></g><g><circle cx="154.5" cy="254.8" fill="#FCEAA0" r="53"/><circle cx="154.5" cy="254.8" fill="#1A1F18" r="40"/><linearGradient gradientUnits="userSpaceOnUse" id="SVGID_5_" x1="154.5056" x2="154.5056" y1="271.3235" y2="201.8257"><stop offset="0" style="stop-color:#FFFFFF;stop-opacity:0"/><stop offset="1" style="stop-color:#FFFFFF;stop-opacity:0.8"/></linearGradient><circle cx="154.5" cy="236.6" fill="url(#SVGID_5_)" r="34.7"/></g></svg>