<svg xmlns="http://www.w3.org/2000/svg" version="1" width="707" height="677" viewBox="0.0 -8.65 706.5 676.6"><path fill="#f2d4b4" d="M125 469q4-2 5-5 2 3 1 6l-4 4h-5l-5-3 8-2"/><path fill="#e95504" d="M372 391l12-26q4-7 9-6t4 10l-6 26-8 42q-1 7 3 8 4 2 11-3l29-26 23-22q2-3 5-4h5q5 3 0 11l-18 27q-15 23-19 32-2 4 1 6t9-1l28-13 22-11q8-3 11 0 3 4-4 10l-21 22q-14 16-21 27h-1q-3-8-10-14-6-6-14-8-7-3-15-1-8 1-15 6-8-2-24-13-14-10-21-10-5-1-12 3l-12 7-11 8q-7 4-13 4-7-6-16-6-11-1-20 5t-12 15h-4q-4-8-23-23-14-12-21-16l-5-5v-5q0-3 3-3h7l30 10 29 10q3 0 5-3 3-3 0-7-3-6-17-24l-19-27-2-6 1-5 5-1 6 3 27 24 26 23q3 3 7 1 3-3 3-8l-5-33-5-32q-1-7 3-9 5-2 9 6l15 33 14 31q3 6 7 6 3 0 7-6l18-39"/><path fill="#e95504" d="M299 482q6 0 13-4l11-8 12-7q7-4 12-3 7 0 21 10 16 11 24 13-9 7-15 17-6 12-6 25l31-8q34-9 45-10l-1-7h1q7-3 10-2 4 2 6 12-7 16-17 28-11 13-23 18-1-4-4-7l-7-6-3 9-6 8q-1-7-7-13-4-6-10-8 0 9-4 21-10 3-34 3-24 1-36-2-5-10-7-22-5 3-9 8-4 6-6 13-5-7-8-16-3 1-6 5-3 3-4 7-10-5-20-18-11-13-19-28l2-8q1-5 3-6l4-1 5 1h4l-2 11q14 1 35 7l35 10q0-13-6-24-5-12-14-18M160 377h-5q-5 0-8-2-4-2-6-6h4l4-3-2-8q-2-8-1-10 2-6 20-23l20-21q4-4-3-17l-5-10-4-7q-1-8 14-32 5 1 10 5l10 10 8 13q12 20 14 38 2 17-4 35-4 9-26 22t-40 16"/><path fill="#e95504" d="M240 200l-16 17q-9 11-9 16-2 7 0 17l1 16-8-13-1-13 2-11q2-6 8-13t14-13l9-3M141 369q2 4 6 6 3 2 8 2-2 3-6 3l-6-1q-7-3-6-11l4 1"/><path fill="#f2d4b4" d="M595 460v10q0 6-3 10-1 3-15 14l-30 26q-18 16-31 32-3 7-12 8-8 2-14-5-3-4-2-11 1-8 7-11 18-8 34-23 18-16 31-36l4-11q3-6 8-9 1 4 5 6-1 4 1 6l4 2q3 1 5-1t2-5l3-1 3-1"/><path fill="#f2d4b4" d="M531 536l16-16 16-9 12-6 5 4 1 1 3 7-2 6q-2 3-6 4l-7 4q-6 0-17 7-4 3-15 7l-21 10 15-19"/><path fill="#0d131a" d="M213 210q7-4 18-7-8 6-14 13t-8 13l-2 11 1 13-10-10q-5-4-10-5l14-20q2-4 11-8M425 125q22 6 32 12 11 6 29 35 17 24 28 48-15 7-25 21-13 15-10 31l-9 8q-6 4-13 6-25 7-44-5 8 2 18-6 7-6 15-18l2-12v-10l9-8 8-7q2-2 0-12-3-12-11-26-21-38-64-63 18 2 35 6"/><path fill="#e95504" d="M556 356q-8 4-15-1 12-4 22-12 0 10-7 13"/><path fill="#e95504" d="M569 57q11 12 10 29l-1 13v10q2 10 15 35l13 28q1 7-7 30l-7 26 4 14 4 19q1 28-19 62-17 27-44 34-23 6-49-5l11-6 9-7q9-12 10-26 2-13-2-26-3-11-10-19-6-8-12-8-4 0-8 4l-8 8q-2-16 10-31 10-14 25-21-12-24-27-48-19-29-30-35-10-6-32-12-17-4-35-6l-14-2q-7 2-21 14l-16 11q-4 1-6-7v-21q2-14 7-25 5-13 14-19-1-17 6-35 7-19 16-22 55-18 110-4 25 6 46 19 22 12 38 29"/><path fill="#f2d4b4" d="M664 580q7 7 8 14t-6 11q-5 3-10 2-4 0-7-2l-3-6q-2-6-24-33t-28-29l-7-5q-5-4-5-9 3 1 5-1l2-4q0-3-2-5-2-3-5-3 3-4 9-4t9 5l27 31q20 22 37 38M582 510h-1l-1-1 2 1M544 380q-5-3-9-9-4-7-3-13l9-3q7 5 15 1 7-3 7-13l4-4 7 7q2 5 2 11 0 8 6 31 6 25 16 56 3 7 0 12t-9 6l-5 1q-5 0-9-4-5-5-5-12 1-12-9-37-10-26-17-30"/><path fill="#f2d4b4" d="M582 523l2-6-3-7h1q3 0 5 3 2 2 2 5l-2 4q-2 2-5 1M539 543l19-8q11-6 16-3 3 1 5 6l-2 1q-2 0-3 2-3-2-5 0-2 1-3 5v5l3 4 1 4 2 2 1 1-8 2h-15q-14 1-32 10-17 9-26 17l-3 1 4-8 2-7q1-2-1-6l-4-7 6-2 6-2h7q4-2 7-6l23-11"/><path fill="#f2d4b4" d="M210 495q4-12 11-19 2 15 12 34 8 15 19 28 10 13 20 18 1-4 4-7 3-4 6-5 3 9 8 16 2-7 6-13 4-5 9-8 2 12 7 22 12 3 36 2 24 0 34-3 4-12 4-21 6 2 10 8 6 6 7 13l6-8 3-9 7 6q3 3 4 7 12-5 23-18 10-12 17-28l7-18 3-15q11 11 14 30 5 22-3 48l3 6 4 6 3 5q2 3 1 5l-2 7-4 8q-5 9-10 14-3-7-18-10-17-2-41 5-18 6-32 17-6 5-8 10-3 5-2 7-12 3-32 3-21 0-34-4 2-6-10-17-13-11-31-18-18-6-36-6-16 0-20 5l-2 2-8-11-6-11q-4-8-2-12l4-6 4-6 2-5-1-5-1-7-1-17q1-13 6-25"/><path fill="#f2d4b4" d="M197 566l-1 3 2 5q-14-11-28-16l-24-5-11-1q-5-1-8-4l1-2 1-1q4-1 5-4 2-2 2-5l-3-6q-2-3-5-3l-1-1h-1q4-4 9-6t7-1l9 7 12 7q12 8 26 14l16 7-4 6-4 6"/><path fill="#f2d4b4" d="M125 525q4 2 6 8 2 8-3 14h-1l-2 2q-12 15-31 50-14 25-18 36-2 3-5 4H61v-2q1-5-3-9-5-3-11-3 0-3 2-5l6-7q8-6 28-38 21-32 26-45 2-4 7-6t9 1M651 634l1 3 1 3q-5 0-9 5-3 6-2 9l2 3-6 1h-4l-5-3-3-3q-1-5-11-23l-14-25-12-21q-9-14-16-21l-1-1q-3-3-2-9 0-6 4-11 1-2 3-2l2-1h9q6 1 7 5l5 15q5 11 20 34l17 26q9 13 14 16M131 364l6 4q-1 8 6 11l6 1q4 0 6-3h4l2 8q1 4-1 6-15 14-23 33-8 20-7 39 0 4-5 6-5 3-10 2-6-2-9-8-3-8 2-20 6-13 11-31l5-20v-18l2-5 5-5"/><path fill="#f2d4b4" d="M569 541q2-2 5 0l-3 6-2 8q-4-3-3-9 1-4 3-5M584 463l5-1q0 3-2 5t-5 1l-4-2q-2-2-1-6l4 3h3M110 493q2-2 5-2-3 3-3 7l1 7q-3 0-4-2l-1-5 2-5M697 598q6 7 8 16l-8-3h-9l-8 5q-7 5-11 4-7 0-11-3-4-4-2-10 5 1 10-2 4-2 5-6 6 1 11-3l6-4q3 0 9 6M6 588q3-6 9-10h3l4 2q6 3 13 0 1 8 9 10l5 1 4-2q0 6-4 10-3 4-7 4-5 0-13-4l-10-4-8 1q-6 2-9 5 0-7 4-13M204 518v12l2 14-6-1-5-2-29-22-22-16-22-11q-4-2-6-8t-2-13l5 1q4 5 9 1l3-4-1-5 1-4 8 2 5 4q6 13 23 28l21 16q7 5 16 8"/><path fill="#f2d4b4" d="M105 486q7-4 14 1-3 1-4 4-3 0-5 2l-2 5 1 5q1 2 4 2l3 4 2 2q0 3-2 5l-6 3q-10 3-28 27l-13 19-6 15q-1 6-6 8-4 2-10 2-8 0-11-6-4-7 2-13l13-17 19-25 18-21 9-13q2-6 8-9M128 527q8 3 7 11 0 3-2 5l-4 2 2-10-3-8"/><path fill="#f2d4b4" d="M174 525l24 17 4 2h4l2 5-2 3-1 2-41-20-12-7-9-7q-4 0-10-3-6-4-14-4l-4-4-2-6q-2-10 5-16 1 2 10 7l17 11 29 20M462 597q7 1 12 4 4 2 5 5l-2 8-9 11q-14 14-38 19-22 5-38 0-7-2-10-5-4-2-4-5-1-2 2-6 2-5 7-9 13-12 33-18 24-7 42-4M301 616q13 11 11 18-1 4-8 7l-17 3q-23 1-41-7-16-7-27-20l-6-11q-2-5 0-7 3-6 21-6 18-1 37 6 18 7 30 17M672 635q5 1 13 8 9 10 9 20l-11-5h-10l-9 4q-5 3-10 2l-7-4q-4-3-5-6-1-5 4-10 4-5 8-4 3 1 9-2l9-3"/><path fill="#e95504" d="M457 286q7-2 13-6l9-8 8-8q4-3 8-3 3 0 10 6 7 8 11 18 12 28-9 55-7 8-17 13-14 8-32 8-17 0-34-7t-30-20q-13-15-19-33-4-13-2-30 3-17 9-19 2-1 5 2l7 7q10 14 19 20 19 12 44 5M165 184q25-16 32-16 9-1 26 3 20 5 34 14 9 6 9 8 1 3-11 4l-15 3-9 3q-11 3-18 7-9 4-11 8l-14 20q-15 24-14 32l4 7 5 10q7 13 3 17l-20 21q-18 17-20 23-1 2 1 10l2 8-4 3h-4l-4-1-6-4-3-4-16-21q-11-15-7-22 10-19 13-38 3-13 3-29v-22q1-10 6-16 11-12 38-28"/><path fill="#f2d4b4" d="M47 625q6 0 11 3 4 4 3 9 0 7-8 9t-18-3q-4-3-11-2-8 1-14 6 1-9 7-17 7-9 13-9l7 2q6 3 10 2"/><path fill="#fff" d="M263 481q9-6 20-5 9 0 16 6 9 6 14 18 6 11 6 24l-35-10q-21-6-35-7l2-11q3-9 12-15M407 477q8-2 15 1 8 2 14 8 7 6 10 14l1 7q-11 1-45 10l-31 8q0-13 6-25 6-10 15-17 7-5 15-6"/><path fill="#f2d4b4" d="M487 550l4 6 8 4-4 2-5 3-3-4-2-4v-3l2-4"/><path fill="#ca4800" d="M433 483q20-3 36-11-15 17-22 28h-1q-4-10-13-17M403 560l-3-9 10-2-3 6-4 5M294 550q-3 4-4 10l-7-13 11 3M423 556l-5-8 27-8q-11 12-22 16M312 561l-4-9q37 6 76 2l-2 6q-10 3-34 3-24 1-36-2M279 546l-4 5-3 5q-11-6-24-22 15 7 31 12M160 377h-5q-5 0-8-2-4-2-6-6h4l4-3-2-8q-2-8-1-10 1-4 9-12l14-15q2 15 18 22 14 6 31 3-10 10-27 19-18 10-31 12"/><path fill="#ca4800" d="M141 369q2 4 6 6 3 2 8 2-2 3-6 3l-6-1q-7-3-6-11l4 1"/><path fill="#d1b89d" d="M536 530l-9 10-10 12q-8 9-15 9t-12-6q-3-4-3-10 2-7 8-10l7-5 8-5q5 4 12 5 8 2 14 0M551 517q3 6 9 9l13 3-4 2q-3 0-22 9l-31 14 16-18q8-10 15-16l4-3"/><path fill="#ca4800" d="M556 356q-8 4-15-1 12-4 22-12 0 10-7 13"/><path fill="#ca4800" d="M600 261q1 13-3 27-5 16-16 35-5 9-13 17l-4 4q-10 8-22 11l-10 3q-20 3-42-5 10-6 17-14 13-17 13-35 25 0 46-11 22-12 34-32"/><path fill="#d1b89d" d="M566 382q-8-2-20 0l-6-7q-4-2-6-7-2-6-1-11l4-1 4-1q7 5 15 1 7-3 7-13l4-4 7 7q2 5 2 11l1 12 5 21q-8-7-16-8M516 554l6-3q3 7 11 10l17 3q-14 2-32 11-17 8-26 16l-3 1 4-8 2-7q1-2-1-6l-4-6 5-3 5-2q5 1 10-1 5-1 6-5M312 634q1-4-3-10t-13-12q54 11 96 3l-11 10q-4 4-4 10-14 4-33 3-18 0-32-4M197 566l-1 3 2 5q-14-11-28-16l-24-5-10-1q-4 0-6-2h25q14-1 24-7l15 6 11 5-4 6-4 6M131 364l6 4q-1 8 6 11l6 1q4 0 6-3h4l2 8q1 4-1 6l-9 10q-6 7-9 14-3-9-7-13-5-5-13-4 3-6 2-14v-10l2-5 5-5M659 607l12 5h14l-7 5q-5 4-9 3-7 0-11-3-4-4-2-10h3M699 612h5l1 2-6-2M44 590l6 1 3-2q0 6-4 10-3 4-7 4l-8-2-8-3q9-2 18-8M205 518q-2 7-1 14l2 12q-13-1-49-33l16 2q10 0 14-4l4 3q4 3 9 4l5 2"/><path fill="#d1b89d" d="M207 549l-2 5-20-9-19-9-17-12q-7-5-12-4l8-2q10-2 13-6 12 11 24 19 18 13 24 13l1 5M476 614q-5 9-15 17-13 9-31 13-22 5-38 1-13-3-14-11v-4l3-4q20 8 50 3 26-4 45-15M309 624l3 4v6q-2 4-8 7l-17 3q-22 1-41-7-11-4-19-12-7-6-11-13 20 12 47 16t46-4M675 658h-2l-9 4q-5 3-10 2l-7-4q-4-3-5-6v-4q13 6 33 8"/><path fill="#ca4800" d="M381 314q7 5 23 11 19 7 37 10 53 8 77-19-3 13-11 24-8 8-18 14-13 6-28 7-16 1-31-4-16-5-28-16-14-11-21-27M113 341q-8-11-11-19 11 11 29 12 20 1 35-9-19 20-20 23-1 2 1 10l2 8-4 3h-4l-4-1-6-5-7-7-11-15"/><path fill="#d1b89d" d="M58 629q4 3 3 8 0 7-8 9t-18-3l-3-2q15-2 26-12M487 550l4 6 8 4-9 5q-5-6-5-8v-3l2-4"/><path fill="#ca4800" d="M197 265q-11 3-18 15l-3-6-2-5q-1-3 5-16t11-15q8 4 16 14 10 10 13 20-10-12-22-7"/><path fill="#ca4800" d="M210 223l1 8q1 8 4 10l1 12v12l-3-5-6-9v-12q1-11 3-16M258 485l-4 6-3 5h-2l-3-1q0-2-14-14l-22-18 22 12q19 10 26 10"/><path fill="#0d131a" d="M244 493l7 2-1 2h-11l-4 7-1 10-2-2-1-5q2-10 5-13l8-1M452 496h6l4 5 3 8-1 3-1 1q-3-12-7-13l-4-1-6 3-1-2v-1l7-3"/><path fill="#0d131a" d="M220 474h2l1 2q3 21 18 44 14 22 32 34v2l-2 2q-15-9-31-33t-20-46q-12 15-14 38-2 20 3 32l-2 5-4 5-3 6-2 4q0 5 5 13l10 16v3l-1 2-12-17q-7-11-7-17 0-2 6-10l5-10q-5-20-1-39 4-22 17-36M492 565l5 5 2 6q0 4-5 14-7 12-15 18l-1-1v-2q7-6 12-17 4-8 4-12 0-3-5-10l-4-6-2-5q5-18 4-37-1-23-13-38-4 22-16 44-14 25-33 34l-1-2v-2q19-9 33-34 12-22 14-43l1-2 2 1q14 15 16 35 3 16-3 44l2 5 3 5"/><path fill="#0d131a" d="M281 542h2v1l3 8 5 7-1 2v2l-9-16-6 6-2 9-2 6q-2 0-2-6-1-5 3-11 4-5 9-8"/><path fill="#0d131a" d="M304 538h2v1q3 14 9 25 2 4 0 5l-3-4q-5-9-8-23-5 2-9 8-3 6-4 14-1 5-3 4t-1-7q1-8 6-14t11-9M385 539v-1h2q6 2 12 9 6 8 6 15 1 5-1 5-1 1-2-3 0-7-5-14-4-6-10-9l-2 14-2 9q-3 5-5 5-2-1 1-7l4-9 2-14"/><path fill="#0d131a" d="M404 561l-1-1-1-2q3-2 5-7 3-4 3-8 0-2 2-1 6 2 10 8 4 5 5 10l-1 6q-2 1-2-4l-4-9q-3-5-7-8-1 5-4 9l-5 7M313 564l-1-2v-2q11 3 36 2 25 0 33-4v2l-1 2q-9 3-32 4-23 0-35-2M481 610l-2 5q-5 10-17 18-14 11-31 14-19 5-34 1-9-1-15-6-7-4-7-7-1-3 2-8l8-9q14-13 35-19 24-7 42-4 16 2 19 10v5m-6 3l2-4v-3l-5-4q-4-3-11-4-17-3-40 4-20 7-33 18l-7 9-2 5 1 2 4 3q6 4 14 6 14 2 32-2 20-5 34-16 8-7 11-14M286 642q10 0 16-2 7-3 8-6v-5q-3-7-14-15-12-8-26-13-17-7-35-6-16 0-19 4-2 1-1 5 2 8 10 17 9 9 22 15 18 8 39 6m12-30q12 8 15 16l2 4v3q-2 4-9 7-6 3-16 4-24 3-45-6-15-6-24-16-8-9-10-20v-5l1-3q5-5 22-5 19 0 37 6 15 6 27 15"/><path fill="#0d131a" d="M312 636l-1-2 1-1q13 3 33 4 20 0 32-3l2 2v2q-16 4-35 3-17 0-32-5M488 594l3-4q8-8 28-17t31-10h14q7 0 8-2l1 2 2 2q-3 3-11 2l-14-1q-13 3-32 12t-30 18v-2M489 563l9-4 3 1 3 1-7 2-6 2h-1l-1-2M562 534l-10 5-17 8-20 10 2-5 36-17 9-5q5-3 9-2 4 0 6 4l3 5q1 1-1 1h-1q-3-6-8-6l-8 2"/><path fill="#0d131a" d="M565 552q-2-3-1-7l2-4 4-2q2-1 5 1v1l-2 1h-3q-2 0-3 4v3l2 3 1 4-1 1q-3-1-4-5M596 458q2 5 2 12t-2 11l-7 7-13 10q-17 13-27 23-18 16-30 32-6 9-17 9-10 0-14-6t-2-15q2-9 7-10 15-6 34-22 19-17 30-35l2-6 3-7q3-8 9-9l1 1v2q-5 3-7 10l-2 6-2 5q-10 16-29 33-20 18-37 26-4 2-6 8-2 7 2 12 5 4 12 4 6-1 9-4l11-13 16-17 18-17 16-13 12-9 6-7 3-9-1-9 1-2 2-1"/><path fill="#0d131a" d="M551 517l12-8q9-6 12-5 5 0 9 8 3 7-1 12-2 3-11 7h-6l8-4 6-4q3-3 0-9t-6-6l-14 7-15 8 2-3q2-3 4-3"/><path fill="#0d131a" d="M581 511l-1-2-1-1q7 0 10 5 4 6-1 10-2 3-6 2v-1-2l4-1q3-3 1-7-3-3-6-3"/><path fill="#0d131a" d="M668 581q4 3 5 7 2 5 0 11-1 4-7 8-8 4-15 1-5-2-7-7-6-12-25-36-19-23-25-26l-8-5q-6-5-6-9l1-2h2q0 3 4 7l8 6q7 5 27 27 21 24 25 36 2 4 6 6 5 2 11 0 5-3 6-6 2-8-6-16l-36-38q-25-26-29-33-2-4-7-4-5-1-8 2l-2-1-1-2q4-3 10-3 7-1 11 6 3 7 26 31 23 25 40 40"/><path fill="#0d131a" d="M683 594l6-4q3 0 9 7 7 8 8 17 1 2-2 1-8-4-13-3-4 0-7 3l-7 5q-4 3-9 3-10-1-14-7l-1-4v-5h4q-1 4 1 7l5 4 6 1 7-2 6-4 7-4q5-1 14 2-2-7-8-13-5-5-7-4l-3 2-6 3q-4 2-8 1v-1l1-1 6-1 5-3M649 629l4 6q2 2 2 5h-4l-1-4-4-4-13-16-14-23-19-30q-4-8-5-14l-2-5q-1-3-5-4-5-2-11 1-4 2-6 8-2 7 2 11 8 8 18 24l11 20 12 19 12 23q2 6 7 9 4 2 9 0l1 1 1 2q-7 3-14 0-6-3-8-8l-11-24-12-21-12-20q-10-16-18-22l-2-5 1-7q1-10 8-13 5-3 12-2 8 1 9 6l1 5 6 15 17 29 15 22 13 16"/><path fill="#0d131a" d="M672 637h-4l-4 2-5 2-6 1q-4-2-7 4-4 5-2 8l3 5 8 4 5-1 6-2 6-3h10q6 1 10 4-1-10-9-17-7-7-11-7m-18 1h5l5-3q5-2 9-1 5 1 10 5l8 10q4 7 4 14v2l-2-1q-4-3-10-4-6-2-10 0l-4 2-3 2q-8 4-14 2-7-2-11-10-2-5 3-12t10-6M540 378l-8-9q-3-4-2-11l3-1h2q-1 7 1 11l6 7q11 13 19 29 9 21 11 45 1 6 5 10 3 3 7 3 7 0 11-5t1-15q-21-64-22-83l-2-10q-2-6-6-8l1-2 2-1q5 3 7 9l3 12q2 19 8 41 2 10 13 42 3 11-3 17-4 5-13 6-5 0-10-5-5-4-5-10-2-25-13-48-8-16-16-24"/><path fill="#0d131a" d="M590 463l-1 4-3 3h-4l-4-1-2-4-1-5h2l1 2q0 3 2 4l2 1h3l3-4 1-1 1 1M382 365l6-6q3-2 5-1 3 0 4 3 2 4 1 8l-5 28-8 40q-1 5 2 6 3 2 9-3l52-47 6-4q3-1 6 1 2 1 2 4 1 4-2 8l-17 27-19 32v4l8-2 50-23q3-2 7-1 3 0 5 2 4 4-4 12l-19 21q-13 14-19 24l-3 1h-3q6-10 20-26l22-23q6-5 4-8t-9 1l-50 24q-7 3-11-1-3-3-1-7l20-32 17-27q4-6 1-8-4-3-9 3l-52 48q-7 5-12 3-6-2-4-9l8-40 5-28q1-8-2-9-4-1-8 6l-13 28-17 36q-3 7-8 7-5-1-8-6l-15-32-14-33q-3-5-7-5-4 1-3 8l5 32 5 33q1 6-3 9-5 3-9-1l-26-24-27-23q-5-5-9-2-3 3 1 9l19 27 18 25q3 4 0 8t-7 3q-7-1-59-20-7-2-9 2t5 9l22 17q19 15 23 22l-3 1-3-1q-6-8-22-22l-19-15q-4-3-5-6-2-4-1-6 2-3 5-4t8 1l58 18 4-1-2-5-16-24-19-27-2-8q0-3 2-5t5-2q4 0 8 4l26 23 26 23q3 3 5 2 3-1 2-7l-9-65 1-7 4-3q3-1 5 1 3 1 5 5l15 32 15 32q3 5 5 5l4-6 31-63"/><path fill="#0d131a" d="M314 479q-6 4-12 4l-4-2-3-2q6 2 14-2 5-2 12-8l12-8q8-3 14-3 9 1 25 13l11 7q7 3 13 3l-2 1-4 2-10-4-11-7-11-8q-6-4-11-4-6 0-12 3l-11 8-10 7M483 270l-11 10q-6 5-15 7-23 7-42-4-10-5-23-20l-5-7-4-2q-6 2-8 18t2 28q7 22 24 37 17 16 39 20 20 4 37-1t28-18q13-16 13-34 0-12-6-23-4-8-10-14-5-5-7-5l-6 2-6 6m-26 14q7-2 14-8l10-10q7-7 15-7 4-1 11 6 7 8 11 18 5 13 4 26-2 16-13 31-13 15-31 21-17 5-38 1-28-6-48-28-8-8-13-18l-6-16q-4-20 0-36l4-11q3-4 5-4 2-1 6 2l7 8q13 16 22 21 17 11 40 4"/><path fill="#0d131a" d="M480 271l-2 2-2 1q-3-20 12-37 13-16 32-20h5q2 1-2 2-6 1-14 6-8 4-15 11-16 17-14 35M383 119q-1-1 3-1l7 1q34 21 54 50 16 22 20 42 1 7-1 9l-8 8-9 7v17l-2 6q-7 11-14 17-9 8-17 7l-3-1-2-2q8 2 18-6 9-7 15-17l1-5-1-7 1-7 1-3 9-8 9-7q1-7-4-19-4-12-14-26-23-34-63-55"/><path fill="#0d131a" d="M352 66l1 3 1 3q-13 10-18 34l-2 19q0 9 2 13 1 4 4 2l9-7 14-10q7-6 12-7l12 1 23 4q33 6 48 15 11 6 30 35 17 25 28 48 1 1-2 2h-2q-12-25-28-48-17-27-27-33-15-9-48-16l-22-4-11-1q-4 1-12 7l-13 11q-9 8-12 8-4 1-7-6-2-5-2-15l2-21q6-26 20-37"/><path fill="#0d131a" d="M572 57q8 9 9 22 1 8-1 21v9q1 6 7 17l10 19 8 17 3 11-2 13-6 21-4 12q-3 7-2 8l4 14q4 11 4 20 3 28-19 65-14 24-41 32-26 7-53-4l1-1 2-1q26 10 49 2 24-9 38-32 17-29 19-53 1-13-5-32l-2-9v-8l4-14 6-19 2-12q0-4-3-11l-8-17-10-20-6-17v-10q2-12 1-19-1-12-9-20-15-17-35-29-21-13-46-20-55-16-110 3-5 1-9 7-4 5-7 13l-5 16-1 16q0 11 3 18l6 2 10 3q15 2 21-3l3-1-3 4q-6 6-22 4l-12-2q-5-2-6-4-5-9-4-26 1-16 6-29 2-7 7-13 6-8 12-10 56-19 112-3 25 7 47 20 21 13 37 30"/><path fill="#0d131a" d="M562 344l1-1 1-1q1 5-1 9t-6 7q-8 5-18-3l1-1h2q7 5 13 1t7-11M204 516l2 2q-1 2-3 1-13-4-32-20-22-17-29-31l-4-4-8-2v-2-2l9 2q6 1 7 4 8 17 25 31 14 13 33 21M205 542q1-1 1 1l-1 2q-2 1-6-1l-6-3-18-13-27-20q-3-3-13-7l-12-6q-6-2-9-9-3-8-2-17l2 1q2 1 1 2 0 6 3 12 3 5 8 8l11 5 12 8 45 32 5 4q4 2 6 1"/><path fill="#0d131a" d="M130 362l2 1v2l-4 7-2 9 1 6-1 7-6 21-11 38q-3 6 0 11 2 4 7 5 5 2 10-1 5-4 4-10-1-15 8-36 8-19 19-29l3-7q0-5-2-9l1-1 3 1q2 4 2 10-1 6-4 8-11 10-20 29-8 20-6 35 0 7-6 11-6 3-13 2-6-2-10-8-3-6-1-13l13-38 6-20v-6l-1-6 2-10q2-5 6-9"/><path fill="#0d131a" d="M117 471h1l3 1q2 2 5 0 4-1 4-6v-2l2-1v7q-1 3-4 5t-6 1q-3-1-5-5M160 380l-11-2q-6-3-9-8l1-1h2q7 8 16 7 18-3 40-17t25-23q7-17 3-38-4-18-13-33-6-10-13-17t-14-9v-1q1-2 2-1 7 2 14 9 8 7 14 17 10 18 14 35 4 21-3 40-4 11-27 25-22 14-41 17"/><path fill="#0d131a" d="M197 169q-7 1-32 16-26 16-37 28-5 5-6 13v17l-1 32q-4 21-15 43-3 5 4 15 3 7 13 18l8 10q6 7 10 7t7-3l-2-7-2-9q0-5 21-25l14-15q7-7 7-9 0-4-6-16l-7-16q0-6 8-22l17-26 4-6 6-3q9-5 26-10 14-5 22-6 7-1 7-3t-7-6q-14-9-33-13-17-5-26-4m-34 13q26-15 33-16 10-1 29 4 22 5 35 14 9 6 8 9-1 4-11 5-9 1-29 8-21 7-25 13l-15 22q-11 19-11 27l6 13 7 15q2 5-2 10l-20 19q-19 18-21 23l2 8 3 10q0 2-3 3l-7 2q-6 0-13-6l-10-12-14-19q-7-12-4-17 13-25 15-44l1-16-1-15 1-18q1-8 6-14 11-11 40-28"/><path fill="#0d131a" d="M228 203h6q-9 6-16 13-6 7-8 13l-1 12v14l-2-1-2-3v-13l2-10q2-5 8-12l13-13"/><path fill="#0d131a" d="M238 200l3-1q3 0 2 1-7 5-17 17-9 12-10 17-1 4 1 18l2 18-2-2-2-5-2-13v-17q1-5 9-16 8-10 16-17M113 493q2-5 5-6h2l-1 2q-7 5-5 13l3 7 5 3q8 1 16 7l-3 1-6-3-5-2q-7-1-10-5-3-3-3-8t2-9"/><path fill="#0d131a" d="M206 552l-1 2-2 1-28-13-20-12-11-7q-3-2-7-2l-5 3-5 3-1-1-1-1 11-8q5 0 9 2l5 3 7 5 19 12q15 8 30 13M197 572q2 1 1 2v2q-12-10-26-15-13-5-27-6l-10-1q-6-1-9-5l1-2 1-1q3 4 9 5l8 1q29 2 52 20M116 484l2 3 1 1q-7-3-13-1-5 3-8 9l-4 7-9 11-14 17-20 26-12 15-3 5 1 5q3 9 14 6l7-3q4-3 4-6l6-15q5-10 13-19 17-24 29-27 4-1 5-3l2-4h3q0 4-3 7l-6 2q-12 4-29 28l-11 19q-5 9-5 13-1 6-6 9-4 3-9 4-6 0-10-2-5-3-7-8-3-9 1-13l13-15q15-21 34-43 12-14 13-19 3-6 8-9 5-2 13 0"/><path fill="#0d131a" d="M108 494l3-3 4-1v1l-1 2q-2 0-3 2-2 2-1 5 0 3 2 4l1 1 1 2q-5 0-7-5-2-4 1-8M126 524q6 3 7 12 0 8-4 12-13 14-30 48-11 20-20 41-3 7-19 4v-1l1-2h10l3-3 20-39q20-37 33-50 3-4 3-10-1-6-5-9t-8-2q-5 1-6 5-5 14-26 46-21 31-29 38l-6 6-1 5h-4l1-7q1-4 5-7 9-5 30-37 21-31 26-45 2-5 8-7 6-1 11 2"/><path fill="#0d131a" d="M129 530l-2-2v-1q4 0 7 3l2 6q0 4-2 7-3 3-7 3v-1l2-2q5-1 5-6-1-6-5-7M14 576h3l4 1 5 3 8-2 1 1 1 2-10 2-6-3-3-1h-1q-5 3-9 8l-4 11 9-3 7-1 3 1 5 2 12 5q5 1 9-3 3-4 4-9l2-2q2 0 1 1l-1 7-4 6q-4 5-11 3l-13-6-7-3-8 2-9 5q-2 2-2-1 0-7 4-14 4-8 10-12M55 643q4-2 5-7 0-3-3-6l-4-3h-6l-7-1-4-2-3-1h-3q-5 0-11 6-5 7-7 15 6-4 14-5 6 0 10 2l10 4q6 0 9-2m-14-20l6 1q8-1 12 3 5 5 4 11 0 6-6 10-4 2-11 1l-12-4q-4-3-10-2-7 0-13 5l-2 1-1-1q1-10 8-19 6-10 13-10l8 2 4 2M283 477q-15 0-25 10-8 9-7 19 13 1 33 6l34 10q-1-18-12-31-10-13-23-14m-27 7q11-11 26-10t27 15q11 15 12 35v1l-2 1q-16-6-36-11l-35-7-1-1q-1-13 9-23M437 489q-6-7-15-10-8-2-16-1-8 2-15 7-8 7-13 17t-6 21q55-15 74-17-2-10-9-17m-31-14q9-2 17 1 20 5 26 29 1 3-2 3l-45 10-31 8h-1l-1-1q0-13 6-24 5-12 15-19 7-6 16-7"/><path fill="#0d131a" d="M401 508v-4l1-1q2 0 2 5l-1 4-1 1-1-1v-4M293 508v-4l1-1 1 5v4l-1 1-1-1v-4M136 367h1l1 1q-1 7 6 10l5 1 5-2h1l2 1q-2 3-7 4-3 1-7-1t-6-5q-3-4-1-9M491 556l1 1 1 1-6 4-1-2 5-4"/></svg>