<svg xmlns="http://www.w3.org/2000/svg" version="1" width="387" height="385" viewBox="-0.5 -0.25 387.45 384.55"><path fill="#0d131a" d="M225 170q14 12 26 33 11 20 18 42 6 22 6 39 1 42-27 64-25 18-62 18-14-1-29-6-16-6-29-17-32-25-34-63-2-25 8-49 9-22 26-41 15-17 34-27 18-9 32-8 16 1 31 15"/><path fill="#c18963" d="M190 152q9 0 21 10 13 10 26 26 13 18 21 39 10 23 12 47 4 40-21 65-11 11-26 17t-31 6q-17 0-35-7t-32-19q-15-14-22-32-8-21-4-45 6-48 44-81 14-12 29-19 12-7 18-7"/><path fill="#986c4c" d="M178 155l12-3q12 0 30 17 19 18 32 44-14 13-33 18-17 6-36 4-19-1-35-9-17-7-29-20 16-24 41-41l18-10M126 336q31-8 35-6 26 11 50 1h14l26 6q-11 12-27 19-15 6-32 6t-34-6q-18-7-32-20"/><path fill="#0d131a" d="M119 284q15 0 26 9 11 8 15 20 5 12 2 23-2 11-12 16l-7 1-10 1q-10 2-17 16-2 6-11 0l-16-18q-8-10-14-21-6-10-5-12 13-20 27-28 11-7 22-7"/><path fill="#c18963" d="M120 286q14 1 24 9 12 9 15 26 2 9-1 17-2 5-8 10-2 2-9 2l-10 2q5-19 0-34-4-14-14-19-8-5-19-1l-7 3-3 2q3-5 11-10 11-7 21-7"/><path fill="#986c4c" d="M134 334h12l14-2q-2 9-10 16-2 2-9 2l-10 2q3-10 3-18"/><path fill="#c18963" d="M106 299q20 2 24 26 3 19-2 27l-7 6-5 5q-5 0-13-7-7-7-13-16-6-10-8-18-3-9 1-12 6-6 11-8 6-4 12-3"/><path fill="#986c4c" d="M95 346h3q13-1 22-5l11-7q0 12-3 18l-7 6-5 5q-4 0-10-5-6-4-11-12"/><path fill="#0d131a" d="M59 300q14-9 30-6 14 3 24 17 8 11 11 27 3 17-5 30-9 14-25 14-7 0-17-6-9-6-18-15t-14-19q-5-10-3-19 3-14 17-23"/><path fill="#c18963" d="M62 302q12-7 23-6 12 2 22 13 13 14 15 35 1 12-7 23t-19 12q-6 0-15-5t-17-13q-9-9-14-17-6-10-5-17 2-16 17-25"/><path fill="#0d131a" d="M56 322q-1 3-5 6-3 3-6 3-5 0-12-6-6-5-6-9t6-6l10-2q7 0 11 4 3 4 2 10"/><path fill="#fff" d="M52 321q0 3-2 5l-4 2q-3 1-10-4-6-5-6-8 1-2 6-4t9-1q5 1 6 4 2 3 1 6"/><path fill="#0d131a" d="M81 282q4 3 6 7 3 4 2 8t-6 6q-5 2-9 1t-6-8q-1-7 1-12 2-3 5-4 4 0 7 2"/><path fill="#fff" d="M86 290l1 6q-1 3-6 5h-7q-2-1-3-6v-8q1-4 3-5l6 2 6 6"/><path fill="#fff8b0" d="M66 318q11-9 26-8 4 1 9 5t9 10q9 14 6 28-2 10-8 16t-14 6q-9 0-24-12-15-13-16-21-1-14 12-24"/><path fill="#0d131a" d="M97 285h-1l1-2q52-13 92-11 32 1 83 15l1 2-2 1q-40-12-72-15-50-4-102 10M98 255q-2 1-1-1l2-2q44-15 96-12 43 2 73 13 2 1 2 3 1 2-1 1-6-4-22-7-18-5-40-7-58-4-109 12"/><path fill="#0d131a" d="M251 288q16 2 29 8 15 6 26 18 1 1-3 13-3 11-9 23-7 14-13 20-7 8-11 4-12-13-22-12l-9 1-8 1q-11-1-16-9-5-7-5-18 0-19 11-34 12-16 30-15"/><path fill="#c18963" d="M244 291q13-1 26 4 11 4 14 8-4-3-10-4-12-2-19 4t-10 19q-4 17 5 36l-12 2q-8 1-13-1t-8-8q-4-7-4-18 1-17 12-30 10-11 19-12"/><path fill="#986c4c" d="M213 333v-1q15 7 31 6 1 10 6 20l-12 2q-8 1-13-1t-8-8q-4-7-4-18"/><path fill="#c18963" d="M290 309q4 2 4 12-1 8-5 18t-10 18q-6 7-11 8-14-4-15-6l-4-11-2-16q0-25 19-30 5-2 12 1 5 1 12 6"/><path fill="#986c4c" d="M253 359l-3-8-2-12q4 4 13 8 10 5 21 6l-7 8q-4 4-7 4-14-4-15-6"/><path fill="#0d131a" d="M333 315q3 8 0 20-3 10-11 21-7 10-15 17-9 8-15 9-15 2-26-10-10-12-11-28t6-30q8-15 21-20 15-6 30 0 15 7 21 21"/><path fill="#c18963" d="M331 319q2 7-2 17-3 10-11 20l-14 16q-9 7-15 7-11 1-20-8-10-9-11-22-1-21 9-37 8-12 19-16 4-2 11-1l13 2q16 6 21 22"/><path fill="#0d131a" d="M336 300q8 1 9 5 2 3-4 11-5 7-11 7-8-1-10-8-2-8 4-13 4-3 12-2"/><path fill="#fff" d="M326 304l7-1q8 0 10 4 1 2-4 8t-9 5q-4 0-6-4-3-3-1-8l3-4"/><path fill="#0d131a" d="M302 292q0 7-3 9-4 2-10 1-5-1-7-5v-8l5-8q3-3 7-3 3 0 6 3 2 3 2 11"/><path fill="#fff" d="M289 283q2-3 5-3t4 4l2 8q0 6-3 7h-7q-4 0-6-4v-5l5-7"/><path fill="#fff8b0" d="M267 328q2-6 6-11t9-6q14-4 27 3 14 7 15 21 1 9-12 24-12 14-21 16-8 1-15-4t-10-14q-5-13 1-29"/><path fill="#0d131a" d="M180 120l13 27q-20 3-53 11l-59 18-41 12-14 2q-1-2 2-6l10-10q16-14 34-20t52-11l20-3 8-2q0-2-6-4l-15-4q-23-3-52 3-10 1-46 12l-33 8 3-6q3-6 9-12 16-18 34-27 15-6 28-8 14-1 31 2L46 75Q16 62 17 59l7-3q9-3 20-4 33-2 68 16 34 17 68 52M362 89l7 7 2 3-15 1-38 4q-16 2-30 6 15-2 31 1 35 7 68 35h-10l-23-1q-37-1-57 2l19 2q12 2 23 6 15 5 24 12l5 5 1 2-9-1-23-5q-35-6-51-1l-78-39q39-45 78-59 13-4 23-4 9 0 9 2l-8 4q-11 3-18 7 9-3 20-3 11-1 22 1 16 3 28 13"/><path fill="#00a63c" d="M172 120l11 25-102 28-53 15q24-30 82-41 16-4 36-5l14-2q-12-13-37-14-19-1-46 4-25 5-49 12l-23 7q14-20 32-31 15-10 33-13 24-5 50 3l15 6-60-30-36-16-17-8q39-12 84 8 35 16 66 52"/><path fill="#009233" d="M39 68l-17-8q36 6 68 22 29 14 49 34l-2-1q-29-16-62-31L39 68M183 144v1L81 173l-53 15q33-19 79-31 42-12 76-13M77 130q-25 5-49 12l-23 7 1-1q38-22 78-27 38-4 61 9-13-5-32-4-16 0-36 4"/><path fill="#00a63c" d="M358 98l-25 1q-44 4-80 23l-5 3 5-2q17-7 29-9 15-3 28-2 31 4 73 33-11-2-44-3l-67-1q-4 3 7 5l28 5q47 8 58 21-38-10-59-11-31-1-39 16l-61-41q28-39 64-57 23-11 41-11l-16 6q-10 4-20 11 18-6 36-7 35-2 56 20h-9"/><path fill="#009233" d="M367 98h-12l-27 1q-41 5-75 23l-5 3q25-23 56-30t63 3M364 171l1 1q-36-10-58-9-30 0-49 17l-9-8q6-6 20-9 13-4 29-5 39-2 66 13M382 144l1 1q-11-2-44-3l-67-1q11-7 46-6 36 1 64 9"/><path fill="#0d131a" d="M196 62q4 12 4 22 1 9-2 11-6 5-13 6t-8-6q-7-35-22-62-7-14-14-24l-4-7q0-2 4-2l8 1q12 2 21 12 18 19 26 49"/><path fill="#00a63c" d="M189 50q8 18 12 35 3 16 0 18-6 5-12 4t-8-7q-8-44-27-76L143 7l-3-5q15 0 28 15 12 12 21 33"/><path fill="#009233" d="M191 107q-4 0-6-2-3-2-4-5-8-43-26-74L144 9l-4-7q19 12 32 42 11 24 19 63"/><path fill="#0d131a" d="M339 36q-24 11-53 28-42 26-72 61l-47-5q-6-19-29-42-20-20-43-34-29-18-40-29-8-7-6-9l7-1 19 1q29 3 53 17 18 11 30 24 15 17 22 41 1-11 9-31 9-22 20-32 18-16 41-22 7-3 14-3l6 1q1 1-5 9l-16 19-17 23-13 17 6-5 12-11q21-15 44-22 21-6 49-5l17 1 7 2q1 1-3 2l-12 5"/><path fill="#00a63c" d="M259 12l-19 23q-31 40-40 68 0 1 0 0l2-3 10-16q20-27 49-41 17-8 39-11 23-4 46-1-10 2-28 10-20 10-44 26-38 25-65 60l-39-9q-18-37-66-72L70 23Q55 13 52 8q26-3 56 9 27 11 44 29 22 23 29 57l1-1 1-9q2-18 8-33 21-51 75-57l-7 9"/><path fill="#009233" d="M177 120l-7-2q-18-37-66-72L71 24Q55 13 52 8q46 14 81 46 31 30 44 66M266 3l-9 11-19 24q-29 38-38 65 3-27 22-55 18-28 44-45M345 31h1q-10 2-28 10-20 10-44 26-38 25-65 60l-6-1q24-39 64-65 37-23 78-30"/><path fill="#0d131a" d="M282 124q21 8 34 27 11 19 8 39-4 18-17 27-7 5-16 6-8 2-17 0-21-5-33-24-13-21-12-42 1-22 17-33 15-9 36 0"/><path fill="#fff8b0" d="M282 126q20 8 32 27 11 18 7 36-3 17-17 27-14 8-31 4-18-5-29-22-11-20-11-40 0-22 14-31t35-1"/><path fill="#ddd698" d="M278 221q-15-2-27-14 21 11 40 8 20-3 28-18-4 12-15 19-12 7-26 5"/><path fill="#fff8b0" d="M302 146l4-3 3-2q3 0 5 3l1 4q-1 6-4 9-5 4-22 6l-12 2-12 2-1-3-1-2 12-4q14-3 18-6l9-6"/><path fill="#0d131a" d="M314 144l-4-2-6 4-2 1 1-2 7-5q4 0 6 3 2 4 0 9-1 5-5 6 5 14 3 30-2 20-14 22-6 1-10-2-5-4-10-17l-10-25-1-1h1l18-3 17-3q8-3 10-8 1-3-1-7"/><path fill="#fff" d="M309 172q-2 0-4-4-3-4-3-7l7-2 1 8-1 5"/><path fill="#0d131a" d="M68 132q12-17 34-22 10-3 19-2t15 5q16 12 14 36 0 9-3 18l-5 12q-12 20-31 25-18 5-34-6-16-10-19-29t10-37"/><path fill="#fff8b0" d="M61 172q-4-17 6-33 10-17 31-25 10-4 19-4 10 0 17 4 13 8 13 29 0 20-11 38-9 16-26 20-16 4-31-5-14-8-18-24"/><path fill="#ddd698" d="M79 196q-7-4-11-11-5-7-7-15 10 15 31 18 22 3 45-8l-1 1q-9 16-26 20-16 4-31-5"/><path fill="#0d131a" d="M229 123q16 20 19 47 2 28-15 44-15 14-40 14-24 0-40-15-17-16-17-40 0-28 16-49 16-20 40-20 20 0 37 19"/><path fill="#fff8b0" d="M228 128q18 22 17 51-1 23-17 35-14 11-36 11-23-1-38-16-14-15-14-40 0-24 15-44 7-9 16-14 10-5 20-5 10 1 20 7 10 5 17 15"/><path fill="#ddd698" d="M163 206q13 6 28 7 16 0 29-7 15-8 24-23-2 21-17 32-13 10-35 10-18-1-31-10-13-10-18-26 7 11 20 17"/><path fill="#922f00" d="M278 182l-4-8 3 4 2 2q2-1 3-6v-9l18-3 4 8q3 4 5 3l2-2 1-7 1 15-1 13q-3-9-13-12-11-3-21 2"/><path fill="#ed8599" d="M308 188q5 5 2 11-1 4-4 6-3 3-6 3-8 1-12-4t-10-21q3-2 8-2h10q8 1 12 7"/><path fill="#fff" d="M281 165v8l-2 5-4-5-3-7 9-1"/><path fill="#ed8599" d="M201 165l-11-1h-14l-9-1-4-2-2-3 5-1 9-1 8-1 10-1 13 1 6 2h2l1 2-2 5-2 3h-1l-9-2"/><path fill="#0d131a" d="M163 141q-5-3-8-9l-2-1 2-1q24-8 27-12l1-3 1-1q1-1 1 1 1 4-2 6 1 8-1 13-2 6-8 8t-11-1"/><path fill="#fff" d="M181 122v10q-3 9-13 9-4-1-7-5-3-3-3-5l12-4 11-5"/><path fill="#0d131a" d="M224 130l-2 6q-4 5-8 6-8 2-13-5-5-6-5-15l-2-2v-4-1l1 1 1 3q3 3 12 5l16 5 3 1h-3"/><path fill="#fff" d="M210 127l12 3q0 3-3 6-2 4-6 5-9 1-13-8l-2-6v-4l12 4M276 140q6 6 6 12l-5-2-15-2-10 1q-3 1-5-4-3-4-2-7 2-4 8-6 5-1 12 1t11 7"/><path fill="#0d131a" d="M303 139q-5 2-9 6l-3 4q-3 0-5-7-2-8 2-10 3-3 6-1 4 2 9 8"/><path fill="#fff" d="M300 138l-7 6-2 3-4-8q0-4 2-6h5q3 1 6 5"/><path fill="#0d131a" d="M84 120h2l6 3 8 3 1 1-1 2-4 2q-4 1-7-1-3-1-4-4v-5l-1-1M130 143l-5 3-7-2q-3-1-5-4l-1-5v-1h2q8 5 17 8l1 1h-2"/><path fill="#fff" d="M99 127q-1 2-4 2h-5l-4-3v-4l13 5M125 144q-3 1-6-1-4-2-5-5l-1-3 16 8-4 1"/><path fill="#0d131a" d="M179 128v2h-4l-1-2 1-2 2-1 2 1v2M205 129v2h-4l-1-2 1-2 2-1 2 1v2M263 137v2h-4l-1-2 1-2 2-1 2 1v2M293 135v1l-2 1-1-1-1-1 1-1 1-1 2 1v1M90 124l-1 1-1 1-1-1v-1-1h2l1 1M118 139v1h-2-1v-1-1l1-1 2 1v1"/><path fill="#0d131a" d="M276 142l-10-7-11-2q-6 0-8 4l-2 1v-2q3-4 9-5 5-1 12 2 6 2 11 7t6 11v2l-3-1q-10-5-25-2l-4-1 3-1q15-3 28 3-1-5-6-9"/><path fill="#ed8599" d="M82 145q3-2 8-1 16 8 35 15-9 2-22-2-13-5-21-12"/><path fill="#922f00" d="M90 144q-5-1-8 1l-6-9 14 8"/><path fill="#ce7486" d="M83 145q2-2 7-1l10 5 12 5-8-2q-6 0-7 2l-9-5-5-4"/><path fill="#0d131a" d="M78 136l10 6 10 5 25 11 2 1-2 1h-12q-9-2-18-7-7-3-12-8l-5-8v-2l2 1m34 22l11 1-26-11-20-11 6 7q5 5 12 8 8 4 17 6"/><path fill="#0d131a" d="M82 144l3-1 5 1 2 1-5-1-4 1-1-1"/><path fill="#ce7486" d="M283 195l-5-12q3-2 8-2h10q6 1 11 5 4 4 4 8-5-4-14-4-8 1-14 5M191 160q-13 0-21 3h-3l-4-2-2-3 5-1 9-1 8-1 10-1 13 1 6 2h2l1 2-2 5-1 2q-7-6-21-6"/><path fill="#0d131a" d="M190 165h-22q-4 0-6-3l-2-4h2l2 3 4 2q30 0 41 3 3 1 5-9h2v8q-1 5-4 4l-22-4"/><path fill="#0d131a" d="M213 156l5 1h2l-2 10q-3 4-5 4t-4-5q-2-5-2-11h2l4 1"/><path fill="#fff" d="M217 157q2 0 0 7l-3 6q-2-1-4-7l-1-7h4l4 1"/><path fill="#0d131a" d="M167 157h6l-2 9q-2 4-4 4t-5-4l-2-9h7"/><path fill="#fff" d="M170 157q2 0 0 6-2 7-3 6-2 0-4-6t0-6h7"/><path fill="#0d131a" d="M193 155l-16 2-13 2q-5 0-7-2t-1-5l1-2 1 2q0 4 6 4l13-1 16-2 15 1 9 2 4-1q2-1 2-3v-2l1 2q1 3-1 5l-6 1-9-2-15-1M67 318q-12 9-11 23 1 9 15 21 14 11 23 11 8 0 14-6 5-6 6-14 3-13-5-27l-8-10q-5-4-9-4-14-2-25 6m-14 23q-1-15 12-25 12-9 27-7 5 0 10 5 5 4 9 10 9 15 6 29-2 11-8 17-7 6-15 6-10 0-25-13-15-12-16-22M262 345q0-12 6-23 6-10 13-12 15-5 29 2 14 8 15 23 1 9-12 24-12 15-22 17-12 2-21-8-8-10-8-23m61-10q-2-13-14-20-13-7-27-3-6 2-12 13-6 10-6 20 0 13 9 21 8 9 18 7 9-1 20-15 13-15 12-23"/></svg>