<?xml version="1.0" encoding="utf-8"?>
<!-- Generator: Adobe Illustrator 21.1.0, SVG Export Plug-In . SVG Version: 6.00 Build 0)  -->
<svg version="1.1" id="Layer_1" xmlns="http://www.w3.org/2000/svg" xmlns:xlink="http://www.w3.org/1999/xlink" x="0px" y="0px"
	 viewBox="0 0 84.3 167.2" style="enable-background:new 0 0 84.3 167.2;" xml:space="preserve">
<style type="text/css">
	.st0{fill:#D5CCAC;}
	.st1{fill:#A39672;}
	.st2{fill:#7BC075;}
	.st3{fill:#DCCF89;}
	.st4{fill:#76B86F;}
	.st5{fill:#3F6333;}
	.st6{fill:#C8BEA0;}
	.st7{fill:#B7AA87;}
	.st8{fill:#BDB294;}
	.st9{fill:#F0ECA9;}
	.st10{fill:#C1B596;}
	.st11{fill:#F0ECB6;}
	.st12{fill:#C4B898;}
	.st13{fill:#C2C594;}
	.st14{fill:#6CB06C;}
	.st15{fill:#EBE7A5;}
	.st16{fill:#B1A582;}
	.st17{fill:#BCAF8E;}
	.st18{fill:#C4E09B;}
	.st19{fill:#81BB7D;}
	.st20{fill:#CEC5A7;}
	.st21{fill:#CAC0A0;}
	.st22{fill:#C7BC9D;}
	.st23{fill:#4D7C40;}
	.st24{fill:#BFB392;}
	.st25{fill:#B1E08B;}
	.st26{fill:#AEDF8E;}
	.st27{fill:#4E8049;}
	.st28{fill:#F1F1D4;}
	.st29{fill:#4D7F47;}
	.st30{fill:#CBC5A5;}
	.st31{fill:#8B8164;}
	.st32{fill:#C0E79A;}
	.st33{fill:#B7E895;}
	.st34{fill:#D5CCB0;}
	.st35{fill:#ADE191;}
	.st36{fill:#E0F6A4;}
	.st37{fill:#83795C;}
	.st38{fill:#8B8267;}
	.st39{fill:#877F62;}
	.st40{fill:#91866D;}
	.st41{fill:#827960;}
	.st42{fill:#8D866A;}
	.st43{fill:#887B63;}
	.st44{fill:#7B7158;}
	.st45{fill:#776B52;}
	.st46{fill:#809757;}
	.st47{fill:#857C63;}
	.st48{fill:#F1F4F1;}
	.st49{fill:#280E0E;}
	.st50{fill:#BDEE91;}
	.st51{fill:#F4F6F3;}
	.st52{fill:#627E4D;}
	.st53{fill:#FEFEFE;}
	.st54{fill:#DCF2B7;}
	.st55{fill:#A39D7F;}
	.st56{fill:#FCFCFC;}
	.st57{fill:#BABA95;}
	.st58{fill:#A9A97C;}
	.st59{fill:#827660;}
	.st60{fill:#997A68;}
	.st61{fill:#887E62;}
	.st62{fill:#7A7059;}
</style>
<g>
	<path class="st0" d="M24.3,143.7c0.2-4.5,0.7-8.5,4.2-12.2c1.4-1.4,1.8-4.7,3.3-6.8c0.7-1,1.5-1.9,2.2-2.9c2.7-0.3,5.1,0.1,7.2,1.9
		c0.9,4.4,0.9,8.9,0.1,13.3c-0.6,1.2-1.7,1.4-2.8,1.3c-2.9-0.4-5.8-0.6-8.7-1.1c4,0.9,8.2,0.8,12.2,1.7c-0.3,3.6-2.4,5.8-5.4,7.2
		C32.4,146.1,28,146.5,24.3,143.7z"/>
	<path class="st1" d="M40.7,157c-2.8,0.5-5.6,0.6-8.4-0.4c-2-0.7-2.1,0.5-1.6,2c1.9,5.5,1.9,5.4-3.6,7c-2,0.5-3.9,0.8-5.9,0.4
		c-0.1,0-0.2-0.2-0.2-0.2c0-0.1,0.1-0.2,0.2-0.3c0.4-2.3,2.8-2,4.5-3.3c-1.7-0.6-3.7,0-4.5-1.9c1.8-1.2-0.1-2.5,0-3.7
		c1.2-1.3,2.8-0.5,4.4-0.8c-1.1-1.8-4.8-1.3-3.7-4.5l0,0c0.3-0.2,0.7-0.4,1.1-0.3c6.9,2.3,12.2-1.2,17.5-4.9
		c2.6-0.6,5.2-0.5,7.8-0.1c2.2,2.8,2,3.3-2.8,6.6c2-0.2,3.8-0.8,5,0.8c0,0.5,0,1,0.1,1.5C47.4,156.5,43.9,155.9,40.7,157z"/>
	<path class="st2" d="M67.8,28.4c-2.9-0.7-5.7-1.7-8.7-1.1c-1.8,0.3-1.4,0.9-0.4,1.7c-0.1,2.2-1.4,2.2-3,1.5
		c-1.4-0.5-2.6-2.2-4.4-0.9c-0.8-0.5-1.7-0.3-2.5-0.4c-4.3-0.4-4.4-0.6-2-4.2c1.1-0.6,2,0,3,0.5c2.2-0.5,3.6-2.7,6.1-2.6
		c-2.5-0.5-3.8,2.1-6.1,2.4c-0.8-0.6-1.1-1.4-1.1-2.3c-1-7.2,5.1-9,9.3-12.2c2.8-1.2,5.7-2.2,8.9-2c-0.1,0.9-1.5,0.5-1.2,1.9
		c2.7,0.4,5.9,0.5,8.6,3c-12.6-2.7-17.8-1.3-22.5,6.2c5.8-0.2,11.2,2.4,17,2.5c6,0.1,10.7,4.3,15.6,7.5c-5.7-2-11-5-17.2-5.2
		C66.2,26,68.5,27,67.8,28.4z"/>
	<path class="st3" d="M39.2,51.3c-1-1.5-2.7-2.4-3.1-4.4c0.9-3,3.5-2.9,5.8-3.3c-1.9,0-4.5,1.5-5.1-1.9c0.4-0.4,0.9-0.5,1.4-0.3
		c0.3,0.4,0.8,0.6,1.3,0.7c-0.4-0.2-1-0.2-1.2-0.7c0.6-1.5,1.8-0.7,2.6-0.7c-1.5-0.4-2.9-0.1-4.2,1.1c-1.2,0.1-2.3-0.3-2.3-1.7
		c0-1.2,1.2-1.4,2.2-1.5c0.5-0.1,1-0.2,1.5-0.1c3.4,0.5,5-1.1,5.5-4.2c0.3-0.2,0.6-0.3,1-0.2c1.6,1.6,2.8,3.5,3.4,5.6
		c0.7,2.5,1.9,2,3.5,1.2c2.2-1.1,3.7-3.3,6.4-3.6c2.4,6.1-0.4,10.5-6.7,10.5c-1,0-2,0-3,0C44.8,47.5,41.8,49,39.2,51.3z"/>
	<path class="st4" d="M13,18.4c1.2-1.3,3-0.9,4.4-1.6c0.8-0.4,2.4,0.5,2.4-0.9c0-1.5-1.6-1.1-2.7-1.3c-0.4-0.1-0.7-0.1-1.1-0.1
		c0.7-2.3,2.7-1.3,4.1-1.3c1.6-0.1,3.1,0.8,4.7,1.2c0.2,1.1,0.7,1.9,1.8,2.4c2.9,1.4,4.7,3.5,4,7c-0.2,1-0.8,1.5-1.6,1.9
		c-0.8,0.3-1.7,0.5-2.7,0.5c0.9,0.3,1.7,0.5,2.2,1.2c0.6,1.3,1,2.6,0.7,4.1c-1.7,1.1-3.5,2-5.3,2.9c-3.8,0.2-1.1-2.5-1.7-3.7
		c-3.7,0.3-7,1.8-10.1,3.9c-0.8-1.1,0.3-2.2,0.1-3.3c-0.1-0.5-0.3-0.9-0.3-1.4c0.7-1.4,2.6-1.2,3.3-2.5c4.6-0.1,7.9-3,12-5.1
		C23.2,18.3,18.2,17.9,13,18.4L13,18.4z"/>
	<path class="st5" d="M46.7,25.2C46.5,26,46.3,26.9,46,28c1.2,1.2,4.2-1.6,5.2,1.5c-0.9,0.8-1.8,1.6-2.7,2.3
		c-0.7,1.9-1.5,3.7-4.1,2.2l0.1-0.1c-2-0.3-3.9-1.7-6-0.4c-0.3,0.2-0.6,0.3-0.9,0.4c-0.6,0.3-1.2,0.6-1.9,0.7c-2,0.1-3.4-1.4-5.1-2
		c-0.3-0.2-0.6-0.4-0.9-0.6c-1.6-2.8,1.3-3.8,2.2-5.5c0.7-1.3,1.8-2.3,3.2-2.8c0.9-0.1,1.8-0.5,2.7-0.6c2.1,0.3,4.2,0.3,6.3,0.4
		C45.4,23.7,46.3,24.1,46.7,25.2z"/>
	<path class="st6" d="M40.7,157c2.8-3,6.5-1.8,9.8-2.1c0.5,1,1.1,2,0,3c-1.6,1.5-3.4,1.8-5.5,1.3c1.1,0.5,2.6-0.1,3.3,1.3
		c-0.8,1.6-2.4,0.3-3.2,0.8c2.4,1.6,3.1-2.2,5.3-2c0.5,1.5,1.1,3,1.6,4.6l0,0c0.9,1,1.2,2.4-0.1,2.7c-1.8,0.4-4.1,1.6-5.7-0.7
		c-0.4-0.6-1.1-1.7-1.4-0.8c-0.8,2-1.6,2-3.1,0.9c-1.8-1.4-1.9-3-0.9-4.9C41.3,159.8,42.2,158.4,40.7,157z"/>
	<path class="st7" d="M50.4,153.4c-2.3-0.6-4.6,0-7,0.6c0.9-3.4,6.2-3.1,5.5-7.3c-3.1-1.7-6.2-0.1-9.3-0.2c-1.2,0-2.5,0.6-2.7-1.3
		c1.7-2,3.5-3.9,5.2-5.9c1.8-1.8,4.2-0.9,6.3-1.2c0.4,0.1,0.7,0.3,0.9,0.6c0.4,2.8,2.2,4.9,3.4,7.2
		C52.3,148.5,49.6,150.4,50.4,153.4z"/>
	<path class="st8" d="M39.9,146.8c-0.1,1.8-1.3,2.5-2.8,3c-2.6,0.9-5.1,2-7.7,2.9c-2.8,1-5-0.8-7.4-1.5c-0.2-2.6,2.4-4.2,2.4-6.8
		C29.4,145.7,34.8,145.5,39.9,146.8z"/>
	<path class="st9" d="M44.5,34.1c2.2,0.8,2.6-1.7,4.1-2.2c6,0.1,8,1.2,9.4,5.3c-2.4,2.4-5.2,4.2-8.3,5.6c-0.9,0.4-2.1,0.5-2-0.7
		C47.9,38.8,44.9,37,44.5,34.1z"/>
	<path class="st10" d="M40.7,137.6c0-4.7,0-9.4,0-14.1c1-1.1,2.1-0.8,3.3-0.1c1.5,0.2,3-0.4,4.3,0.6c-0.4,1-2.2,0.7-2,2.2
		c1,2.5,2,4.9,2.7,7.5c0.2,1.3,0.2,2.5-0.6,3.6C45.8,139,43.3,138.8,40.7,137.6z"/>
	<path class="st11" d="M36.2,34.2c0.3-0.6,0.7-1,1.5-0.9c0.5,0.7,0.9,1.4,1.1,1.9c0-0.6-0.6-1.2-1.1-1.9c2.5-2,4.8-1.4,6.9,0.7
		c-1.1,5.1-1.1,5.1-7.3,5.4c-0.8,0-2-0.4-2.2,0.7c-0.1,0.9,1.1,1.2,1.8,1.6l0,0.1c2.7,2.1,3.6,2.1,7.4-0.5c-0.5,2.3-2.1,3.1-3.7,3.3
		c-2,0.2-3,1.7-4.5,2.4c-0.3,0-0.5-0.1-0.8-0.1c-3.3-1.8-3.2-4.8-3-7.9c0.3-1.2,0.6-2.5,1.6-3.3c-0.1-0.5,0.9,0.8,0.6-0.4
		C34.8,34.4,35.8,34.7,36.2,34.2z"/>
	<path class="st12" d="M39.3,79.2c-0.4-4.3,0.2-8.6,0.8-12.9c2.2-1.3,4.3-1.3,6.5,0c0.1,4.8,0.5,9.7-0.5,14.5
		c-0.2,0-0.4-0.1-0.5-0.1C43.7,79.6,41.2,80.8,39.3,79.2z"/>
	<path class="st13" d="M52.8,145.9c-2.6-1.5-4.1-3.7-3.8-6.8c1.5-0.2,2.3-0.8,2.6-2.5c0.3-2.1,1.3-4,3-5.4c0.6-0.3,1.2-0.8,2-0.2
		c3.9,5.4,3.2,9.7-2.2,13.4C53.8,144.8,53.3,145.4,52.8,145.9z"/>
	<path class="st14" d="M37.7,23.6c-0.7,0.3-1.5,0.5-2.2,0.8c-0.3-0.5-0.1-0.9,0.3-1.3c0.2-0.1,0.3-0.1,0.5-0.2
		c0.8-3.7-1-7.1-0.7-10.8c0.1-1.4,0.1-2.7,0.1-4.1c2.2-1.1,4.3-1.6,6.5-0.1c0.9,3.9,1.1,7.9,0.8,12c-1.4,0.5-2.1-1.2-3.5-1.1
		C38.5,20.3,40.1,22.7,37.7,23.6z"/>
	<path class="st15" d="M36.2,34.2c-0.5,0.5-1,1-1.5,1.4c0,0,0,0,0,0c-0.5,1-1,2-1.5,3c-1.6,3-4.5,5.1-6,8.3
		c-0.7-0.3-1.4-0.6-2.1-0.9c-0.7-0.8-0.9-1.8-1.2-2.8c0-0.2,0.1-0.5,0.2-0.7c0.3-1,2.2-2.5-0.8-2.6c0-0.8,0.7-1.3,0.8-2
		c0.6-4,3.2-5.6,6.8-6.1C33.1,31.9,34,34.5,36.2,34.2z"/>
	<path class="st16" d="M39.2,51.3c0.1-2.4,0.1-2.3,2.9-3c1.2-0.3,2.6-0.6,3.2-1.5c2-2.5,2.1,0.1,2.9,0.9c-0.2,1.1-0.6,2.2-1.5,3
		c-1.5,1.1-3.1,1.4-4.9,1c1.6,0.4,3.1-0.1,4.7-0.2c0,2-0.1,4.1-0.1,6.1c-2,2-4.1,2.2-6.5,0.7C40.1,55.9,39.9,53.6,39.2,51.3z"/>
	<path class="st17" d="M45.3,95c-0.5,6.7-0.5,13.5-1.6,20.2c-2,1.4-4,1.4-6,0.1c0.4-2.2,1.6-4,2.5-5.9c0.4-0.5,1.6-0.7,0.7-1.8
		c-1.1-2-0.8-4-0.2-6c0.7-0.3,1.4-0.1,2.2-0.2c-1.2-0.6-3.3,1.4-3.7-1.3c0.6-0.7,2.8-0.2,1.7-2.4c-0.5-0.9,0.3-2.1,1.1-2.9
		c0.9-0.6,1.9-0.7,2.9-0.2C45.1,94.7,45.2,94.8,45.3,95z"/>
	<path class="st18" d="M12.9,31.1c1.1,1.5-0.8,2.4-0.7,3.7c-2.4,2.8-4.7,5.6-7.1,8.4c0.3-3.1,1.5-5.6,3.4-7.8
		c0.4-0.5,1.9-0.9,0.5-1.9c-1.4,0.4-2.2,1.3-2.7,2.6c-2,2-3.5,4.7-6.2,6c3.6-6.4,7.7-12.3,15.3-14.5c-0.3,1.8-2.3,1.6-3.1,2.9
		c-0.2,0.4-0.3,0.8-0.9,0.8C11.9,31.6,12.3,30.8,12.9,31.1z"/>
	<path class="st19" d="M56.6,131c-0.6,0.2-1.1,0.4-1.7,0.7c-0.9-0.2-1.5-0.8-2.1-1.3c-2.1-2.1-5.5-2.2-7.4-4.6
		c-0.4-1.6-0.4-1.6,2.9-1.8c3.4,0.6,5.1,3.4,7,5.7c6.5-5,9-5.3,14.4-1.5C65.2,129.4,60.2,127.2,56.6,131z"/>
	<path class="st20" d="M40.7,101.8c1.5,1.8-0.4,3.9,0.7,5.8c-1.6,1.5-3.3,1.4-5.1,0.2c0.5-4.5,1-9.1,1.4-13.6c0.3-0.2,0.6-0.4,1-0.5
		c1.3,0.1,2.6,0.2,3.4,1.3c-0.2,1-0.8,2.2-0.6,3.1c0.6,2.6-1.2,1.9-2.5,2.2C38.8,101.6,40.5,101,40.7,101.8z"/>
	<path class="st21" d="M43.6,116.6c0,1.8,0,3.6,0.1,5.4c-3.3,1.3-6.5,1-9.6-0.7c0.6-2,0.1-4.3,1.5-6.1
		C38.3,115.4,41.1,115.4,43.6,116.6z"/>
	<path class="st22" d="M38.5,94.1c-0.3,0-0.5,0-0.8,0c0.3-2.7,0.5-5.5,0.8-8.2c0.5-0.2,1,0,1.4,0.2c1.8,1,3.9,0.8,5.9,1.2
		c0,2.5,0.4,5.1-0.5,7.6c0,0-0.3-0.1-0.3-0.1C43,93.6,40.7,94.3,38.5,94.1z"/>
	<path class="st23" d="M58,10.9c0.3,0.3,1.6,0.2,0.3,1c-1.6,0.9-3.1,1.9-4.6,3c-2.1,1.5-4.8,2.5-3.4,6c0.2,0.5-0.4,1.6-1.3,2.1
		c-1.9,0.3-4,1-5.2-1.4C47.3,16.3,51.9,12.6,58,10.9z"/>
	<path class="st3" d="M27.2,47c0.5-3.9,3.3-6,6-8.3c-0.2,3,0.4,5.7,2.2,8.1C32.7,47.7,30,49.3,27.2,47z"/>
	<path class="st12" d="M39.2,86.4c-0.2-0.2-0.4-0.3-0.6-0.5c0.2-2,0.4-4,0.7-6c2.2,0.1,4.5-0.5,6.6,0.6c0.1,0.1,0.2,0.2,0.3,0.3
		c-0.1,2-0.2,3.9-0.3,5.9C43.6,87.8,41.4,87.4,39.2,86.4z"/>
	<path class="st24" d="M46.6,58.8c0,2,0,4.1,0,6.1c-2.2,1-4.3,1-6.5,0c0-2.1,0-4.1,0-6.2C42.3,58.5,44.5,58.2,46.6,58.8z"/>
	<path class="st25" d="M42.1,7.9C40,8,37.8,8,35.6,8c-0.4-3,0.9-5.5,2.5-8C41.1,1.9,41.8,4.8,42.1,7.9z"/>
	<path class="st26" d="M67.8,28.4c-0.6-0.9-1.3-1.7-1.7-2.7c-0.6-1.2,0.4-1.1,1.1-1.1c4.4,2.7,8.5,5.7,11.5,11.2
		C74.5,33,71.1,30.7,67.8,28.4z"/>
	<path class="st27" d="M30.4,23.9c-0.3-0.2-0.9-0.5-0.8-0.6c0.9-4-2.1-5.1-4.8-6.5c-1.3-0.7-0.9-1.2,0.3-1.4c0.5-0.4,1-0.3,1.5-0.1
		c1.9,0.8,3.5,2.3,5.3,3.2c1.6,1.4,3.4,2.5,4.3,4.6c0,0,0,0,0,0C34.4,23.9,32.5,24.6,30.4,23.9z"/>
	<path class="st28" d="M24.2,43.2c0.7,0.8,0.9,1.8,0.8,2.9c-3.4-2.2-2-6-3.1-9c-0.4-1.4,0.6-2.1,1.5-2.8c1.7-0.9,2.6-3.6,5.3-2.4
		c0.5-0.5,1-0.4,1.6-0.2c0.2,0,0.4,0.1,0.6,0.2c-2.6,1.8-6.5,2.4-5.7,7c0.1,0.3-1.1,0.8-1.7,1.2C24.4,41.1,24.2,42.2,24.2,43.2z"/>
	<path class="st29" d="M37.7,23.6c0.5-1,1-2,0.6-3.1c-0.4-1.2-1-2.5,0.5-3.2c1.3-0.6,1.8,0.8,2.7,1.5c0.5,0.4,1,0.8,1.4,1.1
		c0.1,0.5,0.2,1.1,0.2,1.6c-1,1.7,1.3,1.7,1.4,2.9C42.2,24.3,39.9,24.9,37.7,23.6z"/>
	<path class="st30" d="M21.3,160.1c1.9,1.3,4.1,0.4,6.1,1c-0.6,3.5-4.5,2.3-6.1,4.3c-0.2-1.6-0.9-2-2.2-0.8
		c-0.4,0.4,0.4,1.7-0.8,1.3c-0.7-0.2-1.7-0.7-1.2-1.9c0.3-0.6-0.3-1.7,1.3-1.4C19.8,162.8,20.4,161.2,21.3,160.1z"/>
	<path class="st31" d="M39.9,146.8c-5.3-0.2-10.6,0-15.5-2.4c-0.1-0.2-0.1-0.4,0-0.6c4.2,0.9,8.4,1.6,12.7,1.4
		c3.3,1.7,6.5-0.2,9.8,0c0.9,0,2.9-1.1,2.2,1.5C46,146.7,42.9,146.7,39.9,146.8z"/>
	<path class="st32" d="M26.5,15.4c-0.5-0.1-0.9-0.1-1.4-0.2c-3-1.1-5.9-2.3-9.1-0.7c-2.1,0-4.2,0-6.4,0c0-0.3,0-0.7,0.1-1
		c5.7-1.7,11.3-2,16.8,1.1c0.2,0.2,0.3,0.4,0.2,0.5C26.6,15.4,26.5,15.4,26.5,15.4z"/>
	<path class="st33" d="M23.5,34.3c0.1,1.3-1.1,1.8-1.5,2.8c-1.3,1.6-2.6,3.2-4.5,5.6c0.3-5.2,2.7-8.5,4.7-11.9
		c1.1,0,1.3,0.8,0.7,1.3C21.5,33.4,22.7,33.7,23.5,34.3z"/>
	<path class="st34" d="M40.7,109.3c-1.2,1.6,0.7,5-3,5.2c-0.7,0.6-1.4,0.5-2.1,0c-0.3-2.1,0.1-4.2,0.8-6.2
		C38,107.9,39.4,108.1,40.7,109.3z"/>
	<path class="st35" d="M55.7,30.5c1.2-0.1,2.4-0.1,3-1.5c3.1,1.8,3.7,5,4.5,8.3C60.7,35,58.2,32.7,55.7,30.5z"/>
	<path class="st8" d="M22,151.2c0.1,2.5,2.3,2.2,3.8,2.9c0.8,0.4,2.2,0.4,1.6,1.9c-0.4,1.2-1.4,1.1-2.4,0.9
		c-1.2-0.3-2.4-0.3-3.7-0.4C21.6,154.7,20.6,152.8,22,151.2z"/>
	<path class="st36" d="M44.5,24.4c-1.2-0.6-2.7-1.1-1.4-2.9c0.2-0.1,0.4-0.1,0.6,0c1.5,1.2,3.7,0,5.2,1.4c0.3,0.7,0.5,1.4,0.8,2.2
		c0.3,0.2,0.3,0.4,0.3,0.5c-0.1,0.2-0.2,0.3-0.2,0.3c-1-0.2-2-0.5-3-0.7C46,24.9,45.2,24.7,44.5,24.4z"/>
	<path class="st37" d="M50.4,159.3c-1.7,2.1-3.8,2.8-6.9,1.9c1.7-0.2,2.8-0.3,4.5-0.5c-1.6-0.9-3.5-0.3-4.5-2c2.5-0.2,4.9,0,7.1-0.8
		C50.4,158.4,50.4,158.9,50.4,159.3z"/>
	<path class="st38" d="M34.1,121.3c3.1,1.1,6.4,0.4,9.6,0.7c0.1,0.5,0.2,1,0.3,1.5c-1.1,0-2.2,0.1-3.3,0.1c-2.3-0.1-4.6-0.5-6.6-1.6
		C34,121.7,34.1,121.5,34.1,121.3z"/>
	<path class="st39" d="M40.1,65c2.2,0,4.3,0,6.5,0c0,0.5,0,0.9,0,1.4c-2.2,0-4.3,0-6.5,0C40.1,65.9,40.1,65.4,40.1,65z"/>
	<path class="st40" d="M45.9,80.6c-2.3,0.2-4.5,0.4-6.6-0.6c-0.1-0.2,0-0.5,0.1-0.7C41.4,80,44.2,77.5,45.9,80.6z"/>
	<path class="st41" d="M35.5,114.5c0.7,0,1.4,0,2.1,0c1.9,1.3,4.1,0.3,6,0.7c0,0.5-0.1,1-0.1,1.4c-2.7-0.2-5.4-0.5-8-1.4
		C35.5,114.9,35.5,114.7,35.5,114.5z"/>
	<path class="st42" d="M40.7,109.3c-1.4-0.3-2.9-0.6-4.3-1c-0.1-0.2-0.1-0.4,0-0.6c1.7-0.1,3.4-0.1,5.1-0.2c0.7,0.3,2.2-0.3,1.9,1
		C43.1,109.7,41.6,109,40.7,109.3z"/>
	<path class="st43" d="M39.2,86.4c2.2,0.1,4.5,0.2,6.7,0.3c0.1,0.2,0.1,0.4,0,0.7C43.4,88.9,41.3,87.8,39.2,86.4z"/>
	<path class="st4" d="M26.5,15.4c0-0.3,0-0.5,0-0.8c2.1,0.8,4,1.8,5.4,3.7C29.7,18,28.1,16.7,26.5,15.4z"/>
	<path class="st44" d="M46.6,58.8c-2.2,0-4.3,0-6.5,0c-0.1-0.2-0.1-0.4,0-0.6c2.2,0,4.4,0,6.5-0.7C46.6,57.9,46.6,58.4,46.6,58.8z"
		/>
	<path class="st45" d="M46.7,51.4c-1.6,1.1-3.4,0.9-6,0.5c2.6-0.5,4.4-0.9,6.2-1.2C46.8,50.9,46.7,51.2,46.7,51.4z"/>
	<path class="st46" d="M6.2,36c0.1-1.7,0.9-2.7,2.7-2.6C8,34.3,7.1,35.1,6.2,36z"/>
	<path class="st4" d="M13,18.4c-0.1,0.5-0.5,0.7-1,0.6c-0.1,0-0.2-0.3-0.3-0.5C12.1,18.5,12.6,18.5,13,18.4C13,18.4,13,18.4,13,18.4
		z"/>
	<path class="st47" d="M40.7,137.6c2.6,0,5.2,0.6,7.6-0.8c1.1,0.2,1.2,0.8,0.6,1.6c-2.1,1.4-4.5,0.5-6.8,0.9
		c-5.1-0.3-10.2-0.9-15.2-2.5C31.6,136.6,36.1,138,40.7,137.6z"/>
	<path class="st48" d="M49.7,25.9c0-0.3,0-0.5,0-0.8c2.1-1.4,3.7-4.2,7.5-2.3C54.5,23.9,52.1,24.9,49.7,25.9z"/>
	<path class="st49" d="M38.5,41.7c-0.5,0-1,0-1.5,0.1c0,0,0-0.1,0-0.1c1.1-3.2,3.3-1.3,5.6-1.4C41.1,41.7,39.4,40.3,38.5,41.7
		L38.5,41.7z"/>
	<path class="st11" d="M38.5,41.6c0.7,0.1,1.4,0.1,2.2,0.2C39.8,42.8,39.1,42.3,38.5,41.6C38.5,41.7,38.5,41.6,38.5,41.6z"/>
	<path class="st50" d="M30.3,31.7c-0.5,0.1-1,0.1-1.6,0.2c-0.2-1.5-1-3-0.7-4.6c-0.5-0.9,0.1-1.5,0.7-2.1c0.6-0.4,1.1-0.9,1.7-1.3
		c1.8-1.2,3.9-0.9,5.9-1c-0.3,0.5-0.5,1-0.8,1.6C33.3,26.5,30.6,28.3,30.3,31.7z"/>
	<path class="st51" d="M28.7,25.2c0.2,0.8-0.3,1.4-0.7,2.1c-0.9-0.3-1.8-0.5-2.9-0.9C26.2,25.1,27.4,25.1,28.7,25.2z"/>
	<path class="st52" d="M12.9,31.1c-1,0.6-1.8,1.6-3.4,1.5c0.7-1.3,1.8-1.6,2.8-2.1C12.4,30.6,12.6,30.8,12.9,31.1z"/>
	<path class="st53" d="M52,163.9c0.1,0.7,0.3,1.5-0.4,2c-0.4,0.3-0.7,0-0.8-0.4C50.6,164.6,51.3,164.2,52,163.9
		C52,163.9,52,163.9,52,163.9z"/>
	<path class="st54" d="M48.9,138.4c0.1-0.6-0.1-1.2-0.6-1.6c0-1.2-0.1-2.3-0.1-3.5c0.8-2.7,2.7-3.4,5.3-3.1c0.5,0.5,0.9,1,1.4,1.5
		c-1.3,1.8-2.7,3.8-2.7,6c0,3.4-1.6,2.2-3.2,1.4C49,138.9,49,138.6,48.9,138.4z"/>
	<path class="st55" d="M54.8,37.8c-0.8,0-1.7-0.3-1.6-1.1c0-0.8,0.9-1,1.7-1c0.8,0,1.6,0.1,1.6,1.1C56.4,37.7,55.6,37.8,54.8,37.8z"
		/>
	<path class="st56" d="M53.5,130.2c-1.9,0.8-3.9,1.5-5.3,3.1c-1.2-2.4-2.2-4.9-2.8-7.5C48.3,126.9,51.4,127.5,53.5,130.2z"/>
	<path class="st57" d="M37.7,33.3c1.9,1.1,2.1,2.4,0.5,4.1C38.8,35.9,38,34.7,37.7,33.3C37.7,33.3,37.7,33.3,37.7,33.3z"/>
	<path class="st58" d="M41,36.7c-0.5-1.4-0.4-2.5,1.4-3.3C41.9,34.7,41.5,35.6,41,36.7z"/>
	<path class="st15" d="M34.7,35.7c0.5,0.3,0.8,0.8,0.6,1.5c0,0.1-0.2,0.1-0.3,0.2C34.9,36.8,34.8,36.2,34.7,35.7
		C34.7,35.7,34.7,35.7,34.7,35.7z"/>
	<path class="st59" d="M46.6,73.1c-2.7,1.1-4.4,1.1-6.3-0.5C42.3,72.4,44,72.1,46.6,73.1z"/>
	<path class="st60" d="M24.2,43.2c-1.3-0.8-0.6-2-0.7-3C28.4,40.2,24.4,42.1,24.2,43.2z"/>
	<path class="st61" d="M38.5,94.1c2.3-0.6,4.7-2.2,6.6,0.7c-1,0.1-1.9,0.1-2.9,0.2C40.9,94.9,39.7,94.8,38.5,94.1z"/>
	<path class="st62" d="M40.7,101.8c-0.8-0.3-2,0.2-2.4-1.1c0-0.1,0.6-0.3,0.9-0.4c1.4,1.2,3.1,0.3,4.7,1.3
		C42.8,101.6,41.7,101.7,40.7,101.8z"/>
</g>
</svg>
