<svg xmlns="http://www.w3.org/2000/svg" version="1" width="478" height="320" viewBox="-0.55 -0.7 477.8 320.2"><path fill="#cea6cc" d="M472 42q-3 26-28 47-25 23-35 38-8 11-10 23l-3 23q-3 13-7 21-12 21-48 34l-70-1q-71-3-78-11t2-27l7-13 4-5q5-13 23-35 22-27 49-52 34-30 71-50 44-24 89-30 12-2 18 0 7 2 11 7 3 4 4 12 2 9 1 19"/><path fill="#b390b1" d="M223 144q5 3 19-10l23-23q-6 8-7 18v20q2 15 23 42l17 19 14 11q-9 3-26 5l-16 1q-70-3-77-11-5-6-2-16 2-8 8-18l11-18 13-20"/><path fill="#cea6cc" d="M344 288q2 7-3 9-8 4-13 1-6-3-8-16-16 5-28 2-20-4-40-29l-31-44q31-8 71-1 17 3 31 8t22 10q14 10 11 20t-25 27q10 5 13 13"/><path fill="#b390b1" d="M274 219q3 16 0 27-3 9-11 21l-11-12-31-44q16-4 35-4 18 0 36 3l-14 2q-6 2-4 7"/><path fill="#cea6cc" d="M3 98l1-13 3-9q4-7 10-7 8-1 22 6 16 8 51 35 37 29 50 46l21 26q20 27 19 34-2 7-16 18l-15 9q-18 2-30 0-14-2-25-9-10-7-18-24l-6-15-5-13q-8-19-50-56-12-9-12-28"/><path fill="#b390b1" d="M129 190q0-26-11-44 19 17 34 22 11 13 19 27 9 16 9 21-2 7-16 18l-15 9-7 1q-7-4-11-12-4-7-5-14l1-11 2-17"/><path fill="#cea6cc" d="M157 295q-17-5-25-14-6-8-5-15 1-6 17-19 12-11 20-16l3-1 5-2q9-1 17 6 7 8 7 26 0 9-2 17-2 16-10 20-4 2-14 1l-1 8q0 6-2 8-3 4-8 3-6 0-8-4-2-3 1-10l3-5 2-3"/><path fill="#b390b1" d="M160 254q-5-8-6-15l10-8 3-1 5-2q9-1 17 6 7 8 7 26 0 9-2 17-4 2-10-1-6-2-13-9l-11-13"/><path fill="#e5e3da" d="M252 264q-2 15-5 20-5 12-17 9-15-3-25-9t-15-13q-3-6-4-17l-1-15q0-11 4-20 10-18 32-8t29 29q4 11 2 24"/><path fill="#c1bfb8" d="M252 264l-2 10-3 10q-2-28-22-39-8-5-19-6-11 0-21 3v-3q0-11 4-20 10-18 32-8t29 29q4 11 2 24"/><path fill="#e5e3da" d="M150 224l7 7 1 3-1 4q-1 1-4-3-3-5-3-11"/><path fill="#c1bfb8" d="M148 217l8 6 4 4 3 5h-3l-4-2q-7-4-8-13"/><path fill="#beaaac" d="M205 176q8 7 13 20 4 12 2 21-1 6-6 11-5 6-13 9-18 7-36-5l-7-7-6-12q-5-15 2-25l10-14 41 2"/><path fill="#968587" d="M205 176q8 6 13 19 3 11 2 22 0 4-3 8l-7 7v-1q-6-15-13-20-10-7-25 2-2 1-9-7l-11-14 2-4 10-14 41 2"/><path fill="#e5e3da" d="M147 197q2-4 6-7l-3 10q0 8 4 17 3 8 8 12-8-2-12-7-3-4-5-12-1-7 2-13"/><path fill="#c1bfb8" d="M152 213l5 9 5 7q-7-2-11-6 2-4 1-10"/><path fill="#e5e3da" d="M209 214l1-2q1-1 2 1l1 9q1 8-1 11-2 4-6 7-4 2-5 1l3-5 4-12 1-10"/><path fill="#c1bfb8" d="M212 213l1 9q1 8-1 11l-5 5q2-2 2-5t-2-3l1-6 1-10 1-2q1-1 2 1"/><path fill="#e5e3da" d="M206 229l-8 5-6 1 3-4 4-5 6-20 2-1q2 1 2 5l1 9q-1 7-4 10"/><path fill="#c1bfb8" d="M209 210v9q0 7-3 10l-5 3q4-4 4-8t-4-4l4-14 2-1q2 1 2 5"/><path fill="#e5e3da" d="M203 222q-5 7-12 9h-6l4-4q6-4 8-9l3-9v-8q0-2 2-2l3 3v10q0 8-2 10"/><path fill="#c1bfb8" d="M205 202v10q0 8-2 10v1l1-10q-1-5-4-7v-5q0-2 2-2l3 3"/><path fill="#fff" d="M159 200l-2 3-1 7q-4-3-4-8 0-4 3-8l4 6"/><path fill="#dbdcdc" d="M159 200l-2 3-1 4q-1-7-3-9l2-4 4 6"/><path fill="#afcee5" d="M159 159q5 5 5 12t-5 11q-4 5-11 5-6 0-11-5-4-4-4-11t4-12q5-4 11-4 7 0 11 4"/><path fill="#93aec1" d="M148 155q6 0 11 4 4 5 5 11h-14q-8 2-14 11-3-5-3-10 0-7 4-12 5-4 11-4"/><path fill="#beaaac" d="M152 145l-1 30q-9-13-18-41-7-21-8-29v-7q2-1 4 4l10 21q9 18 13 22"/><path fill="#968587" d="M139 132q-11-23-12-31-1-2 1-1l1 2q16 35 22 41l-1 9q-1 4-11-20"/><path fill="#beaaac" d="M177 48q4-6 5-5 2 0 1 6-3 14-5 54l-2 43 41-50q4-5 6-5v6l-32 71q2 10-8 27l-9 12-7 5q-2 0-5-3l-6-9q-7-15-5-38v-14q2-34 13-69 8-22 13-31"/><path fill="#968587" d="M179 49q2-6 3-5 2 1 1 5-3 13-5 51l-2 45-3 5-3 5q-3 5-3-21l2-37 5-26 5-22M220 98l3-3v2l-32 71q1 13-10 29-4 7-9 11l-5 4-4-2-2-3q5 3 7-6l2-16 2-11 6-9q8-5 24-35l18-32"/><path fill="#fff" d="M176 198q0-4 3-4t3 3q2 6 0 9l-3 5-2 1v-4l-1-10"/><path fill="#dbdcdc" d="M176 198q0-4 3-4t3 3l1 6-1 4q-1-6-5-7l-1-2"/><path fill="#afcee5" d="M201 158q5 5 5 12t-5 12q-5 5-12 5t-12-5q-5-5-5-12t5-12q5-5 12-5t12 5"/><path fill="#93aec1" d="M189 153q6 0 10 3 4 4 6 9-11-2-18 1-6 3-13 11-2-3-2-7 0-7 5-12t12-5"/><path fill="#0d131a" d="M144 163l7 10v7h-3l-6-2q-3-3-3-7l1-5 4-3M180 170q0-4 3-7t7-3q3 0 6 3t3 7q0 4-3 7t-6 3q-4 0-7-3t-3-7"/><path fill="#fff" d="M143 160l1 3 2 3q-1 2-4 2l-3-1-1-3 1-3 3-1h1M189 162l-1 3-3 1-4-1-1-3 1-4 4-1 3 1 1 4"/><path fill="#0d131a" d="M470 8q3 5 5 13 2 10 1 20-4 28-29 50-27 24-37 38-7 9-8 21l-2 8q-2 33-16 49-7 7-17 12-8 5-22 10l-3-2q33-12 45-30l7-19 3-21 1-7q2-12 9-23 11-15 37-38 25-22 27-49 1-9-1-18-1-7-4-10-5-8-23-8-17 1-45 10-35 11-68 32-27 17-51 39-28 25-50 53-17 21-23 33v-4q33-54 85-97 52-42 106-60 30-11 51-10 17 1 22 8"/><path fill="#0d131a" d="M467 11l1 2q-6-4-17-3-11 0-24 3-24 7-55 23t-61 38q-33 24-58 50-28 29-43 58l-1-1q16-29 43-58 25-27 57-51 31-22 62-39 31-16 56-22 13-4 24-4 10 0 16 4"/><path fill="#0d131a" d="M473 35l-1 2q-21-1-53 10-33 12-70 34-38 23-73 52-35 30-59 60l-1-2q25-30 59-59 35-30 73-53 37-23 70-34 32-11 55-10"/><path fill="#0d131a" d="M423 63q13 2 22 6 9 3 11 7v2q-3-4-12-7-10-4-23-6-34-4-63 9l3-2q30-13 62-9M430 103l-3 2q-31 6-72 21-82 31-135 77l-1-2q54-46 137-77 42-15 74-21"/><path fill="#0d131a" d="M404 133l-36 11q-27 8-52 18-69 27-94 49l-1-1q26-24 97-50l52-19 36-10-2 2"/><path fill="#0d131a" d="M328 175q23 4 36 16 5 5 7 12v11h-2q2-4 0-10t-8-11q-12-13-35-16-27-5-59 6l1-2q33-10 60-6M346 227l10 9q3 4 3 8-1 13-26 31 7 3 10 9 3 4 3 8l-2 4-3 3q-7 4-13 1-7-3-9-17-16 6-28 3-20-4-39-29l1-3q18 24 37 29 14 4 29-2h1l3 10 6 7q4 2 12-1l3-5q0-4-4-9t-9-8h-1l1-1 17-15q8-10 8-15l-3-7-9-7q-8-6-21-11-14-5-31-8-38-7-69 0l-1-1q30-8 70-1 17 3 32 8 14 5 22 10"/><path fill="#0d131a" d="M346 252q3 3 3 7h-1q0-2-3-5-5-5-16-11l-26-11q-36-13-68-12v-1q30-2 66 10 15 5 28 12l17 11M335 272l-1 1q-2-3-13-9l-25-15q-35-18-51-18v-1q17 0 52 18 14 7 24 14l14 10M287 266q15 11 17 19h-1q-3-8-19-20-17-12-33-17v-1q20 6 36 19M6 73q9-13 32-2 15 7 49 34 39 31 54 50l-1 2q-13-17-51-46-34-27-51-36-11-5-19-5-7 0-11 7l-3 8-1 13q0 18 11 28 18 15 30 28 16 17 21 28l3 8 10 24q7 13 16 19 10 7 23 9t31 0l-3 2q-18 3-31 1t-23-9q-10-7-18-24l-11-30q-3-8-20-26-15-15-32-29-12-10-11-31l2-14 4-9"/><path fill="#0d131a" d="M5 79q7-5 13-5 9 1 23 9 18 10 42 30 29 24 52 49v2q-20-22-50-47-27-22-45-32-14-8-22-9-6 0-12 4l-1-1M4 103l-1-1 13 1q12 2 27 9 39 19 90 62l1 1v1q-45-37-78-55-33-19-52-18M152 191l-1 1-5-5h2l4 4"/><path fill="#0d131a" d="M27 137l-1-1q8-5 20-5 17-1 41 8l2 2q-23-9-41-9-14 0-21 5M65 181l-1-2 39 9q23 6 42 14v1l-44-14-36-8M147 215l-1 1q-20-8-44-11-22-3-29 0v-2q7-3 28 0 24 3 46 12"/><path fill="#0d131a" d="M130 210l2 1q-12-1-22 9-7 8-10 17l-2-1q3-9 10-17 10-10 22-9M158 236v-1l6-4 1 1-7 4M156 236l1 2-18 14q-10 9-11 14-1 7 6 15 8 8 23 13l1 1v1l-3 4-4 7v5q2 3 7 4 6 0 8-2t2-6l1-5v-5-1h2q10 1 14-1 6-5 8-20l2 1q-2 17-8 21-5 3-16 1v4l-1 7-2 6q-3 4-11 2-7-2-8-6v-5l3-7 3-4q-14-5-23-13-7-8-7-15t9-15l22-17"/><path fill="#0d131a" d="M137 286q0-6 17-27 13-17 20-23h1l-20 24q-16 21-16 26h-2M155 295l-1-1q1-4 13-23l18-26v2q-6 7-17 25-12 19-13 23M187 266l1 1q-3 6-4 17l-1 13-2 1 1-14q2-12 5-18"/><path fill="#0d131a" d="M254 264l-1 2-3 15q-3 9-7 12-3 2-7 2l-8-1q-14-3-24-9t-15-13q-3-6-4-16l-1-15v-2h2v2l1 14q1 10 4 16 4 7 14 12 10 6 25 9h6q3 0 5-2 4-3 7-11l2-13 1-2q2-17-6-30-8-14-25-23l1-2q18 9 27 23 8 14 6 32"/><path fill="#0d131a" d="M231 217h1l3 5-2 1h-2l3 6-2 1-2 1 1 4 1 3-3 1h-3l1 4v3l-8-1 1 7-3-1-4-1-1 3-1 3-2-2-3-4-2 4-2 2-3-3-2-3-3 3-3 2-6-7 1-1 5 7 3-3 3-2 4 6 3-3 2-3 2 3 2 3 1-4 2-3 2 1 4 2v-7l7 1-1-4v-2l2-1h3l-1-4-1-3 5-3-2-3-2-3h5l-3-5"/><path fill="#0d131a" d="M243 232h2v1h-2l2 3 1 3-2 1h-3l2 5 1 5-6-1v4l1 3-6-1v6h-1l-6-1v7l-7-2-1 3-1 3-3-3-3-3-2 3-1 3-6-6-4 5-2-2-2-3-1 3-1 2-5-5 1-1 3 4 2-2 1-2 2 2 2 3 2-3 2-2 5 5 4-5 3 2 2 3 3-5 3 1 3 1v-4-3h3l4 1v-4-1h6l-1-4v-3l6 1-3-10h2l3-1q-4-5-3-6h1"/><path fill="#0d131a" d="M249 256h3v1h-2v8h-4l-1 6h-5v7l-3-2-4-2v4l-1 3-5-2-1 3-1 2q-1 1-7-3-4 4-5 3l-3-4-1 2-1 2-8-3-2-2 9 3 1-2 1-1 5 4 2-2q1-2 2-1l6 3 2-4 1-1 5 2v-6l1-1 2 1 4 2v-6h6v-6h4v-8M157 235v-4l2 1v4l-1 3-3-1q-4-3-5-8l-1-7 1 2q0 6 5 11l2 1v-2"/><path fill="#0d131a" d="M147 218l2 2 3 6 7 5h2l-3-4 2 1h1l1 1 1 1v3h-4q-6-2-9-7-3-3-3-8M153 191l-1 3-1 3v10l-1 1v-1q-2-4-1-11l2-4 1-3 1 2M205 175q7 5 11 13t5 16q1 8-1 15-2 8-7 12v-3q4-3 6-11v-14q-2-8-6-15t-9-11l1-2"/><path fill="#0d131a" d="M158 227h2q13 11 28 11 12 1 18-4l-2 3q-14 6-28 1-10-3-18-11"/><path fill="#0d131a" d="M152 189l1 1-5 6-2 10v4l3 10q3 4 8 6l2 1-2-3q-8-10-8-23l1-1 1-1q-1 8 2 15l7 11q4 5-3 3-5-2-9-7-3-4-4-10t2-13q2-6 6-9M213 212l2 9q0 8-2 12-3 5-7 7-4 3-5 2l1-3 2-5 2-6 2-3q0 7-5 14l-1 1q1 1 2-1 5-2 7-7 2-2 2-8l-1-7v-4l-2-1v1-2h1l2 1"/><path fill="#0d131a" d="M205 204h2q3 0 3 5 2 16-2 20-5 5-13 6h-4l1-2 3-3 2-2 2-2-5 7-1 1h1q7-2 12-6 3-3 3-13v-5q0-3-2-4h-1l-1-1v-1"/><path fill="#0d131a" d="M203 222q2-2 2-10l-1-10q0-2-2-2-1-1-1 1 0 6-2 11 0 5-2 7-4 6-10 11l-1 1h3l8-4q4-2 6-5m3-20l1 10q0 8-2 11-3 4-7 6l-10 3-4-1 2-2q8-7 10-12 2-3 2-9l1-7q0-3 3-3t4 4M154 194l1 1-2 7 1 6 1 1v-2l1-4 1-2 1 2-2 6-1 2-2-2q-2-3-2-8 1-5 3-7M136 163l-2 8q0 6 4 11 4 4 10 4h4l1 1-5 1q-7 0-12-5t-5-12q0-5 3-9 2-4 6-6l1 1q-3 2-5 6"/><path fill="#0d131a" d="M126 99v5q0 8 7 29 9 27 18 40v3q-11-15-19-40-7-19-8-31-2-7 1-9 2-1 5 4l9 19 13 23-1 3-12-21-11-22-2-3"/><path fill="#0d131a" d="M152 189q-3-10-3-23 0-7 2-7 1-1 1 8 0 11 2 21 2 12 7 19l5 4 3-2q4-3 7-8l1 2v2l-5 5q-4 3-6 2-2 0-6-4-6-6-8-19M185 187h3l-6 11v-3l3-8M215 95q7-7 9-5 3 2-1 12l-11 24-13 30-2-2 23-54q3-6 2-7l-4 4-41 50-8 9q0-2 8-13l38-48"/><path fill="#0d131a" d="M173 52q6-12 9-12 4 1 2 14l-5 51-2 40-2 3q-1-4 1-39l5-55q2-9 1-10-2 0-6 8-7 16-14 41-7 26-9 47l-2 8-1-8q1-16 8-45 8-30 15-43M179 195h-2v16l2-1q4-3 4-8l-1-5-1-2h-2m0-2l2 1 2 2 1 10q-1 3-4 5l-3 2-1-3v-10l-1-3 1-3 3-1M200 159q-4-5-11-5t-11 5q-5 4-5 11t5 11q4 5 11 5t11-5q5-4 5-11t-5-11m-11-7q7 0 13 5 5 6 5 13 0 8-5 13t-12 5q-8 0-13-5-6-6-6-13t5-13q6-5 13-5"/></svg>