<svg xmlns="http://www.w3.org/2000/svg" version="1" width="385" height="355" viewBox="-1.5 -1.85 385.15 355.1"><path fill="#958c87" d="M330 214q-6-11-16-19-8-6-17-10l12-1 9-3q18 11 27 26 8 16 10 34 1 19-5 38-2 6-7 9-4 2-8 0-9-4-4-17 5-16 5-30 0-16-6-27"/><path fill="#766e6a" d="M339 200q8 10 11 20-4-6-12-10t-13-4l-14-13-14-8 10-1 11-3q13 8 21 19"/><path fill="#0d131a" d="M211 165q6-1 10 2l14 10q9 9 12 16 4 10 2 32t-7 32q-5 9-8 10-4 0-4-10l-2-32q-2-19-7-25l-15-17q-5-6-4-9 3-7 9-9"/><path fill="#00a0cf" d="M206 171q2-3 5-3l7 3q6 2 15 11 10 9 12 16 2 8 0 29-1 21-5 27l-4 6-2 3-1-6v-13l-2-22q-2-16-7-24-5-9-14-19l-4-5v-3"/><path fill="#766e6a" d="M326 227q3 2 4 5l-1 5q-1 2-3 2l-5 1q-13-7-32-8-16-2-36 0-18 1-37-6-21-9-33-25l1-6 1-5q9 13 30 23t38 8q17-3 36-1 24 1 37 7"/><path fill="#0d131a" d="M325 238l3-2v-4l-4-4q-10-5-28-7-18-1-40 1-19 2-38-6-21-9-33-25l1-3q11 16 32 25 19 8 37 6 23-2 42 0 19 1 29 7 4 2 5 6v5q-1 3-4 4-4 1-8-1-11-5-30-7-17-2-32 0-18 2-37-5-25-8-37-26l1-3q12 18 35 26 20 7 38 5 14-2 33 0t30 7q3 2 5 1"/><path fill="#766e6a" d="M189 231q-3-13-8-25l3-11q8 11 13 28 5 15 5 28 0 12 4 26 4 13 11 26 4 7 0 9l-4 1-4-2q-9-10-14-28-5-17-4-28 2-10-2-24"/><path fill="#0d131a" d="M183 195l1-2q9 13 14 29 5 15 5 30 0 13 5 28 4 13 10 22 5 8 0 12l-5 1q-4-1-7-5-8-10-12-25-5-16-4-31 1-12-1-24l-8-22v-3q7 12 10 23 3 13 2 27t3 29q5 14 12 24l5 4 3-1 2-2-2-6q-6-9-10-22-5-16-5-29 0-14-5-29-4-16-13-28"/><path fill="#766e6a" d="M299 172q-18 5-41 2-18-3-26-8 14-3 32-2 18 2 35 8"/><path fill="#958c87" d="M199 182l8-3q24 13 38 28 15 18 20 42 4 19-3 42-8 22-26 42l-8 4q-4 0-5-2-2-2-2-5l2-8q15-18 21-34t6-34q0-21-18-43-13-16-33-29"/><path fill="#766e6a" d="M215 194l-8-6-8-6 9-4 21 15-7-1q-4 0-7 2"/><path fill="#0d131a" d="M199 183l2-1q18 12 30 26 16 19 19 39 3 18-3 36t-21 37q-4 6-4 10 0 3 2 5h6q4-2 8-7 16-19 23-39 6-19 3-39-4-21-18-39-15-18-38-31l2-2q24 14 39 32 14 18 18 39 3 20-3 41-7 21-24 40-5 7-10 8-4 1-8-1-3-2-3-7t5-11q29-37 24-71-4-21-19-39-12-14-30-26"/><path fill="#958c87" d="M215 174l5-6 10 8 15 4q17 10 28 20 10 9 19 20 13 18 15 44 2 25-7 48-2 5-6 7-4 3-8 1-3 0-5-5-2-4 0-8 8-17 8-38 0-23-11-41-8-14-29-31-17-14-34-23"/><path fill="#766e6a" d="M215 174l4-3 13 5 13 4 12 8 13 9q-5-3-12-3-7-1-11 1l-32-21"/><path fill="#0d131a" d="M332 273q-2 5 0 9 1 4 5 5t8-3q3-4 4-9 7-24 3-43-4-20-17-35-18-19-48-27-26-7-53-3l4-3q25-4 52 4 29 8 47 27 14 15 18 36t-2 45q-2 7-7 11-4 4-10 3-5-1-8-6-2-6 1-12 11-30 2-52t-37-35h5q27 13 35 35 9 23-2 53"/><path fill="#0d131a" d="M215 175l2-1 34 23q18 14 27 28 11 18 13 37 1 21-8 45-2 4 0 8 1 4 5 4 2 1 6-1l5-8q14-42-1-75-7-16-21-30-15-14-36-26l5 1q41 23 55 54 7 17 8 36 0 20-7 41-2 6-7 9t-8 3q-5-1-7-6t0-11q9-24 8-45-2-19-12-35-9-13-26-26-13-11-35-25"/><path fill="#958c87" d="M353 86q-4-14-21-26l-13-9-12-7q-3-2-4-5-2-3-1-5 1-3 4-5 4-2 6-1 36 4 60 43 12 19 6 46-6 26-25 45-22 21-60 23-29 1-64-10l-9-7 3-4 4-6 4 7 7 4q8 3 21 5h28q35-4 54-23 12-13 15-30t-3-35"/><path fill="#766e6a" d="M242 179l-23-8q4-4 8-13 2 6 6 9l9 3 10 3 6 6q5 4 8 4-11 0-24-4"/><path fill="#0d131a" d="M355 84q6 14 4 30t-10 29q-8 14-22 21-23 12-52 12-25 1-43-8-3-1-4-5l-2-4 7 6q20 9 44 8 26 0 49-12 11-6 19-18 8-13 10-27 2-15-3-28-5-15-19-25l-13-8-11-7q-12-8-9-15 2-5 9-6 6-1 15 2 20 5 35 22 16 16 20 36t-2 40q-6 19-20 34-15 15-36 21-22 7-54 3-32-3-50-14l3-2q15 9 45 13 34 5 56-3 21-7 35-23 14-14 19-33 5-18 1-36-5-19-19-33-15-16-32-22-8-3-14-2-5 0-7 4-2 5 9 12l22 14q14 9 20 24"/><path fill="#958c87" d="M151 226l1 13q-6 12-17 20-12 9-29 14-19 6-31 15-9 6-26 24-3 3-7 4-3 1-5-1-2-1-1-5l2-6q10-14 29-27 19-11 35-15 18-3 29-13 11-8 20-23"/><path fill="#766e6a" d="M136 245q12-11 15-20l2 15q-8 13-19 20-10 7-23 11l-22 8-19 12q3-3 6-10l2-10 18-7 17-5q11-3 23-14"/><path fill="#0d131a" d="M152 238l1 3q-7 12-18 20-10 8-19 10-24 8-36 15-11 7-27 23-11 13-17 8-2-3-2-7 1-5 6-11 13-15 30-25 16-9 41-16 12-3 23-12 10-10 16-22l1 4q-6 12-16 21-11 9-23 12-25 6-41 16-16 9-29 24-4 4-5 8t1 5q2 2 5 1l8-7q16-17 27-24 13-8 37-15 9-3 19-11 11-8 18-20"/><path fill="#958c87" d="M145 178l4 2q-22 14-37 35-15 23-17 47-1 17 7 36 9 20 25 37l4 8-2 6q-2 2-6 1-5 0-8-3-16-15-25-37-11-23-9-44 3-29 23-54 18-21 41-34"/><path fill="#766e6a" d="M123 193q13-10 23-15l2 3q-6 3-15 12-11 9-17 17l-7 1q-4 1-7 4 8-11 21-22"/><path fill="#0d131a" d="M147 180l1 2q-21 15-35 34-13 20-16 41-4 39 29 76 6 6 6 10 1 4-2 7-4 3-9 2-4-1-9-6-19-21-27-43-8-23-4-45 4-23 21-45 16-21 42-35l1 1q-25 14-41 35t-20 44q-4 22 4 44 7 22 26 42l7 5q4 1 6-2 3-2 2-5l-5-8q-16-18-24-38t-5-40q3-21 16-41 14-20 36-35"/><path fill="#958c87" d="M122 182l10-3 5-2 5-1 3 2q-30 9-51 26-24 18-32 44-4 13-2 27 2 18 13 41 3 6 2 10 0 4-3 6h-6q-4-2-7-6-10-15-13-34-5-22 1-41 5-21 24-40 16-16 39-27l12-2"/><path fill="#766e6a" d="M91 195l10-6 9-5 13-2 9-3 5-1 5-1 2 1-19 7-19 10-6-1q-5-1-9 1"/><path fill="#0d131a" d="M109 184h4q-24 11-41 28t-23 38q-6 17-3 36 2 18 13 37 3 5 7 7h5q3-1 3-5l-2-9q-23-42-8-76 8-21 29-37t50-25l2 1q-29 9-50 25t-29 36q-14 34 8 75 3 7 3 12-1 4-4 6t-8 0q-5-2-8-9-11-19-14-38-3-20 3-37 6-20 23-37 16-17 40-28"/><path fill="#958c87" d="M111 163l4 2 4 1 3-1 3-2 7-4 2 4-4 5-4 2q-27 1-51 11-27 13-42 35-7 12-11 27-4 19-3 41 0 5-2 9t-5 5l-6-2q-3-2-4-7-3-18 3-42 5-23 16-38 16-22 42-34 24-11 48-12"/><path fill="#766e6a" d="M103 164q8-1 14 1l4 1 4-2 7-5 2 5-7 6-15 1-15 3q3-1 4-4l2-6"/><path fill="#0d131a" d="M29 197q16-16 37-25t45-10l3 2q-24 0-46 9-21 9-37 26-15 16-23 38-7 22-5 47l3 9q2 3 5 3 2 0 4-3 2-4 2-11-2-51 26-80 14-15 36-23 22-9 50-10l-4 3q-53 3-80 32-27 28-25 78 1 8-2 13t-7 5q-4 0-7-4t-4-12q-1-25 6-48 8-22 23-39"/><path fill="#958c87" d="M61 29q5-4 10-4 5-1 9 3 2 2-2 9l-9 13Q44 74 37 94q-11 27 6 52 14 20 36 27 24 8 49-3l5-5 5 7 7 5-7 1-9 2q-23 9-51 3-31-7-47-29-23-32-10-71 5-17 16-31t24-23"/><path fill="#766e6a" d="M90 185q4 0 7-3l4-6 16-2 11-4 6-6 3 7 5 6h-5l-5 1q-10 4-21 6-12 2-21 1"/><path fill="#0d131a" d="M79 25q4 4 1 11-4 9-21 26-24 24-24 52 0 27 24 47 17 13 36 14 10 0 29-5 4 0 7-4l3-6-1 6q-2 4-5 5-14 6-29 6-24 1-42-14-25-20-25-48-1-29 24-55 16-16 20-23 4-6 0-9-3-4-11 0-9 5-21 19-16 18-22 37-5 18-3 35 2 16 10 30 8 12 20 20 14 9 29 13 14 3 28 2 14-2 26-7l4-1h6l4 4-6-1-7 1q-17 7-38 6-26 0-47-14-14-9-22-23-9-14-11-30-2-18 4-36 6-20 21-38 12-13 22-18 11-7 17-2"/><path fill="#958c87" d="M147 203l2 8q-17 11-24 28-9 21 4 39l11 18q4 10 4 19l-1 7q-2 4-5 4t-5-3l-2-6q0-15-13-33-7-11-7-24 0-12 5-24 6-11 14-20 9-9 17-13"/><path fill="#766e6a" d="M128 218q10-10 19-15l2 8-14 13q-5 6-10 16t-3 20q2 10 8 20-3-4-8-5l-8 1q-3-10-3-18t3-19q4-9 14-21"/><path fill="#0d131a" d="M148 210l1 3q-20 16-25 33-4 16 7 32l12 22q3 9 3 17l-3 8-5 3q-3 0-5-3-3-3-3-8 0-8-3-15-3-8-9-17-8-10-9-23-1-11 4-23 5-11 14-21t20-16v2q-10 6-19 16-8 9-12 20-10 24 4 44 12 17 13 33 0 3 2 5 1 2 3 2t3-2l2-6q0-7-3-16-3-8-11-20-12-19-7-36t26-34"/><path fill="#958c87" d="M149 182l6 1q-13 12-17 27-5 17 2 40l8 18 11 18 2 7q0 3-2 4-2 2-5 2l-4-2q-7-6-13-18-7-11-10-22-8-24 0-46 7-18 22-29"/><path fill="#766e6a" d="M140 190l10-9 5 2-9 10-6 10q-1-2-4-2-4 0-6 3 3-6 10-14"/><path fill="#0d131a" d="M148 181l2 2q-22 16-25 41-3 16 3 34 6 17 19 34l5 5h6q2-2 1-5l-3-7q-11-16-16-33-6-15-5-29 0-23 18-39l2 1q-17 15-18 38 0 15 7 33 5 14 15 28 7 11 0 15-3 2-8 0l-7-6q-13-17-18-35-6-18-4-34 4-26 26-43"/><path fill="#00b8ee" d="M324 83q7 2 13 8 6 5 7 10 3 10-2 21-5 10-14 17-12 9-33 13-19 4-36 2l-10 2-8 5-5 2-4-1-5-4-6-6q-5 5-18 12l-19 11q-6 3-13 3-7-1-12-4-6-3-21-16l-8 2-6 4-5 2-4-1-9-4-13-5-11-3-15-3q-8-2-15-8t-8-13q-2-8 4-16 6-7 20-15l4-4 3-4 2-4 4-2 68-63 3-6q6-7 24-12 7-2 16-1l11 1q5 1 7 7l78 41q4 3 8 12 4 8 12 13 7 5 16 7"/><path fill="#ba0031" d="M260 12q20 12 26 33 7 22-6 41-10 16-31 16-20 1-39-12-9-7-14-17-6-9-6-21-1-11 2-20 4-11 11-18 10-9 28-9 16-1 29 7"/><path fill="#990024" d="M267 41q10 8 15 19 4 12 0 24-7 10-18 14-10 5-22 4-12 0-22-6-12-5-19-15-7-15-2-28 5-12 19-18 13-5 26-3 13 1 23 9"/><path fill="#00a0cf" d="M85 89q3 9 11 13 7 5 17 4 11-1 21-7 10-7 18-20-12 21-31 29-20 9-36-1l-7-6q-4-3-5-8l4-6 4-3q3 1 4 5M206 4l2 3 1 3q-10 6-15 16-7 14-5 35-6-18-2-33 5-16 19-24M286 75q5-13 2-24 4 2 7 9l3 7q1 11-6 23-6 11-16 17-23 14-48 2-11-6-20-16-9-9-14-21 16 23 39 29 21 5 38-6 10-6 15-20M341 123q-6 12-17 18-12 7-28 11-19 5-36 3h-7l-7 3q-8 6-10 5-3 0-8-4l-7-7q3-3 8-3 5-1 9 2 10-9 20-6 13 2 28 1 15-2 28-8t21-15q8-9 9-21 4 10-3 21"/><path fill="#ba0031" d="M137 17q8 1 12 4l5 15q3 12 3 23-1 13-8 24t-18 17q-10 6-19 6t-16-3q-6-3-10-8l-5-11q-3-13 0-25 3-10 11-22 10-14 29-19 8-2 16-1"/><path fill="#00a0cf" d="M65 148l3-1q2-1 12 1l17 4 8 3 9 3 9-5q6-4 7-3l4 5q2 3 0 3l-8 5-7 4-10-3-10-5-17-4-17-5v-2"/><path fill="#0d131a" d="M168 100q7-2 12 2t6 10q1 7-3 12-4 6-10 7t-11-3q-5-4-6-11-1-6 2-11 4-5 10-6"/><path fill="#0d131a" d="M206 87l3 2q-7 3-15 10l-11 11q-1 2-2 1v-2q3-5 10-11l15-11M153 95l6 10 1 2q-1 1-2-1l-8-10-5-8 1-3h1l6 10M168 129q0-3 2-2l1 5q-2 9-1 26 0 15 2 19v2q-2-1-2-3-3-9-3-24-1-12 1-23"/><path fill="#990024" d="M122 38q18-5 33 9l1 11-1 9q-7 27-28 36-9 3-18 3-8 0-14-3T85 92q-1-8 2-19 3-9 8-16 11-14 27-19"/><path fill="#db8f86" d="M93 41l8-8q5-2 7 0 3 2 3 7l-4 10q-4 5-8 7-5 2-7 0-3-2-3-7l4-9"/><path fill="#0d131a" d="M278 25q14 17 12 39-1 10-5 19-5 8-11 13-17 11-38 7-19-3-33-18-9-9-13-20t-3-23q2-11 7-20 6-9 15-14 16-8 34-4 20 4 35 21m3 57q4-8 5-17 3-22-11-38T242 7q-17-3-31 4-9 5-14 14-5 8-6 19t3 21q3 11 10 18 14 13 32 16 20 4 36-6 5-4 9-11"/><path fill="#db8f86" d="M223 20q5 3 7 8 1 6-2 11t-9 6q-6 1-11-2t-6-9q-2-5 1-10t9-6q6-2 11 2"/><path fill="#ba0031" d="M168 102q5-1 10 2 4 3 5 8v2q0 5-3 9t-8 5q-5 1-9-3-4-3-5-8-1-6 2-10t8-5"/><path fill="#990024" d="M168 112q5-3 9-2 4 0 6 3v1q0 5-3 9t-8 5q-5 1-9-3-2-3 0-7 1-4 5-6"/><path fill="#db8f86" d="M168 113q-1 2-3 2h-4q-2-1-2-3l1-4q1-3 4-3h3q2 1 2 3l-1 5"/><path fill="#0d131a" d="M205 2l4 3 1 4-2 1-1-3q-1-2-3-2-12-4-25-1-12 3-22 9-4 2-5 5-2 2-1 4 6 15 7 30 1 21-10 35-9 13-23 18-15 5-28 0-4-1-8-6-5-4-7-9l-2-4-2 1-4 7-8 6q-14 8-19 17-6 11 4 22 6 6 17 10l22 4 17 6 11 5q4 0 9-4 5-3 11-3l2 1v1q-7 1-14 5l-4 3-3 1-12-5q-11-6-19-7-15-2-25-6-11-4-16-11-9-11-3-23 5-9 21-18l4-2 2-3 3-4 2-4q3-3 5-1l4 5 5 8q4 4 8 5 11 5 25 0t23-17q10-13 9-33-1-13-6-28-2-7 6-12 10-8 23-11 15-3 27 1"/><path fill="#0d131a" d="M204 4l3 1-6 3-5 4-1 1v-2l5-4 4-3M75 91q-1 4 2 8l6 6q7 5 17 6l1 1-2 1q-9-1-18-6-4-3-6-7-3-3-3-7l3-2M291 91q1-2 2-1l-1 2q-7 13-23 20-14 6-26 2l-1-1h2q10 2 24-3 14-7 23-19M294 60l5 7q1 4-1 11l-1 1v-1-8l-3-10M137 19q-8-1-16 1-18 5-28 18-8 10-10 21-3 11-1 22 2 10 8 16l-1 1-5-3q-3-5-5-13-3-10 0-22 3-13 11-23 12-15 30-20t30 2l-1 4q-5-4-12-4"/><path fill="#0d131a" d="M324 81q10 3 15 9 6 6 8 14 2 18-14 33-16 14-42 18l-15 1h-17q-8-1-15 5l-5 4q-3 2-5 1l-7-5-8-8q-1-1 1-1l2-1 7 7 7 3 10-5q8-4 13-3h19q15-1 29-5 37-13 36-43 0-7-6-13-5-5-12-7-10-3-18-8-9-6-11-13l-3-5-4-6-1-4 6 7 4 7q2 6 10 11 7 5 16 7"/><path fill="#958c87" d="M188 184l7-1q11 11 18 25 6 15 8 31 1 14-4 29-5 16-15 28-4 4-8 4-3 1-5-2-2-2-2-6t4-8q6-8 10-18 6-11 7-25 1-13-6-31-6-15-14-26"/><path fill="#766e6a" d="M189 185l6-1 9 10 7 11q-3-3-7-4h-6q-5-11-9-16"/><path fill="#0d131a" d="M188 185h2q36 55 2 99-3 4-3 8-1 4 2 6h4l7-5q7-7 11-19 6-13 6-27 2-36-25-63l2-1q27 28 26 65-1 14-6 28-5 12-12 20-9 10-15 4-4-3-3-8 0-4 4-10 17-22 16-45 0-24-18-52"/><path fill="#0d131a" d="M186 186l-10 1-19-1q-8-1-16-8-8-8-11-18l3-2q4-1 6 1l17 12q11 7 17 7 7 0 28-13l19-13 8 6q0 3-3 7l-7 9q-13 11-32 12"/><path fill="#fff" d="M188 173l32-20q2 13-10 19-11 5-23 2l1-1M136 156l15 12 10 8q-10 2-17-2-8-4-8-18"/><path fill="#0d131a" d="M206 164l1-2 1-1 2 1 1 1v2l-2 1-2-1-1-1M145 169v-2l2-1 1 1 1 1v1l-2 1h-1l-1-1"/><path fill="#00b8ee" d="M164 176l5 2h6q6-3 9-1 3 1 3 4 0 5-6 23-3 14-1 35l6 35 3 11 6 27q2 8-1 9h-3l-5-3q-8-7-19-24-12-16-12-18 0-12-4-45l-4-32 8-12q7-11 9-11"/><path fill="#00a0cf" d="M162 175l3 2 2 1 15-2q3 0 4 4 2 5 0 8l-4 18-3 17 3 25 3 25 8 28q4 19 1 21-5 2-24-23l-13-17q-5-8-3-9l2 1 2 3q4 5 8 4l8-6q5-5 4-10l-3-24v-30l3-10 2-8q0-4-6-7-5-3-10-3l-8 4-6 7q-4 5 4-8 6-11 8-11"/><path fill="#0d131a" d="M163 176q2 1 0 2l-9 12-5 10 2 13 3 25 2 25 1 13q1 4 16 23 13 17 16 19l4 2q2-1 1-5l-5-20q-5-19-5-24l-2-12-4-25v-17l2-10 1-9 3-11v-6q-1-3-4-4v-2h3q3 2 5 6v5l-2 9-4 12q-2 11 0 30l5 35 5 20 5 22q1 5-1 7-2 4-9-1l-18-20q-15-20-16-24l-1-13-1-22q0-9-3-26-3-13-2-16 0-3 8-14l7-10 2 1"/><path fill="#0d131a" d="M183 174q9-4 20-12l18-12q8-6 15-2l2 3q1 2-2 0t-6-1q-4 0-7 2l-20 14-18 11-12 2q-7 1-14-3l-14-9-13-13-3-1-6-1-2-1 3-1h6q3 0 5 2l10 10 14 11q5 3 11 4 7 0 13-3"/></svg>