<svg xmlns="http://www.w3.org/2000/svg" version="1" width="476" height="470" viewBox="-1.0 -0.15 475.6 469.95"><path fill="#eeeeef" d="M176 110q1 1-8 9-8 7-9 6l-24-15v-2l1-2h9l-14-16-15-17v-1h3q5 0 19 9l14 9-1-3-1-5 1-3 3-1 10 12q9 13 12 20"/><path fill="#0d131a" d="M145 108l-4-1h-4l-1 1v1l9 5 15 11 1 2h-2l-8-5-7-6-5-3-4-3v-3l2-1h8l1 1-1 1"/><path fill="#0d131a" d="M119 72l-1 1-1 1 5 5 6 7 11 11 7 10v2l-2 1h-2v-1h1l1-2-8-9-9-11-12-13q-1-1 1-2 1-2 3-1 8 1 33 18l1 2-1 2-15-12-18-9"/><path fill="#0d131a" d="M175 111q-2-6-10-18-8-11-12-14h-1l-1 1 1 3 1 9v2l-1 1h-1l-1-1h1v-3l-2-11 2-2q2-2 3-1 7 5 14 17 7 10 9 17v2l-2-2"/><path fill="#f0e78e" d="M257 213q1 4-10 16l-12 10h3q3 0 7 4 9 9 8 22l2 3 3 4q4 6 6 18 2 14-1 25-1 1 1 4l1 4 3 10q2 7 1 14 0 20-9 29l-3 4 1 4q1 10-7 23-9 15-23 20l-3 5-4 7q-14 16-32 23-18 6-34 2l-5-1-4 2q-11 4-26 3t-23-8l-4-2h-2q-9 0-22-6-13-7-14-13-2-5 6-4 7 1 13 5l7 5 3 5 7-5q5-3 13-3h14q8 2 10 4 3-6 9-11l10-6q8-3 20-4 10 0 14 2-3-8-2-14 0-6 3-12t10-10l12-5q-3-2-5-9l-2-11 1-13q2-10 6-13l-10-8q-6-7-6-14-1-6 2-14 1-6 4-9l-8-8q-7-8-7-14 0-7 4-13 4-5 10-7-3-5-4-11-1-7 1-13 3-15 18-18l12-1 9 1 17-2q10 0 11 4"/><path fill="#c9c279" d="M252 252l1 14q11 13 12 32 0 12-3 20 9 19 6 36-2 15-10 24 1 12-5 25-8 20-26 24l-4 7q-5 10-20 19-14 9-26 11-15 3-27-2-10-3-15-10 7 3 18 2 9-1 19-5 9-3 14-8 6-6 4-11 6 0 15-3 9-4 15-9 7-6 9-13 2-8-3-15 14-1 20-15 6-15 2-32-7 2-20 2-16 0-24-5l12 1q10 1 13-1 16-8 19-25v-14l-4-11-1-1-3 1q-10 5-23 7t-19-1l18-4q12-2 15-5 4-1 5-5v-9q-3-13-16-19-11 3-17 3-7 1-14-1-1-2 10-5l11-2 12-6q14-6 19-4 8 4 11 13"/><path fill="#c9c279" d="M95 460l-2-3q-1-1 0 0 8 5 23 5 16-1 23-5 1-1 4 1l8 5-11 4-17 1q-21-1-28-8"/><path fill="#c9c279" d="M92 458q-8 0-21-7-14-6-13-10 3 3 13 7l15 4 5 3q3 3 1 3"/><path fill="#eeeeef" d="M66 185l2 1 1-3 1-2 3 2 2 3 3-5 4 7 2-2q2-2 3-1 1 13-7 30-7 15-16 24-1 1-2-1v-3q4-11 4-27 1-12-2-22l1-2 1 1"/><path fill="#0d131a" d="M84 177q0-3 2-3t3 3q1 15-5 34-6 21-16 31l-4 6h-5l-2-3v-5l1-6h2l3-2q10-8 16-26 6-17 5-29"/><path fill="#0d131a" d="M60 187l-1 2h-2l-1-2v-2l1 1h1l1-2 1-3 1-1 3 2 3 2 3-5 3 3 2 3 1-3 2-2 2 3 2 4 4-4v3l-2 2-2 1-2-3-2-3-1 2-2 2-2-2-3-3-1 3-2 2-2-2-3-2v1l-1 1-1 2"/><path fill="#00b8ee" d="M86 178v-2l1 2q2 13-5 33-6 21-15 28l-1 3-2 3q-2 2-3 1-2-2-1-8l1-2 2-1 2-2q9-8 14-23 7-16 7-32"/><path fill="#00b8ee" d="M228 140q4 15 5 30 0 15-3 22-6 14-20 36t-19 25q-14 9-12 22 2 12 15 19v1l-1 1q-3 3-4 9-2 6-1 12 1 16 16 22h1l-1 1q-3 1-5 7-2 5-2 13-1 16 6 26l-1 1q-13 3-20 14-6 12-2 22l-1 2-3 1q-14-2-27 3-14 5-19 14l-1 2h-2q-2-2-7-3h-12q-16 0-23 7l-2-2-1-1q-7-7-16-10t-12 1l-3-6q-11-2-21-14-8-11-8-19-6-3-12-19-6-15-4-22-6-6-4-23 0-7 2-13 1-6 3-8-4-24 13-42 0-12 5-21 3-5 10-10h8q5-9 5-22l1-10v-15l-3-16-2-7-1-2 2 1 3 2-2-6v-6q3 0 9 11v-4q1-1 3 3l4 7q3 6 4 17v26q-2 15-7 27l2 4q2 4-1 16-3 13-10 19l-2 13q-1 8-4 11 3 3 4 13 2 11 0 16 4 2 8 8 5 8 5 15 4 0 12 6 8 7 10 14 4-1 11 2 8 3 12 7l12-2 11 1q4-5 14-9l12-4q0-4 5-12t9-10q-2-5-2-17 0-13 3-16l-9-17q-8-15-8-27l-2-9-3-9q-7-10-10-25-3-13-2-27 0-14 4-24 3-10 9-13v-11l1-12q4-20 22-35 8-6 15-9 8-3 13-2 9 1 16 12t12 27"/><path fill="#f0e78e" d="M161 276q-4-1-7-5t-5-13q-2-12 3-19 1-1 10 4 9 6 7 8-3 3-4 10v14q0 2-4 1M165 287q1-2 8 1t5 4q-2 2-1 10 0 8 3 16l-2 1h-3q-5-2-9-11-4-11-1-21M176 327q2 0 5 3l7 5q-2 3-3 11l-1 14q0 2-2 1l-5-4q-2-4-3-14-1-11 2-16M173 361q2-1 5 5l9 11q-4 1-10 8l-9 9q-2 1-4-1l-2-6q-1-4 2-13 4-10 9-13M159 403l2 7q-3 2-12 3-11 1-18-1l-2-2v-4q1-3 8-9 9-7 17-8l5 14M121 402l-2 10v13q-25-3-27-5l-2-3q-1-2 1-5 3-4 13-7 10-4 17-3M80 413l-3 12q-4-1-10-6t-7-8v-3l1-3h11q8 2 10 4l-2 4M34 383l10 6 8 7-3 8-2 9q-8-5-13-14-4-8-4-11l2-4 2-1M22 388q-4-1-8-14t-2-16q2-2 8 5 5 7 6 12l-3 6-1 7M13 344l-6 7q-2-4-1-16 0-11 2-13l2-2h2l2 10 2 10-3 4M15 277q1-1 1 1 2 4 1 16l-1 11-5 4-4 4q-1-7 1-18 2-13 7-18M27 246l1 1q2 4-1 13l-3 9-3 1h-2l2-12 4-10 2-2M159 237q-4-1-7-5-3-5-3-21-1-17 4-22l9 13q6 8 5 10-2 2-2 13l-1 11q-1 2-5 1"/><path fill="#eeeeef" d="M31 176l2 3 1 2 3-3 2-3 4 7 2-3q1-2 2-1l1 10 1 15q1 6-1 16l-3 12q-1 1-3-1l-2-2-2-3-4-3q-4-3-10-19-5-16-5-22l1-3 2-1 2 3 2 3 2-3 3-4"/><path fill="#0d131a" d="M58 244l4 6q2 9-2 20t-10 15v-3q6-4 9-14t0-18q-2-6-11-8-9-3-14 0-5 4-9 10-4 8-4 19l-1 2q-1 1-1-1-1-7 1-14 3-11 11-16 7-6 18-2 5 1 9 4"/><path fill="#0d131a" d="M34 267q10 2 15 11 3 7 1 17t-6 15h-1v-2q4-7 5-15 1-9-2-15-3-7-12-8-10-1-16 5-6 7-9 17t0 20l-1 1H7q-3-7-1-18 2-13 9-21 8-8 19-7M50 161q3 3 4 7 0-4 2-3l2 2q8 13 9 35 1 23-8 44 0 2-1 1l-1-3q9-22 8-45-1-21-9-32-1-1-1 5h-1l-2-6-4-5-1-1h-1l1 5 1 7q0 1 0 0l-3-3-1 2q5 9 6 28 1 22-5 38l-2 1q-2 0-1-2 6-10 6-31 1-22-5-34l-1-4q2-1 4 2l-1-5v-5q1-2 5 2"/><path fill="#0d131a" d="M19 180l2-4 1-1 1 1 3 6 1-3 2-5 1-1 1 2 2 3 1 2 2-3 3-3 2 3 2 4 1-3 2-2 1 2-1 2-2 3-2 1-2-4-1-3-2 2-2 4h-1v-1l-4-5-2 3-2 4h-1l-3-5q-1-1-3 3 0 1 0 0v-2"/><path fill="#0d131a" d="M14 177q0-6 2-5t3 6q2 11 7 22 4 11 13 25 6 3 8 8 1 5-3 7h-4q-3-2-4-7-9-12-14-25-6-15-8-31"/><path fill="#00b8ee" d="M16 177v-3l1 3q5 26 22 50l4 3 2 4v3q-1 2-3 1l-2-1-3-5q-9-13-14-26t-7-29"/><path fill="#0d131a" d="M208 100q4 0 0 0l-7 2q-19 4-32 15-12 12-17 30-4 16 0 32 5 20 21 33l3 3q0 2-5-2-14-10-20-29-6-18-2-37t20-33q17-15 39-14"/><path fill="#0d131a" d="M139 183q4-10 10-15 1-2 1 0l-1 4q-5 5-8 14l-3 19q-1 14 1 25 2 12 7 17 10 11 30 9 14-1 38-10l5-1q3 0-1 2-19 10-41 12-24 1-33-9-5-6-8-19-2-12-2-26 1-12 5-22"/><path fill="#0d131a" d="M140 243q2 0 3 4l3 13q2 6 5 9 7 10 21 18 17 8 34 6 20-2 34-12 13-9 11-21-1-3 1-5 1-2 2 7 1 16-20 26-13 6-27 7-22 3-41-8-13-7-18-15l-5-10-3-13v-6"/><path fill="#0d131a" d="M152 275h1l2 3q1 12 6 23 4 10 11 18 6 9 19 15 17 7 34 5t27-11q8-8 11-20 2-11-1-22t-10-18v-3l1-1q7 7 11 19t2 25q-3 14-12 22-11 11-31 12-15 1-29-4-15-5-24-16-7-9-12-21-5-14-6-26"/><path fill="#0d131a" d="M166 333q1-8 4-14l1 1 1 2q-3 4-3 11-1 8 1 16 6 16 18 26 10 9 25 12 13 2 26-1 12-3 19-10 9-10 10-27 1-15-6-29v-2l1-1q9 16 7 34-1 16-10 26-7 9-21 12-13 3-27 0-16-3-27-13-13-10-17-27-3-8-2-16"/><path fill="#0d131a" d="M154 377q1-7 5-14t10-11h2l-1 2q-5 4-9 11t-4 13q-1 16 5 29 8 13 23 20 10 4 22 3 12 0 23-6 12-6 19-16 8-12 8-29l1-2h1q0 18-7 31-7 12-19 18-11 6-25 7-13 0-26-5t-21-18q-9-14-7-33"/><path fill="#0d131a" d="M155 377q-7 1-16 6-11 7-16 18-5 14 0 30 6 18 23 28 7 4 18 4t23-3q12-4 21-12 11-8 16-18 0-2 2-3 2-2 1 2-4 11-13 19t-21 13q-12 5-24 5-13 1-23-4-7-3-13-9t-10-15q-10-19-2-39 8-19 34-25l1 2-1 1"/><path fill="#0d131a" d="M129 388q2 1 0 2h-3q-9-2-18 1-9 2-17 9-7 7-10 16t-1 19q5 22 29 29 10 3 21 2 11 0 19-4h3l1 1q-8 4-19 5-12 2-23-1-12-3-21-10-9-8-13-20-2-9 1-20 3-10 10-17 7-9 17-12 12-3 24 0"/><path fill="#0d131a" d="M104 389q-7-6-17-7t-18 3q-14 6-19 21-3 13 2 27 4 9 17 16 12 7 23 8l3 1q1 1-1 1-12 0-24-6-13-7-19-18-4-6-5-13-1-8 1-16 5-17 21-23 10-4 21-3 10 2 18 8l-1 1h-2"/><path fill="#0d131a" d="M40 362q11-6 22-2 9 2 15 10 5 5 7 11v1l-2-1q-3-8-10-13-6-5-12-7-9-2-19 3-9 5-14 14-7 13-1 29 7 15 24 24l2 1q0 2-1 1-17-6-25-21-10-16-2-34 4-11 16-16"/><path fill="#0d131a" d="M27 334q15-4 26 6l7 10q2 5 2 11h-1l-1-1q0-11-10-19t-22-5q-7 2-12 7-8 7-9 18 0 7 4 18 5 11 10 17l1 2v1q-8-6-13-18-5-11-5-20t6-16q6-8 17-11"/><path fill="#0d131a" d="M47 338q2-8 0-16-1-8-5-12-6-8-16-7-10 0-17 10-5 7-6 18-1 12 3 24v3l-1 1q-6-12-5-27 1-14 8-21 10-12 22-10 9 1 15 8 4 5 5 14 2 9-1 16h-1l-1-1M153 188h1v1q-4 6-4 21-1 14 3 21 3 5 7 6l3-1q2-1 2-3v-13q0-8 2-10l2-1v2q-2 1-3 9v13l-1 5-4 1q-6-1-10-8-3-7-3-22 0-17 5-21M171 147q2-12 9-23 7-12 18-19 13-9 27-11 11 0 22 4l10 3 13 3q7 1 13-1l5-2q4 1 7 9 3 9 1 16v10l1 16q-1 12-5 23-10 30-40 37-21 5-44-2l-16-5-10-4-9-2h-4q-4-1-9-7t-3-9l4-4 6-10 3-10 1-12"/><path fill="#00b8ee" d="M174 148q2-11 8-21 6-11 15-17l14-9q9-4 17-4 7 0 18 3l17 5 13 2 10-3q3-1 7 7 3 9 0 14-4 9-2 14 2 4 1 12 0 10-4 19-9 25-35 35-25 11-64-5l-9-3q-5-2-10-1-2 0-7-5-5-6-3-7 8-6 11-19l2-9 1-8"/><path fill="#0d131a" d="M194 252h2l-2 2q-6 2-10 7t-4 10q0 6 3 12 4 6 11 10 2 1 1 2h-1q-9-5-13-12t-3-14q1-6 6-11 4-5 10-6"/><path fill="#0d131a" d="M193 295l1-1 1 1q-9 15-6 26 4 13 18 19 2 0 1 1h-2q-20-8-19-26 0-7 2-13t4-7"/><path fill="#0d131a" d="M204 340v1q-6 6-6 20-1 13 4 22l2 3q-1 1-3-2-6-6-5-22 0-16 6-22h2"/><path fill="#0d131a" d="M204 387q-7 1-12 5t-8 10q-4 6-4 12-1 7 2 12l-1 1-2-3q-2-4-2-10l4-12q6-14 20-16h5q2 1-2 1"/><path fill="#0d131a" d="M179 426l3 1h-2l-12-1q-8 0-16 3-20 6-22 18 0 1 0 0l-1-2q0-5 6-10 5-4 14-7l16-4q9 0 14 2"/><path fill="#0d131a" d="M91 444l13-3q18-3 25 4l1 2-3-1q-8-5-23-3t-18 7h-1v-1q0-3 6-5"/><path fill="#0d131a" d="M86 450v2l-2-2q-5-8-16-12t-14 0l-1 1v-2q0-3 4-3 4-1 9 1 13 5 20 15M177 291l1-1 1 2q-3 6-1 15l2 12q1 1-1 1h-4q-7-4-10-14t-1-19l1-1v1q-3 10 2 22l5 8q4 3 6 2l1-3-2-6q-2-10 0-19M188 334l1-1v2q-3 4-3 14l-1 12-3 1-5-3q-4-8-4-19 0-8 2-14h1l1 1q-4 6-2 20t8 14l1-3v-6q1-12 4-18M174 360l-1 2q-8 7-10 19v8l2 4q2 1 8-5l12-12h3l-2 1-9 8-8 9q-2 2-4 1-3-2-4-6-1-11 5-21l7-8h1M138 395q8-5 16-7l2 1-2 1q-9 1-18 9-4 3-5 6-2 3-1 5 2 4 15 2 11-1 16-3h3l-2 2-13 3q-11 1-18-1l-3-3v-4q3-5 10-11M120 403q-7-2-18 3-12 5-12 10 0 4 9 6l20 2 2 1-2 1-13-2q-11-1-14-3-4-2-3-6 1-3 4-5 6-5 15-7l13-2q2 1 1 2h-2M82 409l-12-4q-9-1-10 2t5 9q5 5 12 8l1 1-1 1q-6-3-11-8-5-4-7-9l1-4 4-1h7q7 1 11 4l1 1h-1M35 383l7 4q6 4 10 9l1 1h-2l-11-10q-6-4-8-2-3 2 2 12t13 15l1 1-2 1q-7-6-12-14-4-7-4-12l1-4 4-1M13 369q3 12 9 18v1l-1 1q-4-5-7-14-4-10-3-16l1-2h2q4 2 9 9l4 8v2q0 1 0 0-9-18-14-18-3 0 0 11M15 340l-2-13q-1-7-3-6-3 0-4 10-1 11 2 19l-1 2v-1q-3-6-2-19 1-12 6-13 2 0 4 9l2 11-1 3-1-2M28 245q2 2 2 8-1 7-6 16l-1 1v-1q3-4 4-12 3-8 0-9v-2l1-1"/><path fill="#eeeeef" d="M210 43q7 8 11 43l1 25v15l-3 5q-1 2-2 1-4-6-15-13-10-7-14-6-5-14-15-32l-13-21v-2l2-1 9 4 5 4q1-1-2-19l-4-25-6-18q0-2 3-2l5 1q13 13 24 39l6 17 3 7q2 1 1-11V42h2l2 1"/><path fill="#0d131a" d="M211 41q4 6 7 20t4 29v27q-1 13-6 17l-1-2q-4-7-14-13-9-5-13-4l-3-6-4-11-14-25-8-13q-1-1 1-3t5 0l5 3 5 3q2 1 1 3h-1l-6-5-7-3h-1v1l8 13q8 12 13 23l3 6 5 10q9 2 19 11l8 8q4-13 2-44-3-32-9-43l-2-1-1 1v27l-2 3q-1 1-2-1v-1h1l1-3V42q0-2 2-2l4 1"/><path fill="#0d131a" d="M172 3l-4-1-3 1 1 1 1 3q4 10 8 33t2 28l-1 1h-3l-1-1 2-1 1-2-4-33q-4-19-7-26l-1-3V1l5-1 5 1q9 7 22 35 10 23 11 29v5q-1 2-1 0l-12-32q-11-25-21-35"/><path fill="#00b8ee" d="M427 87q-22 9-55 40-15 13-25 25-11 12-14 19-1 2-4 2-3 1-6-1l-4-4q-1-3 1-5 9-18 52-52l31-22q15-10 19-11h5l1 2 1 4q0 2-2 3"/><path fill="#eeeeef" d="M330 173q9-17 48-50l27-23q12-9 15-9-3 4-5 11l-1 14 2 15 6 12q2 2 1 6 0 3-3 5l-7 3-9 4q-10 5-13 13l-2 11q-1 6 4 9 3 2 4 5 2 3 1 6l-3 4q-3 2-6 1-11-2-27-1-21 3-28 12-6 9-10 0-3-8-2-17 0-7 3-16l5-15"/><path fill="#c8c9ca" d="M373 127q15-14 29-24 13-11 18-13-3 6-5 16l-1 13q-15 1-49 28l-25 22-13 16 2-4 3-9q4-11 41-45M388 184q-14 0-33 12l-13 10-6 7-1 1-1-1v-7q7-16 28-28 17-11 39-17h2l-1 2q-8 5-11 10l-2 8v2l-1 1"/><path fill="#0d131a" d="M428 88q-15 4-52 38l-27 27q-13 13-16 20-1 2-2 1v-4q8-15 45-47 15-14 29-24t22-13l1-2v-3q-2-4-6-2l-20 13-32 23q-41 32-45 43-1 3-3 2t-1-3q6-11 42-39 35-29 57-40 4-2 6-1 3 0 4 3v5q0 2-2 3"/><path fill="#0d131a" d="M423 89q-9 11-8 28 0 15 7 23l2 5v4l-1 4-3 3-11 5q-10 4-13 7-7 8-6 16 0 7 4 9 4 3 5 6v7q-1 3-4 4-3 2-7 1-16-3-33 0-14 3-18 9l-5 3q-2 0 3-5 6-8 28-10 16-1 26 1 6 1 7-5 2-5-3-9-6-4-6-13 0-8 6-14 5-6 14-9l12-6q2-2 2-5 1-3-1-5-8-10-8-29l3-15q2-7 6-9l2-2v1"/><path fill="#00b8ee" d="M82 268l18-8q18-9 38-16 58-22 75-19 17 4 14 11-1 3-5 5t-7 1q-35-2-75 12-24 9-49 23-3 2-7-2-4-3-2-7"/><path fill="#eeeeef" d="M103 275l-6-1q-1-1 2-3l23-11 33-11q43-12 60-8l29 11q22 9 13 9-9 1-24 18-13 16-15 27l-4 3h-6q-3 0-5-3-2-2-3-7l-6-6-11-3q-6-1-14 4-8 4-12 9-2 4-7 4-5-1-9-7-5-9-14-16-12-10-24-9"/><path fill="#c8c9ca" d="M121 281l-3-2q-4-3-9-4l-8-1q-2 0-2-2l2-2q25-12 57-22 38-11 53-7l14 4q9 3 5 3-24 0-60 11-35 12-46 22h-3"/><path fill="#0d131a" d="M368 176q-19 10-29 22l-2 2 1-3q7-13 29-24 20-10 41-14 4-1 1 1l-4 2q-21 5-37 14"/><path fill="#c8c9ca" d="M146 305q2-13 16-23 11-10 29-17 16-7 33-10 16-3 25-2-17 2-45 17-27 14-33 23l-5 2-4 3-7 7q-6 4-9 0"/><path fill="#0d131a" d="M87 276h3q6-5 22-13l35-13q46-14 63-10 7 1 8 3h-2q-19-7-70 10-19 7-35 15-16 7-20 11h-5q-3-1-5-4t-1-6l5-4 17-8q17-8 35-14 51-19 72-18 3 0 3 2t-3 1q-15-3-65 15l-37 14q-17 7-22 11-4 2 0 6l2 2"/><path fill="#0d131a" d="M120 281q-14-8-28-5v-1l2-2h12q7 1 14 5 17 9 23 22 1 3 5 4h5l5-3 5-4q7-6 15-7 8-2 15 2 8 4 9 10 1 3 6 5 6 2 7-1 7-14 15-24 13-19 24-20h5l-1 1-2 1q-8-2-22 17-8 11-15 25-4 6-12 4l-5-3-2-4q-1-5-6-8-7-4-18-3-6 1-11 5l-10 10q-3 2-7 0-5-1-8-6-7-13-20-20"/><path fill="#0d131a" d="M153 293q-2 3-3 2t1-3q12-19 42-30 25-9 48-10 9 0 6 1-3 2-7 1l-14 2q-13 2-25 6-35 11-48 31M261 267q4-1 7 3 2 4-2 5-3 1-6 5-3 5-4 11-1 15 14 25 19 14 30 32 10 17 12 34 1 16-5 30-5 13-16 20-17 10-29 5-9-4-12-15-1-7 1-8t4 4q3 9 10 11 8 3 19-4 9-6 14-18 4-12 2-26-2-16-11-30-10-15-27-26-10-6-14-16-4-9-3-19 0-9 5-16 4-7 11-7"/><path fill="#00b8ee" d="M262 267q3-1 5 2 1 2-1 3-6 2-9 8-3 5-3 12-1 7 2 13 3 7 9 11 38 26 43 61 3 14-1 27-4 12-11 20-14 14-28 12-7-1-11-5-4-5-5-12v-2l2 4q4 13 17 12t22-14q6-6 8-16 4-11 2-24-5-33-42-59-7-5-11-13-3-8-3-17 1-8 5-15 4-6 10-8"/><path fill="#0d131a" d="M439 240q13 5 22 15 14 16 9 32-2 6-7 12l-10 7q-8 3-17 3-12 0-23-5-29-12-41-54-5-16-15-20-11-4-21 6-3 2-6-2t-1-7q6-6 14-8 8-3 16-1t15 9q7 7 10 19 10 39 33 49 13 5 27 1 12-4 15-13 5-11-7-25-7-9-19-13-13-4-21-1-5 2-6-1t4-4q14-5 29 1"/><path fill="#00b8ee" d="M443 243q10 6 16 12 14 17 8 32-5 11-15 16-8 4-18 4-11 0-22-5-27-14-37-54-5-16-17-20-12-5-23 4-2 2-4-1-1-2 1-4 6-5 14-6 8-2 15 1t12 9q6 6 8 14 10 41 34 52 14 6 29 1 16-4 18-17 2-12-7-24-7-8-18-13-13-5-23-2h-5q-1-1 4-2 14-4 30 3"/><path fill="#0d131a" d="M353 126l-16 23q-8 14-5 21l5 10 4 1h6q2 1 3 6 2 5 1 6l-5 10-6 10q-5 14 0 33l-62 41q-4-8-11-14-10-9-24-13-6-2-16 0l-11 3q-2 0-7-5l-4-6 4-3 5-4-3-7q-6-8-13-9t-27 3l-3-2q-3-1-5-4-5-7-1-9 10-6 19-14t11-13q2-4 2-13v-16q-1-17 6-28 6-9 21-19 13-8 30-9 19 0 34 11l10 8q5 4 9 5 6 0 22-7l19-9h3q3 1 5 6t0 7"/><path fill="#00b8ee" d="M351 124l-13 18q-10 16-10 21l2 10 3 9 4 1h8l3 4v5q-10 14-13 26-3 13 1 31l-62 30q-5-7-11-12l-12-8-13-4-13 2-9 3-4-4-4-4 4-3 4-4-1-4-3-6-3-4q-6-5-15-5l-22 3-2-1q-3-1-5-5t0-5q7-3 17-12l12-13 2-5v-8-15l1-11q0-13 9-23 7-8 21-16 11-6 26-7 16 0 25 7l13 11q7 5 14 6 6 0 23-8l18-8 3 1 2 4v3"/><path fill="#00a0cf" d="M274 279q-5-7-11-12l-12-8-13-4q-6-1-21 5 11-11 29-8 19 2 41 21l-13 6M335 219q-3 12 1 30l-13 6q0-19 7-37 7-15 17-24-9 13-12 25"/><path fill="#0d131a" d="M280 151q3-7 6-4 8 7 9 19 0 10-5 15-4 3-10 3l-9-2q-3-1-1-7l5-13 5-11M208 187l8 1 11 2 10 4q7 2 6 4l-4 10q-4 7-10 5-8-2-14-12-6-8-7-14M372 296q2 4 0 9-1 6-5 10-5 5-25 15t-28 12q-7 1-11-2l-6-7-12-24-14-27-15-22q-10-13-18-20-5-4-6-10 0-5 2-9l5-5q4-2 11-2 6 0 12-4l9-4 10-7q4-2 7-7l5-7q5-4 10-3 6 1 9 7l25 46q3 7 18 30 13 21 17 31"/><path fill="#f0e78e" d="M368 295q2 4 1 9-1 6-5 10-5 4-24 13-19 10-25 11-6 2-10 0-3-1-6-6l-12-24-14-28-17-23q-10-14-14-17-5-4-7-10-1-5 1-8t7-4l8-1 9-3 9-4 7-4 8-6q4-3 6-7l5-6q4-4 9-2t8 9l11 20 12 23 17 29q13 21 16 29"/><path fill="#0d131a" d="M350 271q11 20 14 29v4l-1 3q-3 4-24 16-21 11-28 12h-4l-3-3-13-25-12-24q-2-5-19-26l-17-23q-2-4 1-7 3-4 7-3l11-2 8-4 10-6 8-6 5-6q4-4 7-4 4 0 7 4l3 5 16 25 11 18 13 23"/><path fill="#fff" d="M212 190h6l9 2 8 3q5 2 5 4l-3 8q-3 6-8 4-5-1-11-10-5-7-6-11"/><path fill="#0d131a" d="M234 195l7 3-1 6-2 5q-5-3-7-7-3-4-3-9l6 2"/><path fill="#fff" d="M280 154q3-5 5-3 7 6 7 15 1 10-4 13-3 3-7 2l-8-2q-2 0-1-5l4-11 4-9"/><path fill="#0d131a" d="M272 179v-4l2-6q3-5 4-4l5 8q3 5 3 8t-14-2"/><path fill="#e4006e" d="M236 196l6 2-2 5-2 4q-4-2-6-5t-1-8l5 2M279 182q-5 0-7-2v-3l2-6 3-3 5 6 2 7-5 1"/><path fill="#0d131a" d="M237 197l1 1 1 2v1h-1l-2-2v-3l1 1M277 176l1 2v2l-1-1-2-2-1-2 1-2 1 1 1 2"/><path fill="#922f00" d="M317 221l11 20q-8-4-17-1-8 3-12 10-9 1-15 6-9 6-7 17l-29-38q-4-5-1-7t9-2q7 0 19-7t15-13q3-5 9-7 5-1 7 4l11 18"/><path fill="#ed8599" d="M346 272q13 22 13 29 0 3-5 7l-18 12-15 8q-7 3-10 2-8-2-19-27l-7-17-4-12q-1-8 2-12t8-6q5-3 10-3 2-4 8-8l9-3q5-1 9 2 4 2 6 5l13 23"/><path fill="#0d131a" d="M318 325q1 6-4 8-5 1-9-2-3-3-5-10-3-7-1-8 3-2 11 3 7 6 8 9M348 287q2-1 8 4 5 5 7 11 1 5-6 8l-4 2-4-1q-2-2-3-12 0-11 2-12"/><path fill="#fff" d="M314 325q0 4-3 5-3 2-6-1l-4-7q-1-6 1-7 1-1 7 4 5 4 5 6M350 290l5 4q4 4 4 7 0 4-4 6h-5l-1-9q-1-8 1-8"/><path fill="#0d131a" d="M15 277l1-1v2q2 5 2 15t-2 12h-1l1-11q1-11-1-16v-1"/><path fill="#eeeeef" d="M49 281l-4 13 1-1h2l1 3-2 6-7 13h4v4l-3 6q-5 9-9 8-3-1-4-10l2-17q1-7 7-16l8-11 2 1 2 1"/><path fill="#0d131a" d="M46 293q1-2 3 1v5l-7 15q-1 3-2 2h-1v-1l9-17v-3l-2-1-6 7-4 5q-1-1 3-6l7-7"/><path fill="#0d131a" d="M36 290l3-5 6-7h3q2 2 1 4l-3 12-1 2-2 1v-1l1-2 4-12-1-2h-1l-4 4-4 6-5 11-4 11 1 13 2 7q3 0 6-4 4-3 5-7l1-3-1-2h-1l-2 1q-5 3-6 2l5-4q4-3 6-1l1 2-1 5-5 9q-4 5-8 4l-2-1q-2-2-2-8v-14q1-9 8-21"/><path fill="#eeeeef" d="M77 306l2 2q1 7-3 26l-4 17 2-4 4-5 1 1 2 3-5 18q-5 14-12 20l-2-3-6-10-7-8-2-3q2-3 4-13l3-17 1-2 2 1 2 9v-10l1-18 2-2h1l3 9 2 5 7-16h2"/><path fill="#0d131a" d="M61 307h3l2 6 3 6v2h-2l-4-12h-2v18q-1 10-3 13l-1 1v-2l2-12v-17q0-2 2-3"/><path fill="#0d131a" d="M78 309l-1-2h-1l-5 9-3 7-2 1 1-2 3-8 4-8q1-2 4-1 2 1 2 3 0 10-2 19l-3 19-2 4-2 3 5-21 2-23"/><path fill="#0d131a" d="M56 330h-1v1l-2 13-4 17 9 10q5 7 6 11 6-5 11-19l4-18-1-1-1-1-5 10-2 2 1-3 4-8 2-3 2 1q2 1 2 3 0 6-4 20-5 15-11 20l-2 1-1-1-3-6-5-7-5-6-4-4v-3l5-16 2-14 2-2h2l2 9v2l-1 1-2-9M288 230l3-3q3-5 9-7 6-1 10 1 4 3 7 8t3 10q-6-1-12 3-6 3-9 8l-11 3q-7 4-10 9l-6-7-3-9q-1-7 4-11 4-3 10-3 3 0 5-2"/><path fill="#6a1a00" d="M310 224l6 6 3 9q-6 0-12 3-5 3-8 8l-11 3q-6 3-9 8l-4-7q-3-4-3-7-1-6 4-10 3-3 9-3l4-2 3-3q2-5 8-6t10 1"/><path fill="#0d131a" d="M245 233q-1-4 4-7t8-1q4 2 6 10 3 9 2 11-4 3-11-2-8-5-9-11"/><path fill="#fff" d="M247 233q-1-4 3-6 3-2 6 0 2 1 5 8 3 8 2 9-3 3-9-3-6-5-7-8"/><path fill="#0d131a" d="M291 204q1-4 6-6 6-2 8 1 4 3 4 12 1 10-3 11-2 1-9-5-7-7-6-13"/><path fill="#fff" d="M293 205q1-5 5-6 4 0 6 2 3 2 3 10 1 8-1 9t-8-6l-5-9"/><path fill="#00b8ee" d="M177 189l17-16q0 13-2 17l-8 10-15 12-3-4-3-4-1-1 2-3q3-1 13-11M334 108l3 9-17 8q-11 4-16 4l-6-2-6-5 24-8 18-6"/><path fill="#0d131a" d="M195 171v4q-5 6-19 17l-13 11 3 3q3 4 6 5v1l-1 1-7-5-3-5 14-13q15-12 20-19M335 106l2 3 1 9-1 1-1 1-2-8-1-3-15 6-28 8v-2l27-9 18-6"/><path fill="#00568a" d="M312 76q3-3 7 0 3 3 1 7l-10 19-17 31q-23 43-23 53-4 11-8 15-3 2-7 1l-48-12-39-9q-20-4-23-6-2-2-2-5 0-4 3-4l37-1q35-3 42-6l1-2-2-5-20-45-21-44q-1-2 3-4 3-2 4 0l29 37q25 33 31 38l5 5 3 2 4-1 4-4 23-31 23-29"/><path fill="#00426f" d="M319 85q-6 14-26 51l-20 35-2 10q-2 10-5 16-2 4-7 5h-7q-10-4-53-14-44-9-51-12l-4-3v-2l45 8 46 8 11 3q7 3 10 1 4-3 6-11v-6l1-4 34-59q21-33 23-33l1 1-2 6"/><path fill="#00426f" d="M195 67l1-1 1 2q1 3 27 35 27 32 35 38v1l-4 1q-5-1-8-4l-28-37-24-35"/><path fill="#0d131a" d="M308 79l5-5h5q3 1 4 5l-1 6-22 42-23 44-6 16q-4 14-7 15-5 3-19-1l-16-5-38-9-41-8q-4-1-6-4l-1-7q0-3 5-3l11-1q17 1 39-1l29-4q1-1 1 1l-1 1q-12 3-31 5l-38 1h-8q-4 0-4 2l1 4q1 2 7 3l31 7 46 10 17 5q10 3 14 1t7-13l5-16 27-52 19-34v-4q0-3-2-4t-4 1l-4 5-14 19-24 32q-5 6-10 9t-10 0l-1-2q-1-2 1 0 5 3 12-3l7-8 38-50"/><path fill="#0d131a" d="M189 60q-1-2-3 0l-2 3 22 45q21 44 22 49v12l2 9q1 3 10 9l10 8 1 1h-2l-11-6q-9-6-10-10-2-3-2-10l-1-12q-1-8-19-46l-23-48q-2-4 2-6 3-2 6 0l34 44q25 31 35 39l-1 1h-1q-10-6-40-44l-29-38"/><path fill="#00b8ee" d="M279 185l10 1 1 2h-1q-3-1-7 4l-5 6-5 3-8 4-14 4q-10 2-10 5l-1 1-1-2 3-8 3-4h10q6 2 8 0 3-2 6-8 2-6 4-7l7-1"/><path fill="#0d131a" d="M269 193q-3 7-7 8-3 2-10 1l-7-1q-3 2-5 8l-1 8-1 2v-1q-1-4 1-11 2-6 5-7h18l5-8 4-7q2-2 11-1l11 2v2h-2l-9-2h-10l-3 7"/><path fill="#0d131a" d="M253 205l-3 1-2 2h-1v-3l3-1h3l1 1h-1M273 194l-1 2h-1v-3q1-3 3-3h2v1l-1 1-2 2M227 216l2 1h-2q-4 0-7-2l-5-5v-1l1 1 5 4 6 2M299 165q1 5-2 12l-1 1v-2l2-6-1-5 1-1 1 1"/></svg>